<svg xmlns="http://www.w3.org/2000/svg" xmlns:xlink="http://www.w3.org/1999/xlink" id="Layer_1" x="0" y="0" version="1.1" viewBox="0 0 155.6 59.2" xml:space="preserve" style="enable-background:new 0 0 155.6 59.2"><style type="text/css">.st0{fill:#fff}</style><g><path d="M33.8,3v3.3h-5.3v2.7h5.1V12h-5.1v5.6h-3.8V3H33.8z" class="st0"/><path d="M35.2,10.3c0-2.1,0.7-3.9,2.2-5.5s3.3-2.3,5.6-2.3c2.3,0,4.2,0.8,5.6,2.3c1.4,1.5,2.1,3.3,2.1,5.5 c0,2.1-0.7,4-2.2,5.5c-1.5,1.5-3.3,2.3-5.5,2.3c-1.3,0-2.4-0.2-3.4-0.7c-1-0.5-1.8-1.1-2.4-1.8c-0.6-0.8-1.1-1.6-1.4-2.5 C35.3,12.1,35.2,11.2,35.2,10.3z M40.2,7.2C39.4,8,39.1,9,39.1,10.3s0.4,2.2,1.1,3.1c0.7,0.8,1.6,1.2,2.7,1.2c1.1,0,2-0.4,2.7-1.2 c0.7-0.8,1.1-1.9,1.1-3.1s-0.3-2.2-1-3.1c-0.7-0.8-1.6-1.2-2.8-1.2C41.8,5.9,40.9,6.3,40.2,7.2z" class="st0"/><path d="M58.1,18c-1.8,0-3.2-0.5-4.2-1.5c-1-1-1.5-2.6-1.5-4.7V3h3.8v9c0,1.9,0.6,2.8,1.9,2.8c1.3,0,1.9-0.9,1.9-2.8V3 h3.8v8.8c0,2.1-0.5,3.7-1.5,4.7C61.3,17.5,59.9,18,58.1,18z" class="st0"/><path d="M69.5,8.6L69.5,8.6c0,1.7,0,2.5,0,2.6v6.3h-3.2V3h3.2l3.6,5.8c0.3,0.5,0.6,1,0.9,1.4s0.4,0.8,0.6,1.1 c0.2,0.3,0.3,0.6,0.4,0.7H75C75,10.8,75,10,75,9.7V3h3.2v14.6H75l-3.1-4.9c-0.6-1-1.1-1.8-1.6-2.7C69.8,9.1,69.6,8.7,69.5,8.6z" class="st0"/><path d="M80.9,3h5.1C88.6,3,90.6,3.7,92,5c1.4,1.4,2.1,3.1,2.1,5.2c0,2.1-0.7,3.8-2.2,5.2c-1.5,1.4-3.4,2.1-5.9,2.1 h-5.1V3z M84.8,14.2h1.1c1.5,0,2.5-0.4,3.3-1.1c0.7-0.7,1.1-1.7,1.1-2.8c0-1.2-0.4-2.2-1.1-2.9c-0.7-0.7-1.8-1.1-3.3-1.1h-1.1V14.2 z" class="st0"/><path d="M105.3,3v3.3H100v2.3h5.1v3.1H100v2.7h5.5v3.3h-9.4V3H105.3z" class="st0"/><path d="M115.9,11.4l4.4,6.1h-4.4l-3.7-5.5h-0.4v5.5H108V3h4.7c3.9,0,5.9,1.5,5.9,4.5c0,1-0.2,1.8-0.7,2.5 C117.4,10.7,116.7,11.2,115.9,11.4z M114.7,7.7c0-0.6-0.2-1-0.5-1.3c-0.3-0.3-0.8-0.5-1.4-0.5h-1v3.5h1.1c0.5,0,1-0.1,1.3-0.4 C114.6,8.7,114.7,8.3,114.7,7.7z" class="st0"/><path d="M130.8,7.3h-3.5c0-0.5-0.1-0.9-0.4-1.2c-0.3-0.3-0.6-0.5-1.1-0.5c-0.3,0-0.6,0.1-0.9,0.3 c-0.2,0.2-0.3,0.5-0.3,0.8c0,0.4,0.2,0.7,0.6,1s1,0.5,1.8,0.8c2.6,0.9,4,2.5,4,4.9c0,1.2-0.4,2.3-1.3,3.2c-0.9,0.9-2.2,1.4-3.9,1.4 c-1.6,0-2.9-0.5-3.8-1.4c-0.9-0.9-1.4-2.2-1.4-3.8h3.7c0,1.4,0.5,2.1,1.6,2.1c0.4,0,0.8-0.1,1-0.4c0.3-0.2,0.4-0.6,0.4-1 c0-0.5-0.2-0.9-0.5-1.1c-0.3-0.3-1-0.6-1.8-0.9c-2.6-0.9-4-2.5-4-4.8c0-1.3,0.5-2.4,1.4-3.1c0.9-0.8,2.1-1.2,3.5-1.2 c1.5,0,2.7,0.4,3.6,1.3C130.3,4.6,130.8,5.8,130.8,7.3z" class="st0"/><path d="M33.8,21.5v3.3h-5.3v2.7h5.1v3.1h-5.1v5.6h-3.8V21.5H33.8z" class="st0"/><path d="M33.7,36.1l5.5-14.6h3.6L48,36.1h-3.8l-0.9-2.9h-4.7l-0.9,2.9H33.7z M40.3,27.5l-1,3.1h3.1l-1-3.1 c-0.2-0.5-0.3-1-0.5-1.8h-0.1C40.6,26.6,40.4,27.2,40.3,27.5z" class="st0"/><path d="M55.9,21.1c1.9,0,3.6,0.6,4.9,1.7c1.3,1.1,2.1,2.5,2.3,3.9H59c-0.1-0.7-0.4-1.2-1-1.7 c-0.6-0.5-1.2-0.7-2.1-0.7c-1.2,0-2.1,0.4-2.7,1.3c-0.6,0.9-1,1.9-1,3.2c0,1.2,0.3,2.3,1,3.2c0.7,0.9,1.6,1.3,2.7,1.3 c0.9,0,1.6-0.3,2.1-0.8c0.5-0.5,0.9-1.2,1-1.9h4.2c-0.4,1.7-1.2,3.1-2.5,4.2c-1.3,1.1-2.9,1.7-5,1.7c-2.2,0-4-0.7-5.4-2.2 c-1.4-1.5-2.1-3.3-2.1-5.6c0-2.2,0.7-4.1,2.1-5.5C51.9,21.8,53.7,21.1,55.9,21.1z" class="st0"/><path d="M67,36.1V24.8h-3.3v-3.3h10.4v3.3h-3.3v11.3H67z" class="st0"/><path d="M74.6,28.8c0-2.1,0.7-3.9,2.2-5.5c1.5-1.5,3.3-2.3,5.6-2.3c2.3,0,4.2,0.8,5.6,2.3c1.4,1.5,2.1,3.3,2.1,5.5 c0,2.1-0.7,4-2.2,5.5c-1.5,1.5-3.3,2.3-5.5,2.3c-1.3,0-2.4-0.2-3.4-0.7c-1-0.5-1.8-1.1-2.4-1.8c-0.6-0.8-1.1-1.6-1.4-2.5 C74.8,30.7,74.6,29.7,74.6,28.8z M79.6,25.7c-0.7,0.8-1.1,1.9-1.1,3.1s0.4,2.2,1.1,3.1c0.7,0.8,1.6,1.2,2.7,1.2 c1.1,0,2-0.4,2.7-1.2c0.7-0.8,1.1-1.9,1.1-3.1s-0.3-2.2-1-3.1c-0.7-0.8-1.6-1.2-2.8-1.2C81.3,24.5,80.3,24.9,79.6,25.7z" class="st0"/><path d="M99.9,30l4.4,6.1h-4.4l-3.7-5.5h-0.4v5.5H92V21.5h4.7c3.9,0,5.9,1.5,5.9,4.5c0,1-0.2,1.8-0.7,2.5 C101.4,29.3,100.8,29.7,99.9,30z M98.8,26.3c0-0.6-0.2-1-0.5-1.3c-0.3-0.3-0.8-0.5-1.4-0.5h-1V28h1.1c0.5,0,1-0.1,1.3-0.4 C98.6,27.2,98.8,26.8,98.8,26.3z" class="st0"/><path d="M108.1,36.1v-5.7l-4.8-8.8h4.1l1.9,3.7c0.3,0.6,0.6,1.3,0.8,1.9h0c0.2-0.6,0.4-1.2,0.8-1.9l1.8-3.8h4l-4.8,8.8 v5.7H108.1z" class="st0"/><circle cx="120.4" cy="33" r="3.1" class="st0"/><g><path d="M95.1,44.3H95c-0.2,0.9-0.4,1.5-0.5,1.8l-1,3.1h3.1l-1-3.1C95.4,45.6,95.3,45,95.1,44.3z" class="st0"/><path d="M58.6,43.1h-1v3.5h1.1c0.5,0,1-0.1,1.3-0.4c0.3-0.3,0.5-0.7,0.5-1.3c0-0.6-0.2-1-0.5-1.3 C59.7,43.2,59.2,43.1,58.6,43.1z" class="st0"/><path d="M34.3,44.3h-0.1c-0.2,0.9-0.4,1.5-0.5,1.8l-1,3.1h3.1l-1-3.1C34.6,45.6,34.4,45,34.3,44.3z" class="st0"/><path d="M24.7,38.1v18.6h80.4V38.1H24.7z M37.5,54.7l-0.9-2.9h-4.7l-0.9,2.9h-3.8l5.5-14.6h3.6l5.1,14.6H37.5z M51.6,43.4h-5.3v2.7h5.1v3.1h-5.1v5.6h-3.8V40.1h9.2V43.4z M61.7,54.7L58,49.2h-0.4v5.5h-3.8V40.1h4.7c3.9,0,5.9,1.5,5.9,4.5 c0,1-0.2,1.8-0.7,2.5c-0.5,0.7-1.2,1.1-2,1.4l4.4,6.1H61.7z M70.7,54.7h-3.8V40.1h3.8V54.7z M85.2,53.5c-1.3,1.1-2.9,1.7-5,1.7 c-2.2,0-4-0.7-5.4-2.2c-1.4-1.5-2.1-3.3-2.1-5.6c0-2.2,0.7-4.1,2.1-5.5c1.4-1.5,3.2-2.2,5.4-2.2c1.9,0,3.6,0.6,4.9,1.7 c1.3,1.1,2.1,2.5,2.3,3.9h-4.1c-0.1-0.7-0.4-1.2-1-1.7c-0.6-0.5-1.2-0.7-2.1-0.7c-1.2,0-2.1,0.4-2.7,1.3c-0.6,0.9-1,1.9-1,3.2 c0,1.2,0.3,2.3,1,3.2c0.7,0.9,1.6,1.3,2.7,1.3c0.9,0,1.6-0.3,2.1-0.8c0.5-0.5,0.9-1.2,1-1.9h4.2C87.3,50.9,86.5,52.3,85.2,53.5z M98.3,54.7l-0.9-2.9h-4.7l-0.9,2.9h-3.8l5.5-14.6h3.6l5.1,14.6H98.3z" class="st0"/></g></g></svg>