<?xml version="1.0" encoding="utf-8"?>
<!-- Generator: Adobe Illustrator 21.1.0, SVG Export Plug-In . SVG Version: 6.00 Build 0)  -->
<svg version="1.1" id="Layer_1" xmlns="http://www.w3.org/2000/svg" xmlns:xlink="http://www.w3.org/1999/xlink" x="0px" y="0px"
	 viewBox="0 0 98.9 103.2" style="enable-background:new 0 0 98.9 103.2;" xml:space="preserve">
<style type="text/css">
	.st0{fill:#FFFFFF;}
</style>
<g>
	<path class="st0" d="M9.5,27.4v3H4.7v2.4h4.6v2.8H4.7v5H1.2V27.4H9.5z"/>
	<path class="st0" d="M10.8,34.1c0-1.9,0.7-3.6,2-5s3-2.1,5-2.1c2.1,0,3.8,0.7,5,2.1c1.3,1.4,1.9,3,1.9,5c0,1.9-0.7,3.6-2,5
		c-1.3,1.4-3,2.1-5,2.1c-1.2,0-2.2-0.2-3.1-0.6c-0.9-0.4-1.7-1-2.2-1.7c-0.5-0.7-1-1.4-1.2-2.3C11,35.7,10.8,34.9,10.8,34.1z
		 M15.3,31.3c-0.7,0.7-1,1.7-1,2.8c0,1.1,0.3,2,1,2.8c0.7,0.7,1.5,1.1,2.5,1.1c1,0,1.8-0.4,2.5-1.1c0.7-0.7,1-1.7,1-2.8
		c0-1.1-0.3-2-0.9-2.8c-0.6-0.7-1.5-1.1-2.5-1.1C16.8,30.1,16,30.5,15.3,31.3z"/>
	<path class="st0" d="M31.6,41.1c-1.6,0-2.9-0.4-3.8-1.3c-0.9-0.9-1.4-2.3-1.4-4.3v-8h3.5v8.2c0,1.7,0.6,2.5,1.7,2.5
		c1.1,0,1.7-0.8,1.7-2.5v-8.2h3.4v8c0,1.9-0.5,3.4-1.4,4.3C34.5,40.6,33.2,41.1,31.6,41.1z"/>
	<path class="st0" d="M42,32.5L42,32.5c0,1.5,0,2.3,0,2.4v5.8H39V27.4H42l3.3,5.3c0.3,0.5,0.6,0.9,0.8,1.3c0.2,0.4,0.4,0.7,0.5,1
		c0.1,0.3,0.3,0.5,0.3,0.6H47c0-1.2-0.1-1.9-0.1-2.1v-6.1h2.9v13.2h-2.9l-2.8-4.5c-0.5-0.9-1-1.7-1.4-2.4C42.2,33,42,32.6,42,32.5z"
		/>
	<path class="st0" d="M52.3,27.4H57c2.3,0,4.1,0.6,5.4,1.9c1.3,1.3,1.9,2.8,1.9,4.7c0,1.9-0.7,3.4-2,4.7c-1.3,1.3-3.1,1.9-5.4,1.9
		h-4.6V27.4z M55.8,37.6h1c1.3,0,2.3-0.3,3-1c0.7-0.7,1-1.5,1-2.6c0-1.1-0.3-2-1-2.6c-0.7-0.6-1.7-1-3-1h-1V37.6z"/>
	<path class="st0" d="M74.4,27.4v3h-4.8v2.1h4.6v2.8h-4.6v2.5h5v3h-8.5V27.4H74.4z"/>
	<path class="st0" d="M84,35.1l4,5.5h-4l-3.4-5h-0.3v5h-3.5V27.4h4.3c3.6,0,5.3,1.4,5.3,4.1c0,0.9-0.2,1.7-0.7,2.3
		C85.3,34.4,84.8,34.9,84,35.1z M82.9,31.7c0-0.5-0.1-0.9-0.4-1.2c-0.3-0.3-0.7-0.4-1.2-0.4h-0.9v3.2h1c0.5,0,0.9-0.1,1.2-0.4
		C82.8,32.6,82.9,32.2,82.9,31.7z"/>
	<path class="st0" d="M97.5,31.3h-3.2c0-0.5-0.1-0.9-0.3-1.1c-0.2-0.3-0.6-0.4-1-0.4c-0.3,0-0.6,0.1-0.8,0.3
		c-0.2,0.2-0.3,0.4-0.3,0.8c0,0.4,0.2,0.7,0.5,0.9c0.3,0.2,0.9,0.5,1.6,0.7c2.4,0.8,3.6,2.3,3.6,4.4c0,1.1-0.4,2.1-1.2,2.9
		c-0.8,0.8-2,1.3-3.5,1.3c-1.4,0-2.6-0.4-3.5-1.3c-0.9-0.8-1.3-2-1.3-3.4h3.3c0,1.3,0.5,1.9,1.5,1.9c0.4,0,0.7-0.1,0.9-0.3
		c0.2-0.2,0.4-0.5,0.4-0.9c0-0.4-0.2-0.8-0.5-1c-0.3-0.3-0.9-0.5-1.6-0.8c-2.4-0.8-3.6-2.3-3.6-4.3c0-1.2,0.4-2.1,1.3-2.8
		c0.9-0.7,1.9-1,3.2-1c1.4,0,2.4,0.4,3.2,1.2C97.1,28.9,97.5,30,97.5,31.3z"/>
	<path class="st0" d="M9.5,44.3v3H4.7v2.4h4.6v2.8H4.7v5H1.2V44.3H9.5z"/>
	<path class="st0" d="M9.5,57.5l5-13.2h3.3l4.6,13.2h-3.5l-0.9-2.7h-4.3l-0.9,2.7H9.5z M15.4,49.7l-0.9,2.8h2.8l-0.9-2.8
		c-0.1-0.4-0.3-0.9-0.4-1.6h-0.1C15.7,48.9,15.5,49.4,15.4,49.7z"/>
	<path class="st0" d="M29.6,43.9c1.8,0,3.2,0.5,4.4,1.6c1.2,1,1.9,2.2,2,3.6h-3.7c-0.1-0.6-0.4-1.1-0.9-1.5
		c-0.5-0.4-1.1-0.7-1.9-0.7c-1,0-1.9,0.4-2.5,1.2c-0.6,0.8-0.9,1.8-0.9,2.9c0,1.1,0.3,2.1,0.9,2.9c0.6,0.8,1.4,1.2,2.4,1.2
		c0.8,0,1.5-0.2,1.9-0.7c0.5-0.5,0.8-1,0.9-1.7h3.8c-0.3,1.5-1.1,2.8-2.3,3.8c-1.2,1-2.7,1.5-4.5,1.5c-2,0-3.7-0.7-4.9-2
		c-1.3-1.3-1.9-3-1.9-5.1c0-2,0.6-3.7,1.9-5C26,44.5,27.6,43.9,29.6,43.9z"/>
	<path class="st0" d="M39.6,57.5V47.3h-3v-3h9.4v3h-3v10.2H39.6z"/>
	<path class="st0" d="M46.5,50.9c0-1.9,0.7-3.6,2-5c1.3-1.4,3-2.1,5-2.1c2.1,0,3.8,0.7,5,2.1c1.3,1.4,1.9,3,1.9,5c0,1.9-0.7,3.6-2,5
		c-1.3,1.4-3,2.1-5,2.1c-1.2,0-2.2-0.2-3.1-0.6c-0.9-0.4-1.7-1-2.2-1.7c-0.5-0.7-1-1.4-1.2-2.3C46.7,52.6,46.5,51.7,46.5,50.9z
		 M51.1,48.1c-0.7,0.7-1,1.7-1,2.8c0,1.1,0.3,2,1,2.8c0.7,0.7,1.5,1.1,2.5,1.1c1,0,1.8-0.4,2.5-1.1c0.7-0.7,1-1.7,1-2.8
		c0-1.1-0.3-2-0.9-2.8c-0.6-0.7-1.5-1.1-2.5-1.1C52.6,47,51.7,47.4,51.1,48.1z"/>
	<path class="st0" d="M69.5,52l4,5.5h-4l-3.4-5h-0.3v5h-3.5V44.3h4.3c3.6,0,5.3,1.4,5.3,4.1c0,0.9-0.2,1.7-0.7,2.3
		C70.9,51.3,70.3,51.7,69.5,52z M68.4,48.6c0-0.5-0.1-0.9-0.4-1.2c-0.3-0.3-0.7-0.4-1.2-0.4h-0.9v3.2h1c0.5,0,0.9-0.1,1.2-0.4
		C68.3,49.5,68.4,49.1,68.4,48.6z"/>
	<path class="st0" d="M76.9,57.5v-5.2l-4.4-8h3.7l1.7,3.4c0.3,0.6,0.5,1.1,0.7,1.7h0c0.2-0.5,0.4-1.1,0.7-1.7l1.6-3.4h3.6l-4.3,8
		v5.2H76.9z"/>
	<circle class="st0" cx="88" cy="54.7" r="2.8"/>
	<g>
		<path class="st0" d="M65.1,64.9L65.1,64.9c-0.3,0.8-0.5,1.3-0.6,1.6l-0.9,2.8h2.8l-0.9-2.8C65.4,66.1,65.3,65.6,65.1,64.9z"/>
		<path class="st0" d="M32.1,63.8h-0.9V67h1c0.5,0,0.9-0.1,1.2-0.4c0.3-0.3,0.5-0.7,0.5-1.1c0-0.5-0.1-0.9-0.4-1.2
			C33,64,32.6,63.8,32.1,63.8z"/>
		<path class="st0" d="M10,64.9L10,64.9c-0.3,0.8-0.5,1.3-0.6,1.6l-0.9,2.8h2.8l-0.9-2.8C10.3,66.1,10.1,65.6,10,64.9z"/>
		<path class="st0" d="M1.3,59.3v16.9h72.9V59.3H1.3z M12.9,74.3l-0.9-2.7H7.8l-0.9,2.7H3.5l5-13.2h3.3l4.6,13.2H12.9z M25.7,64.1
			h-4.8v2.4h4.6v2.8h-4.6v5h-3.5V61.1h8.3V64.1z M34.8,74.3l-3.4-5h-0.3v5h-3.5V61.1h4.3c3.6,0,5.3,1.4,5.3,4.1
			c0,0.9-0.2,1.7-0.7,2.3c-0.5,0.6-1,1-1.8,1.3l4,5.5H34.8z M43,74.3h-3.5V61.1H43V74.3z M56.1,73.2c-1.2,1-2.7,1.5-4.5,1.5
			c-2,0-3.7-0.7-4.9-2c-1.3-1.3-1.9-3-1.9-5.1c0-2,0.6-3.7,1.9-5c1.3-1.3,2.9-2,4.9-2c1.8,0,3.2,0.5,4.4,1.6c1.2,1,1.9,2.2,2,3.6
			h-3.7c-0.1-0.6-0.4-1.1-0.9-1.5c-0.5-0.4-1.1-0.7-1.9-0.7c-1,0-1.9,0.4-2.5,1.2c-0.6,0.8-0.9,1.8-0.9,2.9c0,1.1,0.3,2.1,0.9,2.9
			c0.6,0.8,1.4,1.2,2.4,1.2c0.8,0,1.5-0.2,1.9-0.7c0.5-0.5,0.8-1,0.9-1.7h3.8C58.1,70.9,57.3,72.2,56.1,73.2z M68.1,74.3l-0.9-2.7
			h-4.3l-0.9,2.7h-3.4l5-13.2h3.3l4.6,13.2H68.1z"/>
	</g>
</g>
</svg>
