<?xml version="1.0" encoding="utf-8"?>
<!-- Generator: Adobe Illustrator 21.1.0, SVG Export Plug-In . SVG Version: 6.00 Build 0)  -->
<svg version="1.1" id="Layer_1" xmlns="http://www.w3.org/2000/svg" xmlns:xlink="http://www.w3.org/1999/xlink" x="0px" y="0px"
	 viewBox="0 0 155.6 59.2" style="enable-background:new 0 0 155.6 59.2;" xml:space="preserve">
<style type="text/css">
	.st0{fill:#FFED19;}
</style>
<g>
	<rect x="20.6" y="38.7" class="st0" width="86.6" height="20.1"/>
	<path d="M30.4,0.9v3.5h-5.7v2.9h5.5v3.3h-5.5v6h-4.1V0.9H30.4z"/>
	<path d="M31.9,8.8c0-2.3,0.8-4.2,2.4-5.9s3.6-2.5,6-2.5c2.5,0,4.5,0.8,6,2.5c1.5,1.6,2.3,3.6,2.3,5.9c0,2.3-0.8,4.3-2.4,5.9
		c-1.6,1.6-3.6,2.4-5.9,2.4c-1.4,0-2.6-0.2-3.7-0.7c-1.1-0.5-2-1.2-2.6-2c-0.7-0.8-1.1-1.7-1.5-2.7C32.1,10.7,31.9,9.8,31.9,8.8z
		 M37.3,5.4c-0.8,0.9-1.2,2-1.2,3.3s0.4,2.4,1.2,3.3c0.8,0.9,1.8,1.3,2.9,1.3c1.2,0,2.2-0.4,3-1.3c0.8-0.9,1.2-2,1.2-3.3
		S44,6.3,43.2,5.4s-1.7-1.3-3-1.3C39.1,4.1,38.1,4.6,37.3,5.4z"/>
	<path d="M56.6,17.1c-1.9,0-3.4-0.5-4.5-1.6c-1.1-1.1-1.6-2.8-1.6-5.1V0.9h4.1v9.7c0,2,0.7,3,2,3c1.4,0,2-1,2-3V0.9h4.1v9.5
		c0,2.3-0.5,4-1.6,5.1C60.1,16.6,58.5,17.1,56.6,17.1z"/>
	<path d="M68.9,7L68.9,7c0,1.8,0,2.7,0,2.8v6.8h-3.4V0.9h3.5l3.9,6.3c0.4,0.6,0.7,1.1,0.9,1.5s0.5,0.9,0.6,1.2
		c0.2,0.4,0.3,0.6,0.4,0.8h0.1c0-1.4-0.1-2.2-0.1-2.5V0.9h3.4v15.7h-3.4l-3.3-5.3c-0.6-1-1.2-2-1.7-2.9C69.2,7.5,68.9,7,68.9,7z"/>
	<path d="M81.2,0.9h5.5c2.7,0,4.9,0.7,6.4,2.2c1.5,1.5,2.3,3.4,2.3,5.6c0,2.2-0.8,4.1-2.4,5.6c-1.6,1.5-3.7,2.3-6.4,2.3h-5.5V0.9z
		 M85.3,13h1.2c1.6,0,2.7-0.4,3.5-1.2c0.8-0.8,1.2-1.8,1.2-3.1c0-1.3-0.4-2.3-1.2-3.1c-0.8-0.8-2-1.1-3.5-1.1h-1.2V13z"/>
	<path d="M107.4,0.9v3.5h-5.7v2.4h5.5v3.3h-5.5v2.9h6v3.5H97.6V0.9H107.4z"/>
	<path d="M118.9,10l4.8,6.6h-4.8l-4-5.9h-0.4v5.9h-4.1V0.9h5.1c4.2,0,6.3,1.6,6.3,4.9c0,1.1-0.3,2-0.8,2.7
		C120.4,9.2,119.7,9.7,118.9,10z M117.6,6c0-0.6-0.2-1.1-0.5-1.4c-0.3-0.3-0.8-0.5-1.5-0.5h-1.1v3.7h1.2c0.6,0,1.1-0.2,1.4-0.5
		C117.4,7.1,117.6,6.6,117.6,6z"/>
	<path d="M134.9,5.5h-3.7c0-0.6-0.1-1-0.4-1.3c-0.3-0.3-0.7-0.5-1.2-0.5c-0.4,0-0.7,0.1-0.9,0.3s-0.4,0.5-0.4,0.9
		c0,0.4,0.2,0.8,0.6,1.1s1.1,0.6,1.9,0.9c2.9,1,4.3,2.7,4.3,5.2c0,1.3-0.5,2.5-1.4,3.5c-0.9,1-2.3,1.5-4.2,1.5
		c-1.7,0-3.1-0.5-4.1-1.5c-1-1-1.5-2.4-1.5-4.1h3.9c0,1.5,0.6,2.3,1.8,2.3c0.4,0,0.8-0.1,1.1-0.4c0.3-0.3,0.4-0.6,0.4-1.1
		c0-0.5-0.2-0.9-0.6-1.2c-0.4-0.3-1-0.6-1.9-1c-2.9-1-4.3-2.7-4.3-5.2c0-1.4,0.5-2.6,1.5-3.4c1-0.8,2.3-1.2,3.7-1.2
		c1.6,0,2.9,0.5,3.8,1.4C134.4,2.7,134.9,3.9,134.9,5.5z"/>
	<path d="M30.4,20.9v3.5h-5.7v2.9h5.5v3.3h-5.5v6h-4.1V20.9H30.4z"/>
	<path d="M30.4,36.6l5.9-15.7h3.9l5.5,15.7h-4.1l-1-3.2h-5.1l-1,3.2H30.4z M37.4,27.4l-1.1,3.3h3.4l-1.1-3.4
		c-0.2-0.5-0.3-1.1-0.5-1.9h-0.1C37.7,26.4,37.5,27,37.4,27.4z"/>
	<path d="M54.2,20.4c2.1,0,3.8,0.6,5.2,1.9c1.4,1.2,2.2,2.6,2.4,4.2h-4.4c-0.1-0.7-0.5-1.3-1.1-1.8c-0.6-0.5-1.3-0.8-2.2-0.8
		c-1.2,0-2.2,0.5-2.9,1.4c-0.7,0.9-1,2.1-1,3.5c0,1.3,0.4,2.5,1.1,3.5c0.7,1,1.7,1.4,2.9,1.4c1,0,1.7-0.3,2.3-0.9
		c0.6-0.6,0.9-1.2,1.1-2h4.6c-0.4,1.8-1.3,3.3-2.7,4.5c-1.4,1.2-3.2,1.8-5.3,1.8c-2.4,0-4.4-0.8-5.8-2.4c-1.5-1.6-2.2-3.6-2.2-6
		c0-2.4,0.8-4.4,2.3-5.9C49.9,21.2,51.9,20.4,54.2,20.4z"/>
	<path d="M66.1,36.6V24.4h-3.5v-3.5h11.2v3.5h-3.5v12.2H66.1z"/>
	<path d="M74.4,28.8c0-2.3,0.8-4.2,2.4-5.9s3.6-2.5,6-2.5c2.5,0,4.5,0.8,6,2.5c1.5,1.6,2.3,3.6,2.3,5.9c0,2.3-0.8,4.3-2.4,5.9
		c-1.6,1.6-3.6,2.4-5.9,2.4c-1.4,0-2.6-0.2-3.7-0.7c-1.1-0.5-2-1.2-2.6-2c-0.7-0.8-1.1-1.7-1.5-2.7S74.4,29.8,74.4,28.8z M79.7,25.5
		c-0.8,0.9-1.2,2-1.2,3.3s0.4,2.4,1.2,3.3c0.8,0.9,1.8,1.3,2.9,1.3c1.2,0,2.2-0.4,3-1.3c0.8-0.9,1.2-2,1.2-3.3s-0.4-2.4-1.1-3.3
		c-0.8-0.9-1.7-1.3-3-1.3C81.5,24.1,80.5,24.6,79.7,25.5z"/>
	<path d="M101.7,30l4.8,6.6h-4.8l-4-5.9h-0.4v5.9h-4.1V20.9h5.1c4.2,0,6.3,1.6,6.3,4.9c0,1.1-0.3,2-0.8,2.7
		C103.2,29.2,102.5,29.7,101.7,30z M100.4,26c0-0.6-0.2-1.1-0.5-1.4c-0.3-0.3-0.8-0.5-1.5-0.5h-1.1v3.7h1.2c0.6,0,1.1-0.2,1.4-0.5
		C100.2,27.1,100.4,26.6,100.4,26z"/>
	<path d="M110.4,36.6v-6.2l-5.2-9.5h4.4l2.1,4c0.4,0.7,0.6,1.4,0.8,2h0c0.2-0.6,0.5-1.3,0.8-2l1.9-4h4.3l-5.2,9.5v6.2H110.4z"/>
	<circle class="st0" cx="123.6" cy="33.2" r="3.4"/>
	<path d="M23.2,56.6l5.9-15.7H33l5.5,15.7h-4.1l-1-3.2h-5.1l-1,3.2H23.2z M30.2,47.4l-1.1,3.3h3.4l-1.1-3.4
		c-0.2-0.5-0.3-1.1-0.5-1.9h-0.1C30.5,46.4,30.4,47,30.2,47.4z"/>
	<path d="M49.6,40.9v3.5h-5.7v2.9h5.5v3.3h-5.5v6h-4.1V40.9H49.6z"/>
	<path d="M60.4,50.1l4.8,6.6h-4.8l-4-5.9H56v5.9h-4.1V40.9H57c4.2,0,6.3,1.6,6.3,4.9c0,1.1-0.3,2-0.8,2.7
		C62,49.2,61.3,49.7,60.4,50.1z M59.1,46c0-0.6-0.2-1.1-0.5-1.4c-0.3-0.3-0.8-0.5-1.5-0.5H56v3.7h1.1c0.6,0,1.1-0.2,1.4-0.5
		C58.9,47.1,59.1,46.6,59.1,46z"/>
	<path d="M66.1,56.6V40.9h4.1v15.7H66.1z"/>
	<path d="M80.5,40.4c2.1,0,3.8,0.6,5.2,1.9c1.4,1.2,2.2,2.6,2.4,4.2h-4.4c-0.1-0.7-0.5-1.3-1.1-1.8c-0.6-0.5-1.3-0.8-2.2-0.8
		c-1.2,0-2.2,0.5-2.9,1.4s-1,2.1-1,3.5c0,1.3,0.4,2.5,1.1,3.5c0.7,1,1.7,1.4,2.9,1.4c1,0,1.7-0.3,2.3-0.9c0.6-0.6,0.9-1.2,1.1-2h4.6
		c-0.4,1.8-1.3,3.3-2.7,4.5c-1.4,1.2-3.2,1.8-5.3,1.8c-2.4,0-4.4-0.8-5.8-2.4c-1.5-1.6-2.2-3.6-2.2-6c0-2.4,0.8-4.4,2.3-5.9
		C76.2,41.2,78.1,40.4,80.5,40.4z"/>
	<path d="M88.7,56.6l5.9-15.7h3.9l5.5,15.7h-4.1l-1-3.2h-5.1l-1,3.2H88.7z M95.8,47.4l-1.1,3.3H98L97,47.4c-0.2-0.5-0.3-1.1-0.5-1.9
		h-0.1C96.1,46.4,95.9,47,95.8,47.4z"/>
</g>
</svg>
