<?xml version="1.0" encoding="utf-8"?>
<!-- Generator: Adobe Illustrator 21.1.0, SVG Export Plug-In . SVG Version: 6.00 Build 0)  -->
<svg version="1.1" id="Graphics" xmlns="http://www.w3.org/2000/svg" xmlns:xlink="http://www.w3.org/1999/xlink" x="0px" y="0px"
	 viewBox="0 0 450.3 339.4" style="enable-background:new 0 0 450.3 339.4;" xml:space="preserve">
<style type="text/css">
	.st0{fill:#00C9A7;}
	.st1{opacity:0.2;}
	.st2{fill:#191C3C;}
	.st3{opacity:8.000000e-02;fill:#F5F7F9;enable-background:new    ;}
	.st4{fill:#FFC107;}
	.st5{fill:none;stroke:#191C3C;stroke-miterlimit:10;}
	.st6{fill:#63C98C;}
	.st7{fill:#FEC55E;}
	.st8{fill:#196EFF;}
	.st9{opacity:0.3;fill:#191C3C;enable-background:new    ;}
	.st10{fill:#121212;}
	.st11{fill:#474963;}
	.st12{fill:#D9E7ED;}
	.st13{opacity:0.2;fill:#3A3C4E;enable-background:new    ;}
	.st14{fill:#E0A546;}
	.st15{fill:#19A0FF;}
	.st16{fill:#3A3C4E;}
	.st17{fill:#4D5068;}
	.st18{fill:#DD9C3E;}
	.st19{fill:#BF9447;}
	.st20{opacity:0.1;fill:#3A3C4E;enable-background:new    ;}
	.st21{display:none;}
	.st22{display:inline;fill:#2D1582;}
	.st23{fill:#2D1582;}
	.st24{display:inline;fill:#FFC107;}
	.st25{display:inline;fill:#DE4437;}
	.st26{fill:#DE4437;}
	.st27{display:none;fill:#DE4437;}
	.st28{display:none;fill:#FFC107;}
	.st29{display:none;fill:#00C9A7;}
	.st30{display:none;fill:#121212;}
	.st31{fill:#FFFFFF;}
	.st32{display:none;opacity:0.47;fill:#E0E4F0;}
	.st33{opacity:0.15;}
	.st34{fill:#575A8F;}
	.st35{fill:#F2F3F7;}
	.st36{opacity:0.2;fill:#414042;}
	.st37{opacity:0.3;fill:#191C3C;}
	.st38{opacity:0.1;fill:#FFFFFF;}
	.st39{opacity:0.19;fill:#FFFFFF;}
	.st40{opacity:0.3;fill:#30334F;}
	.st41{opacity:0.1;fill:#30334F;}
	.st42{display:none;fill:none;stroke:#191C3C;stroke-miterlimit:10;}
</style>
<g>
	<g id="Layer_9">
		<g>
			<path class="st0" d="M297.7,575.2L297.7,575.2C297.7,575.2,297.3,574.4,297.7,575.2z M304.4,582.2c7.5-7.1,13.9-15.7,16.8-25.6
				c3-9.9,2.2-21.2-3.6-29.8c-13.2,12.2-20.7,30.4-19.9,48.3c-0.2,2.6-0.4,10.2,0.8,12.4c0.3,0.6,2.3-1.1,3.9-2.6
				C302.9,584.4,303.9,582.7,304.4,582.2z"/>
			<g class="st1">
				<path class="st2" d="M302.4,584.9c0.5-0.5,1.5-2.2,2-2.7c7.5-7.1,13.9-15.7,16.8-25.6c1.4-4.8,2-9.8,1.5-14.8
					c-0.2,5.7-1.8,11.4-4.5,16.4c-4.7,8.9-12.3,16-20.7,21.5c0,3,0.2,6.4,1,7.7C298.9,588.1,300.8,586.4,302.4,584.9z"/>
			</g>
			<path class="st0" d="M319.9,590.9c-4.2,1.4-10.3,3.3-14.3,1.5c-3.2-1.4-7.7-3.9-7-7.1c3.5-2.6,10.6-8,13.4-11.4
				c2.3-2.8,4.8-7.3,7.3-10c6.3-6.9,14.7-9.5,23.3-13.2c-0.8,7-2.1,13.9-4.2,20.7c-1.3,4.4-3,8.9-6.1,12.3
				C329.1,587.3,324.5,589.4,319.9,590.9z"/>
			<path class="st3" d="M311.7,575.8c2.8-2.4,6-6.3,8.9-8.5c6.2-4.7,13.3-6.2,20.7-7.9c0.5-2.9,1-5.7,1.3-8.6
				c-8.6,3.7-17,6.3-23.3,13.2c-2.5,2.7-5,7.1-7.3,10c-1.3,1.6-3.7,3.7-6.1,5.7C308.2,578.4,310.3,577,311.7,575.8z"/>
			<path class="st0" d="M342,594.7c-6.4,2.3-13.5,2.2-20.3,2c-2.6-0.1-6.9,0.6-9.4-0.1c-2.1-0.5-4.1-2-5.9-3.2
				c-1.5-1.1,0.3-2.4,1.8-3.4c1.4-0.9,3.9-2.5,3.3-1.7c4-1.1,6.5-1.7,10.5-2.8c3.1-1,6.2-2,9.4-2.5c7.9-1.3,15.9,0.4,23.7,2
				C351.8,589.4,347.2,592.8,342,594.7z"/>
			<g>
				<path class="st2" d="M316.2,531.9c0.2,9-0.1,17.7-2.7,26.3c-2.4,8.1-6.4,15.6-11.5,22.2c-0.3,0.4,0.3,0.7,0.6,0.4
					c5.2-6.7,9.1-14.3,11.5-22.4c2.6-8.7,2.8-17.5,2.4-26.5C316.4,531.8,316.2,531.8,316.2,531.9L316.2,531.9z"/>
			</g>
			<g>
				<path class="st2" d="M339.9,553.7c-3.5,7.2-8,13.7-13.7,19.4c-6.1,6.1-13.3,10.1-20.5,14.7c-0.2,0.1,0,0.5,0.2,0.3
					c14.8-7.7,27.4-18.7,34.1-34.3C340.1,553.7,340,553.6,339.9,553.7L339.9,553.7z"/>
			</g>
			<g>
				<path class="st2" d="M352.1,585.4c-14,4.5-27.4,9.9-42.4,6.5c-0.3-0.1-0.4,0.4-0.1,0.5c14.2,3.1,29.6-1,42.6-6.9
					C352.2,585.5,352.1,585.4,352.1,585.4L352.1,585.4z"/>
			</g>
			<g>
				<path class="st2" d="M311.2,538.3c1,1,2,1.9,2.8,3c0.8,1.1,1.4,2.3,2.1,3.5c0.1,0.1,0.2,0,0.2-0.1
					C315.4,542.2,313.4,539.7,311.2,538.3C311.2,538.2,311.1,538.2,311.2,538.3L311.2,538.3z"/>
			</g>
			<g>
				<path class="st2" d="M307.6,545.4c4.5,2.6,5.8,6.2,6.3,11.1c0,0.4,0.6,0.3,0.5-0.1C313.8,551.8,312.4,547.1,307.6,545.4
					C307.5,545.3,307.5,545.4,307.6,545.4L307.6,545.4z"/>
			</g>
			<g>
				<path class="st2" d="M306.9,554.4c2.2,2.9,5.6,5.9,4.5,9.9c-0.1,0.2,0.3,0.3,0.3,0.1C312.8,560.4,309.5,557.1,306.9,554.4
					C306.9,554.2,306.8,554.3,306.9,554.4L306.9,554.4z"/>
			</g>
			<g>
				<path class="st2" d="M302.1,563.1c3.3,2.7,6.4,6.6,4,11c-0.1,0.3,0.2,0.5,0.4,0.2c2.4-4.4-0.5-9-4.3-11.3
					C302.1,563,302,563,302.1,563.1L302.1,563.1z"/>
			</g>
			<g>
				<path class="st2" d="M321.8,542.8c-2.9,0.6-4.6,3-6.2,5.3c-0.1,0.2,0.2,0.3,0.3,0.2c1.5-2.3,3.1-4.5,5.9-5.3
					C321.9,543,321.9,542.8,321.8,542.8L321.8,542.8z"/>
			</g>
			<g>
				<path class="st2" d="M321.1,552.3c-2.8,1-5.2,2.8-7.2,4.9c-0.2,0.2,0.1,0.4,0.3,0.3C316.1,555.2,318.5,553.7,321.1,552.3
					C321.1,552.3,321.1,552.2,321.1,552.3L321.1,552.3z"/>
			</g>
			<g>
				<path class="st2" d="M317.8,560.2c-1.4,0.5-2.5,1.1-3.7,2c-0.8,0.6-2.4,1.6-2.8,2.6c0,0.1,0,0.2,0.1,0.2l0.1,0.1
					c0.1,0.1,0.3,0.1,0.4,0l0.1-0.1c0.1-0.1,0-0.2,0-0.3l-0.1-0.1c-0.1-0.1-0.2-0.1-0.3,0.1c-0.1,0.3,1.5-1,1.5-1
					c0.4-0.4,0.9-0.8,1.3-1.2c1.1-0.9,2.2-1.6,3.4-2.2C317.9,560.3,317.9,560.2,317.8,560.2L317.8,560.2z"/>
			</g>
			<g>
				<path class="st2" d="M314.4,566.8c-3,1.7-5.7,4.4-7.9,7.1c-0.3,0.3,0.2,0.8,0.5,0.5c2.3-2.8,4.8-5,7.5-7.4
					C314.6,567,314.5,566.8,314.4,566.8L314.4,566.8z"/>
			</g>
			<g>
				<path class="st2" d="M330.5,557.8c0.3,5,0,9.3-2.8,13.6c-0.2,0.3,0.3,0.6,0.5,0.3c2.6-3.8,4.1-9.4,2.6-13.9
					C330.7,557.6,330.5,557.6,330.5,557.8L330.5,557.8z"/>
			</g>
			<g>
				<path class="st2" d="M322.1,565.5c0,2.4,0,4.7-0.6,7c-0.5,2.1-1.3,4.2-2.1,6.2c-0.1,0.3,0.3,0.4,0.4,0.1
					C321.4,574.6,323.2,569.9,322.1,565.5C322.2,565.4,322.1,565.4,322.1,565.5L322.1,565.5z"/>
			</g>
			<g>
				<path class="st2" d="M314.7,574.6c-0.1,1.7-0.3,3.3-0.6,5c-0.4,1.9-1.3,3.1-2.8,4.4c-0.2,0.2,0.1,0.5,0.3,0.3
					c1.4-1.2,2.4-2.3,2.8-4.1s0.6-3.8,0.5-5.6C314.9,574.5,314.7,574.5,314.7,574.6L314.7,574.6z"/>
			</g>
			<g>
				<path class="st2" d="M336.1,568.1c-1.8,0.1-3.6,1-5.3,1.7c-1,0.4-2.9,0.9-3.1,2.1c0,0.1,0.1,0.2,0.2,0.1
					C329.9,569.7,333.6,569.6,336.1,568.1C336.2,568.2,336.2,568,336.1,568.1L336.1,568.1z"/>
			</g>
			<g>
				<path class="st2" d="M333.8,575.5c-5,0.4-9.9,1.9-14.5,3.6c-0.2,0.1-0.1,0.5,0.1,0.4c4.8-1.7,9.5-2.7,14.5-3.8
					C333.9,575.7,333.9,575.5,333.8,575.5L333.8,575.5z"/>
			</g>
			<g>
				<path class="st2" d="M323.3,583.4c-4.2-0.1-8.5,1-12.7,1.6c-0.3,0-0.2,0.5,0.1,0.5c4.2-0.7,8.4-1.3,12.6-1.8
					C323.4,583.6,323.4,583.4,323.3,583.4L323.3,583.4z"/>
			</g>
			<g>
				<path class="st2" d="M344.2,583.8c-3.4,2.9-7,5.3-11.1,7.2c-0.3,0.2-0.1,0.7,0.3,0.5c4.1-1.9,7.9-4.3,11.1-7.5
					C344.6,583.9,344.4,583.7,344.2,583.8L344.2,583.8z"/>
			</g>
			<g>
				<path class="st2" d="M343.4,593.5c-3.2-1.5-7.2-1.8-10.7-2c-0.3,0-0.3,0.5,0,0.5c2,0.1,4,0.4,5.9,0.7c1.6,0.3,3.1,0.8,4.7,1
					C343.4,593.7,343.5,593.5,343.4,593.5L343.4,593.5z"/>
			</g>
			<g>
				<path class="st2" d="M331.3,587.9c-3.5,2.2-7,3.5-10.8,5c-0.1,0,0,0.2,0.1,0.2c3.8-0.5,7.9-2.6,10.8-5.1
					C331.5,588,331.4,587.8,331.3,587.9L331.3,587.9z"/>
			</g>
			<g>
				<path class="st2" d="M320.4,593.4c2.4,1,4.8,1.8,7.1,3.2c0.2,0.1,0.4-0.2,0.2-0.3C325.5,594.9,322.9,593.6,320.4,593.4
					C320.3,593.2,320.3,593.3,320.4,593.4L320.4,593.4z"/>
			</g>
		</g>
		<g>
			<g>
				<g>
					<path class="st4" d="M347.7,575c-0.1,0-0.2,0.1-0.2,0.1c-2.4,1.1-3.6,0.9-5.9-0.1c-2.1-1-4.2-2.1-5.9-3.7
						c-2.2-2-3.9-4.6-4.3-7.5c-0.1-0.7-0.1-1.4,0.3-1.9c0.5-0.7,1.6-0.8,2.5-0.5c0.8,0.3,1.5,1,2.2,1.6c0.3,0.3,0.6,0.5,1,0.6
						c0.4,0.1,0.8,0,1-0.3c0.3-0.5-0.2-1.2-0.7-1.6c-1.1-0.9-2.1-1.4-3.3-2.3c-1.4-1-2.8-2.3-3.6-3.8c-0.8-1.6-1-3.5-0.1-5.1
						c0.3-0.5,0.6-0.9,1.1-1.2c0.8-0.5,1.8-0.5,2.8-0.3c0.9,0.2,1.8,0.6,2.8,0.7c2.2,0.2,3.1-1.3,3.1-3.4c0-1.4-0.5-2.7-0.6-4.1
						c-0.1-2.4,1.1-5,3.3-6.1c2.2-1,5.3,0,6.1,2.3c0.9,2.5-1.1,5.3,0.2,7.7c0.4,0.8,1.4,1.9,2.1,2.3c1.2,0.8,3-0.1,4.4-0.1
						c0.3,0,0.7,0.1,0.9,0.3c0.2,0.2,0.2,0.4,0.3,0.6c0.3,1.7-0.3,3.6-1.6,4.8c-1.5,1.4-4.1,2-4.7,4.2c-0.4,1.3-0.2,4.6,1.9,4.3
						c0.8-0.1,1.3-0.9,2.1-1.2c0.9-0.3,2,0.3,2.4,1.2c0.4,0.9,0.3,2-0.1,2.9c-0.6,1.4-1.7,2.6-2.8,3.7
						C352.1,571.4,350.6,573.6,347.7,575z"/>
				</g>
				<line class="st5" x1="344.6" y1="544.5" x2="344.6" y2="595.5"/>
				<polyline class="st5" points="350.5,553.3 344.6,559.2 338.6,553.3 				"/>
				<polyline class="st5" points="350.5,565.2 344.6,571.1 338.6,565.2 				"/>
			</g>
		</g>
		<g>
			<g>
				<path class="st4" d="M31.6,524.5c-0.1,0-0.2,0.1-0.2,0.1c-2.5,1.2-3.8,1-6.2-0.1c-2.2-1-4.4-2.2-6.2-3.9
					c-2.3-2.1-4.1-4.8-4.5-7.9c-0.1-0.7-0.1-1.4,0.3-2c0.6-0.8,1.7-0.9,2.6-0.5c0.9,0.3,1.6,1,2.3,1.7c0.3,0.3,0.6,0.5,1,0.7
					c0.4,0.1,0.9,0,1.1-0.4c0.3-0.6-0.2-1.2-0.7-1.6c-1.2-1-2.2-1.5-3.4-2.4c-1.5-1.1-2.9-2.4-3.8-4c-0.8-1.7-1-3.7-0.2-5.4
					c0.3-0.5,0.6-1,1.1-1.3c0.8-0.5,1.9-0.5,2.9-0.3c1,0.2,1.9,0.6,2.9,0.7c2.4,0.2,3.3-1.4,3.2-3.6c0-1.5-0.5-2.9-0.6-4.3
					c-0.1-2.6,1.1-5.3,3.4-6.4c2.3-1.1,5.6,0,6.4,2.4c0.9,2.6-1.2,5.6,0.2,8.1c0.4,0.8,1.4,1.9,2.2,2.4c1.3,0.8,3.2-0.1,4.7-0.1
					c0.3,0,0.7,0.1,0.9,0.3c0.2,0.2,0.2,0.4,0.3,0.7c0.4,1.8-0.3,3.8-1.7,5.1c-1.6,1.4-4.3,2.1-4.9,4.4c-0.4,1.4-0.2,4.8,2,4.5
					c0.8-0.1,1.4-0.9,2.2-1.2c1-0.3,2.1,0.3,2.5,1.3c0.4,0.9,0.3,2-0.1,3c-0.6,1.5-1.8,2.7-2.9,3.9
					C36.2,520.6,34.7,522.9,31.6,524.5z"/>
			</g>
			<line class="st5" x1="28.4" y1="492.4" x2="28.4" y2="582"/>
			<polyline class="st5" points="34.6,501.7 28.4,507.9 22.1,501.7 			"/>
			<polyline class="st5" points="34.6,514.2 28.4,520.4 22.1,514.2 			"/>
		</g>
		<g>
			<g>
				<path class="st6" d="M7.4,550.4c-0.1,0-0.1,0.1-0.2,0.1c-2,0.9-3,0.8-5-0.1c-1.8-0.8-3.5-1.8-5-3.1c-1.9-1.6-3.3-3.9-3.6-6.3
					c0-0.6,0-1.3,0.3-1.7c0.5-0.6,1.4-0.7,2.1-0.4s1.3,0.8,1.8,1.3c0.2,0.2,0.5,0.4,0.8,0.5c0.3,0.1,0.7,0,0.9-0.3
					c0.3-0.5-0.2-1-0.6-1.3c-0.9-0.8-1.8-1.2-2.8-1.9c-1.2-0.9-2.3-1.9-3-3.2c-0.7-1.3-0.8-3-0.1-4.3c0.2-0.4,0.5-0.8,0.9-1
					c0.7-0.4,1.6-0.4,2.3-0.2c0.8,0.2,1.5,0.5,2.3,0.6c1.9,0.2,2.6-1.1,2.6-2.9c0-1.2-0.4-2.3-0.5-3.5c-0.1-2,0.9-4.2,2.7-5.1
					c1.9-0.9,4.5,0,5.1,1.9c0.7,2.1-0.9,4.5,0.2,6.5c0.4,0.7,1.2,1.6,1.8,2c1,0.6,2.5-0.1,3.7-0.1c0.3,0,0.6,0,0.7,0.2
					c0.1,0.1,0.2,0.3,0.2,0.5c0.3,1.5-0.2,3.1-1.4,4.1c-1.2,1.1-3.4,1.7-3.9,3.5c-0.3,1.1-0.2,3.9,1.6,3.6c0.7-0.1,1.1-0.8,1.7-1
					c0.8-0.3,1.7,0.3,2,1c0.4,0.7,0.2,1.6-0.1,2.4c-0.5,1.2-1.4,2.2-2.3,3.1C11.1,547.3,9.9,549.1,7.4,550.4z"/>
			</g>
			<line class="st5" x1="4.8" y1="524.7" x2="4.8" y2="596.5"/>
			<polyline class="st5" points="9.8,532.1 4.8,537.1 -0.2,532.1 			"/>
			<polyline class="st5" points="9.8,542.1 4.8,547.1 -0.2,542.1 			"/>
		</g>
		<g>
			<path class="st0" d="M45.6,595.9L45.6,595.9C45.7,595.9,44.8,596.3,45.6,595.9z M52.8,588.8c-7.5-7.7-16.5-14.3-26.8-17.2
				c-10.3-3-22.1-2-31,4.1c12.9,13.6,31.9,21.2,50.6,20.2c2.7,0.2,10.6,0.3,12.9-1c0.6-0.4-1.2-2.4-2.8-4
				C55.2,590.4,53.3,589.3,52.8,588.8z"/>
			<g class="st1">
				<path class="st2" d="M55.7,590.9c-0.5-0.5-2.3-1.6-2.8-2.1c-7.5-7.7-16.5-14.3-26.8-17.2c-5-1.4-10.3-1.9-15.4-1.4
					c5.9,0.2,11.9,1.8,17.2,4.5c9.4,4.8,16.8,12.6,22.7,21.4c3.1,0,6.7-0.3,8-1.1C59.1,594.5,57.2,592.5,55.7,590.9z"/>
			</g>
			<path class="st0" d="M61.8,572.5c1.5,4.3,3.5,10.7,1.7,14.9c-1.4,3.3-4,8.1-7.3,7.4c-2.8-3.6-8.4-11-12-13.9
				c-3-2.4-7.6-4.9-10.5-7.5c-7.2-6.5-10-15.3-14-24.1c7.3,0.7,14.5,2.1,21.6,4.1c4.6,1.3,9.3,3,12.8,6.2
				C57.9,563,60.1,567.8,61.8,572.5z"/>
			<path class="st3" d="M46.1,581.3c-2.5-2.9-6.7-6.2-9-9.2c-4.9-6.4-6.6-13.7-8.4-21.5c-3-0.5-6-0.9-9-1.2c4,8.9,6.8,17.6,14,24.1
				c2.8,2.6,7.5,5.1,10.5,7.5c1.7,1.4,3.9,3.8,6,6.3C48.8,584.9,47.4,582.7,46.1,581.3z"/>
			<path class="st0" d="M65.4,549.5c2.5,6.7,2.4,14,2.4,21.1c0,2.7,0.7,7.2,0,9.8c-0.5,2.2-2,4.3-3.3,6.1c-1.2,1.6-2.5-0.3-3.6-1.9
				c-0.9-1.5-2.6-4.1-1.8-3.5c-1.2-4.1-1.9-6.7-3-10.9c-1.1-3.2-2.1-6.4-2.7-9.7c-1.4-8.2,0.2-16.5,1.8-24.7
				C59.8,539.3,63.4,544.1,65.4,549.5z"/>
			<g>
				<path class="st2" d="M0.3,577.1c9.3-0.3,18.4,0,27.4,2.5c8.5,2.4,16.3,6.5,23.3,11.8c0.4,0.3,0.7-0.3,0.4-0.6
					c-7-5.3-15-9.3-23.5-11.7c-9.1-2.6-18.2-2.7-27.6-2.2C0.2,576.8,0.1,577.1,0.3,577.1L0.3,577.1z"/>
			</g>
			<g>
				<path class="st2" d="M22.8,552.1c7.5,3.6,14.4,8.2,20.3,14c6.4,6.3,10.7,13.8,15.5,21.2c0.1,0.2,0.5,0,0.3-0.2
					c-8.2-15.4-19.8-28.3-36.1-35.2C22.7,551.9,22.6,552.1,22.8,552.1L22.8,552.1z"/>
			</g>
			<g>
				<path class="st2" d="M55.7,539.1c4.9,14.5,10.6,28.5,7.3,44.1c-0.1,0.3,0.4,0.5,0.5,0.1c3.1-14.9-1.4-30.8-7.7-44.3
					C55.8,539,55.6,539.1,55.7,539.1L55.7,539.1z"/>
			</g>
			<g>
				<path class="st2" d="M7,582.3c1-1,2-2.1,3.1-2.9c1.2-0.9,2.4-1.5,3.7-2.2c0.1-0.1,0-0.2-0.1-0.2C11.1,577.8,8.4,579.9,7,582.3
					C6.9,582.3,7,582.3,7,582.3L7,582.3z"/>
			</g>
			<g>
				<path class="st2" d="M14.5,586c2.6-4.7,6.4-6.1,11.5-6.7c0.4,0,0.3-0.6-0.1-0.5C21.1,579.4,16.2,580.8,14.5,586
					C14.4,586,14.5,586,14.5,586L14.5,586z"/>
			</g>
			<g>
				<path class="st2" d="M23.8,586.6c3-2.3,6-5.9,10.2-4.8c0.2,0.1,0.3-0.3,0.1-0.3c-4.2-1.1-7.6,2.4-10.4,5
					C23.6,586.5,23.7,586.6,23.8,586.6L23.8,586.6z"/>
			</g>
			<g>
				<path class="st2" d="M33,591.5c2.8-3.5,6.8-6.7,11.4-4.3c0.3,0.1,0.5-0.3,0.2-0.4c-4.6-2.4-9.3,0.6-11.8,4.6
					C32.8,591.5,32.9,591.5,33,591.5L33,591.5z"/>
			</g>
			<g>
				<path class="st2" d="M11.6,571.1c0.6,3,3.2,4.8,5.6,6.4c0.2,0.1,0.3-0.2,0.2-0.3c-2.4-1.6-4.8-3.2-5.6-6.1
					C11.8,571,11.6,571,11.6,571.1L11.6,571.1z"/>
			</g>
			<g>
				<path class="st2" d="M21.5,571.8c1.1,2.9,3,5.4,5.2,7.5c0.2,0.2,0.5-0.1,0.3-0.3C24.6,576.9,23,574.5,21.5,571.8
					C21.5,571.7,21.4,571.8,21.5,571.8L21.5,571.8z"/>
			</g>
			<g>
				<path class="st2" d="M29.8,575.1c0.5,1.4,1.2,2.6,2.1,3.8c0.7,0.9,1.7,2.5,2.7,2.9c0.1,0,0.2,0,0.3-0.1l0.1-0.1
					c0.1-0.1,0.1-0.3-0.1-0.4l-0.1-0.1c-0.1-0.1-0.2,0-0.3,0l-0.1,0.1c-0.1,0.1-0.1,0.2,0.1,0.3c0.4,0.1-1.1-1.6-1.1-1.6
					c-0.4-0.5-0.8-0.9-1.2-1.4c-0.9-1.1-1.7-2.3-2.3-3.6C29.9,575,29.8,575,29.8,575.1L29.8,575.1z"/>
			</g>
			<g>
				<path class="st2" d="M36.7,578.6c1.8,3.1,4.7,5.9,7.5,8.1c0.3,0.3,0.8-0.2,0.5-0.5c-3-2.3-5.3-5-7.8-7.8
					C36.8,578.3,36.7,578.5,36.7,578.6L36.7,578.6z"/>
			</g>
			<g>
				<path class="st2" d="M27.1,561.9c5.2-0.3,9.7-0.1,14.2,2.8c0.3,0.2,0.6-0.3,0.3-0.5c-4-2.6-9.8-4.2-14.6-2.6
					C26.9,561.7,26.9,561.9,27.1,561.9L27.1,561.9z"/>
			</g>
			<g>
				<path class="st2" d="M35.2,570.6c2.5,0,4.9-0.1,7.3,0.5c2.2,0.5,4.3,1.3,6.5,2.1c0.3,0.1,0.4-0.3,0.1-0.5
					c-4.4-1.6-9.3-3.5-14-2.3C35.1,570.5,35.1,570.6,35.2,570.6L35.2,570.6z"/>
			</g>
			<g>
				<path class="st2" d="M44.8,578.2c1.7,0.1,3.5,0.3,5.2,0.6c2,0.4,3.3,1.4,4.6,2.9c0.2,0.2,0.6-0.1,0.4-0.4
					c-1.2-1.4-2.4-2.4-4.3-2.9c-1.9-0.4-3.9-0.5-5.9-0.4C44.7,578,44.7,578.2,44.8,578.2L44.8,578.2z"/>
			</g>
			<g>
				<path class="st2" d="M37.7,555.9c0.1,1.9,1.1,3.8,1.8,5.5c0.5,1.1,0.9,3,2.3,3.2c0.1,0,0.2-0.1,0.1-0.2
					C39.5,562.4,39.4,558.5,37.7,555.9C37.9,555.8,37.7,555.8,37.7,555.9L37.7,555.9z"/>
			</g>
			<g>
				<path class="st2" d="M45.5,558.3c0.5,5.2,2.1,10.3,3.9,15.1c0.1,0.2,0.5,0.1,0.4-0.1c-1.9-4.9-2.9-9.9-4.1-15
					C45.7,558.2,45.5,558.2,45.5,558.3L45.5,558.3z"/>
			</g>
			<g>
				<path class="st2" d="M53.9,569.1c0,4.4,1.1,8.9,1.8,13.2c0.1,0.3,0.6,0.2,0.5-0.1c-0.8-4.4-1.4-8.7-2.1-13.1
					C54.1,569,53.9,569,53.9,569.1L53.9,569.1z"/>
			</g>
			<g>
				<path class="st2" d="M54.1,547.4c3.1,3.5,5.6,7.3,7.6,11.5c0.2,0.3,0.7,0.1,0.5-0.3c-2-4.3-4.6-8.1-7.9-11.5
					C54.2,546.9,53.9,547.2,54.1,547.4L54.1,547.4z"/>
			</g>
			<g>
				<path class="st2" d="M64.2,548.1c-1.5,3.3-1.8,7.6-2,11.2c0,0.3,0.5,0.3,0.5,0c0.1-2.1,0.3-4.1,0.7-6.2c0.3-1.7,0.8-3.3,1-5
					C64.4,548.1,64.2,548,64.2,548.1L64.2,548.1z"/>
			</g>
			<g>
				<path class="st2" d="M58.5,560.7c2.3,3.6,3.8,7.2,5.4,11.2c0,0.1,0.2,0,0.2-0.1c-0.6-4-2.8-8.2-5.4-11.2
					C58.6,560.5,58.4,560.6,58.5,560.7L58.5,560.7z"/>
			</g>
			<g>
				<path class="st2" d="M64.3,572.1c1-2.6,1.8-5.1,3.3-7.4c0.1-0.2-0.2-0.4-0.3-0.2C65.9,566.7,64.5,569.4,64.3,572.1
					C64.2,572.1,64.3,572.1,64.3,572.1L64.3,572.1z"/>
			</g>
		</g>
		<g>
			<path class="st0" d="M85.4,595.9C85.5,595.9,85.5,595.9,85.4,595.9C86.3,596.3,85.4,595.9,85.4,595.9z M75.8,591.1
				c-1.5,1.6-3.3,3.5-2.7,3.8c2.1,1.2,9.7,1.1,12.3,1c18,0.9,36.2-6.4,48.5-19.4c-8.5-5.8-19.8-6.7-29.7-3.9s-18.6,9.1-25.8,16.5
				C78.1,589.6,76.3,590.6,75.8,591.1z"/>
			<g class="st1">
				<path class="st2" d="M75.8,591.1c0.5-0.5,2.2-1.5,2.7-2c7.2-7.4,15.8-13.7,25.8-16.5c4.8-1.4,9.8-1.9,14.8-1.4
					c-5.7,0.2-11.4,1.7-16.5,4.3c-9,4.6-16.2,12.1-21.8,20.5c-3,0-6.4-0.3-7.7-1C72.5,594.6,74.3,592.7,75.8,591.1z"/>
			</g>
			<path class="st0" d="M77.3,561.1c3.4-3.1,7.9-4.7,12.3-5.9c6.8-1.9,13.7-3.3,20.7-3.9c-3.8,8.5-6.5,16.9-13.4,23.2
				c-2.7,2.5-7.2,4.9-10.1,7.2c-3.4,2.7-8.8,9.8-11.5,13.3c-3.2,0.6-5.6-3.9-7-7.1c-1.8-4,0.2-10.2,1.6-14.3
				C71.5,568.9,73.7,564.4,77.3,561.1z"/>
			<path class="st3" d="M85,581.9c2.4-2.8,6.4-5.9,8.6-8.8c4.8-6.1,6.4-13.2,8.1-20.6c2.9-0.5,5.7-0.9,8.6-1.2
				c-3.8,8.5-6.5,16.9-13.4,23.2c-2.7,2.5-7.2,4.9-10.1,7.2c-1.6,1.3-3.7,3.6-5.8,6.1C82.4,585.4,83.8,583.2,85,581.9z"/>
			<path class="st0" d="M76.2,538.3c1.5,7.8,3.1,15.8,1.7,23.7c-0.5,3.2-1.6,6.3-2.6,9.3c-1.1,4-1.8,6.5-2.9,10.5
				c0.8-0.6-0.8,1.9-1.7,3.3c-1,1.5-2.3,3.4-3.4,1.8c-1.3-1.8-2.6-3.8-3.2-5.9c-0.6-2.5,0-6.8,0-9.4c-0.1-6.8-0.1-13.9,2.3-20.3
				C68.4,546.2,71.8,541.6,76.2,538.3z"/>
			<g>
				<path class="st2" d="M129,577.8c-8.9-0.3-17.7,0-26.3,2.4c-8.1,2.3-15.6,6.2-22.4,11.3c-0.4,0.3-0.7-0.3-0.3-0.6
					c6.7-5.1,14.4-9,22.5-11.3c8.8-2.5,17.5-2.6,26.5-2.1C129.1,577.6,129.1,577.8,129,577.8L129,577.8z"/>
			</g>
			<g>
				<path class="st2" d="M107.4,553.9c-7.2,3.4-13.8,7.9-19.5,13.5c-6.1,6-10.2,13.2-14.9,20.4c-0.1,0.2-0.5,0-0.3-0.2
					c7.9-14.8,19-27.2,34.6-33.8C107.4,553.7,107.5,553.8,107.4,553.9L107.4,553.9z"/>
			</g>
			<g>
				<path class="st2" d="M75.8,541.4c-4.7,14-10.2,27.3-7,42.3c0.1,0.3-0.4,0.4-0.5,0.1C65.3,569.5,69.6,554.2,75.8,541.4
					C75.7,541.3,75.8,541.3,75.8,541.4L75.8,541.4z"/>
			</g>
			<g>
				<path class="st2" d="M122.5,582.8c-1-1-1.9-2-3-2.8c-1.1-0.8-2.3-1.4-3.5-2.1c-0.1-0.1,0-0.2,0.1-0.2
					C118.6,578.5,121.2,580.6,122.5,582.8C122.6,582.8,122.6,582.9,122.5,582.8L122.5,582.8z"/>
			</g>
			<g>
				<path class="st2" d="M115.3,586.4c-2.5-4.5-6.1-5.9-11.1-6.4c-0.4,0-0.3-0.6,0.1-0.5C109,580,113.7,581.4,115.3,586.4
					C115.4,586.4,115.4,586.4,115.3,586.4L115.3,586.4z"/>
			</g>
			<g>
				<path class="st2" d="M106.4,587c-2.8-2.2-5.8-5.6-9.8-4.6c-0.2,0.1-0.3-0.3-0.1-0.3C100.5,581,103.8,584.4,106.4,587
					C106.6,586.9,106.5,587,106.4,587L106.4,587z"/>
			</g>
			<g>
				<path class="st2" d="M97.6,591.7c-2.7-3.4-6.5-6.5-11-4.1c-0.3,0.1-0.5-0.3-0.2-0.4c4.4-2.3,9,0.6,11.3,4.4
					C97.8,591.6,97.7,591.7,97.6,591.7L97.6,591.7z"/>
			</g>
			<g>
				<path class="st2" d="M118.1,572.1c-0.6,2.9-3.1,4.6-5.4,6.1c-0.2,0.1-0.3-0.2-0.2-0.3c2.3-1.5,4.6-3.1,5.3-5.9
					C118,572,118.1,572,118.1,572.1L118.1,572.1z"/>
			</g>
			<g>
				<path class="st2" d="M108.7,572.8c-1,2.8-2.9,5.2-5,7.2c-0.2,0.2-0.4-0.1-0.3-0.3C105.6,577.7,107.2,575.4,108.7,572.8
					C108.6,572.7,108.7,572.7,108.7,572.8L108.7,572.8z"/>
			</g>
			<g>
				<path class="st2" d="M100.7,575.9c-0.5,1.4-1.2,2.5-2,3.7c-0.7,0.8-1.7,2.4-2.6,2.8c-0.1,0-0.2,0-0.2-0.1l-0.1-0.1
					c-0.1-0.1-0.1-0.3,0.1-0.4l0.1-0.1c0.1-0.1,0.2,0,0.3,0l0.1,0.1c0.1,0.1,0.1,0.2-0.1,0.3c-0.3,0.1,1.1-1.5,1-1.5
					c0.4-0.4,0.8-0.9,1.2-1.3C99.4,578.3,100.1,577.1,100.7,575.9C100.6,575.8,100.7,575.9,100.7,575.9L100.7,575.9z"/>
			</g>
			<g>
				<path class="st2" d="M94,579.3c-1.8,3-4.5,5.7-7.2,7.8c-0.3,0.3-0.8-0.2-0.5-0.5c2.8-2.2,5.1-4.8,7.5-7.5
					C93.9,579,94.1,579.2,94,579.3L94,579.3z"/>
			</g>
			<g>
				<path class="st2" d="M103.3,563.3c-5-0.3-9.3-0.1-13.7,2.7c-0.3,0.2-0.6-0.3-0.3-0.5c3.9-2.5,9.4-4,14-2.5
					C103.4,563.1,103.4,563.3,103.3,563.3L103.3,563.3z"/>
			</g>
			<g>
				<path class="st2" d="M95.5,571.6c-2.4,0-4.7-0.1-7.1,0.5c-2.1,0.5-4.2,1.3-6.2,2.1c-0.3,0.1-0.4-0.3-0.1-0.4
					C86.3,572.2,91,570.5,95.5,571.6C95.5,571.5,95.5,571.6,95.5,571.6L95.5,571.6z"/>
			</g>
			<g>
				<path class="st2" d="M86.2,578.9c-1.7,0.1-3.3,0.2-5,0.6c-1.9,0.4-3.1,1.3-4.4,2.7c-0.2,0.2-0.5-0.1-0.3-0.3
					c1.2-1.4,2.3-2.3,4.1-2.7C82.4,578.8,84.4,578.7,86.2,578.9C86.3,578.7,86.3,578.9,86.2,578.9L86.2,578.9z"/>
			</g>
			<g>
				<path class="st2" d="M93,557.5c-0.1,1.8-1,3.6-1.8,5.2c-0.4,1-0.9,2.9-2.2,3.1c-0.1,0-0.2-0.1-0.1-0.2c2.3-2,2.4-5.7,3.9-8.1
					C92.9,557.4,93,557.4,93,557.5L93,557.5z"/>
			</g>
			<g>
				<path class="st2" d="M85.5,559.8c-0.5,4.9-2,9.9-3.7,14.5c-0.1,0.2-0.5,0.1-0.4-0.1c1.8-4.7,2.8-9.5,3.9-14.4
					C85.4,559.7,85.6,559.7,85.5,559.8L85.5,559.8z"/>
			</g>
			<g>
				<path class="st2" d="M77.5,570.2c0,4.2-1.1,8.5-1.7,12.6c0,0.3-0.5,0.2-0.5-0.1c0.7-4.2,1.4-8.3,2-12.5
					C77.3,570.1,77.5,570.1,77.5,570.2L77.5,570.2z"/>
			</g>
			<g>
				<path class="st2" d="M77.3,549.3c-2.9,3.4-5.4,7-7.3,11c-0.2,0.3-0.7,0-0.5-0.3c1.9-4.1,4.4-7.8,7.6-11
					C77.2,548.9,77.5,549.1,77.3,549.3L77.3,549.3z"/>
			</g>
			<g>
				<path class="st2" d="M67.7,550c1.4,3.2,1.7,7.3,1.9,10.7c0,0.3-0.5,0.3-0.5,0c-0.1-2-0.3-4-0.7-5.9c-0.3-1.6-0.8-3.2-0.9-4.8
					C67.5,550,67.6,549.9,67.7,550L67.7,550z"/>
			</g>
			<g>
				<path class="st2" d="M73.1,562.1c-2.2,3.5-3.6,6.9-5.2,10.7c0,0.1-0.2,0-0.2-0.1c0.5-3.8,2.7-7.9,5.2-10.8
					C73,561.9,73.2,562,73.1,562.1L73.1,562.1z"/>
			</g>
			<g>
				<path class="st2" d="M67.6,573c-1-2.4-1.8-4.9-3.1-7.1c-0.1-0.2,0.2-0.3,0.3-0.2C66,567.9,67.3,570.5,67.6,573
					C67.7,573.1,67.6,573.1,67.6,573L67.6,573z"/>
			</g>
		</g>
		<g>
			<path class="st0" d="M296.1,586.2C296.2,586.2,296.2,586.1,296.1,586.2C296.9,585.7,296.1,586.2,296.1,586.2z M286.8,591.5
				c0.5,2.1,1.1,4.7,1.7,4.4c2.2-1.1,6.3-7.5,7.6-9.7c10.7-14.4,14.7-33.6,10.8-51.2c-9.6,3.9-16.6,12.7-19.7,22.6
				c-3.1,9.8-2.7,20.5-0.5,30.6C286.8,588.8,286.7,590.8,286.8,591.5z"/>
			<g class="st1">
				<path class="st2" d="M286.8,591.5c-0.1-0.7,0-2.7-0.2-3.4c-2.2-10.1-2.6-20.8,0.5-30.6c1.5-4.7,3.9-9.2,7.1-13.1
					c-3,4.8-4.9,10.4-5.6,16.1c-1.2,10,1.1,20.2,5,29.5c-1.7,2.5-3.8,5.2-5.2,5.8C287.9,596.2,287.3,593.6,286.8,591.5z"/>
			</g>
			<path class="st0" d="M262.7,573.7c-0.7-4.6,0.5-9.2,1.9-13.5c2.1-6.7,4.9-13.2,8.2-19.4c5,7.9,10.4,14.8,11.8,24
				c0.5,3.6,0.1,8.7,0.4,12.3c0.4,4.4,3.3,12.8,4.7,16.9c-1.2,3-6.4,2.5-9.8,1.9c-4.3-0.8-8.4-5.8-11-9.3
				C266,582.8,263.4,578.5,262.7,573.7z"/>
			<path class="st3" d="M284.3,578.8c-1-3.6-1.4-8.6-2.6-12.1c-2.5-7.4-7.4-12.6-12.7-18.1c1.2-2.7,2.4-5.3,3.8-7.8
				c5,7.9,10.4,14.8,11.8,24c0.5,3.6,0.1,8.7,0.4,12.3c0.2,2.1,0.9,5.1,1.8,8.2C285.7,582.9,284.7,580.5,284.3,578.8z"/>
			<path class="st0" d="M243.2,561.9c7.4,3,14.9,6.2,20.7,11.7c2.3,2.2,4.4,4.8,6.3,7.3c2.7,3.1,4.4,5.1,7.1,8.2
				c0-1,1.1,1.7,1.8,3.3c0.7,1.6,1.5,3.8-0.4,3.8c-2.2,0.1-4.6,0.1-6.7-0.6c-2.4-0.9-5.7-3.8-7.8-5.2c-5.7-3.7-11.6-7.6-15.6-13.1
				C245.4,572.8,243.5,567.4,243.2,561.9z"/>
			<g>
				<path class="st2" d="M305.3,539.9c-5.2,7.3-9.8,14.7-12.6,23.3c-2.6,8.1-3.5,16.4-3,24.9c0,0.4-0.7,0.4-0.7,0
					c-0.5-8.4,0.5-16.9,3.1-25c2.8-8.7,7.5-16,13-23.2C305.2,539.7,305.4,539.8,305.3,539.9L305.3,539.9z"/>
			</g>
			<g>
				<path class="st2" d="M273.4,544.6c-1.1,7.9-1.1,15.9,0.4,23.7c1.6,8.4,5.3,15.9,8.7,23.7c0.1,0.2-0.2,0.4-0.3,0.2
					C274.3,577.5,270.1,561.3,273.4,544.6C273.3,544.5,273.4,544.5,273.4,544.6L273.4,544.6z"/>
			</g>
			<g>
				<path class="st2" d="M245.5,564c9,11.6,17.1,23.6,31.4,29.3c0.3,0.1,0.1,0.6-0.2,0.5c-13.5-5.5-23.9-17.5-31.3-29.7
					C245.4,564,245.5,563.9,245.5,564L245.5,564z"/>
			</g>
			<g>
				<path class="st2" d="M305.9,548.1c-1.4,0.3-2.7,0.5-4,0.9c-1.3,0.5-2.5,1.1-3.7,1.7c-0.1,0-0.2-0.1-0.1-0.2
					C300.1,548.9,303.3,548,305.9,548.1C305.9,548,305.9,548,305.9,548.1L305.9,548.1z"/>
			</g>
			<g>
				<path class="st2" d="M304.8,556c-5.2-0.4-8.3,1.8-11.5,5.7c-0.2,0.3-0.7-0.1-0.4-0.3C296.1,557.8,299.8,554.7,304.8,556
					C304.9,555.9,304.9,556,304.8,556L304.8,556z"/>
			</g>
			<g>
				<path class="st2" d="M300.4,563.8c-3.4,1.1-7.9,1.7-9.3,5.6c-0.1,0.2-0.4,0.1-0.3-0.1c1.3-4,5.9-4.8,9.5-5.7
					C300.4,563.6,300.5,563.7,300.4,563.8L300.4,563.8z"/>
			</g>
			<g>
				<path class="st2" d="M299.4,573.7c-4.3,0.4-9,1.9-9.5,6.8c0,0.3-0.5,0.3-0.4,0c0.5-5,5.5-7.1,10-6.9
					C299.5,573.6,299.5,573.7,299.4,573.7L299.4,573.7z"/>
			</g>
			<g>
				<path class="st2" d="M294.5,545.8c2.1,2.1,2.1,5.1,2.1,7.8c0,0.2-0.3,0.2-0.3,0C296.4,550.8,296.3,548.1,294.5,545.8
					C294.3,545.9,294.5,545.8,294.5,545.8L294.5,545.8z"/>
			</g>
			<g>
				<path class="st2" d="M289.8,554c1.7,2.4,2.7,5.3,3.2,8.1c0,0.2-0.3,0.3-0.4,0.1C292.2,559.3,291.1,556.7,289.8,554
					C289.7,554,289.8,554,289.8,554L289.8,554z"/>
			</g>
			<g>
				<path class="st2" d="M288,562.4c0.9,1.2,1.5,2.4,1.9,3.7c0.3,1,1.1,2.7,0.9,3.7c0,0.1-0.1,0.2-0.2,0.2h-0.1
					c-0.2,0-0.3-0.1-0.3-0.3v-0.1c0-0.1,0.1-0.2,0.2-0.2h0.1c0.1,0,0.2,0.1,0.2,0.2c-0.1,0.3-0.7-1.7-0.7-1.7
					c-0.1-0.6-0.3-1.2-0.5-1.7c-0.4-1.3-0.9-2.6-1.6-3.7C287.9,562.4,288,562.4,288,562.4L288,562.4z"/>
			</g>
			<g>
				<path class="st2" d="M287.1,569.9c1.5,3.1,2.2,6.9,2.5,10.3c0,0.4-0.6,0.5-0.6,0.1c-0.3-3.6-1.1-6.9-2.1-10.4
					C286.8,569.8,287.1,569.7,287.1,569.9L287.1,569.9z"/>
			</g>
			<g>
				<path class="st2" d="M278.9,553.3c-3.1,4-5.2,7.7-5.3,12.9c0,0.3-0.5,0.3-0.5,0c0-4.6,1.9-10.1,5.7-13
					C278.9,553,279,553.1,278.9,553.3L278.9,553.3z"/>
			</g>
			<g>
				<path class="st2" d="M281.5,564.4c-1.4,2-2.7,3.8-3.5,6.1c-0.8,2-1.3,4.2-1.7,6.3c-0.1,0.3-0.5,0.1-0.4-0.1
					C276.9,572.4,278,567.4,281.5,564.4C281.5,564.3,281.6,564.3,281.5,564.4L281.5,564.4z"/>
			</g>
			<g>
				<path class="st2" d="M282.5,576.1c-0.8,1.5-1.7,2.9-2.3,4.5c-0.8,1.8-0.7,3.3-0.2,5.2c0.1,0.3-0.4,0.4-0.5,0.1
					c-0.5-1.7-0.7-3.2,0-4.9c0.7-1.7,1.7-3.4,2.8-4.9C282.4,575.9,282.5,576,282.5,576.1L282.5,576.1z"/>
			</g>
			<g>
				<path class="st2" d="M268.5,558.6c1.4,1.1,2.4,2.9,3.4,4.4c0.6,0.9,1.9,2.3,1.3,3.5c0,0.1-0.2,0.1-0.2,0c-0.4-3-3.4-5.1-4.6-7.8
					C268.3,558.6,268.4,558.5,268.5,558.6L268.5,558.6z"/>
			</g>
			<g>
				<path class="st2" d="M266.2,566.1c3.9,3.1,7.1,7.1,10,11.2c0.1,0.2-0.1,0.5-0.3,0.3c-2.9-4.1-6.4-7.6-9.8-11.3
					C266,566.1,266.1,566,266.2,566.1L266.2,566.1z"/>
			</g>
			<g>
				<path class="st2" d="M270.4,578.5c3.5,2.3,6.5,5.6,9.6,8.4c0.2,0.2-0.1,0.6-0.4,0.3C276.5,584.3,273.4,581.4,270.4,578.5
					C270.2,578.6,270.3,578.5,270.4,578.5L270.4,578.5z"/>
			</g>
			<g>
				<path class="st2" d="M252.9,567.1c1.2,4.3,2.8,8.4,5.1,12.2c0.2,0.3-0.3,0.6-0.5,0.3c-2.3-3.8-4.1-8-4.9-12.4
					C252.5,566.9,252.9,566.9,252.9,567.1L252.9,567.1z"/>
			</g>
			<g>
				<path class="st2" d="M248.2,575.5c3.5,0.6,7,2.6,10,4.4c0.3,0.2,0,0.6-0.3,0.4c-1.7-1-3.5-1.9-5.3-2.7c-1.5-0.7-3-1.1-4.5-1.9
					C248,575.7,248.1,575.5,248.2,575.5L248.2,575.5z"/>
			</g>
			<g>
				<path class="st2" d="M261.2,577.7c1.7,3.8,3.8,6.8,6.1,10.2c0.1,0.1-0.1,0.2-0.2,0.1c-2.9-2.5-5-6.6-6.1-10.3
					C261,577.6,261.2,577.6,261.2,577.7L261.2,577.7z"/>
			</g>
			<g>
				<path class="st2" d="M267.2,588.4c-2.6-0.6-5-1.2-7.7-1.3c-0.2,0-0.2-0.3,0-0.3C262.1,586.8,265,587.2,267.2,588.4
					C267.3,588.3,267.3,588.4,267.2,588.4L267.2,588.4z"/>
			</g>
		</g>
		<g>
			<g>
				<path class="st4" d="M124,594.8c-0.1,0-0.2,0.1-0.2,0.1c-2.5,1.2-3.8,1-6.2-0.1c-2.2-1-4.4-2.2-6.2-3.9
					c-2.3-2.1-4.1-4.8-4.5-7.9c-0.1-0.7-0.1-1.4,0.3-2c0.6-0.8,1.7-0.9,2.6-0.5c0.9,0.3,1.6,1,2.3,1.7c0.3,0.3,0.6,0.5,1,0.7
					c0.4,0.1,0.9,0,1.1-0.4c0.3-0.6-0.2-1.2-0.7-1.6c-1.2-1-2.2-1.5-3.4-2.4c-1.5-1.1-2.9-2.4-3.8-4c-0.8-1.7-1-3.7-0.2-5.4
					c0.3-0.5,0.6-1,1.1-1.3c0.8-0.5,1.9-0.5,2.9-0.3c1,0.2,1.9,0.6,2.9,0.7c2.4,0.2,3.3-1.4,3.2-3.6c0-1.5-0.5-2.9-0.6-4.3
					c-0.1-2.6,1.1-5.3,3.4-6.4s5.6,0,6.4,2.4c0.9,2.6-1.2,5.6,0.2,8.1c0.4,0.8,1.4,1.9,2.2,2.4c1.3,0.8,3.2-0.1,4.7-0.1
					c0.3,0,0.7,0.1,0.9,0.3c0.2,0.2,0.2,0.4,0.3,0.7c0.4,1.8-0.3,3.8-1.7,5.1c-1.6,1.4-4.3,2.1-4.9,4.4c-0.4,1.4-0.2,4.8,2,4.5
					c0.8-0.1,1.4-0.9,2.2-1.2c1-0.3,2.1,0.3,2.5,1.3c0.4,0.9,0.3,2-0.1,3c-0.6,1.5-1.8,2.7-2.9,3.9C128.6,591,127,593.3,124,594.8z"
					/>
			</g>
			<line class="st5" x1="120.7" y1="562.7" x2="120.7" y2="594.9"/>
			<polyline class="st5" points="126.9,572 120.7,578.2 114.5,572 			"/>
			<polyline class="st5" points="126.9,584.5 120.7,590.7 114.5,584.5 			"/>
		</g>
	</g>
	<g id="Layer_14">
		<g>
			<rect x="60.3" y="585.7" class="st7" width="7" height="7.3"/>
			<rect x="76.7" y="585.7" class="st7" width="7" height="7.3"/>
			<polygon class="st8" points="77.6,510.9 77,555.5 75.9,588.5 84.6,588.5 86.4,555.3 92.6,521.8 92.6,510.9 			"/>
			<polygon class="st9" points="76.8,559.4 77.8,555.3 85.5,524.1 92.6,519.6 92.6,510.9 77.6,510.9 77,555.5 			"/>
			<polygon class="st10" points="66.7,510.9 65.1,557 59.4,588.5 68,588.5 75.9,555.3 83.6,524.1 92.6,518.4 92.6,510.9 			"/>
			<g>
				<path class="st10" d="M75.5,589.9l-0.5,1v5.2h24.3l1.4-0.7l-1-3.5c-0.1-0.2-0.3-0.4-0.6-0.3l-1.7,0.6l-3.8-0.9l-6.5-3.7
					c-0.5-0.5-1.4-0.5-1.9,0.1l-2.5,2.9h-5.4l-0.7-0.7C76.3,589.4,75.7,589.5,75.5,589.9z"/>
				<g>
					<polygon class="st2" points="99.3,595.1 75,595.1 75,596 99.3,596 100.7,595.3 100.4,594.5 					"/>
					
						<rect x="87.6" y="587.8" transform="matrix(0.5384 -0.8427 0.8427 0.5384 -455.4914 346.2207)" class="st2" width="1.4" height="2.1"/>
					
						<rect x="90.1" y="589.5" transform="matrix(0.5384 -0.8427 0.8427 0.5384 -455.7142 349.0977)" class="st2" width="1.4" height="2.1"/>
					<path class="st2" d="M81.6,591.8c0,1.2-1.2,2.2-2.4,1.8l-4.2-1.2v-0.6H81.6L81.6,591.8z"/>
				</g>
			</g>
			<path class="st9" d="M83.5,595.9l1.5-0.8l-1.1-3.7c-0.1-0.3-0.4-0.4-0.6-0.3l-1.8,0.6l-4.1-1l-1.7-1c-0.1,0.1-0.1,0.1-0.2,0.2
				l-0.5,1v0.9v0.6v2.7v0.8H83.5z"/>
			<g>
				<path class="st10" d="M58.9,589.9l-0.5,1v5.2h24.3l1.4-0.7l-1-3.5c-0.1-0.2-0.3-0.4-0.6-0.3l-1.7,0.6l-3.8-0.9l-6.5-3.7
					c-0.5-0.5-1.4-0.5-1.9,0.1l-2.5,2.9h-5.4l-0.7-0.7C59.7,589.4,59.1,589.5,58.9,589.9z"/>
				<g>
					<polygon class="st2" points="82.7,595.1 58.4,595.1 58.4,596 82.7,596 84.1,595.3 83.8,594.5 					"/>
					
						<rect x="71" y="587.8" transform="matrix(0.5384 -0.8427 0.8427 0.5384 -463.1707 332.2306)" class="st2" width="1.4" height="2.1"/>
					
						<rect x="73.5" y="589.5" transform="matrix(0.5384 -0.8427 0.8427 0.5384 -463.3936 335.1076)" class="st2" width="1.4" height="2.1"/>
					<path class="st2" d="M65,591.8c0,1.2-1.2,2.2-2.4,1.8l-4.2-1.2v-0.6H65L65,591.8z"/>
				</g>
			</g>
			<path class="st9" d="M76.6,513.9l-1.2,2.9c-0.6,1.6-2.1,2.6-3.8,2.6h-5.1v0.5h6.1c1.7,0,3.2-1,3.8-2.6l1.7-4.3L76.6,513.9z"/>
			<path class="st7" d="M99.4,464.6h6.9L97.9,451l-4.6-2.3c-1.3-0.6-2.1-2-2.1-3.4v-8.1c0-0.2,0.1-0.3,0.3-0.3l0,0
				c1.1,0,2.2,0.5,2.9,1.4l4.5,5.7l1.5,3.7l14.7,17.1c0.6,0.7,0.5,1.7-0.2,2.3l0,0c-1.7,1.3-3.6,2.2-5.7,2.8l-10.6,2.6L99.4,464.6z"
				/>
			<rect x="71.6" y="450.5" class="st7" width="11.2" height="17.3"/>
			<g>
				<path class="st2" d="M84.4,438.2c-0.6-0.8-1.6-0.7-2.3-1.1c-0.9-0.5-1.1-1-2.2-1.2c-1-0.2-2.1-0.3-3.1,0
					c-1.5,0.4-2.8,1.4-4.3,1.5c-0.5,0-1-0.1-1.5,0c-0.5,0.1-1,0.3-1.1,0.8s0.1,1.1-0.3,1.4c-0.2,0.1-0.4,0.1-0.6,0.2
					c-1.2,0.1-2.4,1.9-2.2,3.1c0.1,0.3,0.2,0.6,0.3,0.9c0.7,1.5,1.4,3.1,1.8,4.8c0.3,1.5,1.1,2.9,1.1,4.5c0.1,1.6,0.6,2.9,1.4,4.3
					c0.1,0.1,0.2,0.3,0.4,0.2c0,0,0.1-0.1,0.1-0.2c0.1-0.6,0.1-1.2,0.2-1.8s0.2-1.2,0.6-1.7c0.1-0.2,0.3-0.3,0.4-0.5
					c0.4-0.6,0.2-1.4,0.5-2c0.3-0.8,0.8-1.6,1.2-2.4c0.1-0.3,0.2-0.5,0.4-0.7c0.2-0.2,0.4-0.2,0.6-0.3c0.9-0.4,1.8-0.7,2.7-1.1
					c0.6-0.2,1.2-0.5,1.8-0.6c0.3-0.1,0.7-0.1,1-0.2c0.7-0.3,1-1.2,1.2-2c0.2-0.8,0.3-1.7,1-2.2c0.3-0.2,0.7-0.4,0.9-0.7
					c0.2-0.3,0-0.8,0.2-1.1c0.1-0.2,0.2-0.4,0.3-0.5C84.7,438.9,84.6,438.5,84.4,438.2z"/>
			</g>
			<path class="st9" d="M71.6,453c0.4,0.2,0.7,0.3,1.2,0.4l1.7,0.1l0.4,0.6c0.7,1.2,1.9,2,3.3,2.2l4.6-0.9v-4.9H71.6V453z"/>
			<path class="st7" d="M86.1,445.8l0.6,1.5c0.2,0.6,0.3,1.2,0.3,1.8l-0.4,4c-0.2,1.6-1.7,2.7-3.3,2.4l-5.1-1.1
				c-1.3-0.3-2.5-1.1-3.3-2.2l-0.4-0.6l-1.7-0.1c-0.7,0-1.4-0.4-1.9-1l0,0c-0.3-0.4-0.5-0.9-0.5-1.4v-0.4c0-0.4,0.1-0.8,0.4-1.1l0,0
				c0.3-0.4,0.9-0.6,1.4-0.5l0.7,0.2v-3.5c0-2,1.4-3.7,3.3-4.2l4.3-1l4,0.7L86.1,445.8z"/>
			<path class="st11" d="M71.6,447.1c-0.1,0.1-0.3,0-0.3-0.2v-2.5l-0.9,0.5v2.5c0,0.1,0.1,0.2,0.3,0.2L71.6,447.1z"/>
			<polygon class="st9" points="100.8,464.6 99.4,464.6 98.6,472.5 100.1,472.1 			"/>
			<polygon class="st12" points="82.8,461 92.2,462.9 99.6,462.9 98.5,473.7 92.2,477.4 82.8,462.9 			"/>
			<polygon class="st12" points="71.6,458.5 64.2,467.8 65.6,513.4 93.3,513.4 92.2,477.4 82.8,460.9 79.2,467.8 			"/>
			<g>
				<g>
					<path class="st2" d="M72.9,443.7c0.6-0.8,1.6-1,2.2-1.7c0.2-0.2,0.4-0.8,0.6-0.9c0.3-0.2,1,0,1.3,0c0.7,0,1.2-0.3,1.8-0.7
						c1-0.8,0.9-1.1,2.2-1.1c1.6,0,1.6-2.5,0-2.5c-1.1,0-1.9-0.1-2.8,0.6c-0.3,0.2-0.6,0.7-0.9,0.9c-0.6,0.4-1.4,0.1-2.1,0.3
						c-1.2,0.3-1.3,1.1-2.2,1.8c-0.9,0.7-1.5,1.1-2.2,2C69.8,443.8,72,445,72.9,443.7L72.9,443.7z"/>
				</g>
			</g>
			<g>
				<path class="st11" d="M93.8,446.1l-7.3,0.7l-0.7-0.6l-2.7,0.3c0,0-3.3,1-6.6-1.7l-0.7-2.4l8.5-4.3L93.8,446.1z"/>
				<path class="st11" d="M92.4,444.7L82,441.8c-0.3-0.1-0.6-0.4-0.6-0.7v-4.3c0-0.5,0.5-0.9,1-0.7l10.4,2.9
					c0.3,0.1,0.6,0.4,0.6,0.7v4.3C93.3,444.5,92.8,444.9,92.4,444.7z"/>
				<path class="st2" d="M82.1,442.1l-13.3,6.5c-0.1,0.1-0.3,0-0.3-0.2v-2.5l13.6-6.6V442.1z"/>
				<path class="st11" d="M69.7,448.1c-0.1,0.1-0.3,0-0.3-0.2v-2.5l-0.9,0.5v2.5c0,0.1,0.1,0.2,0.3,0.2L69.7,448.1z"/>
				<path class="st11" d="M71.6,447.1c-0.1,0.1-0.3,0-0.3-0.2v-2.5l-0.9,0.5v2.5c0,0.1,0.1,0.2,0.3,0.2L71.6,447.1z"/>
				<path class="st11" d="M73.5,446.3c-0.1,0.1-0.3,0-0.3-0.2v-2.5l-0.9,0.5v2.5c0,0.1,0.1,0.2,0.3,0.2L73.5,446.3z"/>
				<path class="st11" d="M75.4,445.4c-0.1,0.1-0.3,0-0.3-0.2v-2.5l-0.9,0.5v2.5c0,0.1,0.1,0.2,0.3,0.2L75.4,445.4z"/>
				<path class="st11" d="M77.3,444.4c-0.1,0.1-0.3,0-0.3-0.2v-2.5l-0.9,0.5v2.5c0,0.1,0.1,0.2,0.3,0.2L77.3,444.4z"/>
				<path class="st11" d="M79.2,443.5c-0.1,0.1-0.3,0-0.3-0.2v-2.5l-0.9,0.5v2.5c0,0.1,0.1,0.2,0.3,0.2L79.2,443.5z"/>
				<path class="st11" d="M81.1,442.5c-0.1,0.1-0.3,0-0.3-0.2v-2.5l-0.9,0.5v2.5c0,0.1,0.1,0.2,0.3,0.2L81.1,442.5z"/>
				<path class="st2" d="M93.8,446.1l-10.4-2.8c-0.3-0.1-0.6-0.4-0.6-0.7v-5.7c0-0.5,0.5-0.9,1-0.7l10.4,2.9
					c0.3,0.1,0.6,0.4,0.6,0.7v5.7C94.7,445.9,94.3,446.3,93.8,446.1z"/>
				<ellipse class="st11" cx="89.3" cy="441.1" rx="0.6" ry="1.1"/>
			</g>
			<path class="st13" d="M67.9,501.8c0,1.2-1.2,3.2-1,4.5c0.1,0.9,0.2,1.4,0.4,2.3c0.4,1.5,2.6,0.8,2.3-0.6c-0.5-2.2,0-5.2-1.5-7.1
				c0.1-0.3,0.1-0.6,0.2-0.9c0.1-0.4,0-0.9-0.3-1.1c-0.7-0.7-3.9-4.7-2.3-6.2c0.4-0.3,0.5-1,0.2-1.4c-0.3-0.4-0.6-0.9-0.9-1.4
				c0.7-0.3,1.4-0.6,2.1-0.9c0.5-0.3,0.8-1.1,0.4-1.6c-1-1.5-1.8-3.2-1.7-5.1c0-0.8,0.5-1.3,0.5-2.1c0-1.3-0.8-2.4-0.7-3.7
				c0.1-0.8-0.5-1.1-1.1-1.1l0.8,24.5c0.2,0.5,0.3,1,0.3,1.5c0,0.2-0.1,0.3,0,0.5c0,0.1,0,0.1,0.1,0.2
				C65.9,503.4,67.7,503.1,67.9,501.8z"/>
			<path class="st7" d="M67.9,519.4h-0.7l-1.2-3.1v-9.2l-8.4-12.5c-0.4-0.6-0.6-1.2-0.6-1.9v-11.3l7.2,1.9l-0.6,10.8l6.5,12l3.4,4.2
				l1.4,6.7l0,0c-0.7,0-1.3-0.5-1.5-1.2l-0.4-1.2l-0.4,4.6h-4.7V519.4z"/>
			<polygon class="st9" points="57,483.3 64.1,485.1 64.2,483.3 57,481.4 			"/>
			<path class="st12" d="M71.6,458.5l-10,4.9c-3,1.5-5,4.4-5.2,7.8l-0.8,10.3l9.2,2.4l2-9.3l4.8-11.7V458.5z"/>
		</g>
	</g>
	<g id="Layer_17">
		<g>
			<path class="st14" d="M302.5,582.8l-0.5,3.6l-9.5,4.7l-7.3,1.6c0,0,0.6,3.2,6.3,3.4c5.7,0.2,17-0.4,17-0.4l0,0
				c0.7-0.8,1-1.8,1-2.8v-1.4c0-0.9-0.5-1.6-1.3-1.9l0,0l-0.1-5.9L302.5,582.8z"/>
			<path class="st15" d="M309.5,591.4c0-0.3-0.1-0.6-0.2-0.8c-0.6,0.3-1.5,1.8-2.1,1.8c-3.7,0.1-7.7,0.4-10.8,0.2
				c-3.1-0.1-4.9-0.3-5.7-1.1l-5.5,1.2c0,0,0.6,3.2,6.3,3.4c5.7,0.2,17-0.4,17-0.4c0.7-0.8,1-1.8,1-2.8L309.5,591.4L309.5,591.4z"/>
			<path class="st7" d="M296.2,584.1v1.8l-14.2,6c0,0-0.8,4.6,8.1,3.7l15.7-3c0,0,0.6-1.8,0.9-3.3c0.2-1-0.2-2-1-2.7l0,0l-3.2-3
				L296.2,584.1z"/>
			<path class="st10" d="M306.4,587.6c-0.8,1.2-1.9,2.2-3.4,2.6l-6.1,1.7c-7.5,0.7-8.2-1.9-8.2-2.9l-6.7,2.8c0,0-0.8,4.6,8.1,3.7
				l15.7-3c0,0,0.6-1.8,0.9-3.3C306.8,588.7,306.7,588.1,306.4,587.6z"/>
			<path class="st16" d="M310.4,522.1l-2.5,25.4c4.6,11,0.3,36.1,0.3,36.1h-5.8l-3.4-32.5l-3.5-9L310.4,522.1z"/>
			<g>
				<path class="st9" d="M298.6,550.4l9-22.2l2.2-1.8c0.1-0.1,0.1-0.1,0.2-0.2l0.4-4.2l-15,20.1L298.6,550.4z"/>
				<path class="st9" d="M302.3,583.7l1.6-0.1c0,0,1.2-16.2-4.3-25.5L302.3,583.7z"/>
			</g>
			<path class="st17" d="M292.3,513.3l-8.9,40.6l12.9,30.3l6.2-0.5c0,0,1.5-21.1-7-29l10.6-26.4l2.2-1.8c1.9-1.5,3-3.8,3-6.2v-9.2
				L292.3,513.3z"/>
			<g>
				<path class="st18" d="M320.7,462.8c-1-1.5-1.3-3.3-1.6-5c-0.2-2.1-0.3-4.2-0.1-6.3c0.1-0.9,0.2-1.8,0.1-2.7
					c-0.1-0.6-0.3-1.3-0.4-1.9c-0.6-2.7-0.2-5.6-0.7-8.3c-0.1-0.6-0.3-1.3-0.8-1.8c-0.7-0.7-1.9-0.9-2.7-0.4
					c-0.9,0.5-1.4,1.4-1.5,2.4l0.1-0.2c-1.2,3.4-0.6,7.1-1.2,10.6c-0.4,2-1.1,4-1.5,6c-0.3,2-0.2,4.3,1.1,5.9c0.5,0.6,1.1,1,1.7,1.5
					c1.7,1.2,3.6,2.1,5.6,2.8c-0.6-0.5-1-1.3-1.1-2.1c1.1,0.8,2.2,1.6,3.5,2.1s2.7,0.6,3.9,0C323.4,465.4,321.7,464.2,320.7,462.8z"
					/>
			</g>
			<g>
				<g>
					<path class="st19" d="M315,463.1c-0.6-0.4-1.2-0.9-1.7-1.5c-1.3-1.6-1.5-3.8-1.1-5.9c0.3-2,1.1-4,1.5-6
						c0.6-3.5-0.1-9.9-0.1-9.9c0.1-1-0.4-1.3-0.4-1.3c-1.2,3.4-0.6,7.1-1.2,10.6c-0.4,2-1.1,4-1.5,6c-0.3,2-0.2,4.3,1.1,5.9
						c0.5,0.6,1.1,1,1.7,1.5c1.7,1.2,3.6,2.1,5.6,2.8c-0.1-0.1-0.1-0.1-0.2-0.2C317.4,464.5,316.1,463.9,315,463.1z"/>
				</g>
				<g>
					<path class="st19" d="M324.8,465.4c0.1,0,0.2-0.1,0.3-0.1c-0.2,0-0.4,0-0.7,0C324.6,465.3,324.7,465.4,324.8,465.4z"/>
				</g>
				<g>
					<path class="st19" d="M319.5,463.8c0,0.2,0.1,0.5,0.2,0.7c0.5,0.3,1,0.6,1.6,0.8c0.4,0.1,0.7,0.2,1.1,0.3
						C321.3,465.1,320.4,464.5,319.5,463.8z"/>
				</g>
			</g>
			<g>
				<path class="st18" d="M312.8,439.1c-0.4,0.3-1,0.2-1.5,0c-0.5-0.2-0.9-0.5-1.3-0.8c-0.9-0.5-2-0.6-3-0.7
					c-3.3-0.4-6.9-0.7-9.6,1.1h-0.2c2.7,6.3,5.7,12.5,8.8,18.7c0.6-0.5,1.2-1.1,1.9-1.6c2.7-2.3,5.5-4.9,5.9-8.4
					C314,444.6,312.7,441.9,312.8,439.1z"/>
			</g>
			<rect x="297.6" y="453" class="st7" width="9.2" height="18.3"/>
			<path class="st9" d="M301.1,458.4l-3.5-0.7v-4.8h9.2v0.7C306.8,456.7,304,459,301.1,458.4z"/>
			<path class="st7" d="M291.4,447.5v8c0,1.2,1,2.2,2.2,2.2h5.5c3.4,0,6.1-2.7,6.1-6.1v-3.2v-3.8c0-1-0.5-2-1.3-2.7l-3.6-2.9
				c-1-0.8-2.3-0.9-3.4-0.3C295.2,439.8,293.1,442.1,291.4,447.5z"/>
			<g>
				<path class="st11" d="M296.4,438.2l3.4,1.7c1.5,0.8,2.5,2.2,2.6,3.9l0.1,1.4l-8.4-1.9L296.4,438.2z"/>
				<path class="st11" d="M282.2,448.7l8.8,0.8l0.9-0.8l3.3,0.4c0,0,4,1.2,8-2l0.9-2.9l-10.3-5.3L282.2,448.7z"/>
				<path class="st11" d="M283.9,447l12.6-3.5c0.4-0.1,0.7-0.5,0.7-0.9v-5.2c0-0.6-0.6-1-1.2-0.9l-12.6,3.5
					c-0.4,0.1-0.7,0.5-0.7,0.9v5.2C282.8,446.7,283.3,447.1,283.9,447z"/>
				<path class="st2" d="M296.4,443.8l16.1,7.9c0.1,0.1,0.3,0,0.3-0.2v-3l-16.5-8v3.3C296.3,443.8,296.4,443.8,296.4,443.8z"/>
				<path class="st11" d="M311.4,451.1c0.1,0.1,0.3,0,0.3-0.2v-3l1.1,0.6v3c0,0.2-0.2,0.3-0.3,0.2L311.4,451.1z"/>
				<path class="st11" d="M309.1,449.9c0.1,0.1,0.3,0,0.3-0.2v-3l1.1,0.6v3c0,0.2-0.2,0.3-0.3,0.2L309.1,449.9z"/>
				<path class="st11" d="M306.8,448.8c0.1,0.1,0.3,0,0.3-0.2v-3l1.1,0.6v3c0,0.2-0.2,0.3-0.3,0.2L306.8,448.8z"/>
				<path class="st11" d="M304.5,447.7c0.1,0.1,0.3,0,0.3-0.2v-3l1.1,0.6v3c0,0.2-0.2,0.3-0.3,0.2L304.5,447.7z"/>
				<path class="st11" d="M302.2,446.6c0.1,0.1,0.3,0,0.3-0.2v-3l1.1,0.6v3c0,0.2-0.2,0.3-0.3,0.2L302.2,446.6z"/>
				<path class="st11" d="M299.9,445.5c0.1,0.1,0.3,0,0.3-0.2v-3l1.1,0.6v3c0,0.2-0.2,0.3-0.3,0.2L299.9,445.5z"/>
				<path class="st11" d="M297.6,444.3c0.1,0.1,0.3,0,0.3-0.2v-3l1.1,0.6v3c0,0.2-0.2,0.3-0.3,0.2L297.6,444.3z"/>
				<path class="st2" d="M282.2,448.7l12.6-3.5c0.4-0.1,0.7-0.5,0.7-0.9v-6.9c0-0.6-0.6-1-1.2-0.9l-12.6,3.5
					c-0.4,0.1-0.7,0.5-0.7,0.9v6.9C281,448.4,281.6,448.9,282.2,448.7z"/>
				<ellipse class="st11" cx="287.6" cy="442.6" rx="0.7" ry="1.4"/>
			</g>
			<path class="st7" d="M305.2,448.5c0,0,2.2-1.7,3-0.1v2.9c0,1.1-0.6,2.2-1.6,2.6c-0.5,0.2-1.1,0.3-1.8,0.1L305.2,448.5z"/>
			<path class="st2" d="M312.9,441.3l-1.8-1.9c-0.4-0.4-0.3-1,0-1.4l0.2-0.2c0.4-0.4,1-0.3,1.4,0l1.8,1.9c0.4,0.4,0.3,1,0,1.4
				l-0.2,0.2C313.9,441.7,313.3,441.7,312.9,441.3z"/>
			<path class="st9" d="M309.3,525.5c1.3-1.4,2-3.3,2-5.2v-9.2l-19,2.2l-2.3,10.4v1c9,2.2,16.1-7,16.1-7L309.3,525.5z"/>
			<path class="st10" d="M287.6,464.8v18.3c0,2.4,0.5,4.8,1.4,7.1l1,2.6v29.3c9,2.2,16.1-7,16.1-7l4.8,11.9l0,0
				c1.8-2.5,2.8-5.6,2.6-8.7l-1.4-26.8l0.4-26.7l-5.8,1.4l-0.7,0.7c-2.4,2.6-6.6,2.3-8.5-0.7l0,0L287.6,464.8z"/>
			<path class="st7" d="M244.2,442.8l-5.4-1l0.4,0.8c0.1,0.2,0.3,0.3,0.5,0.4l4.4,1.4l2.7,4l2.4,2.1l12.4,20.2l17.8,2.5v-8.8
				l-12.9-0.7l-15.1-17.6l-0.6-3.7l-2.4-3.7l-0.7-3.6l-2.5-3.5c-0.4,0.9-0.4,1.9,0.2,2.7l0.5,0.8l0.7,3.5l-0.1,0.1
				c0,0-0.4-0.3-0.6-0.3l-0.6-1l-4.9-3.1v0.8c0,0.5,0.2,0.9,0.6,1.2l3.6,2.8l0.3,0.7l-0.2,0.4l-1.5-1.2l-4.8-1.1v1.3l3.3,0.9
				l2.4,1.6"/>
			<path class="st9" d="M250.8,442.5L250.8,442.5l-0.1-0.2l-1.6-0.4c-0.4-0.1-0.8,0-1.1,0.2l-1.6,1.2l0.1,0.2l1.5-1.1
				c0.3-0.2,0.7-0.3,1.1-0.2L250.8,442.5L250.8,442.5z"/>
			<polygon class="st9" points="277.5,472.9 279.5,473.2 279.5,464.4 278.9,464.4 			"/>
			<polygon class="st10" points="297.6,461.4 290,462.8 279.5,463.8 279.5,473.8 287.6,476.4 297.6,466.2 			"/>
			<path class="st20" d="M312.1,491.5v-1.1c-0.3-0.4-0.6-0.7-0.9-1.1c0.3-0.2,0.6-0.4,0.9-0.6l0.1-4.4c-0.2-0.1-0.4-0.1-0.6-0.2
				c0.3-0.5,0.3-1.1-0.2-1.5l-0.1-0.1c0.3-0.2,0.6-0.4,1-0.6v-2.1c-0.3-0.3-0.8-0.3-1.3,0c-0.9,0.5-1.8,1.1-2.6,1.6
				c-0.7,0.4-0.8,1.6-0.1,2l0,0c-0.9,0.6-0.7,1.9,0.3,2.2c0.9,0.3,1.8,0.6,2.7,0.9c-0.8,0.6-2,1.1-2.5,1.6c-0.4,0.4-0.4,1-0.2,1.5
				c0.1,0.2,0.6,0.8,0.7,1c1.1,2.9,0,2.3,0.2,4.3c0.1,0.8,0.3,1.6,0.6,2.3c-1.3-0.7,2.2,0.7,1.2-0.7
				C310.4,495.3,312.1,491.5,312.1,491.5z"/>
			<path class="st13" d="M311.4,483.9l-1.1,9l-7.8-4.2l-0.5-5.2l-2.2-2l-0.8-3.2l-3.1-3.6l0,0c-0.4,0.8-0.3,1.8,0.2,2.5l1.1,1.7
				l-0.1,4.3l-0.8,0.3l-2.7-3.6l0,0c-0.8,0.7-0.9,1.9-0.4,2.8l5.8,9.2l13.5,9.8l0,0l-0.5-10.1l0.1-7.7L311.4,483.9L311.4,483.9z"/>
			<path class="st7" d="M317.3,482.4l-1.6,14.6l-1.5,2.2c-0.7,1-2.1,1.3-3.1,0.5l-12-9.4l-5.8-9.2c-0.6-0.9-0.4-2.1,0.4-2.8l0,0
				l2.7,3.6l0.8-0.3l0.1-4.3l-1.5-2.3c-0.4-0.7-0.4-1.5-0.1-2.2l0.2-0.3l3.2,4.2l0.8,3.2l2.2,2l0.5,5.2l7.8,4.2l1.1-9h5.8V482.4z"/>
			<polygon class="st9" points="317.3,482.4 311.4,482.4 311.2,483.9 317.1,483.9 			"/>
			<path class="st10" d="M306.8,461.4l10.1,4.2c0.9,0.4,1.5,1.2,1.5,2.2v14.6h-8.1V476l-3.5-9.8V461.4z"/>
		</g>
	</g>
	<g id="Layer_13">
		<g class="st21">
			<path class="st22" d="M170.8,406.4c-2.2,0-3.9-1.8-3.9-3.9c0-2.2,1.8-3.9,3.9-3.9c2.2,0,3.9,1.8,3.9,3.9
				C174.7,404.6,172.9,406.4,170.8,406.4z M170.8,400.6c-1,0-1.8,0.8-1.8,1.8s0.8,1.8,1.8,1.8s1.8-0.8,1.8-1.8
				S171.8,400.6,170.8,400.6z"/>
		</g>
		<g>
			<path class="st23" d="M93.9,408.4c-1.7,0-3-1.4-3-3c0-1.7,1.4-3,3-3c1.7,0,3,1.4,3,3C97,407,95.6,408.4,93.9,408.4z M93.9,403.9
				c-0.8,0-1.4,0.6-1.4,1.4c0,0.8,0.6,1.4,1.4,1.4s1.4-0.6,1.4-1.4C95.3,404.5,94.7,403.9,93.9,403.9z"/>
		</g>
		<g>
			<path class="st23" d="M139,544.4c-1.7,0-3-1.4-3-3c0-1.7,1.4-3,3-3c1.7,0,3,1.4,3,3S140.6,544.4,139,544.4z M139,539.9
				c-0.8,0-1.4,0.6-1.4,1.4s0.6,1.4,1.4,1.4c0.8,0,1.4-0.6,1.4-1.4C140.4,540.5,139.8,539.9,139,539.9z"/>
		</g>
		<g class="st21">
			<path class="st22" d="M82.8,426.9c-1.1,0-2.1-0.9-2.1-2.1c0-1.1,0.9-2.1,2.1-2.1c1.1,0,2.1,0.9,2.1,2.1
				C84.9,426,84,426.9,82.8,426.9z M82.8,423.9c-0.5,0-1,0.4-1,1c0,0.5,0.4,1,1,1c0.5,0,1-0.4,1-1S83.3,423.9,82.8,423.9z"/>
		</g>
		<g>
			<path class="st23" d="M184.1,559.7c-1.1,0-2.1-0.9-2.1-2.1c0-1.1,0.9-2.1,2.1-2.1c1.1,0,2.1,0.9,2.1,2.1S185.3,559.7,184.1,559.7
				z M184.1,556.7c-0.5,0-1,0.4-1,1c0,0.5,0.4,1,1,1c0.5,0,1-0.4,1-1C185.1,557.1,184.7,556.7,184.1,556.7z"/>
		</g>
		<g class="st21">
			<path class="st22" d="M134.9,425.6c-1.1,0-2.1-0.9-2.1-2.1c0-1.1,0.9-2.1,2.1-2.1c1.1,0,2.1,0.9,2.1,2.1
				C137,424.7,136.1,425.6,134.9,425.6z M134.9,422.6c-0.5,0-1,0.4-1,1c0,0.5,0.4,1,1,1c0.5,0,1-0.4,1-1S135.4,422.6,134.9,422.6z"
				/>
		</g>
		<g class="st21">
			<path class="st24" d="M49.9,446.9c-1.1,0-2.1-0.9-2.1-2.1c0-1.1,0.9-2.1,2.1-2.1c1.1,0,2.1,0.9,2.1,2.1
				C52,446,51,446.9,49.9,446.9z M49.9,443.9c-0.5,0-1,0.4-1,1c0,0.5,0.4,1,1,1c0.5,0,1-0.4,1-1S50.4,443.9,49.9,443.9z"/>
		</g>
		<g class="st21">
			<path class="st24" d="M132.1,520.6c-1.1,0-2.1-0.9-2.1-2.1c0-1.1,0.9-2.1,2.1-2.1c1.1,0,2.1,0.9,2.1,2.1
				C134.2,519.6,133.2,520.6,132.1,520.6z M132.1,517.5c-0.5,0-1,0.4-1,1c0,0.5,0.4,1,1,1c0.5,0,1-0.4,1-1
				C133.1,517.9,132.6,517.5,132.1,517.5z"/>
		</g>
		<g class="st21">
			<path class="st24" d="M226.7,512.9c-1.8,0-3.3-1.5-3.3-3.3c0-1.8,1.5-3.3,3.3-3.3s3.3,1.5,3.3,3.3
				C230,511.4,228.5,512.9,226.7,512.9z M226.7,508c-0.8,0-1.5,0.7-1.5,1.5c0,0.8,0.7,1.5,1.5,1.5s1.5-0.7,1.5-1.5
				C228.2,508.7,227.5,508,226.7,508z"/>
		</g>
		<g class="st21">
			<path class="st25" d="M271.3,438.2c-1.1,0-2.1-0.9-2.1-2.1c0-1.1,0.9-2.1,2.1-2.1c1.1,0,2.1,0.9,2.1,2.1
				C273.4,437.2,272.4,438.2,271.3,438.2z M271.3,435.1c-0.5,0-1,0.4-1,1c0,0.5,0.4,1,1,1c0.5,0,1-0.4,1-1
				C272.3,435.6,271.8,435.1,271.3,435.1z"/>
		</g>
		<g>
			<path class="st26" d="M257.1,500.2c-1.6,0-2.9-1.3-2.9-2.9c0-1.6,1.3-2.9,2.9-2.9c1.6,0,2.9,1.3,2.9,2.9
				C260,498.9,258.7,500.2,257.1,500.2z M257.1,496c-0.7,0-1.4,0.6-1.4,1.4c0,0.7,0.6,1.4,1.4,1.4c0.7,0,1.4-0.6,1.4-1.4
				C258.5,496.6,257.9,496,257.1,496z"/>
		</g>
		<g class="st21">
			<path class="st25" d="M233.3,413.1c-1.1,0-2.1-0.9-2.1-2.1c0-1.1,0.9-2.1,2.1-2.1c1.1,0,2.1,0.9,2.1,2.1
				C235.3,412.2,234.4,413.1,233.3,413.1z M233.3,410.1c-0.5,0-1,0.4-1,1c0,0.5,0.4,1,1,1c0.5,0,1-0.4,1-1
				C234.2,410.5,233.8,410.1,233.3,410.1z"/>
		</g>
		<path class="st27" d="M291.7,413.3h-1.4v-1.4c0-0.4-0.4-0.8-0.8-0.8s-0.8,0.4-0.8,0.8v1.4h-1.4c-0.4,0-0.8,0.4-0.8,0.8
			s0.4,0.8,0.8,0.8h1.4v1.4c0,0.4,0.4,0.8,0.8,0.8s0.8-0.4,0.8-0.8v-1.4h1.4c0.4,0,0.8-0.4,0.8-0.8S292.1,413.3,291.7,413.3z"/>
		<path class="st27" d="M349,478.9h-1.4v-1.4c0-0.4-0.4-0.8-0.8-0.8s-0.8,0.4-0.8,0.8v1.4h-1.4c-0.4,0-0.8,0.4-0.8,0.8
			c0,0.4,0.4,0.8,0.8,0.8h1.4v1.4c0,0.4,0.4,0.8,0.8,0.8s0.8-0.4,0.8-0.8v-1.4h1.4c0.4,0,0.8-0.4,0.8-0.8
			C349.8,479.3,349.5,478.9,349,478.9z"/>
		<path class="st27" d="M236.4,464.6H235v-1.4c0-0.4-0.4-0.8-0.8-0.8s-0.8,0.4-0.8,0.8v1.4H232c-0.4,0-0.8,0.4-0.8,0.8
			c0,0.4,0.4,0.8,0.8,0.8h1.4v1.4c0,0.4,0.4,0.8,0.8,0.8s0.8-0.4,0.8-0.8v-1.4h1.4c0.4,0,0.8-0.4,0.8-0.8
			C237.2,465,236.8,464.6,236.4,464.6z"/>
		<path class="st28" d="M344.9,440.8h-1.4v-1.4c0-0.4-0.4-0.8-0.8-0.8s-0.8,0.4-0.8,0.8v1.4h-1.4c-0.4,0-0.8,0.4-0.8,0.8
			s0.4,0.8,0.8,0.8h1.4v1.4c0,0.4,0.4,0.8,0.8,0.8s0.8-0.4,0.8-0.8v-1.4h1.4c0.4,0,0.8-0.4,0.8-0.8
			C345.7,441.2,345.4,440.8,344.9,440.8z"/>
		<path class="st0" d="M98.3,502.7h-1.4v-1.4c0-0.4-0.4-0.8-0.8-0.8s-0.8,0.4-0.8,0.8v1.4h-1.4c-0.4,0-0.8,0.4-0.8,0.8
			s0.4,0.8,0.8,0.8h1.4v1.4c0,0.4,0.4,0.8,0.8,0.8s0.8-0.4,0.8-0.8v-1.4h1.4c0.4,0,0.8-0.4,0.8-0.8S98.7,502.7,98.3,502.7z"/>
		<path class="st29" d="M47.4,424.1H46v-1.4c0-0.4-0.4-0.8-0.8-0.8c-0.4,0-0.8,0.4-0.8,0.8v1.4H43c-0.4,0-0.8,0.4-0.8,0.8
			s0.4,0.8,0.8,0.8h1.4v1.4c0,0.4,0.4,0.8,0.8,0.8c0.4,0,0.8-0.4,0.8-0.8v-1.4h1.4c0.4,0,0.8-0.4,0.8-0.8
			C48.2,424.4,47.8,424.1,47.4,424.1z"/>
		<path class="st29" d="M112.5,521.3h-1.4v-1.4c0-0.4-0.4-0.8-0.8-0.8s-0.8,0.4-0.8,0.8v1.4h-1.4c-0.4,0-0.8,0.4-0.8,0.8
			s0.4,0.8,0.8,0.8h1.4v1.4c0,0.4,0.4,0.8,0.8,0.8s0.8-0.4,0.8-0.8v-1.4h1.4c0.4,0,0.8-0.4,0.8-0.8S113,521.3,112.5,521.3z"/>
		<path class="st29" d="M207.7,538.2h-1.4v-1.4c0-0.4-0.4-0.8-0.8-0.8c-0.4,0-0.8,0.4-0.8,0.8v1.4h-1.4c-0.4,0-0.8,0.4-0.8,0.8
			c0,0.4,0.4,0.8,0.8,0.8h1.4v1.4c0,0.4,0.4,0.8,0.8,0.8c0.4,0,0.8-0.4,0.8-0.8v-1.4h1.4c0.4,0,0.8-0.4,0.8-0.8
			C208.5,538.6,208.1,538.2,207.7,538.2z"/>
		<path class="st29" d="M134.5,489.3l-1.5,1.5l-1.4-1.5c-0.5-0.5-1.2-0.5-1.7,0s-0.5,1.2,0,1.7l1.5,1.5l-1.5,1.5
			c-0.5,0.5-0.5,1.2,0,1.7s1.2,0.5,1.7,0l1.5-1.5l1.5,1.5c0.5,0.5,1.2,0.5,1.7,0s0.5-1.2,0-1.7l-1.5-1.5l1.5-1.5
			c0.5-0.5,0.5-1.2,0-1.7C135.7,488.8,135,488.8,134.5,489.3z"/>
		<path class="st28" d="M114,427.8l-0.6,0.6l-0.6-0.6c-0.2-0.2-0.5-0.2-0.7,0c-0.2,0.2-0.2,0.5,0,0.7l0.6,0.6l-0.6,0.6
			c-0.2,0.2-0.2,0.5,0,0.7c0.2,0.2,0.5,0.2,0.7,0l0.6-0.6l0.6,0.6c0.2,0.2,0.5,0.2,0.7,0c0.2-0.2,0.2-0.5,0-0.7l-0.6-0.6l0.6-0.6
			c0.2-0.2,0.2-0.5,0-0.7C114.5,427.6,114.2,427.6,114,427.8z"/>
		<path class="st28" d="M260.5,414.8l-0.6,0.6l-0.6-0.6c-0.2-0.2-0.5-0.2-0.7,0c-0.2,0.2-0.2,0.5,0,0.7l0.6,0.6l-0.6,0.6
			c-0.2,0.2-0.2,0.5,0,0.7c0.2,0.2,0.5,0.2,0.7,0l0.6-0.6l0.6,0.6c0.2,0.2,0.5,0.2,0.7,0c0.2-0.2,0.2-0.5,0-0.7l-0.6-0.6l0.6-0.6
			c0.2-0.2,0.2-0.5,0-0.7C261,414.6,260.7,414.6,260.5,414.8z"/>
		<path class="st28" d="M239.6,538.1l-1.1,1.1l-1.1-1.1c-0.3-0.3-0.9-0.3-1.2,0s-0.3,0.9,0,1.2l1.1,1.1l-1.1,1.1
			c-0.3,0.3-0.3,0.9,0,1.2c0.3,0.3,0.9,0.3,1.2,0l1.1-1.1l1.1,1.1c0.3,0.3,0.9,0.3,1.2,0c0.3-0.3,0.3-0.9,0-1.2l-1.1-1.1l1.1-1.1
			c0.3-0.3,0.3-0.9,0-1.2C240.4,537.8,239.9,537.8,239.6,538.1z"/>
		<path class="st28" d="M279.1,500.2l-0.6,0.6l-0.6-0.6c-0.2-0.2-0.5-0.2-0.7,0c-0.2,0.2-0.2,0.5,0,0.7l0.6,0.6l-0.6,0.6
			c-0.2,0.2-0.2,0.5,0,0.7c0.2,0.2,0.5,0.2,0.7,0l0.6-0.6l0.6,0.6c0.2,0.2,0.5,0.2,0.7,0c0.2-0.2,0.2-0.5,0-0.7l-0.6-0.6l0.6-0.6
			c0.2-0.2,0.2-0.5,0-0.7C279.6,500,279.3,500,279.1,500.2z"/>
		<path class="st0" d="M188.7,380.4l-0.6,0.6l-0.6-0.6c-0.2-0.2-0.5-0.2-0.7,0c-0.2,0.2-0.2,0.5,0,0.7l0.6,0.6l-0.6,0.6
			c-0.2,0.2-0.2,0.5,0,0.7s0.5,0.2,0.7,0l0.6-0.6l0.6,0.6c0.2,0.2,0.5,0.2,0.7,0s0.2-0.5,0-0.7l-0.6-0.6l0.6-0.6
			c0.2-0.2,0.2-0.5,0-0.7C189.2,380.3,188.9,380.3,188.7,380.4z"/>
		<path class="st0" d="M334.1,414.2l-0.6,0.6l-0.6-0.6c-0.2-0.2-0.5-0.2-0.7,0c-0.2,0.2-0.2,0.5,0,0.7l0.6,0.6l-0.6,0.6
			c-0.2,0.2-0.2,0.5,0,0.7c0.2,0.2,0.5,0.2,0.7,0l0.6-0.6l0.6,0.6c0.2,0.2,0.5,0.2,0.7,0c0.2-0.2,0.2-0.5,0-0.7l-0.6-0.6l0.6-0.6
			c0.2-0.2,0.2-0.5,0-0.7C334.6,414,334.3,414,334.1,414.2z"/>
		<path class="st28" d="M232.7,491.8h-1v-1c0-0.3-0.2-0.6-0.6-0.6c-0.3,0-0.6,0.2-0.6,0.6v1h-1c-0.3,0-0.6,0.2-0.6,0.6
			s0.2,0.6,0.6,0.6h1v1c0,0.3,0.2,0.6,0.6,0.6c0.3,0,0.6-0.2,0.6-0.6v-1h1c0.3,0,0.6-0.2,0.6-0.6S233,491.8,232.7,491.8z"/>
		<path class="st28" d="M128.5,452.9h-1v-1c0-0.3-0.2-0.6-0.6-0.6s-0.6,0.2-0.6,0.6v1h-1c-0.3,0-0.6,0.2-0.6,0.6s0.2,0.6,0.6,0.6h1
			v1c0,0.3,0.2,0.6,0.6,0.6s0.6-0.2,0.6-0.6v-1h1c0.3,0,0.6-0.2,0.6-0.6S128.8,452.9,128.5,452.9z"/>
		<path class="st28" d="M328.4,487.9h-1v-1c0-0.3-0.2-0.6-0.6-0.6c-0.3,0-0.6,0.2-0.6,0.6v1h-1c-0.3,0-0.6,0.2-0.6,0.6
			s0.2,0.6,0.6,0.6h1v1c0,0.3,0.2,0.6,0.6,0.6c0.3,0,0.6-0.2,0.6-0.6v-1h1c0.3,0,0.6-0.2,0.6-0.6S328.7,487.9,328.4,487.9z"/>
		<path class="st10" d="M157,386.7h-1v-1c0-0.3-0.2-0.6-0.6-0.6c-0.3,0-0.6,0.2-0.6,0.6v1h-1c-0.3,0-0.6,0.2-0.6,0.6
			c0,0.4,0.2,0.6,0.6,0.6h1v1c0,0.3,0.2,0.6,0.6,0.6c0.3,0,0.6-0.2,0.6-0.6v-1h1c0.3,0,0.6-0.2,0.6-0.6
			C157.6,386.9,157.3,386.7,157,386.7z"/>
		<path class="st30" d="M122.2,470.7h-1v-1c0-0.3-0.2-0.6-0.6-0.6c-0.3,0-0.6,0.2-0.6,0.6v1h-1c-0.3,0-0.6,0.2-0.6,0.6
			c0,0.4,0.2,0.6,0.6,0.6h1v1c0,0.3,0.2,0.6,0.6,0.6c0.3,0,0.6-0.2,0.6-0.6v-1h1c0.3,0,0.6-0.2,0.6-0.6
			C122.8,470.9,122.5,470.7,122.2,470.7z"/>
		<path class="st7" d="M122.2,398.1h-1v-1c0-0.3-0.2-0.6-0.6-0.6c-0.3,0-0.6,0.2-0.6,0.6v1h-1c-0.3,0-0.6,0.2-0.6,0.6
			c0,0.3,0.2,0.6,0.6,0.6h1v1c0,0.3,0.2,0.6,0.6,0.6c0.3,0,0.6-0.2,0.6-0.6v-1h1c0.3,0,0.6-0.2,0.6-0.6
			C122.8,398.4,122.5,398.1,122.2,398.1z"/>
		<path class="st10" d="M195,515.9h-1v-1c0-0.3-0.2-0.6-0.6-0.6c-0.3,0-0.6,0.2-0.6,0.6v1h-1c-0.3,0-0.6,0.2-0.6,0.6
			c0,0.3,0.2,0.6,0.6,0.6h1v1c0,0.3,0.2,0.6,0.6,0.6c0.3,0,0.6-0.2,0.6-0.6v-1h1c0.3,0,0.6-0.2,0.6-0.6
			C195.6,516.1,195.4,515.9,195,515.9z"/>
		<circle class="st30" cx="143.6" cy="393.8" r="0.9"/>
		<circle class="st10" cx="25.9" cy="464.4" r="0.9"/>
		<path class="st30" d="M332.4,463.8c0,0.5-0.4,0.9-0.9,0.9s-0.9-0.4-0.9-0.9s0.4-0.9,0.9-0.9S332.4,463.3,332.4,463.8z"/>
		<path class="st30" d="M326.3,512.5c0,1-0.8,1.8-1.8,1.8s-1.8-0.8-1.8-1.8c0-1,0.8-1.8,1.8-1.8S326.3,511.5,326.3,512.5z"/>
		<circle class="st30" cx="176.6" cy="527.1" r="0.9"/>
		<circle class="st28" cx="267.1" cy="402.3" r="1.6"/>
		<circle class="st4" cx="39" cy="478" r="1.6"/>
	</g>
	<g id="Layer_16">
		<path class="st10" d="M230.9,455.8c0,12.8-5.5,25.2-15,33.8c-4.7,4.3-10.3,7.6-16.3,9.6c-5.8,1.9-13.4,0.4-16.3,7.1
			c-0.6,1.4-1,3-2.3,3.8c-1.7,1-4.1-0.3-4.9-2.1c-0.8-1.8-0.6-3.9-0.4-5.9c0.2-2,0.2-4.2-1-5.8c-2.5,0.7-4.2,3-4.9,5.4
			c-0.7,2.4-0.6,5-0.4,7.6c0,0.4,0,0.8-0.2,1.1c-0.2,0.3-0.4,0.5-0.7,0.6c-1.5,0.8-3.3,0.6-4.6-0.4s-2-2.8-1.6-4.4
			c0.2-1,0.8-1.9,1.1-2.8c1.6-4.1-0.4-9.2-4.3-11.1c-13-6.2-19.8-22.7-19.8-36.6c0-7,1.6-13.9,4.7-20.1c4.1-8.2,10.7-15,18.7-19.5
			c4-2.3,8.4-4,12.9-5c2.3-0.5,4.6-0.9,7-1.1c2.7-0.2,4.9,0.8,7.6,0.9c1.1,0.1,2.4,0,3.1-0.9c0.2-0.3,0.4-0.6,0.5-0.9
			c0.7-1.3,1.5-2.4,2.5-3.5c0.7-0.7,1.4-1.4,2.4-1.5c1.2-0.2,2.4,0.5,2.8,1.6c1,2.5-2.6,3.5-1.6,6.1c0.6,1.4,2.3,2.2,3.8,1.7
			c1.6-0.6,2.4-2.3,3.2-3.8s2.1-3.1,3.8-2.9c1.5,0.2,2.5,1.8,2.7,3.3s-0.3,3.1-0.4,4.6c-0.4,8.6,7.2,11.2,11.2,17.2
			C228.8,438.8,230.9,447.6,230.9,455.8z"/>
		<path class="st23" d="M209,455.8c0,13.2-10.7,23.9-23.9,23.9c-4.4,0-8.8-1.2-12.6-3.6c-1.8-1.1-3.3-2.4-4.5-4
			c-1.3-1.7-2.6-3.4-4.7-4.1c-1.1-0.4-2.7-0.7-2.8-1.9c0-0.5,0.3-0.9,0.5-1.3c0.5-0.8,1.1-1.6,1.6-2.4c0.9-1.4,1.9-3.3,0.9-4.7
			c-0.9-1.3-2.8-1.2-4.2-0.6s-2.6,1.7-4.1,2c-1.5,0.4-3.4-0.4-3.5-1.9c-0.1-1.6,1.7-2.5,3.3-2.6c1.6,0,3.2,0.5,4.7,0
			c2.6-0.9,2.3-3.4,2.9-5.5c0.8-2.7,2-5.2,3.4-7.6c1.1-1.8,3-3.5,4.6-4.7c4.2-3.2,9.3-5,14.6-5c4.2,0,8.7,1.1,12.2,3.5
			c1.3,0.9,2.1,1.5,3.7,1.8c0.8,0.1,5.3,0.1,4,2.1c-0.8,0.4-1.6,1-1.9,1.8c-0.5,1.5,1,3,2.5,3.5s3.2,0.6,4.5,1.5
			c0.4,0.2,0.7,0.6,0.8,1s0,0.9-0.4,1.1c-0.3,0.1-0.6,0.1-0.9,0c-0.9-0.1-1.8,0.1-2.6,0.5c-0.2,0.1-0.4,0.2-0.5,0.4
			c-0.1,0.4,0.1,0.7,0.4,1C208.4,451.8,209,453.6,209,455.8z"/>
		<g>
			<path class="st23" d="M207.6,436.4C207.6,436.3,207.6,436.3,207.6,436.4C207.6,436.3,207.6,436.3,207.6,436.4L207.6,436.4z"/>
			<path class="st23" d="M212.9,432.3c-0.4-0.7-1.2-1.2-2-1c-0.9,0.2-1.6,1.1-2.1,1.9c-0.6,0.9-1.2,2-1.1,3.1
				c1.1-0.4,2.3-0.7,3.4-1.1c0.5-0.2,1-0.3,1.4-0.7C213,434,213.2,433,212.9,432.3z"/>
		</g>
		<path class="st23" d="M156.2,468.7c-1-0.9-2.7-1.2-3.8-0.4c-1.1,0.8-1.2,2.8-0.1,3.5c0.3-0.7,0.9-1.3,1.7-1.5
			c0.5-0.1,1-0.1,1.5-0.3c0.4-0.2,0.7-0.9,0.4-1.2L156.2,468.7z"/>
		<path class="st23" d="M218.5,449.7c-0.7-0.3-1.5-0.7-2.2-0.6c-0.8,0.1-1.5,0.8-1.4,1.5l-0.2-0.2c0.2,0.5,0.4,0.9,0.7,1.3
			c0.7,1.1,1.6,2.1,2.9,2.3c1.2,0.3,2.7-0.6,2.7-1.9C220.9,451,219.6,450.2,218.5,449.7z"/>
		<path class="st31" d="M192.1,464.5c-5.2,3.5-12.2,2.2-15.7-3c-1.2-1.7-1.9-3.8-1.9-5.9c0-1,0.1-1.9,0.3-2.8c0.3-1,0.6-1.9,0.3-2.9
			c-0.2-0.5-0.5-1.3,0-1.6c0.2-0.1,0.4-0.1,0.6-0.1c0.4,0,0.9,0,1.3,0c0.8,0,1.8-0.1,2.1-0.9c0.3-0.7-0.3-1.4-0.9-1.8
			c-0.6-0.4-1.3-0.6-1.9-1.1c-0.5-0.5-0.8-1.4-0.2-1.9s1.5,0,1.9,0.6c0.4,0.6,0.7,1.4,1.3,1.8c1,0.8,1.9,0,2.9-0.3
			c1.3-0.4,2.6-0.6,3.9-0.7c1-0.1,2.1,0.2,3.1,0.6c2.4,0.8,4.4,2.3,5.8,4.4c1.1,1.7,1.9,3.7,1.9,5.7c0,0.7,0,1.2,0.3,1.9
			c0.2,0.4,1.4,2.1,0.2,2.1c-0.4-0.2-0.8-0.4-1.2-0.3c-0.7,0.2-0.9,1.2-0.7,1.9s0.6,1.4,0.6,2.1c0,0.2,0,0.4-0.2,0.6
			c-0.1,0.2-0.4,0.2-0.5,0.1c-0.1-0.1-0.2-0.2-0.2-0.3c-0.2-0.4-0.5-0.7-0.9-0.9c-0.1-0.1-0.2-0.1-0.3-0.1c-0.2,0-0.3,0.3-0.3,0.4
			C193.5,463.1,193,463.9,192.1,464.5z"/>
		<g>
			<path class="st31" d="M199.4,458.8C199.4,458.7,199.4,458.7,199.4,458.8C199.4,458.7,199.4,458.7,199.4,458.8L199.4,458.8z"/>
			<path class="st31" d="M202.3,459.7c0.2-0.3,0.1-0.8-0.2-1.1c-0.3-0.3-0.8-0.3-1.3-0.3s-1.1,0.1-1.5,0.4c0.4,0.3,0.9,0.7,1.3,1
				c0.2,0.1,0.4,0.3,0.6,0.4C201.7,460.2,202.1,460,202.3,459.7z"/>
		</g>
		<path class="st31" d="M173,447.2c0.1-0.6-0.3-1.4-0.9-1.6c-0.6-0.2-1.4,0.3-1.4,0.9c0.4-0.1,0.8,0,1,0.3c0.2,0.2,0.3,0.4,0.5,0.5
			c0.2,0.1,0.5,0,0.6-0.2L173,447.2z"/>
		<path class="st31" d="M197,466.5c-0.1-0.4-0.1-0.7-0.4-1c-0.2-0.3-0.7-0.4-1-0.1v-0.1c-0.1,0.2-0.2,0.4-0.3,0.6
			c-0.2,0.5-0.4,1.2-0.1,1.7c0.2,0.5,1,0.9,1.4,0.6C197.2,467.8,197.1,467.1,197,466.5z"/>
		<path class="st10" d="M163.5,516.5c-2.2,0.6-4.3,1.6-6.2,3.1c-0.2,0.2-0.4,0.4-0.6,0.6c-0.2,0.2-0.3,0.5-0.3,0.8
			c-0.4,1.7,0.3,3.6,1.7,4.5c1.5,0.9,3.7,0.5,4.5-1c0.4-0.7,0.5-1.6,0.5-2.4C163.3,520.3,163.5,518.4,163.5,516.5L163.5,516.5z"/>
		<path class="st10" d="M170.9,515.9c-0.4-0.9-1.7-0.9-2.7-0.7v-0.1c-0.1,0.9-0.1,1.9,0.5,2.6s1.9,0.8,2.2,0
			c0.1-0.2,0.1-0.5,0.1-0.8C171,516.5,171,516.2,170.9,515.9z"/>
		<path class="st10" d="M207.1,393c-1-0.2-2-0.4-2.9,0.1c-0.6,0.4-1,1.1-1.1,1.9c-0.1,0.7,0,1.5,0.1,2.2c0.1,0.6,0.2,1.2,0.3,1.8
			l-0.1,0.3c0.1-0.5,0.6-0.9,1.1-1.2c0.6-0.3,1.2-0.7,1.8-1c0.5-0.3,1.1-0.6,1.5-1.1C208.2,395.1,208,393.6,207.1,393z"/>
	</g>
</g>
<g>
	<path class="st32" d="M367.5,259c0-98.9-80.2-179.2-179.2-179.2C89.4,79.9,9.1,160.1,9.1,259H367.5z"/>
	<g class="st33">
		<g>
			<path class="st0" d="M126.2,150.2c1.9-16.6,4.5-28.9,16.6-40.8c5.7-5.6,13.2-9.5,17.7-16c5.5-7.9,5.9-19,13.4-25.2
				c8.1-6.6,21-4.8,29.3-11.2c5.9-4.5,8.1-12.1,12.3-18.2c6.9-9.8,19.9-15.1,32-13.1c-12.1,2.8-20.6,15.7-18.2,27.4
				c1.5,7.5,6.8,14.4,6.2,22.1c-1.3,15.2-24.3,21.7-26,36.8c-0.5,4.1,0.8,8.2,0.9,12.4c0.5,12.9-11.1,25.1-24.4,25.6H126.2z"/>
		</g>
		<g>
			<path class="st34" d="M216.6,63.6c-12,11.2-22.6,23.8-31.7,37.3c-8.7,13.1-14.9,27-22,40.9c-0.6,1.3-2.7,0.4-2.3-0.9
				C169.8,111.1,192.9,84,216.6,63.6C216.5,63.6,216.6,63.6,216.6,63.6L216.6,63.6z"/>
		</g>
		<g>
			<path class="st34" d="M215.5,79c-3.3-0.4-6.6-0.2-9.8,0.8c-3.3,1-5.6,3.1-8.7,4.5c-0.3,0.2-0.8-0.2-0.6-0.5
				c3.8-5.3,13.2-6.3,19.2-5.4C215.9,78.5,215.9,79.1,215.5,79L215.5,79z"/>
		</g>
		<g>
			<path class="st34" d="M208.1,95.7c-4.6-1.1-9.3-1.3-13.8-0.2c-4.2,1-7.4,3.3-11.1,5.2c-0.6,0.3-1.2-0.4-0.8-0.9
				c6.2-6.5,17.7-7,25.8-4.4C208.4,95.5,208.3,95.7,208.1,95.7L208.1,95.7z"/>
		</g>
		<g>
			<path class="st34" d="M199.9,117.8c-12.7-1.5-21.2,1-30.8,9.2c-0.6,0.5-1.6-0.1-1.1-0.8c6.2-9.1,21.7-13.5,32-9
				C200.4,117.3,200.2,117.8,199.9,117.8L199.9,117.8z"/>
		</g>
		<g>
			<path class="st34" d="M191.8,71.5c5.1,5.4,3.2,16.2-1.7,21.1c-0.2,0.2-0.5-0.1-0.4-0.3c2.2-3.3,3.8-6.5,3.9-10.6
				c0.1-3.7-1.4-6.5-2.5-9.9C191,71.6,191.5,71.3,191.8,71.5L191.8,71.5z"/>
		</g>
		<g>
			<path class="st34" d="M182.2,83.7c2.6,7,2.3,16.3-1.9,22.7c-0.2,0.3-0.8,0.1-0.6-0.3c2.5-7.8,3.6-14.1,1.9-22.2
				C181.4,83.5,182.1,83.3,182.2,83.7L182.2,83.7z"/>
		</g>
		<g>
			<path class="st34" d="M167.4,97.1c4.6,9.8,3.9,20.7-0.3,30.5c-0.4,0.9-1.9,0.5-1.5-0.4c4.1-9.8,3.9-19.6,1-29.7
				C166.4,96.9,167.2,96.6,167.4,97.1L167.4,97.1z"/>
		</g>
	</g>
	<g class="st33">
		<g>
			<path class="st0" d="M371.9,157.9c-1.5-12.8-3.5-22.4-12.9-31.6c-4.4-4.3-10.2-7.3-13.7-12.4c-4.2-6.1-4.6-14.7-10.4-19.5
				c-6.2-5.1-16.2-3.7-22.7-8.7c-4.6-3.5-6.3-9.4-9.6-14.1c-5.3-7.6-15.4-11.7-24.8-10.2c9.4,2.2,16,12.2,14.1,21.3
				c-1.2,5.8-5.3,11.2-4.8,17.1c1,11.8,18.8,16.8,20.2,28.5c0.4,3.2-0.6,6.4-0.7,9.6c-0.4,10,8.6,19.4,18.9,19.9H371.9z"/>
		</g>
		<g>
			<path class="st34" d="M301.9,90.8c9.3,8.7,17.6,18.4,24.6,28.9c6.8,10.1,11.5,20.9,17,31.7c0.5,1,2.1,0.3,1.8-0.7
				C338.2,127.6,320.3,106.6,301.9,90.8C301.9,90.8,301.9,90.8,301.9,90.8L301.9,90.8z"/>
		</g>
		<g>
			<path class="st34" d="M302.7,102.7c2.6-0.3,5.1-0.1,7.6,0.6c2.6,0.8,4.4,2.4,6.7,3.5c0.3,0.1,0.6-0.1,0.4-0.4
				c-2.9-4.1-10.2-4.9-14.9-4.1C302.4,102.3,302.5,102.8,302.7,102.7L302.7,102.7z"/>
		</g>
		<g>
			<path class="st34" d="M308.5,115.6c3.5-0.8,7.2-1,10.7-0.1c3.2,0.8,5.8,2.5,8.6,4c0.5,0.3,1-0.3,0.6-0.7c-4.8-5-13.7-5.4-20-3.4
				C308.3,115.5,308.3,115.7,308.5,115.6L308.5,115.6z"/>
		</g>
		<g>
			<path class="st34" d="M314.8,132.8c9.9-1.2,16.4,0.8,23.8,7.1c0.4,0.4,1.2-0.1,0.9-0.6c-4.8-7.1-16.8-10.5-24.8-7
				C314.5,132.4,314.6,132.8,314.8,132.8L314.8,132.8z"/>
		</g>
		<g>
			<path class="st34" d="M321.1,96.9c-4,4.2-2.5,12.5,1.3,16.3c0.1,0.1,0.4,0,0.3-0.2c-1.7-2.6-2.9-5-3-8.2c-0.1-2.9,1.1-5,1.9-7.7
				C321.7,96.9,321.3,96.7,321.1,96.9L321.1,96.9z"/>
		</g>
		<g>
			<path class="st34" d="M328.6,106.4c-2,5.4-1.8,12.6,1.5,17.6c0.2,0.2,0.6,0.1,0.5-0.2c-1.9-6-2.8-10.9-1.4-17.2
				C329.2,106.2,328.7,106,328.6,106.4L328.6,106.4z"/>
		</g>
		<g>
			<path class="st34" d="M340,116.7c-3.5,7.6-3,16.1,0.3,23.6c0.3,0.7,1.5,0.4,1.2-0.3c-3.2-7.6-3-15.2-0.7-23
				C340.8,116.6,340.2,116.3,340,116.7L340,116.7z"/>
		</g>
	</g>
	<g class="st33">
		<path class="st0" d="M403,215.2c3.5-8.1,7-16.2,12-23.4c1.7-2.4,4.2-4.9,7-4.1c2.6,0.7,3.6,3.8,3.9,6.4
			c1.4,12.4-4.5,24.5-11.6,34.7c-7.9,11.5-17.6,21.8-28.5,30.5l-2,0.8C390.2,244.9,396.5,230.3,403,215.2z"/>
		<g>
			<path class="st34" d="M387.3,256.3c16.5-16.3,27.9-38.8,33.1-61.2c0.2-0.8,1.4-0.4,1.2,0.4c-2.8,11.5-7.1,22.6-12.8,32.9
				C403,238.9,395.6,247.7,387.3,256.3C387.3,256.4,387.3,256.3,387.3,256.3L387.3,256.3z"/>
		</g>
		<g>
			<path class="st34" d="M424.6,204.8c-2,2.6-4.7,4.7-7.7,6c-0.5,0.2-0.8-0.5-0.3-0.7c2.9-1.3,5.5-3.2,7.5-5.7
				C424.3,204,424.9,204.4,424.6,204.8L424.6,204.8z"/>
		</g>
		<g>
			<path class="st34" d="M419.9,215.8c-1.9,2.8-4.8,6.4-8,7.8c-0.2,0.1-0.3-0.2-0.2-0.3c1.2-1.2,2.7-2.2,4-3.3
				c1.4-1.3,2.8-2.8,4-4.2C419.8,215.6,420,215.7,419.9,215.8L419.9,215.8z"/>
		</g>
		<g>
			<path class="st34" d="M412.2,229.4c-1.6,2-3.7,3.4-6,4.6c-0.3,0.2-0.5-0.3-0.2-0.5c2.3-1.1,4.2-2.6,6-4.2
				C412.1,229.2,412.3,229.3,412.2,229.4L412.2,229.4z"/>
		</g>
		<g>
			<path class="st34" d="M414.4,202.8c0.1,3.9,0.1,7.4,1.2,11.2c0.2,0.7-0.9,0.9-1.1,0.2c-1.1-3.5-1.7-7.9-0.8-11.5
				C413.8,202.3,414.4,202.5,414.4,202.8L414.4,202.8z"/>
		</g>
		<g>
			<path class="st34" d="M409.7,212.6c-1,4-1.3,7.9-0.5,12c0.1,0.6-0.8,0.7-0.9,0.2c-0.7-4.2-0.5-8.3,1.1-12.2
				C409.5,212.3,409.8,212.4,409.7,212.6L409.7,212.6z"/>
		</g>
		<g>
			<path class="st34" d="M403.2,224.1c-1.3,4.8-2.2,8.9-1.7,13.9c0.1,0.8-1.2,1.1-1.3,0.2c-0.5-4.7,0-10.2,2.4-14.5
				C402.8,223.5,403.2,223.8,403.2,224.1L403.2,224.1z"/>
		</g>
		<path class="st0" d="M391.3,255c9.9-7.9,19.8-15.8,29.7-23.7c3.5-2.8,7-5.6,11.1-7.4c4.1-1.8,8.9-2.5,13.1-0.9
			c0.6,0.2,1.2,0.5,1.6,0.9c1.4,1.4,0.7,3.7-0.2,5.5c-7,13.8-22,21.6-36.6,27c-8.7,3.3-18.1,6.1-27.1,4
			C383.1,260.4,388.1,257.6,391.3,255z"/>
		<g>
			<path class="st34" d="M443.3,227.3c-7,6.6-15.1,11.6-23.4,16.3c-9.2,5.2-18.4,10.4-27.5,15.7c-0.7,0.4-1.4-0.7-0.7-1.1
				c8.9-4.9,17.7-9.9,26.5-14.9c8.6-4.9,17.2-9.8,24.5-16.5C443.1,226.4,443.7,226.9,443.3,227.3L443.3,227.3z"/>
		</g>
		<g>
			<path class="st34" d="M441.4,234.4c-3.1,1-6.3,2.2-9.5,2.9c-0.8,0.2-1.1-1-0.4-1.2c3.2-0.9,6.5-1.4,9.7-2
				C441.5,234,441.7,234.3,441.4,234.4L441.4,234.4z"/>
		</g>
		<g>
			<path class="st34" d="M429.7,243.6c-2.1,0.3-4.2,0.6-6.4,0.9c-2.1,0.3-4.3,0.8-6.4,0.6c-0.4,0-0.6-0.6-0.1-0.7
				c1.9-0.6,4-0.7,6.1-0.8c2.3-0.2,4.5-0.4,6.8-0.6C430.2,242.8,430.2,243.6,429.7,243.6L429.7,243.6z"/>
		</g>
		<g>
			<path class="st34" d="M414.6,252.5c-1.9-0.2-3.7-0.5-5.5-0.4c-1.5,0.1-3.1,0.7-4.6,0.6c-0.4,0-0.4-0.6-0.1-0.8
				c1.3-1,3.7-1.1,5.2-1c1.8,0,3.6,0.3,5.2,1.1C415,252.1,414.8,252.5,414.6,252.5L414.6,252.5z"/>
		</g>
		<g>
			<path class="st34" d="M434.2,227.3c-0.8,1.9-1.5,3.8-2,5.8c-0.4,1.5-0.5,3.2-1.2,4.6c-0.1,0.2-0.4,0.1-0.4-0.1
				c-0.2-1.8,0.6-3.7,1.1-5.4c0.6-1.8,1.2-3.5,1.9-5.2C433.8,226.7,434.3,227,434.2,227.3L434.2,227.3z"/>
		</g>
		<g>
			<path class="st34" d="M424.3,234.8c-1.5,2.5-2.7,5.4-4.6,7.7c-0.1,0.2-0.3,0-0.3-0.2c1.1-2.6,3.2-5.1,4.7-7.5
				C424.3,234.7,424.4,234.8,424.3,234.8L424.3,234.8z"/>
		</g>
		<g>
			<path class="st34" d="M414,241c-0.8,1.5-1.6,3-2.3,4.5c-0.6,1.3-1,2.8-2.1,3.8c-0.2,0.2-0.5,0-0.4-0.2c0.2-1.5,1.2-2.7,1.9-3.9
				c0.8-1.5,1.6-3,2.4-4.4C413.6,240.3,414.2,240.6,414,241L414,241z"/>
		</g>
		<g>
			<path class="st0" d="M384.7,199.2c1.4-1.8,4-2.9,6-1.8c1.8,0.9,2.5,3.2,3,5.2c3.7,18.2-2.9,39.3-8.7,57l-1.8,0.8
				c-1.7-18.2-3.4-36.7-0.6-54.8C382.9,203.3,383.3,201,384.7,199.2z"/>
		</g>
		<g>
			<path class="st34" d="M384.6,253.7c2.2-16.3,2.8-32.7,3.5-49.1c0-0.5,0.9-0.6,0.8,0c-1,16.4-1.3,33-4.1,49.2
				C384.8,253.9,384.6,253.8,384.6,253.7L384.6,253.7z"/>
		</g>
		<g>
			<path class="st34" d="M392.3,209.6c-0.6,1.2-1.2,2.4-1.8,3.6c-0.5,1-1,2.2-1.8,3c-0.2,0.2-0.6,0-0.5-0.3c0.2-1.2,0.9-2.2,1.5-3.2
				c0.6-1.2,1.3-2.4,1.9-3.5C391.8,208.7,392.6,209.1,392.3,209.6L392.3,209.6z"/>
		</g>
		<g>
			<path class="st34" d="M391.9,218.9c-1,2.5-1.9,5.5-3.4,7.7c-0.1,0.2-0.4,0.1-0.4-0.1c0.3-2.7,2-5.5,3.4-7.8
				C391.7,218.5,392,218.6,391.9,218.9L391.9,218.9z"/>
		</g>
		<g>
			<path class="st34" d="M390.8,230.3c-0.1,1.5-0.9,3-1.3,4.4c-0.4,1.3-0.8,2.6-1.4,3.7c-0.1,0.2-0.4,0.1-0.4-0.1
				c0.2-1.5,0.8-3,1.2-4.4c0.4-1.3,0.6-2.6,1.3-3.8C390.5,229.8,390.9,230,390.8,230.3L390.8,230.3z"/>
		</g>
		<g>
			<path class="st34" d="M383.9,215.7c1.2,1.3,2.1,2.7,2.8,4.3c0.5,1.2,1.4,3,1.1,4.3c-0.1,0.3-0.4,0.3-0.5,0.1
				c-0.8-1.1-0.9-2.8-1.4-4c-0.6-1.6-1.4-3-2.3-4.5C383.4,215.8,383.7,215.5,383.9,215.7L383.9,215.7z"/>
		</g>
		<g>
			<path class="st34" d="M382.9,228.8c0.6,1.6,1,3.2,1.5,4.9c0.4,1.5,1,3,1,4.5c0,0.3-0.5,0.5-0.6,0.2c-0.7-1.4-0.9-3.2-1.3-4.7
				c-0.4-1.6-0.7-3.2-0.9-4.8C382.6,228.7,382.9,228.7,382.9,228.8L382.9,228.8z"/>
		</g>
	</g>
	<g class="st33">
		<path class="st0" d="M80.5,181.4c-5.9-13.7-11.8-27.5-20.4-39.8c-2.8-4-7.1-8.3-11.9-7c-4.3,1.2-6.1,6.4-6.6,10.9
			c-2.3,21.1,7.6,41.5,19.6,59c13.4,19.5,29.8,37.1,48.4,51.8l3.5,1.3C102.2,231.9,91.5,207.1,80.5,181.4z"/>
		<g>
			<path class="st34" d="M107.1,251.3c-28-27.7-47.4-65.8-56.3-104c-0.3-1.4-2.4-0.6-2.1,0.7c4.7,19.5,12,38.3,21.8,55.9
				C80.4,221.8,93,236.7,107.1,251.3C107.1,251.4,107.1,251.3,107.1,251.3L107.1,251.3z"/>
		</g>
		<g>
			<path class="st34" d="M43.7,163.8c3.5,4.5,7.9,8,13.2,10.1c0.8,0.3,1.4-0.9,0.6-1.2c-5-2.2-9.3-5.4-12.7-9.6
				C44.2,162.4,43.2,163.1,43.7,163.8L43.7,163.8z"/>
		</g>
		<g>
			<path class="st34" d="M51.7,182.4c3.2,4.8,8.1,10.8,13.5,13.2c0.4,0.2,0.6-0.3,0.3-0.5c-2-2.1-4.6-3.7-6.8-5.6
				c-2.5-2.2-4.7-4.7-6.8-7.2C51.8,182.1,51.6,182.3,51.7,182.4L51.7,182.4z"/>
		</g>
		<g>
			<path class="st34" d="M64.8,205.6c2.7,3.3,6.3,5.8,10.1,7.8c0.5,0.3,0.9-0.6,0.4-0.8c-3.9-1.8-7.1-4.4-10.2-7.2
				C65,205.2,64.7,205.4,64.8,205.6L64.8,205.6z"/>
		</g>
		<g>
			<path class="st34" d="M61.1,160.4c-0.2,6.6-0.2,12.5-2,19c-0.3,1.2,1.5,1.5,1.8,0.3c1.8-6,2.8-13.4,1.3-19.5
				C62,159.5,61.1,159.8,61.1,160.4L61.1,160.4z"/>
		</g>
		<g>
			<path class="st34" d="M69,177c1.7,6.7,2.2,13.5,0.8,20.3c-0.2,0.9,1.3,1.2,1.5,0.3c1.2-7.1,0.8-14.1-1.8-20.8
				C69.3,176.5,68.9,176.7,69,177L69,177z"/>
		</g>
		<g>
			<path class="st34" d="M80.2,196.6c2.1,8.1,3.8,15.2,2.9,23.7c-0.1,1.4,2,1.8,2.1,0.4c0.8-8.1-0.1-17.4-4.1-24.6
				C80.8,195.5,80,196,80.2,196.6L80.2,196.6z"/>
		</g>
		<path class="st0" d="M100.3,249.1c-16.8-13.4-33.7-26.8-50.5-40.2c-5.9-4.7-12-9.5-18.9-12.6c-7-3.1-15.1-4.3-22.2-1.6
			c-1,0.4-2,0.8-2.7,1.6c-2.3,2.4-1.2,6.4,0.3,9.3c11.9,23.5,37.4,36.6,62.1,45.9c14.7,5.5,30.7,10.3,46,6.7
			C114.3,258.2,105.7,253.4,100.3,249.1z"/>
		<g>
			<path class="st34" d="M11.9,201.9c11.8,11.2,25.6,19.7,39.7,27.7c15.6,8.9,31.3,17.6,46.7,26.7c1.2,0.7,2.4-1.2,1.2-1.8
				c-15.1-8.3-30-16.9-45-25.4c-14.6-8.3-29.2-16.6-41.7-28C12.3,200.5,11.4,201.4,11.9,201.9L11.9,201.9z"/>
		</g>
		<g>
			<path class="st34" d="M15.2,214.1c5.3,1.8,10.6,3.7,16.1,4.9c1.3,0.3,1.9-1.6,0.6-2c-5.4-1.6-11-2.5-16.5-3.5
				C15,213.4,14.8,214,15.2,214.1L15.2,214.1z"/>
		</g>
		<g>
			<path class="st34" d="M35,229.8c3.6,0.5,7.2,1,10.8,1.5c3.5,0.5,7.2,1.3,10.8,1c0.7-0.1,1-1,0.2-1.3c-3.3-1-6.9-1.1-10.3-1.4
				c-3.8-0.4-7.7-0.7-11.5-1.1C34.2,228.4,34.2,229.6,35,229.8L35,229.8z"/>
		</g>
		<g>
			<path class="st34" d="M60.8,244.7c3.2-0.3,6.2-0.8,9.4-0.6c2.6,0.2,5.2,1.2,7.8,1c0.7-0.1,0.7-1,0.2-1.3
				c-2.2-1.7-6.2-1.8-8.9-1.7c-3.1,0.1-6.1,0.5-8.8,1.9C60.1,244.2,60.4,244.8,60.8,244.7L60.8,244.7z"/>
		</g>
		<g>
			<path class="st34" d="M27.5,202.1c1.4,3.2,2.6,6.5,3.4,9.9c0.7,2.6,0.8,5.4,2,7.8c0.2,0.3,0.6,0.2,0.7-0.1c0.3-3-1-6.3-1.9-9.2
				c-0.9-3-2-5.9-3.3-8.8C28.2,201,27.2,201.5,27.5,202.1L27.5,202.1z"/>
		</g>
		<g>
			<path class="st34" d="M44.2,214.8c2.5,4.2,4.6,9.2,7.7,13c0.2,0.3,0.6,0,0.5-0.3c-1.9-4.5-5.4-8.7-8-12.8
				C44.3,214.6,44.1,214.7,44.2,214.8L44.2,214.8z"/>
		</g>
		<g>
			<path class="st34" d="M61.7,225.3c1.3,2.5,2.7,5,3.9,7.6c1,2.2,1.7,4.8,3.6,6.5c0.3,0.3,0.8,0,0.8-0.4c-0.3-2.5-2.1-4.5-3.3-6.7
				c-1.4-2.5-2.7-5-4-7.5C62.4,224.2,61.4,224.7,61.7,225.3L61.7,225.3z"/>
		</g>
		<g>
			<path class="st0" d="M111.5,154.2c-2.3-3-6.7-4.9-10.2-3.1c-3.1,1.6-4.3,5.4-5,8.8c-6.3,31,4.9,66.7,14.8,96.7l3,1.4
				c2.9-31,5.7-62.3,1-93.1C114.6,161.2,113.8,157.3,111.5,154.2z"/>
		</g>
		<g>
			<path class="st34" d="M111.7,246.8c-3.7-27.7-4.8-55.5-5.9-83.4c0-0.9-1.5-1-1.4-0.1c1.8,27.8,2.2,56,6.9,83.5
				C111.3,247.2,111.7,247.1,111.7,246.8L111.7,246.8z"/>
		</g>
		<g>
			<path class="st34" d="M98.6,172c1,2,2.1,4.1,3.1,6.1c0.9,1.8,1.6,3.7,3,5.2c0.4,0.4,1,0,0.9-0.5c-0.4-2-1.6-3.7-2.5-5.4
				c-1.1-2-2.1-4-3.2-6C99.4,170.5,98.2,171.1,98.6,172L98.6,172z"/>
		</g>
		<g>
			<path class="st34" d="M99.2,187.7c1.7,4.2,3.2,9.3,5.7,13.1c0.2,0.3,0.6,0.2,0.6-0.2c-0.4-4.6-3.3-9.4-5.7-13.2
				C99.6,187,99.1,187.3,99.2,187.7L99.2,187.7z"/>
		</g>
		<g>
			<path class="st34" d="M101.1,207.1c0.2,2.5,1.5,5,2.3,7.4c0.7,2.1,1.3,4.4,2.4,6.4c0.2,0.3,0.6,0.1,0.6-0.2
				c-0.3-2.5-1.4-5-2.1-7.5c-0.7-2.2-1.1-4.5-2.3-6.4C101.7,206.3,101.1,206.6,101.1,207.1L101.1,207.1z"/>
		</g>
		<g>
			<path class="st34" d="M112.9,182.3c-2,2.2-3.5,4.7-4.7,7.4c-0.9,2-2.4,5.1-1.9,7.3c0.1,0.4,0.6,0.5,0.9,0.2
				c1.3-1.8,1.5-4.7,2.4-6.8c1-2.6,2.4-5.2,3.9-7.6C113.7,182.5,113.2,182,112.9,182.3L112.9,182.3z"/>
		</g>
		<g>
			<path class="st34" d="M114.5,204.6c-1,2.7-1.7,5.5-2.5,8.3c-0.7,2.5-1.7,5.1-1.8,7.6c0,0.5,0.8,0.8,1,0.3c1.2-2.4,1.5-5.4,2.1-8
				c0.6-2.7,1.2-5.4,1.6-8.1C115.1,204.4,114.6,204.4,114.5,204.6L114.5,204.6z"/>
		</g>
	</g>
	<g class="st33">
		<path class="st0" d="M107.6,93.5C101.7,79.8,95.8,66,87.2,53.8c-2.8-4-7.1-8.3-11.9-7c-4.3,1.2-6.1,6.4-6.6,10.9
			c-2.3,21.1,7.6,41.5,19.6,59c13.4,19.5,29.8,37.1,48.4,51.8l3.5,1.3C129.3,144,118.6,119.2,107.6,93.5z"/>
		<g>
			<path class="st34" d="M134.2,163.4c-28-27.7-47.4-65.8-56.3-104c-0.3-1.4-2.4-0.6-2.1,0.7c4.7,19.5,12,38.3,21.8,55.9
				C107.6,133.9,120.1,148.8,134.2,163.4C134.2,163.5,134.2,163.5,134.2,163.4L134.2,163.4z"/>
		</g>
		<g>
			<path class="st34" d="M70.8,75.9c3.5,4.5,7.9,8,13.2,10.1c0.8,0.3,1.4-0.9,0.6-1.2c-5-2.2-9.3-5.4-12.7-9.6
				C71.4,74.5,70.3,75.2,70.8,75.9L70.8,75.9z"/>
		</g>
		<g>
			<path class="st34" d="M78.8,94.5c3.2,4.8,8.1,10.8,13.5,13.2c0.4,0.2,0.6-0.3,0.3-0.5c-2-2.1-4.6-3.7-6.8-5.6
				c-2.5-2.2-4.7-4.7-6.8-7.2C78.9,94.2,78.7,94.4,78.8,94.5L78.8,94.5z"/>
		</g>
		<g>
			<path class="st34" d="M91.9,117.7c2.7,3.3,6.3,5.8,10.1,7.8c0.5,0.3,0.9-0.6,0.4-0.8c-3.9-1.8-7.1-4.4-10.2-7.2
				C92.1,117.3,91.8,117.5,91.9,117.7L91.9,117.7z"/>
		</g>
		<g>
			<path class="st34" d="M88.2,72.5c-0.2,6.6-0.2,12.5-2,19c-0.3,1.2,1.5,1.5,1.8,0.3c1.8-6,2.8-13.4,1.3-19.5
				C89.1,71.6,88.2,71.9,88.2,72.5L88.2,72.5z"/>
		</g>
		<g>
			<path class="st34" d="M96.1,89.1c1.7,6.7,2.2,13.5,0.8,20.3c-0.2,0.9,1.3,1.2,1.5,0.3c1.2-7.1,0.8-14.1-1.8-20.8
				C96.4,88.6,96,88.8,96.1,89.1L96.1,89.1z"/>
		</g>
		<g>
			<path class="st34" d="M107.3,108.7c2.1,8.1,3.8,15.2,2.9,23.7c-0.1,1.4,2,1.8,2.1,0.4c0.8-8.1-0.1-17.4-4.1-24.6
				C107.9,107.6,107.1,108.1,107.3,108.7L107.3,108.7z"/>
		</g>
		<path class="st0" d="M127.4,161.2c-16.8-13.4-33.7-26.8-50.5-40.2c-5.9-4.7-12-9.5-18.9-12.6c-7-3.1-15.1-4.3-22.2-1.6
			c-1,0.4-2,0.8-2.7,1.6c-2.3,2.4-1.2,6.4,0.3,9.3c11.9,23.5,37.4,36.6,62.1,45.9c14.7,5.5,30.7,10.3,46,6.7
			C141.4,170.3,132.8,165.5,127.4,161.2z"/>
		<g>
			<path class="st34" d="M39.1,114c11.8,11.2,25.6,19.7,39.7,27.7c15.6,8.9,31.3,17.6,46.7,26.7c1.2,0.7,2.4-1.2,1.2-1.8
				c-15.1-8.3-30-16.9-45-25.4c-14.6-8.3-29.2-16.6-41.7-28C39.4,112.7,38.5,113.5,39.1,114L39.1,114z"/>
		</g>
		<g>
			<path class="st34" d="M42.3,126.2c5.3,1.8,10.6,3.7,16.1,4.9c1.3,0.3,1.9-1.6,0.6-2c-5.4-1.6-11-2.5-16.5-3.5
				C42.1,125.5,41.9,126.1,42.3,126.2L42.3,126.2z"/>
		</g>
		<g>
			<path class="st34" d="M62.1,141.9c3.6,0.5,7.2,1,10.8,1.5c3.5,0.5,7.2,1.3,10.8,1c0.7-0.1,1-1,0.2-1.3c-3.3-1-6.9-1.1-10.3-1.4
				c-3.8-0.4-7.7-0.7-11.5-1.1C61.3,140.5,61.3,141.8,62.1,141.9L62.1,141.9z"/>
		</g>
		<g>
			<path class="st34" d="M87.9,156.8c3.2-0.3,6.2-0.8,9.4-0.6c2.6,0.2,5.2,1.2,7.8,1c0.7-0.1,0.7-1,0.2-1.3
				c-2.2-1.7-6.2-1.8-8.9-1.7c-3.1,0.1-6.1,0.5-8.8,1.9C87.2,156.3,87.5,156.9,87.9,156.8L87.9,156.8z"/>
		</g>
		<g>
			<path class="st34" d="M54.6,114.2c1.4,3.2,2.6,6.5,3.4,9.9c0.7,2.6,0.8,5.4,2,7.8c0.2,0.3,0.6,0.2,0.7-0.1c0.3-3-1-6.3-1.9-9.2
				c-0.9-3-2-5.9-3.3-8.8C55.3,113.1,54.3,113.6,54.6,114.2L54.6,114.2z"/>
		</g>
		<g>
			<path class="st34" d="M71.3,126.9c2.5,4.2,4.6,9.2,7.7,13c0.2,0.3,0.6,0,0.5-0.3c-1.9-4.5-5.4-8.7-8-12.8
				C71.4,126.7,71.2,126.8,71.3,126.9L71.3,126.9z"/>
		</g>
		<g>
			<path class="st34" d="M88.8,137.4c1.3,2.5,2.7,5,3.9,7.6c1,2.2,1.7,4.8,3.6,6.5c0.3,0.3,0.8,0,0.8-0.4c-0.3-2.5-2.1-4.5-3.3-6.7
				c-1.4-2.5-2.7-5-4-7.5C89.5,136.3,88.5,136.8,88.8,137.4L88.8,137.4z"/>
		</g>
		<g>
			<path class="st0" d="M138.6,66.3c-2.3-3-6.7-4.9-10.2-3.1c-3.1,1.6-4.3,5.4-5,8.8c-6.3,31,4.9,66.7,14.8,96.7l3,1.4
				c2.9-31,5.7-62.3,1-93.1C141.7,73.3,141,69.4,138.6,66.3z"/>
		</g>
		<g>
			<path class="st34" d="M138.8,158.9c-3.7-27.7-4.8-55.5-5.9-83.4c0-0.9-1.5-1-1.4-0.1c1.8,27.8,2.2,56,6.9,83.5
				C138.4,159.3,138.8,159.2,138.8,158.9L138.8,158.9z"/>
		</g>
		<g>
			<path class="st34" d="M125.7,84.1c1,2,2.1,4.1,3.1,6.1c0.9,1.8,1.6,3.7,3,5.2c0.4,0.4,1,0,0.9-0.5c-0.4-2-1.6-3.7-2.5-5.4
				c-1.1-2-2.1-4-3.2-6C126.5,82.6,125.3,83.2,125.7,84.1L125.7,84.1z"/>
		</g>
		<g>
			<path class="st34" d="M126.3,99.8c1.7,4.2,3.2,9.3,5.7,13.1c0.2,0.3,0.6,0.2,0.6-0.2c-0.4-4.6-3.3-9.4-5.7-13.2
				C126.7,99.1,126.2,99.4,126.3,99.8L126.3,99.8z"/>
		</g>
		<g>
			<path class="st34" d="M128.2,119.2c0.2,2.5,1.5,5,2.3,7.4c0.7,2.1,1.3,4.4,2.4,6.4c0.2,0.3,0.6,0.1,0.6-0.2
				c-0.3-2.5-1.4-5-2.1-7.5c-0.7-2.2-1.1-4.5-2.3-6.4C128.8,118.4,128.2,118.7,128.2,119.2L128.2,119.2z"/>
		</g>
		<g>
			<path class="st34" d="M140.1,94.4c-2,2.2-3.5,4.7-4.7,7.4c-0.9,2-2.4,5.1-1.9,7.3c0.1,0.4,0.6,0.5,0.9,0.2
				c1.3-1.8,1.5-4.7,2.4-6.8c1-2.6,2.4-5.2,3.9-7.6C140.8,94.6,140.3,94.1,140.1,94.4L140.1,94.4z"/>
		</g>
		<g>
			<path class="st34" d="M141.7,116.7c-1,2.7-1.7,5.5-2.5,8.3c-0.7,2.5-1.7,5.1-1.8,7.6c0,0.5,0.8,0.8,1,0.3c1.2-2.4,1.5-5.4,2.1-8
				c0.6-2.7,1.2-5.4,1.6-8.1C142.2,116.5,141.8,116.5,141.7,116.7L141.7,116.7z"/>
		</g>
	</g>
	<g class="st33">
		<path class="st0" d="M258.2,112.3c-3.9-9-7.8-18-13.4-26.1c-1.8-2.6-4.7-5.4-7.8-4.6c-2.8,0.8-4,4.2-4.3,7.1
			c-1.5,13.8,5,27.2,12.9,38.7c8.8,12.8,19.5,24.3,31.7,33.9l2.3,0.8C272.4,145.4,265.4,129.2,258.2,112.3z"/>
		<g>
			<path class="st34" d="M275.6,158.1C257.3,140,244.6,115,238.8,90c-0.2-0.9-1.6-0.4-1.3,0.5c3.1,12.8,7.9,25.1,14.3,36.6
				C258.2,138.8,266.4,148.6,275.6,158.1C275.6,158.2,275.7,158.2,275.6,158.1L275.6,158.1z"/>
		</g>
		<g>
			<path class="st34" d="M234.1,100.8c2.3,2.9,5.2,5.3,8.6,6.6c0.5,0.2,0.9-0.6,0.4-0.8c-3.3-1.5-6.1-3.5-8.3-6.3
				C234.5,99.9,233.8,100.3,234.1,100.8L234.1,100.8z"/>
		</g>
		<g>
			<path class="st34" d="M239.4,113c2.1,3.1,5.3,7.1,8.9,8.7c0.2,0.1,0.4-0.2,0.2-0.4c-1.3-1.4-3-2.4-4.5-3.7
				c-1.6-1.5-3.1-3.1-4.5-4.7C239.4,112.8,239.3,112.9,239.4,113L239.4,113z"/>
		</g>
		<g>
			<path class="st34" d="M247.9,128.2c1.8,2.2,4.2,3.8,6.7,5.1c0.4,0.2,0.6-0.4,0.3-0.6c-2.5-1.2-4.6-2.9-6.7-4.7
				C248,127.9,247.8,128.1,247.9,128.2L247.9,128.2z"/>
		</g>
		<g>
			<path class="st34" d="M245.5,98.5c-0.1,4.4-0.1,8.2-1.3,12.4c-0.2,0.8,1,1,1.2,0.2c1.2-3.9,1.9-8.8,0.8-12.8
				C246.1,98,245.5,98.2,245.5,98.5L245.5,98.5z"/>
		</g>
		<g>
			<path class="st34" d="M250.7,109.4c1.1,4.4,1.4,8.8,0.5,13.3c-0.1,0.6,0.9,0.8,1,0.2c0.8-4.6,0.5-9.2-1.2-13.6
				C250.9,109.1,250.6,109.2,250.7,109.4L250.7,109.4z"/>
		</g>
		<g>
			<path class="st34" d="M258,122.3c1.4,5.3,2.5,9.9,1.9,15.5c-0.1,0.9,1.3,1.2,1.4,0.3c0.5-5.3,0-11.4-2.7-16.1
				C258.4,121.6,257.9,121.9,258,122.3L258,122.3z"/>
		</g>
		<path class="st0" d="M271.2,156.7c-11-8.8-22.1-17.6-33.1-26.4c-3.9-3.1-7.8-6.2-12.4-8.2c-4.6-2-9.9-2.8-14.5-1.1
			c-0.7,0.2-1.3,0.5-1.8,1.1c-1.5,1.6-0.8,4.2,0.2,6.1c7.8,15.4,24.5,24,40.7,30.1c9.6,3.6,20.1,6.7,30.1,4.4
			C280.4,162.6,274.7,159.5,271.2,156.7z"/>
		<g>
			<path class="st34" d="M213.3,125.8c7.8,7.3,16.8,12.9,26,18.1c10.2,5.8,20.5,11.6,30.6,17.5c0.8,0.5,1.6-0.8,0.8-1.2
				c-9.9-5.4-19.7-11.1-29.5-16.6c-9.6-5.4-19.1-10.9-27.3-18.4C213.5,124.9,212.9,125.4,213.3,125.8L213.3,125.8z"/>
		</g>
		<g>
			<path class="st34" d="M215.4,133.7c3.5,1.2,7,2.4,10.6,3.2c0.8,0.2,1.3-1.1,0.4-1.3c-3.5-1-7.2-1.6-10.8-2.3
				C215.3,133.3,215.1,133.7,215.4,133.7L215.4,133.7z"/>
		</g>
		<g>
			<path class="st34" d="M228.4,144c2.4,0.3,4.7,0.6,7.1,1c2.3,0.3,4.7,0.9,7.1,0.7c0.5,0,0.6-0.7,0.1-0.8c-2.2-0.7-4.5-0.7-6.7-0.9
				c-2.5-0.2-5-0.5-7.5-0.7C227.9,143.1,227.9,143.9,228.4,144L228.4,144z"/>
		</g>
		<g>
			<path class="st34" d="M245.3,153.8c2.1-0.2,4.1-0.5,6.2-0.4c1.7,0.1,3.4,0.8,5.1,0.7c0.5,0,0.4-0.6,0.2-0.9
				c-1.4-1.1-4.1-1.2-5.8-1.1c-2,0-4,0.4-5.8,1.3C244.8,153.5,245,153.9,245.3,153.8L245.3,153.8z"/>
		</g>
		<g>
			<path class="st34" d="M223.5,125.9c0.9,2.1,1.7,4.2,2.3,6.5c0.4,1.7,0.5,3.5,1.3,5.1c0.1,0.2,0.4,0.1,0.4-0.1
				c0.2-2-0.6-4.1-1.2-6c-0.6-2-1.3-3.9-2.1-5.8C223.9,125.1,223.3,125.5,223.5,125.9L223.5,125.9z"/>
		</g>
		<g>
			<path class="st34" d="M234.4,134.2c1.6,2.8,3,6,5.1,8.5c0.1,0.2,0.4,0,0.3-0.2c-1.3-2.9-3.5-5.7-5.2-8.4
				C234.5,134.1,234.4,134.1,234.4,134.2L234.4,134.2z"/>
		</g>
		<g>
			<path class="st34" d="M245.9,141.1c0.9,1.7,1.8,3.3,2.6,5c0.7,1.5,1.1,3.1,2.4,4.3c0.2,0.2,0.5,0,0.5-0.3c-0.2-1.6-1.3-3-2.2-4.4
				c-0.9-1.6-1.7-3.3-2.6-4.9C246.3,140.4,245.7,140.7,245.9,141.1L245.9,141.1z"/>
		</g>
		<g>
			<path class="st0" d="M278.5,94.5c-1.5-2-4.4-3.2-6.7-2c-2,1.1-2.8,3.5-3.3,5.8c-4.1,20.3,3.2,43.7,9.7,63.4l2,0.9
				c1.9-20.3,3.7-40.8,0.7-61C280.6,99.1,280.1,96.5,278.5,94.5z"/>
		</g>
		<g>
			<path class="st34" d="M278.7,155.2c-2.5-18.1-3.2-36.4-3.9-54.7c0-0.6-1-0.6-0.9,0c1.2,18.2,1.5,36.7,4.5,54.8
				C278.4,155.4,278.7,155.4,278.7,155.2L278.7,155.2z"/>
		</g>
		<g>
			<path class="st34" d="M270.1,106.1c0.7,1.3,1.4,2.7,2,4c0.6,1.2,1.1,2.5,2,3.4c0.2,0.2,0.6,0,0.6-0.3c-0.2-1.3-1-2.4-1.6-3.6
				c-0.7-1.3-1.4-2.6-2.1-3.9C270.6,105.2,269.8,105.6,270.1,106.1L270.1,106.1z"/>
		</g>
		<g>
			<path class="st34" d="M270.5,116.4c1.1,2.8,2.1,6.1,3.8,8.6c0.1,0.2,0.4,0.1,0.4-0.1c-0.3-3-2.2-6.2-3.8-8.6
				C270.7,116,270.4,116.2,270.5,116.4L270.5,116.4z"/>
		</g>
		<g>
			<path class="st34" d="M271.7,129.2c0.1,1.6,1,3.3,1.5,4.9c0.5,1.4,0.8,2.9,1.6,4.2c0.1,0.2,0.4,0.1,0.4-0.1
				c-0.2-1.7-0.9-3.3-1.4-4.9c-0.4-1.4-0.7-2.9-1.5-4.2C272.1,128.6,271.7,128.8,271.7,129.2L271.7,129.2z"/>
		</g>
		<g>
			<path class="st34" d="M279.5,112.9c-1.3,1.5-2.3,3.1-3.1,4.8c-0.6,1.3-1.6,3.3-1.2,4.8c0.1,0.3,0.4,0.3,0.6,0.1
				c0.9-1.2,1-3.1,1.6-4.5c0.7-1.7,1.6-3.4,2.5-5C280,113,279.7,112.7,279.5,112.9L279.5,112.9z"/>
		</g>
		<g>
			<path class="st34" d="M280.5,127.5c-0.6,1.8-1.1,3.6-1.6,5.4c-0.4,1.6-1.1,3.3-1.2,5c0,0.3,0.5,0.6,0.7,0.2
				c0.8-1.6,1-3.5,1.4-5.3c0.4-1.8,0.8-3.5,1.1-5.3C280.9,127.4,280.6,127.4,280.5,127.5L280.5,127.5z"/>
		</g>
	</g>
	<g class="st33">
		<path class="st0" d="M220.5,182.2c5.9-13.7,11.8-27.5,20.4-39.8c2.8-4,7.1-8.3,11.9-7c4.3,1.2,6.1,6.4,6.6,10.9
			c2.3,21.1-7.6,41.5-19.6,59c-13.4,19.5-29.8,37.1-48.4,51.8l-3.5,1.3C198.8,232.7,209.5,207.9,220.5,182.2z"/>
		<g>
			<path class="st2" d="M193.9,252.1c28-27.7,47.4-65.8,56.3-104c0.3-1.4,2.4-0.6,2.1,0.7c-4.7,19.5-12,38.3-21.8,55.9
				C220.5,222.6,208,237.6,193.9,252.1C193.9,252.3,193.9,252.2,193.9,252.1L193.9,252.1z"/>
		</g>
		<g>
			<path class="st2" d="M257.3,164.6c-3.5,4.5-7.9,8-13.2,10.1c-0.8,0.3-1.4-0.9-0.6-1.2c5-2.2,9.3-5.4,12.7-9.6
				C256.7,163.2,257.8,163.9,257.3,164.6L257.3,164.6z"/>
		</g>
		<g>
			<path class="st2" d="M249.3,183.2c-3.2,4.8-8.1,10.8-13.5,13.2c-0.4,0.2-0.6-0.3-0.3-0.5c2-2.1,4.6-3.7,6.8-5.6
				c2.5-2.2,4.7-4.7,6.8-7.2C249.2,182.9,249.4,183.1,249.3,183.2L249.3,183.2z"/>
		</g>
		<g>
			<path class="st2" d="M236.2,206.4c-2.7,3.3-6.3,5.8-10.1,7.8c-0.5,0.3-0.9-0.6-0.4-0.8c3.9-1.8,7.1-4.4,10.2-7.2
				C236,206,236.3,206.2,236.2,206.4L236.2,206.4z"/>
		</g>
		<g>
			<path class="st2" d="M239.9,161.2c0.2,6.6,0.2,12.5,2,19c0.3,1.2-1.5,1.5-1.8,0.3c-1.8-6-2.8-13.4-1.3-19.5
				C239,160.3,239.9,160.6,239.9,161.2L239.9,161.2z"/>
		</g>
		<g>
			<path class="st2" d="M232,177.8c-1.7,6.7-2.2,13.5-0.8,20.3c0.2,0.9-1.3,1.2-1.5,0.3c-1.2-7.1-0.8-14.1,1.8-20.8
				C231.7,177.3,232.1,177.5,232,177.8L232,177.8z"/>
		</g>
		<g>
			<path class="st2" d="M220.8,197.4c-2.1,8.1-3.8,15.2-2.9,23.7c0.1,1.4-2,1.8-2.1,0.4c-0.8-8.1,0.1-17.4,4.1-24.6
				C220.2,196.3,221,196.9,220.8,197.4L220.8,197.4z"/>
		</g>
		<path class="st0" d="M200.7,249.9c16.8-13.4,33.7-26.8,50.5-40.2c5.9-4.7,12-9.5,18.9-12.6c7-3.1,15.1-4.3,22.2-1.6
			c1,0.4,2,0.8,2.7,1.6c2.3,2.4,1.2,6.4-0.3,9.3c-11.9,23.5-37.4,36.6-62.1,45.9c-14.7,5.5-30.7,10.3-46,6.7
			C186.7,259,195.3,254.2,200.7,249.9z"/>
		<g>
			<path class="st2" d="M289,202.8c-11.8,11.2-25.6,19.7-39.7,27.7c-15.6,8.9-31.3,17.6-46.7,26.7c-1.2,0.7-2.4-1.2-1.2-1.8
				c15.1-8.3,30-16.9,45-25.4c14.6-8.3,29.2-16.6,41.7-28C288.7,201.4,289.6,202.2,289,202.8L289,202.8z"/>
		</g>
		<g>
			<path class="st2" d="M285.8,214.9c-5.3,1.8-10.6,3.7-16.1,4.9c-1.3,0.3-1.9-1.6-0.6-2c5.4-1.6,11-2.5,16.5-3.5
				C286,214.3,286.2,214.8,285.8,214.9L285.8,214.9z"/>
		</g>
		<g>
			<path class="st2" d="M266,230.6c-3.6,0.5-7.2,1-10.8,1.5c-3.5,0.5-7.2,1.3-10.8,1c-0.7-0.1-1-1-0.2-1.3c3.3-1,6.9-1.1,10.3-1.4
				c3.8-0.4,7.7-0.7,11.5-1.1C266.8,229.2,266.8,230.5,266,230.6L266,230.6z"/>
		</g>
		<g>
			<path class="st2" d="M240.2,245.5c-3.2-0.3-6.2-0.8-9.4-0.6c-2.6,0.2-5.2,1.2-7.8,1c-0.7-0.1-0.7-1-0.2-1.3
				c2.2-1.7,6.2-1.8,8.9-1.7c3.1,0.1,6.1,0.5,8.8,1.9C240.9,245,240.6,245.6,240.2,245.5L240.2,245.5z"/>
		</g>
		<g>
			<path class="st2" d="M273.5,202.9c-1.4,3.2-2.6,6.5-3.4,9.9c-0.7,2.6-0.8,5.4-2,7.8c-0.2,0.3-0.6,0.2-0.7-0.1
				c-0.3-3,1-6.3,1.9-9.2c0.9-3,2-5.9,3.3-8.8C272.8,201.8,273.8,202.3,273.5,202.9L273.5,202.9z"/>
		</g>
		<g>
			<path class="st2" d="M256.8,215.6c-2.5,4.2-4.6,9.2-7.7,13c-0.2,0.3-0.6,0-0.5-0.3c1.9-4.5,5.4-8.7,8-12.8
				C256.7,215.4,256.9,215.5,256.8,215.6L256.8,215.6z"/>
		</g>
		<g>
			<path class="st2" d="M239.3,226.1c-1.3,2.5-2.7,5-3.9,7.6c-1,2.2-1.7,4.8-3.6,6.5c-0.3,0.3-0.8,0-0.8-0.4
				c0.3-2.5,2.1-4.5,3.3-6.7c1.4-2.5,2.7-5,4-7.5C238.6,225,239.6,225.5,239.3,226.1L239.3,226.1z"/>
		</g>
		<g>
			<path class="st0" d="M189.5,155c2.3-3,6.7-4.9,10.2-3.1c3.1,1.6,4.3,5.4,5,8.8c6.3,31-4.9,66.7-14.8,96.7l-3,1.4
				c-2.9-31-5.7-62.3-1-93.1C186.4,162,187.1,158.1,189.5,155z"/>
		</g>
		<g>
			<path class="st2" d="M189.3,247.6c3.7-27.7,4.8-55.5,5.9-83.4c0-0.9,1.5-1,1.4-0.1c-1.8,27.8-2.2,56-6.9,83.5
				C189.7,248,189.3,247.9,189.3,247.6L189.3,247.6z"/>
		</g>
		<g>
			<path class="st2" d="M202.4,172.8c-1,2-2.1,4.1-3.1,6.1c-0.9,1.8-1.6,3.7-3,5.2c-0.4,0.4-1,0-0.9-0.5c0.4-2,1.6-3.7,2.5-5.4
				c1.1-2,2.1-4,3.2-6C201.6,171.3,202.8,172,202.4,172.8L202.4,172.8z"/>
		</g>
		<g>
			<path class="st2" d="M201.7,188.5c-1.7,4.2-3.2,9.3-5.7,13.1c-0.2,0.3-0.6,0.2-0.6-0.2c0.4-4.6,3.3-9.4,5.7-13.2
				C201.4,187.8,201.9,188.1,201.7,188.5L201.7,188.5z"/>
		</g>
		<g>
			<path class="st2" d="M199.9,208c-0.2,2.5-1.5,5-2.3,7.4c-0.7,2.1-1.3,4.4-2.4,6.4c-0.2,0.3-0.6,0.1-0.6-0.2
				c0.3-2.5,1.4-5,2.1-7.5c0.7-2.2,1.1-4.5,2.3-6.4C199.3,207.1,199.9,207.4,199.9,208L199.9,208z"/>
		</g>
		<g>
			<path class="st2" d="M188,183.2c2,2.2,3.5,4.7,4.7,7.4c0.9,2,2.4,5.1,1.9,7.3c-0.1,0.4-0.6,0.5-0.9,0.2c-1.3-1.8-1.5-4.7-2.4-6.8
				c-1-2.6-2.4-5.2-3.9-7.6C187.3,183.3,187.8,182.9,188,183.2L188,183.2z"/>
		</g>
		<g>
			<path class="st2" d="M186.4,205.4c1,2.7,1.7,5.5,2.5,8.3c0.7,2.5,1.7,5.1,1.8,7.6c0,0.5-0.8,0.8-1,0.3c-1.2-2.4-1.5-5.4-2.1-8
				c-0.6-2.7-1.2-5.4-1.6-8.1C185.9,205.2,186.3,205.2,186.4,205.4L186.4,205.4z"/>
		</g>
	</g>
	<g id="XMLID_210_">
		<path id="XMLID_221_" class="st31" d="M385,260.5H282.4V157.6c0-2.2,1.7-3.9,3.9-3.9h94.7c2.2,0,3.9,1.7,3.9,3.9V260.5z"/>
		<path id="XMLID_220_" class="st10" d="M385,169.1v-11.9c0-2-1.6-3.6-3.6-3.6H286c-2,0-3.6,1.6-3.6,3.6v11.9H385z"/>
		<rect id="XMLID_219_" x="297.2" y="172" class="st10" width="73.6" height="31.2"/>
		<path id="XMLID_218_" class="st35" d="M367.7,209.3h-67.4c-1.7,0-3.1,1.4-3.1,3.1l0,0c0,1.7,1.4,3.1,3.1,3.1h67.4
			c1.7,0,3.1-1.4,3.1-3.1l0,0C370.8,210.7,369.4,209.3,367.7,209.3z"/>
		<path id="XMLID_217_" class="st35" d="M367.9,222.4h-67.4c-1.7,0-3.1,1.4-3.1,3.1l0,0c0,1.7,1.4,3.1,3.1,3.1h67.4
			c1.7,0,3.1-1.4,3.1-3.1l0,0C371,223.8,369.6,222.4,367.9,222.4z"/>
		<path id="XMLID_216_" class="st35" d="M368.2,235.6h-67.4c-1.7,0-3.1,1.4-3.1,3.1l0,0c0,1.7,1.4,3.1,3.1,3.1h67.4
			c1.7,0,3.1-1.4,3.1-3.1l0,0C371.2,237,369.9,235.6,368.2,235.6z"/>
		<path id="XMLID_215_" class="st35" d="M368.4,248.7H301c-1.7,0-3.1,1.4-3.1,3.1l0,0c0,1.7,1.4,3.1,3.1,3.1h67.4
			c1.7,0,3.1-1.4,3.1-3.1l0,0C371.5,250.1,370.1,248.7,368.4,248.7z"/>
		<circle id="XMLID_214_" class="st31" cx="292.4" cy="161.4" r="2.1"/>
		<circle id="XMLID_213_" class="st31" cx="299.2" cy="161.4" r="2.1"/>
		<circle id="XMLID_212_" class="st31" cx="306.1" cy="161.4" r="2.1"/>
		<path id="XMLID_211_" class="st36" d="M381.4,153.7h-4.5c2,0,3.6,1.6,3.6,3.6v103.2h4.5V157.2C385,155.3,383.4,153.7,381.4,153.7z
			"/>
	</g>
	<path class="st37" d="M109.4,252.2v-68v-16.8l-17.3-16.8h-3.4v32.9v14.2v17.6v33.4c0,4.6,2.7,8.6,6.5,10.6h6.9
		C106.2,259.4,109.4,256.2,109.4,252.2z"/>
	<path class="st37" d="M319.2,248.7v-69v-17.6v-8.4h-31.8H286c-2,0-3.6,1.6-3.6,3.6v1.4v10.5v91.3h26
		C314.4,259.9,319.2,254.9,319.2,248.7z"/>
	<g id="XMLID_2_">
		<path id="XMLID_20_" class="st10" d="M103.8,111.1h78.7c3.8,0,6.8,3.1,6.8,6.8v61.3c0,0-1.9-2.4-3.2-3.8c-1.4-1.4-3-2.5-4.8-3.2
			c-1.8-0.8-3.8-1.2-5.8-1.2c-2.1,0-4,0.4-5.8,1.2c-1.8,0.8-3.4,1.9-4.8,3.2c-1.4,1.4-2.5,3-3.2,4.8c-0.8,1.8-1.2,3.8-1.2,5.8
			c0,2.1,0.4,4,1.2,5.8c0.8,1.8,1.9,3.4,3.2,4.8c1.4,1.4,3,2.5,4.8,3.2c1.8,0.8,3.8,1.2,5.8,1.2c2.1,0,4-0.4,5.8-1.2
			c1.8-0.8,3.4-1.9,4.8-3.2c1.4-1.4,3.2-3.8,3.2-3.8v60.9c0,3.8-3.1,6.8-6.8,6.8h-78.7c-6.5,0-11.8-5.3-11.8-11.8V123
			C92,116.4,97.3,111.1,103.8,111.1z"/>
		<path id="XMLID_3_" class="st4" d="M304.8,260.5h-78.2c-3.8,0-6.8-3.1-6.8-6.8l0-60.9l0-1c-0.8,1.8-1.9,3.4-3.2,4.8
			c-1.4,1.4-3,2.5-4.8,3.2c-1.8,0.8-3.8,1.2-5.8,1.2c-2.1,0-4-0.4-5.8-1.2c-1.8-0.8-3.4-1.9-4.8-3.2c-1.4-1.4-2.5-3-3.2-4.8
			c-0.8-1.8-1.2-3.8-1.2-5.8c0-2.1,0.4-4,1.2-5.8c0.8-1.8,1.9-3.4,3.2-4.8c1.4-1.4,3-2.5,4.8-3.2c1.8-0.8,3.8-1.2,5.8-1.2
			c2.1,0,4,0.4,5.8,1.2c1.8,0.8,3.4,1.9,4.8,3.2c1.4,1.4,2.5,3,3.2,4.8v-1v-61.3c0-3.8,3.1-6.8,6.8-6.8l78.2,0
			c6.5,0,11.8,5.3,11.8,11.8v125.9C316.7,255.2,311.4,260.5,304.8,260.5z"/>
		<g>
			<path class="st38" d="M189.3,117.9c0-3.8-3.1-6.8-6.8-6.8h-3.8L92,197.8v17.6l97.4-97.4V117.9z"/>
			<polygon class="st38" points="92,149 92,183.6 164.4,111.1 129.8,111.1 			"/>
		</g>
		<path class="st39" d="M316.7,179.7l-80.8,80.8h-9.2c-2.3,0-4.3-1.1-5.5-2.9l95.5-95.5V179.7z M316.7,147.9v-25.1
			c0-2.7-0.9-5.1-2.4-7.1l-94.4,94.4l0,34.6L316.7,147.9z"/>
	</g>
	<path class="st37" d="M385,187.5v-18.3v-10.5v-1.4c0-2-1.6-3.6-3.6-3.6H380h-3.2h-6.9l0.1,0.4l1.5,10.6l2.1-0.6l-0.7,1.4L357,197
		l-0.7,50.4h0.3l-5,3.1l-7.8,2.9c-1.9,1-3.4,2.6-4.2,4.5l-0.4,1.1h-0.7v1.4h30.3V259h-1.5v-10.4l-0.3,0v-1.2h1l1-37.9l0.1-2.3
		l0.1-2.1l14.6-20.8L385,187.5z M357.5,250.1l-0.5,0v-2.6h0.5V250.1z"/>
	<g>
		<rect x="360.6" y="242.7" class="st7" width="9.4" height="10.2"/>
		
			<rect x="412.4" y="240.5" transform="matrix(0.962 -0.273 0.273 0.962 -51.2002 123.1887)" class="st7" width="9.4" height="10.2"/>
		<polygon class="st17" points="377.4,162.7 360.1,197 359.5,247.4 371,247.4 372.2,205.1 389.9,179.8 		"/>
		<polygon class="st40" points="376,165.4 380.4,173.6 381.2,192.1 389.9,179.8 377.4,162.7 		"/>
		<path class="st17" d="M377.4,162.7l-0.5,0.9l5.3,10l13.4,31.6c0.9,2.1,2.1,4,3.7,5.6l0,0l12.9,35.8l10.2-1.1l-6.5-27.8
			c-1.1-5.1-3-10.1-5.8-14.5c-0.7-1.1-1.2-2.3-1.2-3.3l-4.7-29.3l0.8-3.2c0.7-2.8,0.5-5.8-0.7-8.5l-1.2-2.9L377.4,162.7z"/>
		<path class="st7" d="M358.4,116.6l-11.6,17.2c-0.4,0.6-1,0.9-1.6,1l-20.3,2.7c-1,0.1-1.9-0.4-2.3-1.2l-3.6-7.4v-4.8
			c0-1.4-1.1-2.5-2.4-2.5l0,0v14.3l3.4,4.9c0.4,0.5,0.9,0.9,1.6,0.9l25,2c1.2,0.1,2.4-0.4,3.2-1.3l21.4-24.2L358.4,116.6z"/>
		<path class="st9" d="M358.4,116.6l-11.6,17.2c-0.4,0.6-1,0.9-1.6,1l-20.3,2.7c-1,0.1-1.9-0.4-2.3-1.2l-3.6-7.4v-4.8
			c0-1.4-1.1-2.5-2.4-2.5l0,0v14.3l3.4,4.9c0.4,0.5,0.9,0.9,1.6,0.9l25,2c1.2,0.1,2.4-0.4,3.2-1.3l21.4-24.2L358.4,116.6z"/>
		
			<rect x="354.8" y="102.9" transform="matrix(0.848 -0.5301 0.5301 0.848 -2.4213 206.9072)" class="st7" width="9.2" height="9.6"/>
		<polygon class="st9" points="363,103 355.9,110.6 353,106.1 360.9,101.2 		"/>
		<path class="st7" d="M348.7,88.4v3.6l0.6,0.9c0,0-0.5,2.5-3,3.6c0,0-0.5,2.1,2,1.9l0,4.7c0,1.6,1.3,3,3,3h7.4c2,0,3.8-1.3,4.5-3.2
			l3.4-10.1l-1.4-5.8C365.1,87.1,353.3,83.1,348.7,88.4z"/>
		<path class="st10" d="M356.3,122.5l2.8-6.8l-1-1.5l9.8-6.5l8,2.9c1.3,0.5,2.3,1.4,2.9,2.5l11,22c0.1,0.2,0.2,0.4,0.3,0.6
			l13.9,20.1l-29.4,8.8l-2.2-15.1c-0.2-0.7-0.5-1.4-1-2l-13.9-16.6L356.3,122.5z"/>
		<path class="st10" d="M342.3,259l0.4-1.1c0.8-2,2.3-3.6,4.2-4.5l7.8-2.9l5.3-3.3v2.8l6.1-0.1l2.5-1.4l1.7,0V259H342.3z"/>
		<rect x="341.6" y="259" class="st2" width="30.3" height="1.7"/>
		<path class="st10" d="M399.9,259.6l0.4-1.5c0.9-1.9,0.9-1.9,2.3-3.2l6.4-4.2l4-4.1l0.6,2.5l5.4-1.4l1.9-1.8l1.6-0.4l2.2,9.3
			l-21.9,5.3L399.9,259.6z"/>
		<polygon class="st2" points="426.3,256.1 407.7,260.5 405.3,259.5 426,254.6 		"/>
		<polygon class="st2" points="399.3,260.6 407.7,260.7 407.7,259.1 399.3,259.1 		"/>
		<g>
			<path class="st18" d="M361.5,80.6c-1.4-0.3-3-0.2-4.3,0.3c-0.9,0.3-1.5,0.9-2.4,1.1c-1,0.2-2.2,0-3.2,0c-0.7,0-1.4,0-2.1,0.2
				c-0.7,0.2-1.3,0.6-1.6,1.2c-0.3,0.6-0.2,1.3-0.2,1.9c0.1,1.1,0,2.3,0.6,3.2c0.6,0.9,1.4,1,2.3,1.3c0.4,0.1,0.8,0.3,1.2,0.5
				c1.2,0.9,1.2,2.8,2.4,3.6c0.8,0.6,2,0.5,2.6,1.3c0.5,0.6,0.4,1.5,0.5,2.3c0.2,1,0.9,1.9,1.9,2.3c0.3,0.1,0.5,0.2,0.7,0.4
				c0.2,0.2,0.3,0.4,0.3,0.6c0.3,1.3-0.2,2.9,0.6,4c0.6,0.8,1.6,0.8,2.3,1.3c1,0.7,0.7,1.3,0.8,2.4c0,0.9,0,1.8-0.3,2.6
				c-0.4,1-1.3,1.7-2.1,2.4c0.8-0.3,1.6-0.7,2.4-0.9c-0.1,1.9-0.3,3.9-0.7,5.8c1.1-0.6,1.8-1.8,2.4-2.9c0.4-0.7,1.1-1.6,1.9-1.5
				c0.3,0.6,0.6,1.2,1.1,1.7c0.4-1.2,1-2.4,1.9-3.3c0.5,0.8,1.1,1.5,1.7,2.2c0.6,0.7,1.1,1.6,0.9,2.6c0.2-0.9,0.5-1.9,1-2.7
				c2.1,2,4.4,4.1,7.2,4.7c0.2-1.9-1-3.6-1.8-5.2c-0.5-0.9-1.2-2.1-1.2-3.1c0-0.9,0.5-1.7,0.3-2.6c-0.4-1.8-2.8-2.6-3.2-4.4
				c-0.2-0.8,0.1-1.6-0.1-2.4c-0.2-0.8-1-1.4-1.5-2.1c-0.7-1-0.8-2.1-1-3.3c-0.2-1-0.7-1.4-1-2.3c-0.8-1.8,1.4-3.9-0.9-5.3
				c-0.4-0.2-0.8-0.3-1.1-0.6c-0.4-0.3-0.6-0.8-0.8-1.3c-0.5-1.2-1.1-2.3-1.9-3.4c-0.3-0.4-0.5-0.7-0.9-1c-0.4-0.2-0.8-0.2-1.2-0.4
				c-0.7-0.2-1.3-0.6-1.9-0.9C362.7,80.9,362.1,80.7,361.5,80.6z"/>
		</g>
		<path class="st41" d="M370.9,121.5c-1.7,0.8-3.4,2.2-2.9,4c-2,0.5-2.4,2.5-4.5,3.7c-0.4,0.2-0.5,0.7-0.3,1.1
			c-0.4,0.2-0.8,0.4-1.2,0.6c-0.3,0.1-0.4,0.5-0.3,0.8c-0.7,0.5-1.4,1.1-1.9,1.7l1,1.2c0.7-0.9,1.3-2.3,2.4-2.9
			c0.2-0.1,1.3-1.2,1.3-1.5c0.8-0.3,0.8,1,0.9,0.2c0-0.3,0-0.5-0.1-0.6c1.2-1.2,1.9-2.2,3.2-2.2c0.6,0,0.6-0.4,0.2-0.9
			c-1.1-1.6,1.6-4.4,2.4-4.8C372,121.4,371.8,121,370.9,121.5z"/>
		<path class="st7" d="M356.3,122.5l-9.5,13.8c-0.4,0.6-1,0.9-1.6,1l-20.3,2.7c-1,0.1-1.9-0.4-2.3-1.2l-3.6-7.4v-4.8
			c0-1.4-1.1-2.5-2.4-2.5l0,0v14.3l3.4,4.9c0.4,0.5,0.9,0.9,1.6,0.9l25,2c1.2,0.1,2.4-0.4,3.2-1.3l16.3-17.5L356.3,122.5z"/>
		<path class="st41" d="M366.8,141.9c0.1-0.4,0.2-0.9,0.4-1.3c0.2-0.5,0-0.9-0.4-1.1c0-0.8-1.2-0.3-1.1-1.1c0.1-0.4,1.1-2,0.8-2.2
			c0.3-0.7-0.4-1-0.2-1.7c0.2-0.5,0.5-1.8,0.6-2.4c0.1-1-0.5-1.1-0.7-0.1c0,0.3-0.1,0.7-0.2,1c0,0.1-0.1,0.2-0.1,0.3
			c-0.6,1.6-1.7,2.8-3,3.8l1,1.2c0.1-0.1,0.2-0.2,0.3-0.3c0,0.2-0.1,0.4-0.1,0.6L366.8,141.9z"/>
		<path class="st41" d="M377,147.2c0.3-0.6-0.2-0.1-0.9,0.1c-0.3,0.1-0.9,0.2-1.5,0.3c-0.9,0.2-1.9-0.2-2.3-1.1c0,0,0,0,0,0
			c0.5-0.2,2.2-1.5,2.8-1.6c1-0.3,1-0.5,0-0.3c-1.7,0.3-3.4,0.8-5.1,1.2l1.5,1.7c0.4,0.5,0.7,1,0.9,1.6c0.1,0,0.1,0,0.2-0.1
			c0,0.1-0.1,0.1-0.1,0.2c0,0.1,0.1,0.2,0.1,0.2l0.6,4.5c0.2-0.1,0.3-0.2,0.4-0.5c0.2-0.8,0.5-1.6,0.7-2.4c0.1-0.5-0.2-0.8-0.5-0.9
			C374.5,149,376.2,148.6,377,147.2z"/>
		<path class="st40" d="M402.2,174.4c1.8,0.4,2.6,2,3.1,3.8l-1-6.1c-0.1,0-0.1,0-0.2,0c-0.1,0,0.1-0.6,0-1c0,0,0,0,0.1,0l-0.1-0.4
			l0.5-2c-1.1,1-2.7,1.6-4.1,2.4c-0.3,0.2-0.4,0.4-0.4,0.6c-0.6,0.2-1.2,0.4-1.8,0.7c-0.8,0.3,1,0.8,2,0.8c1.1-0.1,0.4,0.7,1.4,0.6
			C401.7,174.1,401.9,174.4,402.2,174.4z"/>
		<path class="st40" d="M411.1,205c-0.2,0-0.3-0.3-0.2-0.4c-0.3-0.5-0.5-0.9-0.8-1.4c0,0,0,0,0-0.1c-0.3-0.2-0.6-0.7-0.5-0.8
			c-0.3-0.5-0.5-1-0.6-1.5c-0.1,0-0.2,0-0.3,0c0,0,0.1-0.1,0.1-0.1c0.1,0,0.1-0.1,0.1-0.1c-0.1-0.2-0.1-0.5-0.1-0.7l-0.4-2.3
			c-0.3,0.7-0.8,1.4-1.5,2c-0.2,0.1-0.3,0.3-0.4,0.5c-1,0.6-2,1.2-3,1.7c-0.9,0.5,1,0.5,1.9,0.1c0.6-0.3,0.1,0.8,0.6,0.6
			c0,0.3,0.2,0.6,0.5,0.7c0.5,0.2,1.1,0.4,1.6,0.7c-0.6,0.2-0.4,1.3-1,1.6c-0.7,0.4-1.1,0.8-0.3,0.7c1.2-0.1,2.9-0.2,4,0.2
			c0.4,0.2,0.8,0.3,1.1,0.4C411.8,206.4,411.5,205.7,411.1,205z"/>
		<path class="st40" d="M370,202.6c-0.8,0.3-0.7,1.5,0.2,1.5c-1.3,0.6-2.7,1.3-4,2c-0.8,0.4,0.9,0.3,1.7,0c1.3-0.4,2,0.2,3.1,0.9
			c-0.5,0-1.1,0.1-1.6,0.1c-1,0.1-1,1.5,0,1.6c0.5,0.1,1.2,0,1.7,0.2c1.2,0.3,0.3,0.1,0.8,0.5c0,0,0,0,0,0l0.1-3.7
			c-0.1-0.2-0.3-0.4-0.6-0.5c0.2-0.1,0.5-0.2,0.7-0.3l3-4.2c-0.1,0-0.3,0.1-0.4,0.2C373.6,202.2,371.6,202.1,370,202.6z"/>
		<path class="st41" d="M385.9,136.9c2.3-1.7,1.5,0.1,2.3-0.3c-0.1,0.2-1.3,1.5-1.4,1.7c-0.3,0.6,1.3,0.3,1.9,0.1c0.1,0,0.1,0,0.2,0
			c-0.1,0.1,0,0.7-0.1,0.8c-0.7,0.6-0.1,0.9,0.6,0.8c1.6-0.2,2.6-0.2,4.1,0.5l-2.7-3.9c-0.2,0-0.5-0.4-0.4-0.6l-0.1-0.2
			c-0.1-0.2-0.2-0.4-0.3-0.6l-0.5-0.9c-0.3,0.1-0.4-0.3-0.3-0.6l-2.3-4.6c-0.2,0.2-0.2,0.5-0.1,0.8c0.8,1.4,1.3,2.4,0.5,3.9
			c-0.6,1.1-1.6,2.2-2.5,3.1C384.2,137.5,385.1,137.5,385.9,136.9z"/>
		<circle class="st15" cx="364.3" cy="254.6" r="2"/>
		<circle class="st15" cx="419.6" cy="252.6" r="2"/>
	</g>
	<g>
		<path class="st7" d="M139.1,80.6c-1.3,0-2.4-1.1-2.4-2.4c0-1.3,1.1-2.4,2.4-2.4c1.3,0,2.4,1.1,2.4,2.4
			C141.5,79.5,140.4,80.6,139.1,80.6z M139.1,77c-0.6,0-1.1,0.5-1.1,1.1c0,0.6,0.5,1.1,1.1,1.1c0.6,0,1.1-0.5,1.1-1.1
			C140.2,77.5,139.7,77,139.1,77z"/>
	</g>
	<g>
		<path class="st17" d="M136.6,18.7c-1.3,0-2.4-1.1-2.4-2.4c0-1.3,1.1-2.4,2.4-2.4c1.3,0,2.4,1.1,2.4,2.4
			C139.1,17.6,138,18.7,136.6,18.7z M136.6,15.1c-0.6,0-1.1,0.5-1.1,1.1c0,0.6,0.5,1.1,1.1,1.1c0.6,0,1.1-0.5,1.1-1.1
			C137.8,15.6,137.3,15.1,136.6,15.1z"/>
	</g>
	<g>
		<path class="st17" d="M334.5,67.8c-1.3,0-2.3-1-2.3-2.3c0-1.3,1-2.3,2.3-2.3c1.3,0,2.3,1,2.3,2.3
			C336.8,66.8,335.7,67.8,334.5,67.8z M334.5,64.4c-0.6,0-1.1,0.5-1.1,1.1c0,0.6,0.5,1.1,1.1,1.1c0.6,0,1.1-0.5,1.1-1.1
			C335.5,64.9,335.1,64.4,334.5,64.4z"/>
	</g>
	<g>
		<path class="st7" d="M274.9,85.3c-1,0-1.8-0.8-1.8-1.8c0-1,0.8-1.8,1.8-1.8c1,0,1.8,0.8,1.8,1.8C276.7,84.5,275.9,85.3,274.9,85.3
			z M274.9,82.6c-0.5,0-0.8,0.4-0.8,0.8c0,0.5,0.4,0.8,0.8,0.8c0.5,0,0.8-0.4,0.8-0.8C275.7,83,275.4,82.6,274.9,82.6z"/>
	</g>
	<g>
		<path class="st17" d="M200.5,63.8c-1,0-1.8-0.8-1.8-1.8c0-1,0.8-1.8,1.8-1.8c1,0,1.8,0.8,1.8,1.8C202.3,63,201.5,63.8,200.5,63.8z
			 M200.5,61.1c-0.5,0-0.8,0.4-0.8,0.8c0,0.5,0.4,0.8,0.8,0.8c0.5,0,0.8-0.4,0.8-0.8C201.3,61.5,200.9,61.1,200.5,61.1z"/>
	</g>
	<g>
		<path class="st23" d="M98.6,53c-1,0-1.8-0.8-1.8-1.8c0-1,0.8-1.8,1.8-1.8c1,0,1.8,0.8,1.8,1.8C100.4,52.2,99.6,53,98.6,53z
			 M98.6,50.4c-0.5,0-0.8,0.4-0.8,0.8c0,0.5,0.4,0.8,0.8,0.8c0.5,0,0.8-0.4,0.8-0.8C99.4,50.8,99.1,50.4,98.6,50.4z"/>
	</g>
	<g>
		<path class="st17" d="M229,17.4c-1,0-1.8-0.8-1.8-1.8c0-1,0.8-1.8,1.8-1.8c1,0,1.8,0.8,1.8,1.8C230.8,16.6,230,17.4,229,17.4z
			 M229,14.7c-0.5,0-0.8,0.4-0.8,0.8c0,0.5,0.4,0.8,0.8,0.8c0.5,0,0.8-0.4,0.8-0.8C229.8,15.1,229.5,14.7,229,14.7z"/>
	</g>
	<path class="st17" d="M100.4,102.3h-1.1v-1.1c0-0.4-0.3-0.6-0.6-0.6c-0.4,0-0.6,0.3-0.6,0.6v1.1h-1.1c-0.4,0-0.6,0.3-0.6,0.6
		c0,0.4,0.3,0.6,0.6,0.6h1.1v1.1c0,0.4,0.3,0.6,0.6,0.6c0.4,0,0.6-0.3,0.6-0.6v-1.1h1.1c0.4,0,0.6-0.3,0.6-0.6
		C101,102.6,100.7,102.3,100.4,102.3z"/>
	<path class="st17" d="M321.9,95.5h-0.8v-0.8c0-0.2-0.2-0.4-0.4-0.4c-0.2,0-0.4,0.2-0.4,0.4v0.8h-0.8c-0.2,0-0.4,0.2-0.4,0.4
		c0,0.2,0.2,0.4,0.4,0.4h0.8v0.8c0,0.2,0.2,0.4,0.4,0.4c0.2,0,0.4-0.2,0.4-0.4v-0.8h0.8c0.2,0,0.4-0.2,0.4-0.4
		C322.3,95.7,322.1,95.5,321.9,95.5z"/>
	<path class="st23" d="M246.7,70.3H245v-1.6c0-0.5-0.4-0.9-0.9-0.9c-0.5,0-0.9,0.4-0.9,0.9v1.6h-1.6c-0.5,0-0.9,0.4-0.9,0.9
		s0.4,0.9,0.9,0.9h1.6v1.6c0,0.5,0.4,0.9,0.9,0.9c0.5,0,0.9-0.4,0.9-0.9v-1.6h1.6c0.5,0,0.9-0.4,0.9-0.9S247.2,70.3,246.7,70.3z"/>
	<path class="st0" d="M40.2,81.7h-1.6v-1.6c0-0.5-0.4-0.9-0.9-0.9c-0.5,0-0.9,0.4-0.9,0.9v1.6h-1.6c-0.5,0-0.9,0.4-0.9,0.9
		c0,0.5,0.4,0.9,0.9,0.9h1.6v1.6c0,0.5,0.4,0.9,0.9,0.9c0.5,0,0.9-0.4,0.9-0.9v-1.6h1.6c0.5,0,0.9-0.4,0.9-0.9
		C41.1,82.1,40.7,81.7,40.2,81.7z"/>
	<path class="st26" d="M212.1,110h-1.6v-1.6c0-0.5-0.4-0.9-0.9-0.9c-0.5,0-0.9,0.4-0.9,0.9v1.6H207c-0.5,0-0.9,0.4-0.9,0.9
		c0,0.5,0.4,0.9,0.9,0.9h1.6v1.6c0,0.5,0.4,0.9,0.9,0.9c0.5,0,0.9-0.4,0.9-0.9v-1.6h1.6c0.5,0,0.9-0.4,0.9-0.9
		C213,110.4,212.6,110,212.1,110z"/>
	<path class="st34" d="M172,94.3l-0.8,0.8l-0.8-0.8c-0.2-0.2-0.7-0.2-0.9,0c-0.2,0.2-0.2,0.7,0,0.9l0.8,0.8l-0.8,0.8
		c-0.2,0.2-0.2,0.7,0,0.9c0.2,0.2,0.7,0.2,0.9,0l0.8-0.8l0.8,0.8c0.2,0.2,0.7,0.2,0.9,0c0.2-0.2,0.2-0.7,0-0.9l-0.8-0.8l0.8-0.8
		c0.2-0.2,0.2-0.7,0-0.9C172.6,94,172.2,94,172,94.3z"/>
	<path class="st7" d="M193.4,30.2l-1.3,1.3l-1.3-1.3c-0.4-0.4-1-0.4-1.4,0c-0.4,0.4-0.4,1,0,1.4l1.3,1.3l-1.3,1.3
		c-0.4,0.4-0.4,1,0,1.4c0.4,0.4,1,0.4,1.4,0l1.3-1.3l1.3,1.3c0.4,0.4,1,0.4,1.4,0c0.4-0.4,0.4-1,0-1.4l-1.3-1.3l1.3-1.3
		c0.4-0.4,0.4-1,0-1.4C194.4,29.8,193.8,29.8,193.4,30.2z"/>
	<path class="st10" d="M372.3,65.1l-1.3,1.3l-1.3-1.3c-0.4-0.4-1-0.4-1.4,0c-0.4,0.4-0.4,1,0,1.4l1.3,1.3l-1.3,1.3
		c-0.4,0.4-0.4,1,0,1.4c0.4,0.4,1,0.4,1.4,0l1.3-1.3l1.3,1.3c0.4,0.4,1,0.4,1.4,0c0.4-0.4,0.4-1,0-1.4l-1.3-1.3l1.3-1.3
		c0.4-0.4,0.4-1,0-1.4C373.4,64.7,372.7,64.7,372.3,65.1z"/>
	<path class="st34" d="M298,39.2l-0.8,0.8l-0.8-0.8c-0.2-0.2-0.7-0.2-0.9,0c-0.2,0.2-0.2,0.7,0,0.9l0.8,0.8l-0.8,0.8
		c-0.2,0.2-0.2,0.7,0,0.9c0.2,0.2,0.7,0.2,0.9,0l0.8-0.8l0.8,0.8c0.2,0.2,0.7,0.2,0.9,0c0.2-0.2,0.2-0.7,0-0.9l-0.8-0.8l0.8-0.8
		c0.2-0.2,0.2-0.7,0-0.9C298.6,38.9,298.2,38.9,298,39.2z"/>
	<path class="st34" d="M70.1,60.8l-0.5,0.5L69,60.8c-0.2-0.2-0.4-0.2-0.6,0c-0.2,0.2-0.2,0.4,0,0.6l0.5,0.5l-0.5,0.5
		c-0.2,0.2-0.2,0.4,0,0.6c0.2,0.2,0.4,0.2,0.6,0l0.5-0.5l0.5,0.5c0.2,0.2,0.4,0.2,0.6,0c0.2-0.2,0.2-0.4,0-0.6L70.2,62l0.5-0.5
		c0.2-0.2,0.2-0.4,0-0.6C70.6,60.6,70.3,60.6,70.1,60.8z"/>
	<circle class="st10" cx="152.2" cy="46.5" r="1.3"/>
	<circle class="st17" cx="224.8" cy="98.9" r="1"/>
	<circle class="st17" cx="186.5" cy="15.6" r="0.7"/>
	<circle class="st17" cx="262.7" cy="32.2" r="0.7"/>
	<circle class="st17" cx="106.3" cy="23.4" r="1"/>
	<line class="st42" x1="-83.6" y1="260.7" x2="465.4" y2="260.7"/>
</g>
</svg>
