<svg xmlns="http://www.w3.org/2000/svg" xmlns:xlink="http://www.w3.org/1999/xlink" id="Graphics" x="0" y="0" version="1.1" viewBox="0 0 450.3 339.4" xml:space="preserve" style="enable-background:new 0 0 450.3 339.4"><style type="text/css">.st0{fill:#00c9a7}.st1{opacity:.2}.st2{fill:#191c3c}.st3{opacity:8.000000e-02;fill:#f5f7f9;enable-background:new}.st4{fill:#ffc107}.st5{fill:none;stroke:#191c3c;stroke-miterlimit:10}.st6{fill:#63c98c}.st7{fill:#fec55e}.st8{fill:#196eff}.st9{opacity:.3;fill:#191c3c;enable-background:new}.st10{fill:#121212}.st11{fill:#474963}.st12{fill:#d9e7ed}.st13{opacity:.2;fill:#3a3c4e;enable-background:new}.st14{fill:#e0a546}.st15{fill:#19a0ff}.st16{fill:#3a3c4e}.st17{fill:#4d5068}.st18{fill:#dd9c3e}.st19{fill:#bf9447}.st20{opacity:.1;fill:#3a3c4e;enable-background:new}.st21{display:none}.st22{display:inline}.st22,.st23{fill:#2d1582}.st24{fill:#ffc107}.st24,.st25{display:inline}.st25,.st26,.st27{fill:#de4437}.st27{display:none}.st28{fill:#ffc107}.st28,.st29,.st30{display:none}.st29{fill:#00c9a7}.st30{fill:#121212}.st31{fill:#fff}.st32{display:none;opacity:.47;fill:#e0e4f0;enable-background:new}.st33{opacity:.15}.st34{fill:#575a8f}.st35{fill:#f2f3f7}.st36,.st37{enable-background:new}.st36{opacity:.2;fill:#414042}.st37{opacity:.1}.st37,.st38{fill:#fff}.st38,.st39,.st40{enable-background:new}.st38{opacity:.19}.st39,.st40{opacity:.3;fill:#30334f}.st40{opacity:.1}.st41{display:none;fill:none;stroke:#191c3c;stroke-miterlimit:10}</style><g><g id="Layer_9"><g><path d="M297.7,575.2L297.7,575.2C297.7,575.2,297.3,574.4,297.7,575.2z M304.4,582.2c7.5-7.1,13.9-15.7,16.8-25.6 c3-9.9,2.2-21.2-3.6-29.8c-13.2,12.2-20.7,30.4-19.9,48.3c-0.2,2.6-0.4,10.2,0.8,12.4c0.3,0.6,2.3-1.1,3.9-2.6 C302.9,584.4,303.9,582.7,304.4,582.2z" class="st0"/><g class="st1"><path d="M302.4,584.9c0.5-0.5,1.5-2.2,2-2.7c7.5-7.1,13.9-15.7,16.8-25.6c1.4-4.8,2-9.8,1.5-14.8 c-0.2,5.7-1.8,11.4-4.5,16.4c-4.7,8.9-12.3,16-20.7,21.5c0,3,0.2,6.4,1,7.7C298.9,588.1,300.8,586.4,302.4,584.9z" class="st2"/></g><path d="M319.9,590.9c-4.2,1.4-10.3,3.3-14.3,1.5c-3.2-1.4-7.7-3.9-7-7.1c3.5-2.6,10.6-8,13.4-11.4 c2.3-2.8,4.8-7.3,7.3-10c6.3-6.9,14.7-9.5,23.3-13.2c-0.8,7-2.1,13.9-4.2,20.7c-1.3,4.4-3,8.9-6.1,12.3 C329.1,587.3,324.5,589.4,319.9,590.9z" class="st0"/><path d="M311.7,575.8c2.8-2.4,6-6.3,8.9-8.5c6.2-4.7,13.3-6.2,20.7-7.9c0.5-2.9,1-5.7,1.3-8.6 c-8.6,3.7-17,6.3-23.3,13.2c-2.5,2.7-5,7.1-7.3,10c-1.3,1.6-3.7,3.7-6.1,5.7C308.2,578.4,310.3,577,311.7,575.8z" class="st3"/><path d="M342,594.7c-6.4,2.3-13.5,2.2-20.3,2c-2.6-0.1-6.9,0.6-9.4-0.1c-2.1-0.5-4.1-2-5.9-3.2 c-1.5-1.1,0.3-2.4,1.8-3.4c1.4-0.9,3.9-2.5,3.3-1.7c4-1.1,6.5-1.7,10.5-2.8c3.1-1,6.2-2,9.4-2.5c7.9-1.3,15.9,0.4,23.7,2 C351.8,589.4,347.2,592.8,342,594.7z" class="st0"/><g><path d="M316.2,531.9c0.2,9-0.1,17.7-2.7,26.3c-2.4,8.1-6.4,15.6-11.5,22.2c-0.3,0.4,0.3,0.7,0.6,0.4 c5.2-6.7,9.1-14.3,11.5-22.4c2.6-8.7,2.8-17.5,2.4-26.5C316.4,531.8,316.2,531.8,316.2,531.9L316.2,531.9z" class="st2"/></g><g><path d="M339.9,553.7c-3.5,7.2-8,13.7-13.7,19.4c-6.1,6.1-13.3,10.1-20.5,14.7c-0.2,0.1,0,0.5,0.2,0.3 c14.8-7.7,27.4-18.7,34.1-34.3C340.1,553.7,340,553.6,339.9,553.7L339.9,553.7z" class="st2"/></g><g><path d="M352.1,585.4c-14,4.5-27.4,9.9-42.4,6.5c-0.3-0.1-0.4,0.4-0.1,0.5c14.2,3.1,29.6-1,42.6-6.9L352.1,585.4 L352.1,585.4z" class="st2"/></g><g><path d="M311.2,538.3c1,1,2,1.9,2.8,3s1.4,2.3,2.1,3.5c0.1,0.1,0.2,0,0.2-0.1C315.4,542.2,313.4,539.7,311.2,538.3 C311.2,538.2,311.1,538.2,311.2,538.3L311.2,538.3z" class="st2"/></g><g><path d="M307.6,545.4c4.5,2.6,5.8,6.2,6.3,11.1c0,0.4,0.6,0.3,0.5-0.1C313.8,551.8,312.4,547.1,307.6,545.4 C307.5,545.3,307.5,545.4,307.6,545.4L307.6,545.4z" class="st2"/></g><g><path d="M306.9,554.4c2.2,2.9,5.6,5.9,4.5,9.9c-0.1,0.2,0.3,0.3,0.3,0.1C312.8,560.4,309.5,557.1,306.9,554.4 C306.9,554.2,306.8,554.3,306.9,554.4L306.9,554.4z" class="st2"/></g><g><path d="M302.1,563.1c3.3,2.7,6.4,6.6,4,11c-0.1,0.3,0.2,0.5,0.4,0.2c2.4-4.4-0.5-9-4.3-11.3 C302.1,563,302,563,302.1,563.1L302.1,563.1z" class="st2"/></g><g><path d="M321.8,542.8c-2.9,0.6-4.6,3-6.2,5.3c-0.1,0.2,0.2,0.3,0.3,0.2c1.5-2.3,3.1-4.5,5.9-5.3 C321.9,543,321.9,542.8,321.8,542.8L321.8,542.8z" class="st2"/></g><g><path d="M321.1,552.3c-2.8,1-5.2,2.8-7.2,4.9c-0.2,0.2,0.1,0.4,0.3,0.3C316.1,555.2,318.5,553.7,321.1,552.3 C321.1,552.3,321.1,552.2,321.1,552.3L321.1,552.3z" class="st2"/></g><g><path d="M317.8,560.2c-1.4,0.5-2.5,1.1-3.7,2c-0.8,0.6-2.4,1.6-2.8,2.6c0,0.1,0,0.2,0.1,0.2l0.1,0.1 c0.1,0.1,0.3,0.1,0.4,0l0.1-0.1c0.1-0.1,0-0.2,0-0.3l-0.1-0.1c-0.1-0.1-0.2-0.1-0.3,0.1c-0.1,0.3,1.5-1,1.5-1 c0.4-0.4,0.9-0.8,1.3-1.2C315.5,561.6,316.6,560.9,317.8,560.2C317.9,560.3,317.9,560.2,317.8,560.2L317.8,560.2z" class="st2"/></g><g><path d="M314.4,566.8c-3,1.7-5.7,4.4-7.9,7.1c-0.3,0.3,0.2,0.8,0.5,0.5c2.3-2.8,4.8-5,7.5-7.4 C314.6,567,314.5,566.8,314.4,566.8L314.4,566.8z" class="st2"/></g><g><path d="M330.5,557.8c0.3,5,0,9.3-2.8,13.6c-0.2,0.3,0.3,0.6,0.5,0.3c2.6-3.8,4.1-9.4,2.6-13.9 C330.7,557.6,330.5,557.6,330.5,557.8L330.5,557.8z" class="st2"/></g><g><path d="M322.1,565.5c0,2.4,0,4.7-0.6,7c-0.5,2.1-1.3,4.2-2.1,6.2c-0.1,0.3,0.3,0.4,0.4,0.1 C321.4,574.6,323.2,569.9,322.1,565.5C322.2,565.4,322.1,565.4,322.1,565.5L322.1,565.5z" class="st2"/></g><g><path d="M314.7,574.6c-0.1,1.7-0.3,3.3-0.6,5c-0.4,1.9-1.3,3.1-2.8,4.4c-0.2,0.2,0.1,0.5,0.3,0.3 c1.4-1.2,2.4-2.3,2.8-4.1s0.6-3.8,0.5-5.6C314.9,574.5,314.7,574.5,314.7,574.6L314.7,574.6z" class="st2"/></g><g><path d="M336.1,568.1c-1.8,0.1-3.6,1-5.3,1.7c-1,0.4-2.9,0.9-3.1,2.1c0,0.1,0.1,0.2,0.2,0.1 C329.9,569.7,333.6,569.6,336.1,568.1C336.2,568.2,336.2,568,336.1,568.1L336.1,568.1z" class="st2"/></g><g><path d="M333.8,575.5c-5,0.4-9.9,1.9-14.5,3.6c-0.2,0.1-0.1,0.5,0.1,0.4c4.8-1.7,9.5-2.7,14.5-3.8 C333.9,575.7,333.9,575.5,333.8,575.5L333.8,575.5z" class="st2"/></g><g><path d="M323.3,583.4c-4.2-0.1-8.5,1-12.7,1.6c-0.3,0-0.2,0.5,0.1,0.5c4.2-0.7,8.4-1.3,12.6-1.8 C323.4,583.6,323.4,583.4,323.3,583.4L323.3,583.4z" class="st2"/></g><g><path d="M344.2,583.8c-3.4,2.9-7,5.3-11.1,7.2c-0.3,0.2-0.1,0.7,0.3,0.5c4.1-1.9,7.9-4.3,11.1-7.5 C344.6,583.9,344.4,583.7,344.2,583.8L344.2,583.8z" class="st2"/></g><g><path d="M343.4,593.5c-3.2-1.5-7.2-1.8-10.7-2c-0.3,0-0.3,0.5,0,0.5c2,0.1,4,0.4,5.9,0.7c1.6,0.3,3.1,0.8,4.7,1 C343.4,593.7,343.5,593.5,343.4,593.5L343.4,593.5z" class="st2"/></g><g><path d="M331.3,587.9c-3.5,2.2-7,3.5-10.8,5c-0.1,0,0,0.2,0.1,0.2c3.8-0.5,7.9-2.6,10.8-5.1 C331.5,588,331.4,587.8,331.3,587.9L331.3,587.9z" class="st2"/></g><g><path d="M320.4,593.4c2.4,1,4.8,1.8,7.1,3.2c0.2,0.1,0.4-0.2,0.2-0.3C325.5,594.9,322.9,593.6,320.4,593.4 C320.3,593.2,320.3,593.3,320.4,593.4L320.4,593.4z" class="st2"/></g></g><g><g><g><path d="M347.7,575c-0.1,0-0.2,0.1-0.2,0.1c-2.4,1.1-3.6,0.9-5.9-0.1c-2.1-1-4.2-2.1-5.9-3.7 c-2.2-2-3.9-4.6-4.3-7.5c-0.1-0.7-0.1-1.4,0.3-1.9c0.5-0.7,1.6-0.8,2.5-0.5c0.8,0.3,1.5,1,2.2,1.6c0.3,0.3,0.6,0.5,1,0.6 s0.8,0,1-0.3c0.3-0.5-0.2-1.2-0.7-1.6c-1.1-0.9-2.1-1.4-3.3-2.3c-1.4-1-2.8-2.3-3.6-3.8c-0.8-1.6-1-3.5-0.1-5.1 c0.3-0.5,0.6-0.9,1.1-1.2c0.8-0.5,1.8-0.5,2.8-0.3c0.9,0.2,1.8,0.6,2.8,0.7c2.2,0.2,3.1-1.3,3.1-3.4c0-1.4-0.5-2.7-0.6-4.1 c-0.1-2.4,1.1-5,3.3-6.1c2.2-1,5.3,0,6.1,2.3c0.9,2.5-1.1,5.3,0.2,7.7c0.4,0.8,1.4,1.9,2.1,2.3c1.2,0.8,3-0.1,4.4-0.1 c0.3,0,0.7,0.1,0.9,0.3c0.2,0.2,0.2,0.4,0.3,0.6c0.3,1.7-0.3,3.6-1.6,4.8c-1.5,1.4-4.1,2-4.7,4.2c-0.4,1.3-0.2,4.6,1.9,4.3 c0.8-0.1,1.3-0.9,2.1-1.2c0.9-0.3,2,0.3,2.4,1.2s0.3,2-0.1,2.9c-0.6,1.4-1.7,2.6-2.8,3.7C352.1,571.4,350.6,573.6,347.7,575z" class="st4"/></g><line x1="344.6" x2="344.6" y1="544.5" y2="595.5" class="st5"/><polyline points="350.5 553.3 344.6 559.2 338.6 553.3" class="st5"/><polyline points="350.5 565.2 344.6 571.1 338.6 565.2" class="st5"/></g></g><g><g><path d="M31.6,524.5c-0.1,0-0.2,0.1-0.2,0.1c-2.5,1.2-3.8,1-6.2-0.1c-2.2-1-4.4-2.2-6.2-3.9 c-2.3-2.1-4.1-4.8-4.5-7.9c-0.1-0.7-0.1-1.4,0.3-2c0.6-0.8,1.7-0.9,2.6-0.5c0.9,0.3,1.6,1,2.3,1.7c0.3,0.3,0.6,0.5,1,0.7 c0.4,0.1,0.9,0,1.1-0.4c0.3-0.6-0.2-1.2-0.7-1.6c-1.2-1-2.2-1.5-3.4-2.4c-1.5-1.1-2.9-2.4-3.8-4c-0.8-1.7-1-3.7-0.2-5.4 c0.3-0.5,0.6-1,1.1-1.3c0.8-0.5,1.9-0.5,2.9-0.3s1.9,0.6,2.9,0.7c2.4,0.2,3.3-1.4,3.2-3.6c0-1.5-0.5-2.9-0.6-4.3 c-0.1-2.6,1.1-5.3,3.4-6.4s5.6,0,6.4,2.4c0.9,2.6-1.2,5.6,0.2,8.1c0.4,0.8,1.4,1.9,2.2,2.4c1.3,0.8,3.2-0.1,4.7-0.1 c0.3,0,0.7,0.1,0.9,0.3c0.2,0.2,0.2,0.4,0.3,0.7c0.4,1.8-0.3,3.8-1.7,5.1c-1.6,1.4-4.3,2.1-4.9,4.4c-0.4,1.4-0.2,4.8,2,4.5 c0.8-0.1,1.4-0.9,2.2-1.2c1-0.3,2.1,0.3,2.5,1.3c0.4,0.9,0.3,2-0.1,3c-0.6,1.5-1.8,2.7-2.9,3.9 C36.2,520.6,34.7,522.9,31.6,524.5z" class="st4"/></g><line x1="28.4" x2="28.4" y1="492.4" y2="582" class="st5"/><polyline points="34.6 501.7 28.4 507.9 22.1 501.7" class="st5"/><polyline points="34.6 514.2 28.4 520.4 22.1 514.2" class="st5"/></g><g><g><path d="M7.4,550.4c-0.1,0-0.1,0.1-0.2,0.1c-2,0.9-3,0.8-5-0.1c-1.8-0.8-3.5-1.8-5-3.1c-1.9-1.6-3.3-3.9-3.6-6.3 c0-0.6,0-1.3,0.3-1.7c0.5-0.6,1.4-0.7,2.1-0.4s1.3,0.8,1.8,1.3c0.2,0.2,0.5,0.4,0.8,0.5s0.7,0,0.9-0.3c0.3-0.5-0.2-1-0.6-1.3 c-0.9-0.8-1.8-1.2-2.8-1.9c-1.2-0.9-2.3-1.9-3-3.2s-0.8-3-0.1-4.3c0.2-0.4,0.5-0.8,0.9-1c0.7-0.4,1.6-0.4,2.3-0.2 c0.8,0.2,1.5,0.5,2.3,0.6c1.9,0.2,2.6-1.1,2.6-2.9c0-1.2-0.4-2.3-0.5-3.5c-0.1-2,0.9-4.2,2.7-5.1c1.9-0.9,4.5,0,5.1,1.9 c0.7,2.1-0.9,4.5,0.2,6.5c0.4,0.7,1.2,1.6,1.8,2c1,0.6,2.5-0.1,3.7-0.1c0.3,0,0.6,0,0.7,0.2c0.1,0.1,0.2,0.3,0.2,0.5 c0.3,1.5-0.2,3.1-1.4,4.1c-1.2,1.1-3.4,1.7-3.9,3.5c-0.3,1.1-0.2,3.9,1.6,3.6c0.7-0.1,1.1-0.8,1.7-1c0.8-0.3,1.7,0.3,2,1 c0.4,0.7,0.2,1.6-0.1,2.4c-0.5,1.2-1.4,2.2-2.3,3.1C11.1,547.3,9.9,549.1,7.4,550.4z" class="st6"/></g><line x1="4.8" x2="4.8" y1="524.7" y2="596.5" class="st5"/><polyline points="9.8 532.1 4.8 537.1 -.2 532.1" class="st5"/><polyline points="9.8 542.1 4.8 547.1 -.2 542.1" class="st5"/></g><g><path d="M45.6,595.9L45.6,595.9C45.7,595.9,44.8,596.3,45.6,595.9z M52.8,588.8c-7.5-7.7-16.5-14.3-26.8-17.2 c-10.3-3-22.1-2-31,4.1c12.9,13.6,31.9,21.2,50.6,20.2c2.7,0.2,10.6,0.3,12.9-1c0.6-0.4-1.2-2.4-2.8-4 C55.2,590.4,53.3,589.3,52.8,588.8z" class="st0"/><g class="st1"><path d="M55.7,590.9c-0.5-0.5-2.3-1.6-2.8-2.1c-7.5-7.7-16.5-14.3-26.8-17.2c-5-1.4-10.3-1.9-15.4-1.4 c5.9,0.2,11.9,1.8,17.2,4.5c9.4,4.8,16.8,12.6,22.7,21.4c3.1,0,6.7-0.3,8-1.1C59.1,594.5,57.2,592.5,55.7,590.9z" class="st2"/></g><path d="M61.8,572.5c1.5,4.3,3.5,10.7,1.7,14.9c-1.4,3.3-4,8.1-7.3,7.4c-2.8-3.6-8.4-11-12-13.9 c-3-2.4-7.6-4.9-10.5-7.5c-7.2-6.5-10-15.3-14-24.1c7.3,0.7,14.5,2.1,21.6,4.1c4.6,1.3,9.3,3,12.8,6.2 C57.9,563,60.1,567.8,61.8,572.5z" class="st0"/><path d="M46.1,581.3c-2.5-2.9-6.7-6.2-9-9.2c-4.9-6.4-6.6-13.7-8.4-21.5c-3-0.5-6-0.9-9-1.2c4,8.9,6.8,17.6,14,24.1 c2.8,2.6,7.5,5.1,10.5,7.5c1.7,1.4,3.9,3.8,6,6.3C48.8,584.9,47.4,582.7,46.1,581.3z" class="st3"/><path d="M65.4,549.5c2.5,6.7,2.4,14,2.4,21.1c0,2.7,0.7,7.2,0,9.8c-0.5,2.2-2,4.3-3.3,6.1c-1.2,1.6-2.5-0.3-3.6-1.9 c-0.9-1.5-2.6-4.1-1.8-3.5c-1.2-4.1-1.9-6.7-3-10.9c-1.1-3.2-2.1-6.4-2.7-9.7c-1.4-8.2,0.2-16.5,1.8-24.7 C59.8,539.3,63.4,544.1,65.4,549.5z" class="st0"/><g><path d="M0.3,577.1c9.3-0.3,18.4,0,27.4,2.5c8.5,2.4,16.3,6.5,23.3,11.8c0.4,0.3,0.7-0.3,0.4-0.6 c-7-5.3-15-9.3-23.5-11.7c-9.1-2.6-18.2-2.7-27.6-2.2C0.2,576.8,0.1,577.1,0.3,577.1L0.3,577.1z" class="st2"/></g><g><path d="M22.8,552.1c7.5,3.6,14.4,8.2,20.3,14c6.4,6.3,10.7,13.8,15.5,21.2c0.1,0.2,0.5,0,0.3-0.2 c-8.2-15.4-19.8-28.3-36.1-35.2C22.7,551.9,22.6,552.1,22.8,552.1L22.8,552.1z" class="st2"/></g><g><path d="M55.7,539.1c4.9,14.5,10.6,28.5,7.3,44.1c-0.1,0.3,0.4,0.5,0.5,0.1c3.1-14.9-1.4-30.8-7.7-44.3 C55.8,539,55.6,539.1,55.7,539.1L55.7,539.1z" class="st2"/></g><g><path d="M7,582.3c1-1,2-2.1,3.1-2.9c1.2-0.9,2.4-1.5,3.7-2.2c0.1-0.1,0-0.2-0.1-0.2C11.1,577.8,8.4,579.9,7,582.3 C6.9,582.3,7,582.3,7,582.3L7,582.3z" class="st2"/></g><g><path d="M14.5,586c2.6-4.7,6.4-6.1,11.5-6.7c0.4,0,0.3-0.6-0.1-0.5C21.1,579.4,16.2,580.8,14.5,586 C14.4,586,14.5,586,14.5,586L14.5,586z" class="st2"/></g><g><path d="M23.8,586.6c3-2.3,6-5.9,10.2-4.8c0.2,0.1,0.3-0.3,0.1-0.3c-4.2-1.1-7.6,2.4-10.4,5 C23.6,586.5,23.7,586.6,23.8,586.6L23.8,586.6z" class="st2"/></g><g><path d="M33,591.5c2.8-3.5,6.8-6.7,11.4-4.3c0.3,0.1,0.5-0.3,0.2-0.4c-4.6-2.4-9.3,0.6-11.8,4.6 C32.8,591.5,32.9,591.5,33,591.5L33,591.5z" class="st2"/></g><g><path d="M11.6,571.1c0.6,3,3.2,4.8,5.6,6.4c0.2,0.1,0.3-0.2,0.2-0.3c-2.4-1.6-4.8-3.2-5.6-6.1 C11.8,571,11.6,571,11.6,571.1L11.6,571.1z" class="st2"/></g><g><path d="M21.5,571.8c1.1,2.9,3,5.4,5.2,7.5c0.2,0.2,0.5-0.1,0.3-0.3C24.6,576.9,23,574.5,21.5,571.8 C21.5,571.7,21.4,571.8,21.5,571.8L21.5,571.8z" class="st2"/></g><g><path d="M29.8,575.1c0.5,1.4,1.2,2.6,2.1,3.8c0.7,0.9,1.7,2.5,2.7,2.9c0.1,0,0.2,0,0.3-0.1l0.1-0.1 c0.1-0.1,0.1-0.3-0.1-0.4l-0.1-0.1c-0.1-0.1-0.2,0-0.3,0l-0.1,0.1c-0.1,0.1-0.1,0.2,0.1,0.3c0.4,0.1-1.1-1.6-1.1-1.6 c-0.4-0.5-0.8-0.9-1.2-1.4c-0.9-1.1-1.7-2.3-2.3-3.6C29.9,575,29.8,575,29.8,575.1L29.8,575.1z" class="st2"/></g><g><path d="M36.7,578.6c1.8,3.1,4.7,5.9,7.5,8.1c0.3,0.3,0.8-0.2,0.5-0.5c-3-2.3-5.3-5-7.8-7.8 C36.8,578.3,36.7,578.5,36.7,578.6L36.7,578.6z" class="st2"/></g><g><path d="M27.1,561.9c5.2-0.3,9.7-0.1,14.2,2.8c0.3,0.2,0.6-0.3,0.3-0.5c-4-2.6-9.8-4.2-14.6-2.6 C26.9,561.7,26.9,561.9,27.1,561.9L27.1,561.9z" class="st2"/></g><g><path d="M35.2,570.6c2.5,0,4.9-0.1,7.3,0.5c2.2,0.5,4.3,1.3,6.5,2.1c0.3,0.1,0.4-0.3,0.1-0.5 c-4.4-1.6-9.3-3.5-14-2.3C35.1,570.5,35.1,570.6,35.2,570.6L35.2,570.6z" class="st2"/></g><g><path d="M44.8,578.2c1.7,0.1,3.5,0.3,5.2,0.6c2,0.4,3.3,1.4,4.6,2.9c0.2,0.2,0.6-0.1,0.4-0.4 c-1.2-1.4-2.4-2.4-4.3-2.9c-1.9-0.4-3.9-0.5-5.9-0.4C44.7,578,44.7,578.2,44.8,578.2L44.8,578.2z" class="st2"/></g><g><path d="M37.7,555.9c0.1,1.9,1.1,3.8,1.8,5.5c0.5,1.1,0.9,3,2.3,3.2c0.1,0,0.2-0.1,0.1-0.2 C39.5,562.4,39.4,558.5,37.7,555.9C37.9,555.8,37.7,555.8,37.7,555.9L37.7,555.9z" class="st2"/></g><g><path d="M45.5,558.3c0.5,5.2,2.1,10.3,3.9,15.1c0.1,0.2,0.5,0.1,0.4-0.1c-1.9-4.9-2.9-9.9-4.1-15 C45.7,558.2,45.5,558.2,45.5,558.3L45.5,558.3z" class="st2"/></g><g><path d="M53.9,569.1c0,4.4,1.1,8.9,1.8,13.2c0.1,0.3,0.6,0.2,0.5-0.1c-0.8-4.4-1.4-8.7-2.1-13.1 C54.1,569,53.9,569,53.9,569.1L53.9,569.1z" class="st2"/></g><g><path d="M54.1,547.4c3.1,3.5,5.6,7.3,7.6,11.5c0.2,0.3,0.7,0.1,0.5-0.3c-2-4.3-4.6-8.1-7.9-11.5 C54.2,546.9,53.9,547.2,54.1,547.4L54.1,547.4z" class="st2"/></g><g><path d="M64.2,548.1c-1.5,3.3-1.8,7.6-2,11.2c0,0.3,0.5,0.3,0.5,0c0.1-2.1,0.3-4.1,0.7-6.2c0.3-1.7,0.8-3.3,1-5 C64.4,548.1,64.2,548,64.2,548.1L64.2,548.1z" class="st2"/></g><g><path d="M58.5,560.7c2.3,3.6,3.8,7.2,5.4,11.2c0,0.1,0.2,0,0.2-0.1c-0.6-4-2.8-8.2-5.4-11.2 C58.6,560.5,58.4,560.6,58.5,560.7L58.5,560.7z" class="st2"/></g><g><path d="M64.3,572.1c1-2.6,1.8-5.1,3.3-7.4c0.1-0.2-0.2-0.4-0.3-0.2C65.9,566.7,64.5,569.4,64.3,572.1 C64.2,572.1,64.3,572.1,64.3,572.1L64.3,572.1z" class="st2"/></g></g><g><path d="M85.4,595.9C85.5,595.9,85.5,595.9,85.4,595.9C86.3,596.3,85.4,595.9,85.4,595.9z M75.8,591.1 c-1.5,1.6-3.3,3.5-2.7,3.8c2.1,1.2,9.7,1.1,12.3,1c18,0.9,36.2-6.4,48.5-19.4c-8.5-5.8-19.8-6.7-29.7-3.9s-18.6,9.1-25.8,16.5 C78.1,589.6,76.3,590.6,75.8,591.1z" class="st0"/><g class="st1"><path d="M75.8,591.1c0.5-0.5,2.2-1.5,2.7-2c7.2-7.4,15.8-13.7,25.8-16.5c4.8-1.4,9.8-1.9,14.8-1.4 c-5.7,0.2-11.4,1.7-16.5,4.3c-9,4.6-16.2,12.1-21.8,20.5c-3,0-6.4-0.3-7.7-1C72.5,594.6,74.3,592.7,75.8,591.1z" class="st2"/></g><path d="M77.3,561.1c3.4-3.1,7.9-4.7,12.3-5.9c6.8-1.9,13.7-3.3,20.7-3.9c-3.8,8.5-6.5,16.9-13.4,23.2 c-2.7,2.5-7.2,4.9-10.1,7.2c-3.4,2.7-8.8,9.8-11.5,13.3c-3.2,0.6-5.6-3.9-7-7.1c-1.8-4,0.2-10.2,1.6-14.3 C71.5,568.9,73.7,564.4,77.3,561.1z" class="st0"/><path d="M85,581.9c2.4-2.8,6.4-5.9,8.6-8.8c4.8-6.1,6.4-13.2,8.1-20.6c2.9-0.5,5.7-0.9,8.6-1.2 c-3.8,8.5-6.5,16.9-13.4,23.2c-2.7,2.5-7.2,4.9-10.1,7.2c-1.6,1.3-3.7,3.6-5.8,6.1C82.4,585.4,83.8,583.2,85,581.9z" class="st3"/><path d="M76.2,538.3c1.5,7.8,3.1,15.8,1.7,23.7c-0.5,3.2-1.6,6.3-2.6,9.3c-1.1,4-1.8,6.5-2.9,10.5 c0.8-0.6-0.8,1.9-1.7,3.3c-1,1.5-2.3,3.4-3.4,1.8c-1.3-1.8-2.6-3.8-3.2-5.9c-0.6-2.5,0-6.8,0-9.4c-0.1-6.8-0.1-13.9,2.3-20.3 C68.4,546.2,71.8,541.6,76.2,538.3z" class="st0"/><g><path d="M129,577.8c-8.9-0.3-17.7,0-26.3,2.4c-8.1,2.3-15.6,6.2-22.4,11.3c-0.4,0.3-0.7-0.3-0.3-0.6 c6.7-5.1,14.4-9,22.5-11.3c8.8-2.5,17.5-2.6,26.5-2.1C129.1,577.6,129.1,577.8,129,577.8L129,577.8z" class="st2"/></g><g><path d="M107.4,553.9c-7.2,3.4-13.8,7.9-19.5,13.5c-6.1,6-10.2,13.2-14.9,20.4c-0.1,0.2-0.5,0-0.3-0.2 c7.9-14.8,19-27.2,34.6-33.8C107.4,553.7,107.5,553.8,107.4,553.9L107.4,553.9z" class="st2"/></g><g><path d="M75.8,541.4c-4.7,14-10.2,27.3-7,42.3c0.1,0.3-0.4,0.4-0.5,0.1C65.3,569.5,69.6,554.2,75.8,541.4 C75.7,541.3,75.8,541.3,75.8,541.4L75.8,541.4z" class="st2"/></g><g><path d="M122.5,582.8c-1-1-1.9-2-3-2.8s-2.3-1.4-3.5-2.1c-0.1-0.1,0-0.2,0.1-0.2 C118.6,578.5,121.2,580.6,122.5,582.8C122.6,582.8,122.6,582.9,122.5,582.8L122.5,582.8z" class="st2"/></g><g><path d="M115.3,586.4c-2.5-4.5-6.1-5.9-11.1-6.4c-0.4,0-0.3-0.6,0.1-0.5C109,580,113.7,581.4,115.3,586.4 C115.4,586.4,115.4,586.4,115.3,586.4L115.3,586.4z" class="st2"/></g><g><path d="M106.4,587c-2.8-2.2-5.8-5.6-9.8-4.6c-0.2,0.1-0.3-0.3-0.1-0.3C100.5,581,103.8,584.4,106.4,587 C106.6,586.9,106.5,587,106.4,587L106.4,587z" class="st2"/></g><g><path d="M97.6,591.7c-2.7-3.4-6.5-6.5-11-4.1c-0.3,0.1-0.5-0.3-0.2-0.4c4.4-2.3,9,0.6,11.3,4.4 C97.8,591.6,97.7,591.7,97.6,591.7L97.6,591.7z" class="st2"/></g><g><path d="M118.1,572.1c-0.6,2.9-3.1,4.6-5.4,6.1c-0.2,0.1-0.3-0.2-0.2-0.3c2.3-1.5,4.6-3.1,5.3-5.9 C118,572,118.1,572,118.1,572.1L118.1,572.1z" class="st2"/></g><g><path d="M108.7,572.8c-1,2.8-2.9,5.2-5,7.2c-0.2,0.2-0.4-0.1-0.3-0.3C105.6,577.7,107.2,575.4,108.7,572.8 C108.6,572.7,108.7,572.7,108.7,572.8L108.7,572.8z" class="st2"/></g><g><path d="M100.7,575.9c-0.5,1.4-1.2,2.5-2,3.7c-0.7,0.8-1.7,2.4-2.6,2.8c-0.1,0-0.2,0-0.2-0.1l-0.1-0.1 c-0.1-0.1-0.1-0.3,0.1-0.4l0.1-0.1c0.1-0.1,0.2,0,0.3,0l0.1,0.1c0.1,0.1,0.1,0.2-0.1,0.3c-0.3,0.1,1.1-1.5,1-1.5 c0.4-0.4,0.8-0.9,1.2-1.3C99.4,578.3,100.1,577.1,100.7,575.9C100.6,575.8,100.7,575.9,100.7,575.9L100.7,575.9z" class="st2"/></g><g><path d="M94,579.3c-1.8,3-4.5,5.7-7.2,7.8c-0.3,0.3-0.8-0.2-0.5-0.5c2.8-2.2,5.1-4.8,7.5-7.5 C93.9,579,94.1,579.2,94,579.3L94,579.3z" class="st2"/></g><g><path d="M103.3,563.3c-5-0.3-9.3-0.1-13.7,2.7c-0.3,0.2-0.6-0.3-0.3-0.5c3.9-2.5,9.4-4,14-2.5 C103.4,563.1,103.4,563.3,103.3,563.3L103.3,563.3z" class="st2"/></g><g><path d="M95.5,571.6c-2.4,0-4.7-0.1-7.1,0.5c-2.1,0.5-4.2,1.3-6.2,2.1c-0.3,0.1-0.4-0.3-0.1-0.4 C86.3,572.2,91,570.5,95.5,571.6C95.5,571.5,95.5,571.6,95.5,571.6L95.5,571.6z" class="st2"/></g><g><path d="M86.2,578.9c-1.7,0.1-3.3,0.2-5,0.6c-1.9,0.4-3.1,1.3-4.4,2.7c-0.2,0.2-0.5-0.1-0.3-0.3 c1.2-1.4,2.3-2.3,4.1-2.7C82.4,578.8,84.4,578.7,86.2,578.9C86.3,578.7,86.3,578.9,86.2,578.9L86.2,578.9z" class="st2"/></g><g><path d="M93,557.5c-0.1,1.8-1,3.6-1.8,5.2c-0.4,1-0.9,2.9-2.2,3.1c-0.1,0-0.2-0.1-0.1-0.2c2.3-2,2.4-5.7,3.9-8.1 C92.9,557.4,93,557.4,93,557.5L93,557.5z" class="st2"/></g><g><path d="M85.5,559.8c-0.5,4.9-2,9.9-3.7,14.5c-0.1,0.2-0.5,0.1-0.4-0.1c1.8-4.7,2.8-9.5,3.9-14.4 C85.4,559.7,85.6,559.7,85.5,559.8L85.5,559.8z" class="st2"/></g><g><path d="M77.5,570.2c0,4.2-1.1,8.5-1.7,12.6c0,0.3-0.5,0.2-0.5-0.1c0.7-4.2,1.4-8.3,2-12.5 C77.3,570.1,77.5,570.1,77.5,570.2L77.5,570.2z" class="st2"/></g><g><path d="M77.3,549.3c-2.9,3.4-5.4,7-7.3,11c-0.2,0.3-0.7,0-0.5-0.3c1.9-4.1,4.4-7.8,7.6-11 C77.2,548.9,77.5,549.1,77.3,549.3L77.3,549.3z" class="st2"/></g><g><path d="M67.7,550c1.4,3.2,1.7,7.3,1.9,10.7c0,0.3-0.5,0.3-0.5,0c-0.1-2-0.3-4-0.7-5.9c-0.3-1.6-0.8-3.2-0.9-4.8 C67.5,550,67.6,549.9,67.7,550L67.7,550z" class="st2"/></g><g><path d="M73.1,562.1c-2.2,3.5-3.6,6.9-5.2,10.7c0,0.1-0.2,0-0.2-0.1c0.5-3.8,2.7-7.9,5.2-10.8 C73,561.9,73.2,562,73.1,562.1L73.1,562.1z" class="st2"/></g><g><path d="M67.6,573c-1-2.4-1.8-4.9-3.1-7.1c-0.1-0.2,0.2-0.3,0.3-0.2C66,567.9,67.3,570.5,67.6,573 C67.7,573.1,67.6,573.1,67.6,573L67.6,573z" class="st2"/></g></g><g><path d="M296.1,586.2C296.2,586.2,296.2,586.1,296.1,586.2C296.9,585.7,296.1,586.2,296.1,586.2z M286.8,591.5 c0.5,2.1,1.1,4.7,1.7,4.4c2.2-1.1,6.3-7.5,7.6-9.7c10.7-14.4,14.7-33.6,10.8-51.2c-9.6,3.9-16.6,12.7-19.7,22.6 c-3.1,9.8-2.7,20.5-0.5,30.6C286.8,588.8,286.7,590.8,286.8,591.5z" class="st0"/><g class="st1"><path d="M286.8,591.5c-0.1-0.7,0-2.7-0.2-3.4c-2.2-10.1-2.6-20.8,0.5-30.6c1.5-4.7,3.9-9.2,7.1-13.1 c-3,4.8-4.9,10.4-5.6,16.1c-1.2,10,1.1,20.2,5,29.5c-1.7,2.5-3.8,5.2-5.2,5.8C287.9,596.2,287.3,593.6,286.8,591.5z" class="st2"/></g><path d="M262.7,573.7c-0.7-4.6,0.5-9.2,1.9-13.5c2.1-6.7,4.9-13.2,8.2-19.4c5,7.9,10.4,14.8,11.8,24 c0.5,3.6,0.1,8.7,0.4,12.3c0.4,4.4,3.3,12.8,4.7,16.9c-1.2,3-6.4,2.5-9.8,1.9c-4.3-0.8-8.4-5.8-11-9.3 C266,582.8,263.4,578.5,262.7,573.7z" class="st0"/><path d="M284.3,578.8c-1-3.6-1.4-8.6-2.6-12.1c-2.5-7.4-7.4-12.6-12.7-18.1c1.2-2.7,2.4-5.3,3.8-7.8 c5,7.9,10.4,14.8,11.8,24c0.5,3.6,0.1,8.7,0.4,12.3c0.2,2.1,0.9,5.1,1.8,8.2C285.7,582.9,284.7,580.5,284.3,578.8z" class="st3"/><path d="M243.2,561.9c7.4,3,14.9,6.2,20.7,11.7c2.3,2.2,4.4,4.8,6.3,7.3c2.7,3.1,4.4,5.1,7.1,8.2 c0-1,1.1,1.7,1.8,3.3c0.7,1.6,1.5,3.8-0.4,3.8c-2.2,0.1-4.6,0.1-6.7-0.6c-2.4-0.9-5.7-3.8-7.8-5.2c-5.7-3.7-11.6-7.6-15.6-13.1 C245.4,572.8,243.5,567.4,243.2,561.9z" class="st0"/><g><path d="M305.3,539.9c-5.2,7.3-9.8,14.7-12.6,23.3c-2.6,8.1-3.5,16.4-3,24.9c0,0.4-0.7,0.4-0.7,0 c-0.5-8.4,0.5-16.9,3.1-25c2.8-8.7,7.5-16,13-23.2C305.2,539.7,305.4,539.8,305.3,539.9L305.3,539.9z" class="st2"/></g><g><path d="M273.4,544.6c-1.1,7.9-1.1,15.9,0.4,23.7c1.6,8.4,5.3,15.9,8.7,23.7c0.1,0.2-0.2,0.4-0.3,0.2 C274.3,577.5,270.1,561.3,273.4,544.6C273.3,544.5,273.4,544.5,273.4,544.6L273.4,544.6z" class="st2"/></g><g><path d="M245.5,564c9,11.6,17.1,23.6,31.4,29.3c0.3,0.1,0.1,0.6-0.2,0.5c-13.5-5.5-23.9-17.5-31.3-29.7 C245.4,564,245.5,563.9,245.5,564L245.5,564z" class="st2"/></g><g><path d="M305.9,548.1c-1.4,0.3-2.7,0.5-4,0.9c-1.3,0.5-2.5,1.1-3.7,1.7c-0.1,0-0.2-0.1-0.1-0.2 C300.1,548.9,303.3,548,305.9,548.1C305.9,548,305.9,548,305.9,548.1L305.9,548.1z" class="st2"/></g><g><path d="M304.8,556c-5.2-0.4-8.3,1.8-11.5,5.7c-0.2,0.3-0.7-0.1-0.4-0.3C296.1,557.8,299.8,554.7,304.8,556 C304.9,555.9,304.9,556,304.8,556L304.8,556z" class="st2"/></g><g><path d="M300.4,563.8c-3.4,1.1-7.9,1.7-9.3,5.6c-0.1,0.2-0.4,0.1-0.3-0.1c1.3-4,5.9-4.8,9.5-5.7 C300.4,563.6,300.5,563.7,300.4,563.8L300.4,563.8z" class="st2"/></g><g><path d="M299.4,573.7c-4.3,0.4-9,1.9-9.5,6.8c0,0.3-0.5,0.3-0.4,0c0.5-5,5.5-7.1,10-6.9 C299.5,573.6,299.5,573.7,299.4,573.7L299.4,573.7z" class="st2"/></g><g><path d="M294.5,545.8c2.1,2.1,2.1,5.1,2.1,7.8c0,0.2-0.3,0.2-0.3,0C296.4,550.8,296.3,548.1,294.5,545.8 C294.3,545.9,294.5,545.8,294.5,545.8L294.5,545.8z" class="st2"/></g><g><path d="M289.8,554c1.7,2.4,2.7,5.3,3.2,8.1c0,0.2-0.3,0.3-0.4,0.1C292.2,559.3,291.1,556.7,289.8,554 C289.7,554,289.8,554,289.8,554L289.8,554z" class="st2"/></g><g><path d="M288,562.4c0.9,1.2,1.5,2.4,1.9,3.7c0.3,1,1.1,2.7,0.9,3.7c0,0.1-0.1,0.2-0.2,0.2h-0.1 c-0.2,0-0.3-0.1-0.3-0.3v-0.1c0-0.1,0.1-0.2,0.2-0.2h0.1c0.1,0,0.2,0.1,0.2,0.2c-0.1,0.3-0.7-1.7-0.7-1.7 c-0.1-0.6-0.3-1.2-0.5-1.7c-0.4-1.3-0.9-2.6-1.6-3.7C287.9,562.4,288,562.4,288,562.4L288,562.4z" class="st2"/></g><g><path d="M287.1,569.9c1.5,3.1,2.2,6.9,2.5,10.3c0,0.4-0.6,0.5-0.6,0.1c-0.3-3.6-1.1-6.9-2.1-10.4 C286.8,569.8,287.1,569.7,287.1,569.9L287.1,569.9z" class="st2"/></g><g><path d="M278.9,553.3c-3.1,4-5.2,7.7-5.3,12.9c0,0.3-0.5,0.3-0.5,0C273.1,561.6,275,556.1,278.9,553.3 C278.9,553,279,553.1,278.9,553.3L278.9,553.3z" class="st2"/></g><g><path d="M281.5,564.4c-1.4,2-2.7,3.8-3.5,6.1c-0.8,2-1.3,4.2-1.7,6.3c-0.1,0.3-0.5,0.1-0.4-0.1 C276.9,572.4,278,567.4,281.5,564.4C281.5,564.3,281.6,564.3,281.5,564.4L281.5,564.4z" class="st2"/></g><g><path d="M282.5,576.1c-0.8,1.5-1.7,2.9-2.3,4.5c-0.8,1.8-0.7,3.3-0.2,5.2c0.1,0.3-0.4,0.4-0.5,0.1 c-0.5-1.7-0.7-3.2,0-4.9s1.7-3.4,2.8-4.9C282.4,575.9,282.5,576,282.5,576.1L282.5,576.1z" class="st2"/></g><g><path d="M268.5,558.6c1.4,1.1,2.4,2.9,3.4,4.4c0.6,0.9,1.9,2.3,1.3,3.5c0,0.1-0.2,0.1-0.2,0c-0.4-3-3.4-5.1-4.6-7.8 C268.3,558.6,268.4,558.5,268.5,558.6L268.5,558.6z" class="st2"/></g><g><path d="M266.2,566.1c3.9,3.1,7.1,7.1,10,11.2c0.1,0.2-0.1,0.5-0.3,0.3c-2.9-4.1-6.4-7.6-9.8-11.3 C266,566.1,266.1,566,266.2,566.1L266.2,566.1z" class="st2"/></g><g><path d="M270.4,578.5c3.5,2.3,6.5,5.6,9.6,8.4c0.2,0.2-0.1,0.6-0.4,0.3C276.5,584.3,273.4,581.4,270.4,578.5 C270.2,578.6,270.3,578.5,270.4,578.5L270.4,578.5z" class="st2"/></g><g><path d="M252.9,567.1c1.2,4.3,2.8,8.4,5.1,12.2c0.2,0.3-0.3,0.6-0.5,0.3c-2.3-3.8-4.1-8-4.9-12.4 C252.5,566.9,252.9,566.9,252.9,567.1L252.9,567.1z" class="st2"/></g><g><path d="M248.2,575.5c3.5,0.6,7,2.6,10,4.4c0.3,0.2,0,0.6-0.3,0.4c-1.7-1-3.5-1.9-5.3-2.7c-1.5-0.7-3-1.1-4.5-1.9 C248,575.7,248.1,575.5,248.2,575.5L248.2,575.5z" class="st2"/></g><g><path d="M261.2,577.7c1.7,3.8,3.8,6.8,6.1,10.2c0.1,0.1-0.1,0.2-0.2,0.1c-2.9-2.5-5-6.6-6.1-10.3 C261,577.6,261.2,577.6,261.2,577.7L261.2,577.7z" class="st2"/></g><g><path d="M267.2,588.4c-2.6-0.6-5-1.2-7.7-1.3c-0.2,0-0.2-0.3,0-0.3C262.1,586.8,265,587.2,267.2,588.4 C267.3,588.3,267.3,588.4,267.2,588.4L267.2,588.4z" class="st2"/></g></g><g><g><path d="M124,594.8c-0.1,0-0.2,0.1-0.2,0.1c-2.5,1.2-3.8,1-6.2-0.1c-2.2-1-4.4-2.2-6.2-3.9 c-2.3-2.1-4.1-4.8-4.5-7.9c-0.1-0.7-0.1-1.4,0.3-2c0.6-0.8,1.7-0.9,2.6-0.5c0.9,0.3,1.6,1,2.3,1.7c0.3,0.3,0.6,0.5,1,0.7 c0.4,0.1,0.9,0,1.1-0.4c0.3-0.6-0.2-1.2-0.7-1.6c-1.2-1-2.2-1.5-3.4-2.4c-1.5-1.1-2.9-2.4-3.8-4c-0.8-1.7-1-3.7-0.2-5.4 c0.3-0.5,0.6-1,1.1-1.3c0.8-0.5,1.9-0.5,2.9-0.3s1.9,0.6,2.9,0.7c2.4,0.2,3.3-1.4,3.2-3.6c0-1.5-0.5-2.9-0.6-4.3 c-0.1-2.6,1.1-5.3,3.4-6.4s5.6,0,6.4,2.4c0.9,2.6-1.2,5.6,0.2,8.1c0.4,0.8,1.4,1.9,2.2,2.4c1.3,0.8,3.2-0.1,4.7-0.1 c0.3,0,0.7,0.1,0.9,0.3s0.2,0.4,0.3,0.7c0.4,1.8-0.3,3.8-1.7,5.1c-1.6,1.4-4.3,2.1-4.9,4.4c-0.4,1.4-0.2,4.8,2,4.5 c0.8-0.1,1.4-0.9,2.2-1.2c1-0.3,2.1,0.3,2.5,1.3c0.4,0.9,0.3,2-0.1,3c-0.6,1.5-1.8,2.7-2.9,3.9C128.6,591,127,593.3,124,594.8z" class="st4"/></g><line x1="120.7" x2="120.7" y1="562.7" y2="594.9" class="st5"/><polyline points="126.9 572 120.7 578.2 114.5 572" class="st5"/><polyline points="126.9 584.5 120.7 590.7 114.5 584.5" class="st5"/></g></g><g id="Layer_14"><g><rect width="7" height="7.3" x="60.3" y="585.7" class="st7"/><rect width="7" height="7.3" x="76.7" y="585.7" class="st7"/><polygon points="77.6 510.9 77 555.5 75.9 588.5 84.6 588.5 86.4 555.3 92.6 521.8 92.6 510.9" class="st8"/><polygon points="76.8 559.4 77.8 555.3 85.5 524.1 92.6 519.6 92.6 510.9 77.6 510.9 77 555.5" class="st9"/><polygon points="66.7 510.9 65.1 557 59.4 588.5 68 588.5 75.9 555.3 83.6 524.1 92.6 518.4 92.6 510.9" class="st10"/><g><path d="M75.5,589.9l-0.5,1v5.2h24.3l1.4-0.7l-1-3.5c-0.1-0.2-0.3-0.4-0.6-0.3l-1.7,0.6l-3.8-0.9l-6.5-3.7 c-0.5-0.5-1.4-0.5-1.9,0.1l-2.5,2.9h-5.4l-0.7-0.7C76.3,589.4,75.7,589.5,75.5,589.9z" class="st10"/><g><polygon points="99.3 595.1 75 595.1 75 596 99.3 596 100.7 595.3 100.4 594.5" class="st2"/><rect width="1.4" height="2.1" x="87.6" y="587.8" class="st2" transform="matrix(0.5384 -0.8427 0.8427 0.5384 -455.4697 346.2018)"/><rect width="1.4" height="2.1" x="90.1" y="589.5" class="st2" transform="matrix(0.5384 -0.8427 0.8427 0.5384 -455.7103 349.1336)"/><path d="M81.6,591.8c0,1.2-1.2,2.2-2.4,1.8l-4.2-1.2v-0.6H81.6L81.6,591.8z" class="st2"/></g></g><path d="M83.5,595.9l1.5-0.8l-1.1-3.7c-0.1-0.3-0.4-0.4-0.6-0.3l-1.8,0.6l-4.1-1l-1.7-1c-0.1,0.1-0.1,0.1-0.2,0.2 l-0.5,1v0.9v0.6v2.7v0.8H83.5z" class="st9"/><g><path d="M58.9,589.9l-0.5,1v5.2h24.3l1.4-0.7l-1-3.5c-0.1-0.2-0.3-0.4-0.6-0.3l-1.7,0.6l-3.8-0.9l-6.5-3.7 c-0.5-0.5-1.4-0.5-1.9,0.1l-2.5,2.9h-5.4l-0.7-0.7C59.7,589.4,59.1,589.5,58.9,589.9z" class="st10"/><g><polygon points="82.7 595.1 58.4 595.1 58.4 596 82.7 596 84.1 595.3 83.8 594.5" class="st2"/><rect width="1.4" height="2.1" x="71" y="587.8" class="st2" transform="matrix(0.5384 -0.8427 0.8427 0.5384 -463.1389 332.1984)"/><rect width="1.4" height="2.1" x="73.5" y="589.5" class="st2" transform="matrix(0.5384 -0.8427 0.8427 0.5384 -463.3796 335.1302)"/><path d="M65,591.8c0,1.2-1.2,2.2-2.4,1.8l-4.2-1.2v-0.6H65L65,591.8z" class="st2"/></g></g><path d="M76.6,513.9l-1.2,2.9c-0.6,1.6-2.1,2.6-3.8,2.6h-5.1v0.5h6.1c1.7,0,3.2-1,3.8-2.6l1.7-4.3L76.6,513.9z" class="st9"/><path d="M99.4,464.6h6.9L97.9,451l-4.6-2.3c-1.3-0.6-2.1-2-2.1-3.4v-8.1c0-0.2,0.1-0.3,0.3-0.3l0,0 c1.1,0,2.2,0.5,2.9,1.4l4.5,5.7l1.5,3.7l14.7,17.1c0.6,0.7,0.5,1.7-0.2,2.3l0,0c-1.7,1.3-3.6,2.2-5.7,2.8l-10.6,2.6L99.4,464.6z" class="st7"/><rect width="11.2" height="17.3" x="71.6" y="450.5" class="st7"/><g><path d="M84.4,438.2c-0.6-0.8-1.6-0.7-2.3-1.1c-0.9-0.5-1.1-1-2.2-1.2c-1-0.2-2.1-0.3-3.1,0 c-1.5,0.4-2.8,1.4-4.3,1.5c-0.5,0-1-0.1-1.5,0s-1,0.3-1.1,0.8s0.1,1.1-0.3,1.4c-0.2,0.1-0.4,0.1-0.6,0.2 c-1.2,0.1-2.4,1.9-2.2,3.1c0.1,0.3,0.2,0.6,0.3,0.9c0.7,1.5,1.4,3.1,1.8,4.8c0.3,1.5,1.1,2.9,1.1,4.5c0.1,1.6,0.6,2.9,1.4,4.3 c0.1,0.1,0.2,0.3,0.4,0.2c0,0,0.1-0.1,0.1-0.2c0.1-0.6,0.1-1.2,0.2-1.8s0.2-1.2,0.6-1.7c0.1-0.2,0.3-0.3,0.4-0.5 c0.4-0.6,0.2-1.4,0.5-2c0.3-0.8,0.8-1.6,1.2-2.4c0.1-0.3,0.2-0.5,0.4-0.7c0.2-0.2,0.4-0.2,0.6-0.3c0.9-0.4,1.8-0.7,2.7-1.1 c0.6-0.2,1.2-0.5,1.8-0.6c0.3-0.1,0.7-0.1,1-0.2c0.7-0.3,1-1.2,1.2-2s0.3-1.7,1-2.2c0.3-0.2,0.7-0.4,0.9-0.7 c0.2-0.3,0-0.8,0.2-1.1c0.1-0.2,0.2-0.4,0.3-0.5C84.7,438.9,84.6,438.5,84.4,438.2z" class="st2"/></g><path d="M71.6,453c0.4,0.2,0.7,0.3,1.2,0.4l1.7,0.1l0.4,0.6c0.7,1.2,1.9,2,3.3,2.2l4.6-0.9v-4.9H71.6V453z" class="st9"/><path d="M86.1,445.8l0.6,1.5c0.2,0.6,0.3,1.2,0.3,1.8l-0.4,4c-0.2,1.6-1.7,2.7-3.3,2.4l-5.1-1.1 c-1.3-0.3-2.5-1.1-3.3-2.2l-0.4-0.6l-1.7-0.1c-0.7,0-1.4-0.4-1.9-1l0,0c-0.3-0.4-0.5-0.9-0.5-1.4v-0.4c0-0.4,0.1-0.8,0.4-1.1l0,0 c0.3-0.4,0.9-0.6,1.4-0.5l0.7,0.2v-3.5c0-2,1.4-3.7,3.3-4.2l4.3-1l4,0.7L86.1,445.8z" class="st7"/><path d="M71.6,447.1c-0.1,0.1-0.3,0-0.3-0.2v-2.5l-0.9,0.5v2.5c0,0.1,0.1,0.2,0.3,0.2L71.6,447.1z" class="st11"/><polygon points="100.8 464.6 99.4 464.6 98.6 472.5 100.1 472.1" class="st9"/><polygon points="82.8 461 92.2 462.9 99.6 462.9 98.5 473.7 92.2 477.4 82.8 462.9" class="st12"/><polygon points="71.6 458.5 64.2 467.8 65.6 513.4 93.3 513.4 92.2 477.4 82.8 460.9 79.2 467.8" class="st12"/><g><g><path d="M72.9,443.7c0.6-0.8,1.6-1,2.2-1.7c0.2-0.2,0.4-0.8,0.6-0.9c0.3-0.2,1,0,1.3,0c0.7,0,1.2-0.3,1.8-0.7 c1-0.8,0.9-1.1,2.2-1.1c1.6,0,1.6-2.5,0-2.5c-1.1,0-1.9-0.1-2.8,0.6c-0.3,0.2-0.6,0.7-0.9,0.9c-0.6,0.4-1.4,0.1-2.1,0.3 c-1.2,0.3-1.3,1.1-2.2,1.8c-0.9,0.7-1.5,1.1-2.2,2C69.8,443.8,72,445,72.9,443.7L72.9,443.7z" class="st2"/></g></g><g><path d="M93.8,446.1l-7.3,0.7l-0.7-0.6l-2.7,0.3c0,0-3.3,1-6.6-1.7l-0.7-2.4l8.5-4.3L93.8,446.1z" class="st11"/><path d="M92.4,444.7L82,441.8c-0.3-0.1-0.6-0.4-0.6-0.7v-4.3c0-0.5,0.5-0.9,1-0.7l10.4,2.9 c0.3,0.1,0.6,0.4,0.6,0.7v4.3C93.3,444.5,92.8,444.9,92.4,444.7z" class="st11"/><path d="M82.1,442.1l-13.3,6.5c-0.1,0.1-0.3,0-0.3-0.2v-2.5l13.6-6.6C82.1,439.3,82.1,442.1,82.1,442.1z" class="st2"/><path d="M69.7,448.1c-0.1,0.1-0.3,0-0.3-0.2v-2.5l-0.9,0.5v2.5c0,0.1,0.1,0.2,0.3,0.2L69.7,448.1z" class="st11"/><path d="M71.6,447.1c-0.1,0.1-0.3,0-0.3-0.2v-2.5l-0.9,0.5v2.5c0,0.1,0.1,0.2,0.3,0.2L71.6,447.1z" class="st11"/><path d="M73.5,446.3c-0.1,0.1-0.3,0-0.3-0.2v-2.5l-0.9,0.5v2.5c0,0.1,0.1,0.2,0.3,0.2L73.5,446.3z" class="st11"/><path d="M75.4,445.4c-0.1,0.1-0.3,0-0.3-0.2v-2.5l-0.9,0.5v2.5c0,0.1,0.1,0.2,0.3,0.2L75.4,445.4z" class="st11"/><path d="M77.3,444.4c-0.1,0.1-0.3,0-0.3-0.2v-2.5l-0.9,0.5v2.5c0,0.1,0.1,0.2,0.3,0.2L77.3,444.4z" class="st11"/><path d="M79.2,443.5c-0.1,0.1-0.3,0-0.3-0.2v-2.5l-0.9,0.5v2.5c0,0.1,0.1,0.2,0.3,0.2L79.2,443.5z" class="st11"/><path d="M81.1,442.5c-0.1,0.1-0.3,0-0.3-0.2v-2.5l-0.9,0.5v2.5c0,0.1,0.1,0.2,0.3,0.2L81.1,442.5z" class="st11"/><path d="M93.8,446.1l-10.4-2.8c-0.3-0.1-0.6-0.4-0.6-0.7v-5.7c0-0.5,0.5-0.9,1-0.7l10.4,2.9 c0.3,0.1,0.6,0.4,0.6,0.7v5.7C94.7,445.9,94.3,446.3,93.8,446.1z" class="st2"/><ellipse cx="89.3" cy="441.1" class="st11" rx=".6" ry="1.1"/></g><path d="M67.9,501.8c0,1.2-1.2,3.2-1,4.5c0.1,0.9,0.2,1.4,0.4,2.3c0.4,1.5,2.6,0.8,2.3-0.6c-0.5-2.2,0-5.2-1.5-7.1 c0.1-0.3,0.1-0.6,0.2-0.9c0.1-0.4,0-0.9-0.3-1.1c-0.7-0.7-3.9-4.7-2.3-6.2c0.4-0.3,0.5-1,0.2-1.4s-0.6-0.9-0.9-1.4 c0.7-0.3,1.4-0.6,2.1-0.9c0.5-0.3,0.8-1.1,0.4-1.6c-1-1.5-1.8-3.2-1.7-5.1c0-0.8,0.5-1.3,0.5-2.1c0-1.3-0.8-2.4-0.7-3.7 c0.1-0.8-0.5-1.1-1.1-1.1l0.8,24.5c0.2,0.5,0.3,1,0.3,1.5c0,0.2-0.1,0.3,0,0.5c0,0.1,0,0.1,0.1,0.2 C65.9,503.4,67.7,503.1,67.9,501.8z" class="st13"/><path d="M67.9,519.4h-0.7l-1.2-3.1v-9.2l-8.4-12.5c-0.4-0.6-0.6-1.2-0.6-1.9v-11.3l7.2,1.9l-0.6,10.8l6.5,12l3.4,4.2 l1.4,6.7l0,0c-0.7,0-1.3-0.5-1.5-1.2l-0.4-1.2l-0.4,4.6h-4.7C67.9,519.2,67.9,519.4,67.9,519.4z" class="st7"/><polygon points="57 483.3 64.1 485.1 64.2 483.3 57 481.4" class="st9"/><path d="M71.6,458.5l-10,4.9c-3,1.5-5,4.4-5.2,7.8l-0.8,10.3l9.2,2.4l2-9.3l4.8-11.7V458.5z" class="st12"/></g></g><g id="Layer_17"><g><path d="M302.5,582.8l-0.5,3.6l-9.5,4.7l-7.3,1.6c0,0,0.6,3.2,6.3,3.4c5.7,0.2,17-0.4,17-0.4l0,0 c0.7-0.8,1-1.8,1-2.8v-1.4c0-0.9-0.5-1.6-1.3-1.9l0,0l-0.1-5.9L302.5,582.8z" class="st14"/><path d="M309.5,591.4c0-0.3-0.1-0.6-0.2-0.8c-0.6,0.3-1.5,1.8-2.1,1.8c-3.7,0.1-7.7,0.4-10.8,0.2 c-3.1-0.1-4.9-0.3-5.7-1.1l-5.5,1.2c0,0,0.6,3.2,6.3,3.4c5.7,0.2,17-0.4,17-0.4c0.7-0.8,1-1.8,1-2.8L309.5,591.4L309.5,591.4z" class="st15"/><path d="M296.2,584.1v1.8l-14.2,6c0,0-0.8,4.6,8.1,3.7l15.7-3c0,0,0.6-1.8,0.9-3.3c0.2-1-0.2-2-1-2.7l0,0l-3.2-3 L296.2,584.1z" class="st7"/><path d="M306.4,587.6c-0.8,1.2-1.9,2.2-3.4,2.6l-6.1,1.7c-7.5,0.7-8.2-1.9-8.2-2.9l-6.7,2.8c0,0-0.8,4.6,8.1,3.7 l15.7-3c0,0,0.6-1.8,0.9-3.3C306.8,588.7,306.7,588.1,306.4,587.6z" class="st10"/><path d="M310.4,522.1l-2.5,25.4c4.6,11,0.3,36.1,0.3,36.1h-5.8l-3.4-32.5l-3.5-9L310.4,522.1z" class="st16"/><g><path d="M298.6,550.4l9-22.2l2.2-1.8c0.1-0.1,0.1-0.1,0.2-0.2l0.4-4.2l-15,20.1L298.6,550.4z" class="st9"/><path d="M302.3,583.7l1.6-0.1c0,0,1.2-16.2-4.3-25.5L302.3,583.7z" class="st9"/></g><path d="M292.3,513.3l-8.9,40.6l12.9,30.3l6.2-0.5c0,0,1.5-21.1-7-29l10.6-26.4l2.2-1.8c1.9-1.5,3-3.8,3-6.2v-9.2 L292.3,513.3z" class="st17"/><g><path d="M320.7,462.8c-1-1.5-1.3-3.3-1.6-5c-0.2-2.1-0.3-4.2-0.1-6.3c0.1-0.9,0.2-1.8,0.1-2.7 c-0.1-0.6-0.3-1.3-0.4-1.9c-0.6-2.7-0.2-5.6-0.7-8.3c-0.1-0.6-0.3-1.3-0.8-1.8c-0.7-0.7-1.9-0.9-2.7-0.4 c-0.9,0.5-1.4,1.4-1.5,2.4l0.1-0.2c-1.2,3.4-0.6,7.1-1.2,10.6c-0.4,2-1.1,4-1.5,6c-0.3,2-0.2,4.3,1.1,5.9c0.5,0.6,1.1,1,1.7,1.5 c1.7,1.2,3.6,2.1,5.6,2.8c-0.6-0.5-1-1.3-1.1-2.1c1.1,0.8,2.2,1.6,3.5,2.1s2.7,0.6,3.9,0C323.4,465.4,321.7,464.2,320.7,462.8z" class="st18"/></g><g><g><path d="M315,463.1c-0.6-0.4-1.2-0.9-1.7-1.5c-1.3-1.6-1.5-3.8-1.1-5.9c0.3-2,1.1-4,1.5-6 c0.6-3.5-0.1-9.9-0.1-9.9c0.1-1-0.4-1.3-0.4-1.3c-1.2,3.4-0.6,7.1-1.2,10.6c-0.4,2-1.1,4-1.5,6c-0.3,2-0.2,4.3,1.1,5.9 c0.5,0.6,1.1,1,1.7,1.5c1.7,1.2,3.6,2.1,5.6,2.8c-0.1-0.1-0.1-0.1-0.2-0.2C317.4,464.5,316.1,463.9,315,463.1z" class="st19"/></g><g><path d="M324.8,465.4c0.1,0,0.2-0.1,0.3-0.1c-0.2,0-0.4,0-0.7,0C324.6,465.3,324.7,465.4,324.8,465.4z" class="st19"/></g><g><path d="M319.5,463.8c0,0.2,0.1,0.5,0.2,0.7c0.5,0.3,1,0.6,1.6,0.8c0.4,0.1,0.7,0.2,1.1,0.3 C321.3,465.1,320.4,464.5,319.5,463.8z" class="st19"/></g></g><g><path d="M312.8,439.1c-0.4,0.3-1,0.2-1.5,0s-0.9-0.5-1.3-0.8c-0.9-0.5-2-0.6-3-0.7c-3.3-0.4-6.9-0.7-9.6,1.1h-0.2 c2.7,6.3,5.7,12.5,8.8,18.7c0.6-0.5,1.2-1.1,1.9-1.6c2.7-2.3,5.5-4.9,5.9-8.4C314,444.6,312.7,441.9,312.8,439.1z" class="st18"/></g><rect width="9.2" height="18.3" x="297.6" y="453" class="st7"/><path d="M301.1,458.4l-3.5-0.7v-4.8h9.2v0.7C306.8,456.7,304,459,301.1,458.4z" class="st9"/><path d="M291.4,447.5v8c0,1.2,1,2.2,2.2,2.2h5.5c3.4,0,6.1-2.7,6.1-6.1v-3.2v-3.8c0-1-0.5-2-1.3-2.7l-3.6-2.9 c-1-0.8-2.3-0.9-3.4-0.3C295.2,439.8,293.1,442.1,291.4,447.5z" class="st7"/><g><path d="M296.4,438.2l3.4,1.7c1.5,0.8,2.5,2.2,2.6,3.9l0.1,1.4l-8.4-1.9L296.4,438.2z" class="st11"/><path d="M282.2,448.7l8.8,0.8l0.9-0.8l3.3,0.4c0,0,4,1.2,8-2l0.9-2.9l-10.3-5.3L282.2,448.7z" class="st11"/><path d="M283.9,447l12.6-3.5c0.4-0.1,0.7-0.5,0.7-0.9v-5.2c0-0.6-0.6-1-1.2-0.9l-12.6,3.5 c-0.4,0.1-0.7,0.5-0.7,0.9v5.2C282.8,446.7,283.3,447.1,283.9,447z" class="st11"/><path d="M296.4,443.8l16.1,7.9c0.1,0.1,0.3,0,0.3-0.2v-3l-16.5-8v3.3C296.3,443.8,296.4,443.8,296.4,443.8z" class="st2"/><path d="M311.4,451.1c0.1,0.1,0.3,0,0.3-0.2v-3l1.1,0.6v3c0,0.2-0.2,0.3-0.3,0.2L311.4,451.1z" class="st11"/><path d="M309.1,449.9c0.1,0.1,0.3,0,0.3-0.2v-3l1.1,0.6v3c0,0.2-0.2,0.3-0.3,0.2L309.1,449.9z" class="st11"/><path d="M306.8,448.8c0.1,0.1,0.3,0,0.3-0.2v-3l1.1,0.6v3c0,0.2-0.2,0.3-0.3,0.2L306.8,448.8z" class="st11"/><path d="M304.5,447.7c0.1,0.1,0.3,0,0.3-0.2v-3l1.1,0.6v3c0,0.2-0.2,0.3-0.3,0.2L304.5,447.7z" class="st11"/><path d="M302.2,446.6c0.1,0.1,0.3,0,0.3-0.2v-3l1.1,0.6v3c0,0.2-0.2,0.3-0.3,0.2L302.2,446.6z" class="st11"/><path d="M299.9,445.5c0.1,0.1,0.3,0,0.3-0.2v-3l1.1,0.6v3c0,0.2-0.2,0.3-0.3,0.2L299.9,445.5z" class="st11"/><path d="M297.6,444.3c0.1,0.1,0.3,0,0.3-0.2v-3l1.1,0.6v3c0,0.2-0.2,0.3-0.3,0.2L297.6,444.3z" class="st11"/><path d="M282.2,448.7l12.6-3.5c0.4-0.1,0.7-0.5,0.7-0.9v-6.9c0-0.6-0.6-1-1.2-0.9l-12.6,3.5 c-0.4,0.1-0.7,0.5-0.7,0.9v6.9C281,448.4,281.6,448.9,282.2,448.7z" class="st2"/><ellipse cx="287.6" cy="442.6" class="st11" rx=".7" ry="1.4"/></g><path d="M305.2,448.5c0,0,2.2-1.7,3-0.1v2.9c0,1.1-0.6,2.2-1.6,2.6c-0.5,0.2-1.1,0.3-1.8,0.1L305.2,448.5z" class="st7"/><path d="M312.9,441.3l-1.8-1.9c-0.4-0.4-0.3-1,0-1.4l0.2-0.2c0.4-0.4,1-0.3,1.4,0l1.8,1.9c0.4,0.4,0.3,1,0,1.4 l-0.2,0.2C313.9,441.7,313.3,441.7,312.9,441.3z" class="st2"/><path d="M309.3,525.5c1.3-1.4,2-3.3,2-5.2v-9.2l-19,2.2l-2.3,10.4v1c9,2.2,16.1-7,16.1-7L309.3,525.5z" class="st9"/><path d="M287.6,464.8v18.3c0,2.4,0.5,4.8,1.4,7.1l1,2.6v29.3c9,2.2,16.1-7,16.1-7l4.8,11.9l0,0 c1.8-2.5,2.8-5.6,2.6-8.7l-1.4-26.8l0.4-26.7l-5.8,1.4l-0.7,0.7c-2.4,2.6-6.6,2.3-8.5-0.7l0,0L287.6,464.8z" class="st10"/><path d="M244.2,442.8l-5.4-1l0.4,0.8c0.1,0.2,0.3,0.3,0.5,0.4l4.4,1.4l2.7,4l2.4,2.1l12.4,20.2l17.8,2.5v-8.8 l-12.9-0.7l-15.1-17.6l-0.6-3.7l-2.4-3.7l-0.7-3.6l-2.5-3.5c-0.4,0.9-0.4,1.9,0.2,2.7l0.5,0.8l0.7,3.5l-0.1,0.1 c0,0-0.4-0.3-0.6-0.3l-0.6-1l-4.9-3.1v0.8c0,0.5,0.2,0.9,0.6,1.2l3.6,2.8l0.3,0.7l-0.2,0.4l-1.5-1.2l-4.8-1.1v1.3l3.3,0.9 l2.4,1.6" class="st7"/><path d="M250.8,442.5L250.8,442.5l-0.1-0.2l-1.6-0.4c-0.4-0.1-0.8,0-1.1,0.2l-1.6,1.2l0.1,0.2l1.5-1.1 c0.3-0.2,0.7-0.3,1.1-0.2L250.8,442.5L250.8,442.5z" class="st9"/><polygon points="277.5 472.9 279.5 473.2 279.5 464.4 278.9 464.4" class="st9"/><polygon points="297.6 461.4 290 462.8 279.5 463.8 279.5 473.8 287.6 476.4 297.6 466.2" class="st10"/><path d="M312.1,491.5v-1.1c-0.3-0.4-0.6-0.7-0.9-1.1c0.3-0.2,0.6-0.4,0.9-0.6l0.1-4.4c-0.2-0.1-0.4-0.1-0.6-0.2 c0.3-0.5,0.3-1.1-0.2-1.5l-0.1-0.1c0.3-0.2,0.6-0.4,1-0.6v-2.1c-0.3-0.3-0.8-0.3-1.3,0c-0.9,0.5-1.8,1.1-2.6,1.6 c-0.7,0.4-0.8,1.6-0.1,2l0,0c-0.9,0.6-0.7,1.9,0.3,2.2c0.9,0.3,1.8,0.6,2.7,0.9c-0.8,0.6-2,1.1-2.5,1.6c-0.4,0.4-0.4,1-0.2,1.5 c0.1,0.2,0.6,0.8,0.7,1c1.1,2.9,0,2.3,0.2,4.3c0.1,0.8,0.3,1.6,0.6,2.3c-1.3-0.7,2.2,0.7,1.2-0.7 C310.4,495.3,312.1,491.5,312.1,491.5z" class="st20"/><path d="M311.4,483.9l-1.1,9l-7.8-4.2l-0.5-5.2l-2.2-2l-0.8-3.2l-3.1-3.6l0,0c-0.4,0.8-0.3,1.8,0.2,2.5l1.1,1.7 l-0.1,4.3l-0.8,0.3l-2.7-3.6l0,0c-0.8,0.7-0.9,1.9-0.4,2.8l5.8,9.2l13.5,9.8l0,0l-0.5-10.1l0.1-7.7L311.4,483.9L311.4,483.9z" class="st13"/><path d="M317.3,482.4l-1.6,14.6l-1.5,2.2c-0.7,1-2.1,1.3-3.1,0.5l-12-9.4l-5.8-9.2c-0.6-0.9-0.4-2.1,0.4-2.8l0,0 l2.7,3.6l0.8-0.3l0.1-4.3l-1.5-2.3c-0.4-0.7-0.4-1.5-0.1-2.2l0.2-0.3l3.2,4.2l0.8,3.2l2.2,2l0.5,5.2l7.8,4.2l1.1-9L317.3,482.4 L317.3,482.4z" class="st7"/><polygon points="317.3 482.4 311.4 482.4 311.2 483.9 317.1 483.9" class="st9"/><path d="M306.8,461.4l10.1,4.2c0.9,0.4,1.5,1.2,1.5,2.2v14.6h-8.1V476l-3.5-9.8V461.4z" class="st10"/></g></g><g id="Layer_13"><g class="st21"><path d="M170.8,406.4c-2.2,0-3.9-1.8-3.9-3.9c0-2.2,1.8-3.9,3.9-3.9c2.2,0,3.9,1.8,3.9,3.9S172.9,406.4,170.8,406.4 z M170.8,400.6c-1,0-1.8,0.8-1.8,1.8s0.8,1.8,1.8,1.8s1.8-0.8,1.8-1.8S171.8,400.6,170.8,400.6z" class="st22"/></g><g><path d="M93.9,408.4c-1.7,0-3-1.4-3-3c0-1.7,1.4-3,3-3c1.7,0,3,1.4,3,3C97,407,95.6,408.4,93.9,408.4z M93.9,403.9 c-0.8,0-1.4,0.6-1.4,1.4s0.6,1.4,1.4,1.4s1.4-0.6,1.4-1.4S94.7,403.9,93.9,403.9z" class="st23"/></g><g><path d="M139,544.4c-1.7,0-3-1.4-3-3c0-1.7,1.4-3,3-3c1.7,0,3,1.4,3,3S140.6,544.4,139,544.4z M139,539.9 c-0.8,0-1.4,0.6-1.4,1.4s0.6,1.4,1.4,1.4c0.8,0,1.4-0.6,1.4-1.4S139.8,539.9,139,539.9z" class="st23"/></g><g class="st21"><path d="M82.8,426.9c-1.1,0-2.1-0.9-2.1-2.1c0-1.1,0.9-2.1,2.1-2.1c1.1,0,2.1,0.9,2.1,2.1S84,426.9,82.8,426.9z M82.8,423.9c-0.5,0-1,0.4-1,1c0,0.5,0.4,1,1,1c0.5,0,1-0.4,1-1S83.3,423.9,82.8,423.9z" class="st22"/></g><g><path d="M184.1,559.7c-1.1,0-2.1-0.9-2.1-2.1c0-1.1,0.9-2.1,2.1-2.1c1.1,0,2.1,0.9,2.1,2.1S185.3,559.7,184.1,559.7 z M184.1,556.7c-0.5,0-1,0.4-1,1c0,0.5,0.4,1,1,1c0.5,0,1-0.4,1-1C185.1,557.1,184.7,556.7,184.1,556.7z" class="st23"/></g><g class="st21"><path d="M134.9,425.6c-1.1,0-2.1-0.9-2.1-2.1c0-1.1,0.9-2.1,2.1-2.1c1.1,0,2.1,0.9,2.1,2.1S136.1,425.6,134.9,425.6 z M134.9,422.6c-0.5,0-1,0.4-1,1c0,0.5,0.4,1,1,1c0.5,0,1-0.4,1-1S135.4,422.6,134.9,422.6z" class="st22"/></g><g class="st21"><path d="M49.9,446.9c-1.1,0-2.1-0.9-2.1-2.1c0-1.1,0.9-2.1,2.1-2.1c1.1,0,2.1,0.9,2.1,2.1S51,446.9,49.9,446.9z M49.9,443.9c-0.5,0-1,0.4-1,1c0,0.5,0.4,1,1,1c0.5,0,1-0.4,1-1S50.4,443.9,49.9,443.9z" class="st24"/></g><g class="st21"><path d="M132.1,520.6c-1.1,0-2.1-0.9-2.1-2.1c0-1.1,0.9-2.1,2.1-2.1c1.1,0,2.1,0.9,2.1,2.1 C134.2,519.6,133.2,520.6,132.1,520.6z M132.1,517.5c-0.5,0-1,0.4-1,1c0,0.5,0.4,1,1,1c0.5,0,1-0.4,1-1S132.6,517.5,132.1,517.5z" class="st24"/></g><g class="st21"><path d="M226.7,512.9c-1.8,0-3.3-1.5-3.3-3.3s1.5-3.3,3.3-3.3s3.3,1.5,3.3,3.3C230,511.4,228.5,512.9,226.7,512.9z M226.7,508c-0.8,0-1.5,0.7-1.5,1.5s0.7,1.5,1.5,1.5s1.5-0.7,1.5-1.5S227.5,508,226.7,508z" class="st24"/></g><g class="st21"><path d="M271.3,438.2c-1.1,0-2.1-0.9-2.1-2.1c0-1.1,0.9-2.1,2.1-2.1c1.1,0,2.1,0.9,2.1,2.1 C273.4,437.2,272.4,438.2,271.3,438.2z M271.3,435.1c-0.5,0-1,0.4-1,1c0,0.5,0.4,1,1,1c0.5,0,1-0.4,1-1 C272.3,435.6,271.8,435.1,271.3,435.1z" class="st25"/></g><g><path d="M257.1,500.2c-1.6,0-2.9-1.3-2.9-2.9s1.3-2.9,2.9-2.9c1.6,0,2.9,1.3,2.9,2.9 C260,498.9,258.7,500.2,257.1,500.2z M257.1,496c-0.7,0-1.4,0.6-1.4,1.4c0,0.7,0.6,1.4,1.4,1.4c0.7,0,1.4-0.6,1.4-1.4 S257.9,496,257.1,496z" class="st26"/></g><g class="st21"><path d="M233.3,413.1c-1.1,0-2.1-0.9-2.1-2.1c0-1.1,0.9-2.1,2.1-2.1c1.1,0,2.1,0.9,2.1,2.1 C235.3,412.2,234.4,413.1,233.3,413.1z M233.3,410.1c-0.5,0-1,0.4-1,1c0,0.5,0.4,1,1,1c0.5,0,1-0.4,1-1 C234.2,410.5,233.8,410.1,233.3,410.1z" class="st25"/></g><path d="M291.7,413.3h-1.4v-1.4c0-0.4-0.4-0.8-0.8-0.8s-0.8,0.4-0.8,0.8v1.4h-1.4c-0.4,0-0.8,0.4-0.8,0.8 s0.4,0.8,0.8,0.8h1.4v1.4c0,0.4,0.4,0.8,0.8,0.8s0.8-0.4,0.8-0.8v-1.4h1.4c0.4,0,0.8-0.4,0.8-0.8S292.1,413.3,291.7,413.3z" class="st27"/><path d="M349,478.9h-1.4v-1.4c0-0.4-0.4-0.8-0.8-0.8s-0.8,0.4-0.8,0.8v1.4h-1.4c-0.4,0-0.8,0.4-0.8,0.8 s0.4,0.8,0.8,0.8h1.4v1.4c0,0.4,0.4,0.8,0.8,0.8s0.8-0.4,0.8-0.8v-1.4h1.4c0.4,0,0.8-0.4,0.8-0.8S349.5,478.9,349,478.9z" class="st27"/><path d="M236.4,464.6H235v-1.4c0-0.4-0.4-0.8-0.8-0.8s-0.8,0.4-0.8,0.8v1.4H232c-0.4,0-0.8,0.4-0.8,0.8 s0.4,0.8,0.8,0.8h1.4v1.4c0,0.4,0.4,0.8,0.8,0.8s0.8-0.4,0.8-0.8v-1.4h1.4c0.4,0,0.8-0.4,0.8-0.8S236.8,464.6,236.4,464.6z" class="st27"/><path d="M344.9,440.8h-1.4v-1.4c0-0.4-0.4-0.8-0.8-0.8s-0.8,0.4-0.8,0.8v1.4h-1.4c-0.4,0-0.8,0.4-0.8,0.8 s0.4,0.8,0.8,0.8h1.4v1.4c0,0.4,0.4,0.8,0.8,0.8s0.8-0.4,0.8-0.8v-1.4h1.4c0.4,0,0.8-0.4,0.8-0.8 C345.7,441.2,345.4,440.8,344.9,440.8z" class="st28"/><path d="M98.3,502.7h-1.4v-1.4c0-0.4-0.4-0.8-0.8-0.8s-0.8,0.4-0.8,0.8v1.4h-1.4c-0.4,0-0.8,0.4-0.8,0.8 s0.4,0.8,0.8,0.8h1.4v1.4c0,0.4,0.4,0.8,0.8,0.8s0.8-0.4,0.8-0.8v-1.4h1.4c0.4,0,0.8-0.4,0.8-0.8S98.7,502.7,98.3,502.7z" class="st0"/><path d="M47.4,424.1H46v-1.4c0-0.4-0.4-0.8-0.8-0.8c-0.4,0-0.8,0.4-0.8,0.8v1.4H43c-0.4,0-0.8,0.4-0.8,0.8 s0.4,0.8,0.8,0.8h1.4v1.4c0,0.4,0.4,0.8,0.8,0.8c0.4,0,0.8-0.4,0.8-0.8v-1.4h1.4c0.4,0,0.8-0.4,0.8-0.8 C48.2,424.4,47.8,424.1,47.4,424.1z" class="st29"/><path d="M112.5,521.3h-1.4v-1.4c0-0.4-0.4-0.8-0.8-0.8s-0.8,0.4-0.8,0.8v1.4h-1.4c-0.4,0-0.8,0.4-0.8,0.8 s0.4,0.8,0.8,0.8h1.4v1.4c0,0.4,0.4,0.8,0.8,0.8s0.8-0.4,0.8-0.8v-1.4h1.4c0.4,0,0.8-0.4,0.8-0.8S113,521.3,112.5,521.3z" class="st29"/><path d="M207.7,538.2h-1.4v-1.4c0-0.4-0.4-0.8-0.8-0.8c-0.4,0-0.8,0.4-0.8,0.8v1.4h-1.4c-0.4,0-0.8,0.4-0.8,0.8 c0,0.4,0.4,0.8,0.8,0.8h1.4v1.4c0,0.4,0.4,0.8,0.8,0.8c0.4,0,0.8-0.4,0.8-0.8v-1.4h1.4c0.4,0,0.8-0.4,0.8-0.8 C208.5,538.6,208.1,538.2,207.7,538.2z" class="st29"/><path d="M134.5,489.3l-1.5,1.5l-1.4-1.5c-0.5-0.5-1.2-0.5-1.7,0s-0.5,1.2,0,1.7l1.5,1.5l-1.5,1.5 c-0.5,0.5-0.5,1.2,0,1.7s1.2,0.5,1.7,0l1.5-1.5l1.5,1.5c0.5,0.5,1.2,0.5,1.7,0s0.5-1.2,0-1.7l-1.5-1.5l1.5-1.5 c0.5-0.5,0.5-1.2,0-1.7C135.7,488.8,135,488.8,134.5,489.3z" class="st29"/><path d="M114,427.8l-0.6,0.6l-0.6-0.6c-0.2-0.2-0.5-0.2-0.7,0s-0.2,0.5,0,0.7l0.6,0.6l-0.6,0.6 c-0.2,0.2-0.2,0.5,0,0.7s0.5,0.2,0.7,0l0.6-0.6l0.6,0.6c0.2,0.2,0.5,0.2,0.7,0s0.2-0.5,0-0.7l-0.6-0.6l0.6-0.6 c0.2-0.2,0.2-0.5,0-0.7C114.5,427.6,114.2,427.6,114,427.8z" class="st28"/><path d="M260.5,414.8l-0.6,0.6l-0.6-0.6c-0.2-0.2-0.5-0.2-0.7,0s-0.2,0.5,0,0.7l0.6,0.6l-0.6,0.6 c-0.2,0.2-0.2,0.5,0,0.7s0.5,0.2,0.7,0l0.6-0.6l0.6,0.6c0.2,0.2,0.5,0.2,0.7,0s0.2-0.5,0-0.7l-0.6-0.6l0.6-0.6 c0.2-0.2,0.2-0.5,0-0.7C261,414.6,260.7,414.6,260.5,414.8z" class="st28"/><path d="M239.6,538.1l-1.1,1.1l-1.1-1.1c-0.3-0.3-0.9-0.3-1.2,0s-0.3,0.9,0,1.2l1.1,1.1l-1.1,1.1 c-0.3,0.3-0.3,0.9,0,1.2s0.9,0.3,1.2,0l1.1-1.1l1.1,1.1c0.3,0.3,0.9,0.3,1.2,0s0.3-0.9,0-1.2l-1.1-1.1l1.1-1.1 c0.3-0.3,0.3-0.9,0-1.2C240.4,537.8,239.9,537.8,239.6,538.1z" class="st28"/><path d="M279.1,500.2l-0.6,0.6l-0.6-0.6c-0.2-0.2-0.5-0.2-0.7,0s-0.2,0.5,0,0.7l0.6,0.6l-0.6,0.6 c-0.2,0.2-0.2,0.5,0,0.7s0.5,0.2,0.7,0l0.6-0.6l0.6,0.6c0.2,0.2,0.5,0.2,0.7,0s0.2-0.5,0-0.7l-0.6-0.6l0.6-0.6 c0.2-0.2,0.2-0.5,0-0.7S279.3,500,279.1,500.2z" class="st28"/><path d="M188.7,380.4l-0.6,0.6l-0.6-0.6c-0.2-0.2-0.5-0.2-0.7,0s-0.2,0.5,0,0.7l0.6,0.6l-0.6,0.6 c-0.2,0.2-0.2,0.5,0,0.7s0.5,0.2,0.7,0l0.6-0.6l0.6,0.6c0.2,0.2,0.5,0.2,0.7,0s0.2-0.5,0-0.7l-0.6-0.6l0.6-0.6 c0.2-0.2,0.2-0.5,0-0.7C189.2,380.3,188.9,380.3,188.7,380.4z" class="st0"/><path d="M334.1,414.2l-0.6,0.6l-0.6-0.6c-0.2-0.2-0.5-0.2-0.7,0s-0.2,0.5,0,0.7l0.6,0.6l-0.6,0.6 c-0.2,0.2-0.2,0.5,0,0.7s0.5,0.2,0.7,0l0.6-0.6l0.6,0.6c0.2,0.2,0.5,0.2,0.7,0s0.2-0.5,0-0.7l-0.6-0.6l0.6-0.6 c0.2-0.2,0.2-0.5,0-0.7S334.3,414,334.1,414.2z" class="st0"/><path d="M232.7,491.8h-1v-1c0-0.3-0.2-0.6-0.6-0.6c-0.3,0-0.6,0.2-0.6,0.6v1h-1c-0.3,0-0.6,0.2-0.6,0.6 s0.2,0.6,0.6,0.6h1v1c0,0.3,0.2,0.6,0.6,0.6c0.3,0,0.6-0.2,0.6-0.6v-1h1c0.3,0,0.6-0.2,0.6-0.6S233,491.8,232.7,491.8z" class="st28"/><path d="M128.5,452.9h-1v-1c0-0.3-0.2-0.6-0.6-0.6s-0.6,0.2-0.6,0.6v1h-1c-0.3,0-0.6,0.2-0.6,0.6s0.2,0.6,0.6,0.6h1 v1c0,0.3,0.2,0.6,0.6,0.6s0.6-0.2,0.6-0.6v-1h1c0.3,0,0.6-0.2,0.6-0.6S128.8,452.9,128.5,452.9z" class="st28"/><path d="M328.4,487.9h-1v-1c0-0.3-0.2-0.6-0.6-0.6c-0.3,0-0.6,0.2-0.6,0.6v1h-1c-0.3,0-0.6,0.2-0.6,0.6 s0.2,0.6,0.6,0.6h1v1c0,0.3,0.2,0.6,0.6,0.6c0.3,0,0.6-0.2,0.6-0.6v-1h1c0.3,0,0.6-0.2,0.6-0.6S328.7,487.9,328.4,487.9z" class="st28"/><path d="M157,386.7h-1v-1c0-0.3-0.2-0.6-0.6-0.6c-0.3,0-0.6,0.2-0.6,0.6v1h-1c-0.3,0-0.6,0.2-0.6,0.6 s0.2,0.6,0.6,0.6h1v1c0,0.3,0.2,0.6,0.6,0.6c0.3,0,0.6-0.2,0.6-0.6v-1h1c0.3,0,0.6-0.2,0.6-0.6C157.6,386.9,157.3,386.7,157,386.7 z" class="st10"/><path d="M122.2,470.7h-1v-1c0-0.3-0.2-0.6-0.6-0.6c-0.3,0-0.6,0.2-0.6,0.6v1h-1c-0.3,0-0.6,0.2-0.6,0.6 s0.2,0.6,0.6,0.6h1v1c0,0.3,0.2,0.6,0.6,0.6c0.3,0,0.6-0.2,0.6-0.6v-1h1c0.3,0,0.6-0.2,0.6-0.6 C122.8,470.9,122.5,470.7,122.2,470.7z" class="st30"/><path d="M122.2,398.1h-1v-1c0-0.3-0.2-0.6-0.6-0.6c-0.3,0-0.6,0.2-0.6,0.6v1h-1c-0.3,0-0.6,0.2-0.6,0.6 c0,0.3,0.2,0.6,0.6,0.6h1v1c0,0.3,0.2,0.6,0.6,0.6c0.3,0,0.6-0.2,0.6-0.6v-1h1c0.3,0,0.6-0.2,0.6-0.6 C122.8,398.4,122.5,398.1,122.2,398.1z" class="st7"/><path d="M195,515.9h-1v-1c0-0.3-0.2-0.6-0.6-0.6c-0.3,0-0.6,0.2-0.6,0.6v1h-1c-0.3,0-0.6,0.2-0.6,0.6 c0,0.3,0.2,0.6,0.6,0.6h1v1c0,0.3,0.2,0.6,0.6,0.6c0.3,0,0.6-0.2,0.6-0.6v-1h1c0.3,0,0.6-0.2,0.6-0.6 C195.6,516.1,195.4,515.9,195,515.9z" class="st10"/><circle cx="143.6" cy="393.8" r=".9" class="st30"/><circle cx="25.9" cy="464.4" r=".9" class="st10"/><path d="M332.4,463.8c0,0.5-0.4,0.9-0.9,0.9s-0.9-0.4-0.9-0.9s0.4-0.9,0.9-0.9S332.4,463.3,332.4,463.8z" class="st30"/><path d="M326.3,512.5c0,1-0.8,1.8-1.8,1.8s-1.8-0.8-1.8-1.8c0-1,0.8-1.8,1.8-1.8S326.3,511.5,326.3,512.5z" class="st30"/><circle cx="176.6" cy="527.1" r=".9" class="st30"/><circle cx="267.1" cy="402.3" r="1.6" class="st28"/><circle cx="39" cy="478" r="1.6" class="st4"/></g><g id="Layer_16"><path d="M230.9,455.8c0,12.8-5.5,25.2-15,33.8c-4.7,4.3-10.3,7.6-16.3,9.6c-5.8,1.9-13.4,0.4-16.3,7.1 c-0.6,1.4-1,3-2.3,3.8c-1.7,1-4.1-0.3-4.9-2.1c-0.8-1.8-0.6-3.9-0.4-5.9c0.2-2,0.2-4.2-1-5.8c-2.5,0.7-4.2,3-4.9,5.4 s-0.6,5-0.4,7.6c0,0.4,0,0.8-0.2,1.1c-0.2,0.3-0.4,0.5-0.7,0.6c-1.5,0.8-3.3,0.6-4.6-0.4s-2-2.8-1.6-4.4c0.2-1,0.8-1.9,1.1-2.8 c1.6-4.1-0.4-9.2-4.3-11.1c-13-6.2-19.8-22.7-19.8-36.6c0-7,1.6-13.9,4.7-20.1c4.1-8.2,10.7-15,18.7-19.5c4-2.3,8.4-4,12.9-5 c2.3-0.5,4.6-0.9,7-1.1c2.7-0.2,4.9,0.8,7.6,0.9c1.1,0.1,2.4,0,3.1-0.9c0.2-0.3,0.4-0.6,0.5-0.9c0.7-1.3,1.5-2.4,2.5-3.5 c0.7-0.7,1.4-1.4,2.4-1.5c1.2-0.2,2.4,0.5,2.8,1.6c1,2.5-2.6,3.5-1.6,6.1c0.6,1.4,2.3,2.2,3.8,1.7c1.6-0.6,2.4-2.3,3.2-3.8 s2.1-3.1,3.8-2.9c1.5,0.2,2.5,1.8,2.7,3.3s-0.3,3.1-0.4,4.6c-0.4,8.6,7.2,11.2,11.2,17.2C228.8,438.8,230.9,447.6,230.9,455.8z" class="st10"/><path d="M209,455.8c0,13.2-10.7,23.9-23.9,23.9c-4.4,0-8.8-1.2-12.6-3.6c-1.8-1.1-3.3-2.4-4.5-4 c-1.3-1.7-2.6-3.4-4.7-4.1c-1.1-0.4-2.7-0.7-2.8-1.9c0-0.5,0.3-0.9,0.5-1.3c0.5-0.8,1.1-1.6,1.6-2.4c0.9-1.4,1.9-3.3,0.9-4.7 c-0.9-1.3-2.8-1.2-4.2-0.6s-2.6,1.7-4.1,2c-1.5,0.4-3.4-0.4-3.5-1.9c-0.1-1.6,1.7-2.5,3.3-2.6c1.6,0,3.2,0.5,4.7,0 c2.6-0.9,2.3-3.4,2.9-5.5c0.8-2.7,2-5.2,3.4-7.6c1.1-1.8,3-3.5,4.6-4.7c4.2-3.2,9.3-5,14.6-5c4.2,0,8.7,1.1,12.2,3.5 c1.3,0.9,2.1,1.5,3.7,1.8c0.8,0.1,5.3,0.1,4,2.1c-0.8,0.4-1.6,1-1.9,1.8c-0.5,1.5,1,3,2.5,3.5s3.2,0.6,4.5,1.5 c0.4,0.2,0.7,0.6,0.8,1s0,0.9-0.4,1.1c-0.3,0.1-0.6,0.1-0.9,0c-0.9-0.1-1.8,0.1-2.6,0.5c-0.2,0.1-0.4,0.2-0.5,0.4 c-0.1,0.4,0.1,0.7,0.4,1C208.4,451.8,209,453.6,209,455.8z" class="st23"/><g><path d="M207.6,436.4C207.6,436.3,207.6,436.3,207.6,436.4C207.6,436.3,207.6,436.3,207.6,436.4L207.6,436.4z" class="st23"/><path d="M212.9,432.3c-0.4-0.7-1.2-1.2-2-1c-0.9,0.2-1.6,1.1-2.1,1.9c-0.6,0.9-1.2,2-1.1,3.1 c1.1-0.4,2.3-0.7,3.4-1.1c0.5-0.2,1-0.3,1.4-0.7C213,434,213.2,433,212.9,432.3z" class="st23"/></g><path d="M156.2,468.7c-1-0.9-2.7-1.2-3.8-0.4c-1.1,0.8-1.2,2.8-0.1,3.5c0.3-0.7,0.9-1.3,1.7-1.5 c0.5-0.1,1-0.1,1.5-0.3c0.4-0.2,0.7-0.9,0.4-1.2L156.2,468.7z" class="st23"/><path d="M218.5,449.7c-0.7-0.3-1.5-0.7-2.2-0.6c-0.8,0.1-1.5,0.8-1.4,1.5l-0.2-0.2c0.2,0.5,0.4,0.9,0.7,1.3 c0.7,1.1,1.6,2.1,2.9,2.3c1.2,0.3,2.7-0.6,2.7-1.9C220.9,451,219.6,450.2,218.5,449.7z" class="st23"/><path d="M192.1,464.5c-5.2,3.5-12.2,2.2-15.7-3c-1.2-1.7-1.9-3.8-1.9-5.9c0-1,0.1-1.9,0.3-2.8c0.3-1,0.6-1.9,0.3-2.9 c-0.2-0.5-0.5-1.3,0-1.6c0.2-0.1,0.4-0.1,0.6-0.1c0.4,0,0.9,0,1.3,0c0.8,0,1.8-0.1,2.1-0.9c0.3-0.7-0.3-1.4-0.9-1.8 c-0.6-0.4-1.3-0.6-1.9-1.1c-0.5-0.5-0.8-1.4-0.2-1.9s1.5,0,1.9,0.6s0.7,1.4,1.3,1.8c1,0.8,1.9,0,2.9-0.3c1.3-0.4,2.6-0.6,3.9-0.7 c1-0.1,2.1,0.2,3.1,0.6c2.4,0.8,4.4,2.3,5.8,4.4c1.1,1.7,1.9,3.7,1.9,5.7c0,0.7,0,1.2,0.3,1.9c0.2,0.4,1.4,2.1,0.2,2.1 c-0.4-0.2-0.8-0.4-1.2-0.3c-0.7,0.2-0.9,1.2-0.7,1.9s0.6,1.4,0.6,2.1c0,0.2,0,0.4-0.2,0.6c-0.1,0.2-0.4,0.2-0.5,0.1 s-0.2-0.2-0.2-0.3c-0.2-0.4-0.5-0.7-0.9-0.9c-0.1-0.1-0.2-0.1-0.3-0.1c-0.2,0-0.3,0.3-0.3,0.4C193.5,463.1,193,463.9,192.1,464.5z" class="st31"/><g><path d="M199.4,458.8C199.4,458.7,199.4,458.7,199.4,458.8C199.4,458.7,199.4,458.7,199.4,458.8L199.4,458.8z" class="st31"/><path d="M202.3,459.7c0.2-0.3,0.1-0.8-0.2-1.1c-0.3-0.3-0.8-0.3-1.3-0.3s-1.1,0.1-1.5,0.4c0.4,0.3,0.9,0.7,1.3,1 c0.2,0.1,0.4,0.3,0.6,0.4C201.7,460.2,202.1,460,202.3,459.7z" class="st31"/></g><path d="M173,447.2c0.1-0.6-0.3-1.4-0.9-1.6c-0.6-0.2-1.4,0.3-1.4,0.9c0.4-0.1,0.8,0,1,0.3c0.2,0.2,0.3,0.4,0.5,0.5 s0.5,0,0.6-0.2L173,447.2z" class="st31"/><path d="M197,466.5c-0.1-0.4-0.1-0.7-0.4-1c-0.2-0.3-0.7-0.4-1-0.1v-0.1c-0.1,0.2-0.2,0.4-0.3,0.6 c-0.2,0.5-0.4,1.2-0.1,1.7c0.2,0.5,1,0.9,1.4,0.6C197.2,467.8,197.1,467.1,197,466.5z" class="st31"/><path d="M163.5,516.5c-2.2,0.6-4.3,1.6-6.2,3.1c-0.2,0.2-0.4,0.4-0.6,0.6c-0.2,0.2-0.3,0.5-0.3,0.8 c-0.4,1.7,0.3,3.6,1.7,4.5c1.5,0.9,3.7,0.5,4.5-1c0.4-0.7,0.5-1.6,0.5-2.4C163.3,520.3,163.5,518.4,163.5,516.5L163.5,516.5z" class="st10"/><path d="M170.9,515.9c-0.4-0.9-1.7-0.9-2.7-0.7v-0.1c-0.1,0.9-0.1,1.9,0.5,2.6s1.9,0.8,2.2,0 c0.1-0.2,0.1-0.5,0.1-0.8C171,516.5,171,516.2,170.9,515.9z" class="st10"/><path d="M207.1,393c-1-0.2-2-0.4-2.9,0.1c-0.6,0.4-1,1.1-1.1,1.9c-0.1,0.7,0,1.5,0.1,2.2c0.1,0.6,0.2,1.2,0.3,1.8 l-0.1,0.3c0.1-0.5,0.6-0.9,1.1-1.2c0.6-0.3,1.2-0.7,1.8-1c0.5-0.3,1.1-0.6,1.5-1.1C208.2,395.1,208,393.6,207.1,393z" class="st10"/></g></g><g><path d="M1158.8,628c0-98.9-80.2-179.2-179.2-179.2c-98.9,0.1-179.2,80.3-179.2,179.2H1158.8z" class="st32"/><g class="st33"><g><path d="M917.5,519.2c1.9-16.6,4.5-28.9,16.6-40.8c5.7-5.6,13.2-9.5,17.7-16c5.5-7.9,5.9-19,13.4-25.2 c8.1-6.6,21-4.8,29.3-11.2c5.9-4.5,8.1-12.1,12.3-18.2c6.9-9.8,19.9-15.1,32-13.1c-12.1,2.8-20.6,15.7-18.2,27.4 c1.5,7.5,6.8,14.4,6.2,22.1c-1.3,15.2-24.3,21.7-26,36.8c-0.5,4.1,0.8,8.2,0.9,12.4c0.5,12.9-11.1,25.1-24.4,25.6h-59.8V519.2z" class="st0"/></g><g><path d="M1007.9,432.6c-12,11.2-22.6,23.8-31.7,37.3c-8.7,13.1-14.9,27-22,40.9c-0.6,1.3-2.7,0.4-2.3-0.9 C961.1,480.1,984.2,453,1007.9,432.6C1007.8,432.6,1007.9,432.6,1007.9,432.6L1007.9,432.6z" class="st34"/></g><g><path d="M1006.8,448c-3.3-0.4-6.6-0.2-9.8,0.8c-3.3,1-5.6,3.1-8.7,4.5c-0.3,0.2-0.8-0.2-0.6-0.5 c3.8-5.3,13.2-6.3,19.2-5.4C1007.2,447.5,1007.2,448.1,1006.8,448L1006.8,448z" class="st34"/></g><g><path d="M999.4,464.7c-4.6-1.1-9.3-1.3-13.8-0.2c-4.2,1-7.4,3.3-11.1,5.2c-0.6,0.3-1.2-0.4-0.8-0.9 c6.2-6.5,17.7-7,25.8-4.4C999.7,464.5,999.6,464.7,999.4,464.7L999.4,464.7z" class="st34"/></g><g><path d="M991.2,486.8c-12.7-1.5-21.2,1-30.8,9.2c-0.6,0.5-1.6-0.1-1.1-0.8c6.2-9.1,21.7-13.5,32-9 C991.7,486.3,991.5,486.8,991.2,486.8L991.2,486.8z" class="st34"/></g><g><path d="M983.1,440.5c5.1,5.4,3.2,16.2-1.7,21.1c-0.2,0.2-0.5-0.1-0.4-0.3c2.2-3.3,3.8-6.5,3.9-10.6 c0.1-3.7-1.4-6.5-2.5-9.9C982.3,440.6,982.8,440.3,983.1,440.5L983.1,440.5z" class="st34"/></g><g><path d="M973.5,452.7c2.6,7,2.3,16.3-1.9,22.7c-0.2,0.3-0.8,0.1-0.6-0.3c2.5-7.8,3.6-14.1,1.9-22.2 C972.7,452.5,973.4,452.3,973.5,452.7L973.5,452.7z" class="st34"/></g><g><path d="M958.7,466.1c4.6,9.8,3.9,20.7-0.3,30.5c-0.4,0.9-1.9,0.5-1.5-0.4c4.1-9.8,3.9-19.6,1-29.7 C957.7,465.9,958.5,465.6,958.7,466.1L958.7,466.1z" class="st34"/></g></g><g class="st33"><g><path d="M1163.2,526.9c-1.5-12.8-3.5-22.4-12.9-31.6c-4.4-4.3-10.2-7.3-13.7-12.4c-4.2-6.1-4.6-14.7-10.4-19.5 c-6.2-5.1-16.2-3.7-22.7-8.7c-4.6-3.5-6.3-9.4-9.6-14.1c-5.3-7.6-15.4-11.7-24.8-10.2c9.4,2.2,16,12.2,14.1,21.3 c-1.2,5.8-5.3,11.2-4.8,17.1c1,11.8,18.8,16.8,20.2,28.5c0.4,3.2-0.6,6.4-0.7,9.6c-0.4,10,8.6,19.4,18.9,19.9h46.4V526.9z" class="st0"/></g><g><path d="M1093.2,459.8c9.3,8.7,17.6,18.4,24.6,28.9c6.8,10.1,11.5,20.9,17,31.7c0.5,1,2.1,0.3,1.8-0.7 C1129.5,496.6,1111.6,475.6,1093.2,459.8L1093.2,459.8L1093.2,459.8z" class="st34"/></g><g><path d="M1094,471.7c2.6-0.3,5.1-0.1,7.6,0.6c2.6,0.8,4.4,2.4,6.7,3.5c0.3,0.1,0.6-0.1,0.4-0.4 c-2.9-4.1-10.2-4.9-14.9-4.1C1093.7,471.3,1093.8,471.8,1094,471.7L1094,471.7z" class="st34"/></g><g><path d="M1099.8,484.6c3.5-0.8,7.2-1,10.7-0.1c3.2,0.8,5.8,2.5,8.6,4c0.5,0.3,1-0.3,0.6-0.7c-4.8-5-13.7-5.4-20-3.4 C1099.6,484.5,1099.6,484.7,1099.8,484.6L1099.8,484.6z" class="st34"/></g><g><path d="M1106.1,501.8c9.9-1.2,16.4,0.8,23.8,7.1c0.4,0.4,1.2-0.1,0.9-0.6c-4.8-7.1-16.8-10.5-24.8-7 C1105.8,501.4,1105.9,501.8,1106.1,501.8L1106.1,501.8z" class="st34"/></g><g><path d="M1112.4,465.9c-4,4.2-2.5,12.5,1.3,16.3c0.1,0.1,0.4,0,0.3-0.2c-1.7-2.6-2.9-5-3-8.2 c-0.1-2.9,1.1-5,1.9-7.7C1113,465.9,1112.6,465.7,1112.4,465.9L1112.4,465.9z" class="st34"/></g><g><path d="M1119.9,475.4c-2,5.4-1.8,12.6,1.5,17.6c0.2,0.2,0.6,0.1,0.5-0.2c-1.9-6-2.8-10.9-1.4-17.2 C1120.5,475.2,1120,475,1119.9,475.4L1119.9,475.4z" class="st34"/></g><g><path d="M1131.3,485.7c-3.5,7.6-3,16.1,0.3,23.6c0.3,0.7,1.5,0.4,1.2-0.3c-3.2-7.6-3-15.2-0.7-23 C1132.1,485.6,1131.5,485.3,1131.3,485.7L1131.3,485.7z" class="st34"/></g></g><g class="st33"><path d="M1194.3,584.2c3.5-8.1,7-16.2,12-23.4c1.7-2.4,4.2-4.9,7-4.1c2.6,0.7,3.6,3.8,3.9,6.4 c1.4,12.4-4.5,24.5-11.6,34.7c-7.9,11.5-17.6,21.8-28.5,30.5l-2,0.8C1181.5,613.9,1187.8,599.3,1194.3,584.2z" class="st0"/><g><path d="M1178.6,625.3c16.5-16.3,27.9-38.8,33.1-61.2c0.2-0.8,1.4-0.4,1.2,0.4c-2.8,11.5-7.1,22.6-12.8,32.9 C1194.3,607.9,1186.9,616.7,1178.6,625.3C1178.6,625.4,1178.6,625.3,1178.6,625.3L1178.6,625.3z" class="st34"/></g><g><path d="M1215.9,573.8c-2,2.6-4.7,4.7-7.7,6c-0.5,0.2-0.8-0.5-0.3-0.7c2.9-1.3,5.5-3.2,7.5-5.7 C1215.6,573,1216.2,573.4,1215.9,573.8L1215.9,573.8z" class="st34"/></g><g><path d="M1211.2,584.8c-1.9,2.8-4.8,6.4-8,7.8c-0.2,0.1-0.3-0.2-0.2-0.3c1.2-1.2,2.7-2.2,4-3.3 c1.4-1.3,2.8-2.8,4-4.2C1211.1,584.6,1211.3,584.7,1211.2,584.8L1211.2,584.8z" class="st34"/></g><g><path d="M1203.5,598.4c-1.6,2-3.7,3.4-6,4.6c-0.3,0.2-0.5-0.3-0.2-0.5c2.3-1.1,4.2-2.6,6-4.2 C1203.4,598.2,1203.6,598.3,1203.5,598.4L1203.5,598.4z" class="st34"/></g><g><path d="M1205.7,571.8c0.1,3.9,0.1,7.4,1.2,11.2c0.2,0.7-0.9,0.9-1.1,0.2c-1.1-3.5-1.7-7.9-0.8-11.5 C1205.1,571.3,1205.7,571.5,1205.7,571.8L1205.7,571.8z" class="st34"/></g><g><path d="M1201,581.6c-1,4-1.3,7.9-0.5,12c0.1,0.6-0.8,0.7-0.9,0.2c-0.7-4.2-0.5-8.3,1.1-12.2 C1200.8,581.3,1201.1,581.4,1201,581.6L1201,581.6z" class="st34"/></g><g><path d="M1194.5,593.1c-1.3,4.8-2.2,8.9-1.7,13.9c0.1,0.8-1.2,1.1-1.3,0.2c-0.5-4.7,0-10.2,2.4-14.5 C1194.1,592.5,1194.5,592.8,1194.5,593.1L1194.5,593.1z" class="st34"/></g><path d="M1182.6,624c9.9-7.9,19.8-15.8,29.7-23.7c3.5-2.8,7-5.6,11.1-7.4s8.9-2.5,13.1-0.9c0.6,0.2,1.2,0.5,1.6,0.9 c1.4,1.4,0.7,3.7-0.2,5.5c-7,13.8-22,21.6-36.6,27c-8.7,3.3-18.1,6.1-27.1,4C1174.4,629.4,1179.4,626.6,1182.6,624z" class="st0"/><g><path d="M1234.6,596.3c-7,6.6-15.1,11.6-23.4,16.3c-9.2,5.2-18.4,10.4-27.5,15.7c-0.7,0.4-1.4-0.7-0.7-1.1 c8.9-4.9,17.7-9.9,26.5-14.9c8.6-4.9,17.2-9.8,24.5-16.5C1234.4,595.4,1235,595.9,1234.6,596.3L1234.6,596.3z" class="st34"/></g><g><path d="M1232.7,603.4c-3.1,1-6.3,2.2-9.5,2.9c-0.8,0.2-1.1-1-0.4-1.2c3.2-0.9,6.5-1.4,9.7-2 C1232.8,603,1233,603.3,1232.7,603.4L1232.7,603.4z" class="st34"/></g><g><path d="M1221,612.6c-2.1,0.3-4.2,0.6-6.4,0.9c-2.1,0.3-4.3,0.8-6.4,0.6c-0.4,0-0.6-0.6-0.1-0.7 c1.9-0.6,4-0.7,6.1-0.8c2.3-0.2,4.5-0.4,6.8-0.6C1221.5,611.8,1221.5,612.6,1221,612.6L1221,612.6z" class="st34"/></g><g><path d="M1205.9,621.5c-1.9-0.2-3.7-0.5-5.5-0.4c-1.5,0.1-3.1,0.7-4.6,0.6c-0.4,0-0.4-0.6-0.1-0.8 c1.3-1,3.7-1.1,5.2-1c1.8,0,3.6,0.3,5.2,1.1C1206.3,621.1,1206.1,621.5,1205.9,621.5L1205.9,621.5z" class="st34"/></g><g><path d="M1225.5,596.3c-0.8,1.9-1.5,3.8-2,5.8c-0.4,1.5-0.5,3.2-1.2,4.6c-0.1,0.2-0.4,0.1-0.4-0.1 c-0.2-1.8,0.6-3.7,1.1-5.4c0.6-1.8,1.2-3.5,1.9-5.2C1225.1,595.7,1225.6,596,1225.5,596.3L1225.5,596.3z" class="st34"/></g><g><path d="M1215.6,603.8c-1.5,2.5-2.7,5.4-4.6,7.7c-0.1,0.2-0.3,0-0.3-0.2c1.1-2.6,3.2-5.1,4.7-7.5 C1215.6,603.7,1215.7,603.8,1215.6,603.8L1215.6,603.8z" class="st34"/></g><g><path d="M1205.3,610c-0.8,1.5-1.6,3-2.3,4.5c-0.6,1.3-1,2.8-2.1,3.8c-0.2,0.2-0.5,0-0.4-0.2 c0.2-1.5,1.2-2.7,1.9-3.9c0.8-1.5,1.6-3,2.4-4.4C1204.9,609.3,1205.5,609.6,1205.3,610L1205.3,610z" class="st34"/></g><g><path d="M1176,568.2c1.4-1.8,4-2.9,6-1.8c1.8,0.9,2.5,3.2,3,5.2c3.7,18.2-2.9,39.3-8.7,57l-1.8,0.8 c-1.7-18.2-3.4-36.7-0.6-54.8C1174.2,572.3,1174.6,570,1176,568.2z" class="st0"/></g><g><path d="M1175.9,622.7c2.2-16.3,2.8-32.7,3.5-49.1c0-0.5,0.9-0.6,0.8,0c-1,16.4-1.3,33-4.1,49.2 C1176.1,622.9,1175.9,622.8,1175.9,622.7L1175.9,622.7z" class="st34"/></g><g><path d="M1183.6,578.6c-0.6,1.2-1.2,2.4-1.8,3.6c-0.5,1-1,2.2-1.8,3c-0.2,0.2-0.6,0-0.5-0.3 c0.2-1.2,0.9-2.2,1.5-3.2c0.6-1.2,1.3-2.4,1.9-3.5C1183.1,577.7,1183.9,578.1,1183.6,578.6L1183.6,578.6z" class="st34"/></g><g><path d="M1183.2,587.9c-1,2.5-1.9,5.5-3.4,7.7c-0.1,0.2-0.4,0.1-0.4-0.1c0.3-2.7,2-5.5,3.4-7.8 C1183,587.5,1183.3,587.6,1183.2,587.9L1183.2,587.9z" class="st34"/></g><g><path d="M1182.1,599.3c-0.1,1.5-0.9,3-1.3,4.4c-0.4,1.3-0.8,2.6-1.4,3.7c-0.1,0.2-0.4,0.1-0.4-0.1 c0.2-1.5,0.8-3,1.2-4.4c0.4-1.3,0.6-2.6,1.3-3.8C1181.8,598.8,1182.2,599,1182.1,599.3L1182.1,599.3z" class="st34"/></g><g><path d="M1175.2,584.7c1.2,1.3,2.1,2.7,2.8,4.3c0.5,1.2,1.4,3,1.1,4.3c-0.1,0.3-0.4,0.3-0.5,0.1 c-0.8-1.1-0.9-2.8-1.4-4c-0.6-1.6-1.4-3-2.3-4.5C1174.7,584.8,1175,584.5,1175.2,584.7L1175.2,584.7z" class="st34"/></g><g><path d="M1174.2,597.8c0.6,1.6,1,3.2,1.5,4.9c0.4,1.5,1,3,1,4.5c0,0.3-0.5,0.5-0.6,0.2c-0.7-1.4-0.9-3.2-1.3-4.7 c-0.4-1.6-0.7-3.2-0.9-4.8C1173.9,597.7,1174.2,597.7,1174.2,597.8L1174.2,597.8z" class="st34"/></g></g><g class="st33"><path d="M871.8,550.4c-5.9-13.7-11.8-27.5-20.4-39.8c-2.8-4-7.1-8.3-11.9-7c-4.3,1.2-6.1,6.4-6.6,10.9 c-2.3,21.1,7.6,41.5,19.6,59c13.4,19.5,29.8,37.1,48.4,51.8l3.5,1.3C893.5,600.9,882.8,576.1,871.8,550.4z" class="st0"/><g><path d="M898.4,620.3c-28-27.7-47.4-65.8-56.3-104c-0.3-1.4-2.4-0.6-2.1,0.7c4.7,19.5,12,38.3,21.8,55.9 C871.7,590.8,884.3,605.7,898.4,620.3C898.4,620.4,898.4,620.3,898.4,620.3L898.4,620.3z" class="st34"/></g><g><path d="M835,532.8c3.5,4.5,7.9,8,13.2,10.1c0.8,0.3,1.4-0.9,0.6-1.2c-5-2.2-9.3-5.4-12.7-9.6 C835.5,531.4,834.5,532.1,835,532.8L835,532.8z" class="st34"/></g><g><path d="M843,551.4c3.2,4.8,8.1,10.8,13.5,13.2c0.4,0.2,0.6-0.3,0.3-0.5c-2-2.1-4.6-3.7-6.8-5.6 c-2.5-2.2-4.7-4.7-6.8-7.2C843.1,551.1,842.9,551.3,843,551.4L843,551.4z" class="st34"/></g><g><path d="M856.1,574.6c2.7,3.3,6.3,5.8,10.1,7.8c0.5,0.3,0.9-0.6,0.4-0.8c-3.9-1.8-7.1-4.4-10.2-7.2 C856.3,574.2,856,574.4,856.1,574.6L856.1,574.6z" class="st34"/></g><g><path d="M852.4,529.4c-0.2,6.6-0.2,12.5-2,19c-0.3,1.2,1.5,1.5,1.8,0.3c1.8-6,2.8-13.4,1.3-19.5 C853.3,528.5,852.4,528.8,852.4,529.4L852.4,529.4z" class="st34"/></g><g><path d="M860.3,546c1.7,6.7,2.2,13.5,0.8,20.3c-0.2,0.9,1.3,1.2,1.5,0.3c1.2-7.1,0.8-14.1-1.8-20.8 C860.6,545.5,860.2,545.7,860.3,546L860.3,546z" class="st34"/></g><g><path d="M871.5,565.6c2.1,8.1,3.8,15.2,2.9,23.7c-0.1,1.4,2,1.8,2.1,0.4c0.8-8.1-0.1-17.4-4.1-24.6 C872.1,564.5,871.3,565,871.5,565.6L871.5,565.6z" class="st34"/></g><path d="M891.6,618.1c-16.8-13.4-33.7-26.8-50.5-40.2c-5.9-4.7-12-9.5-18.9-12.6c-7-3.1-15.1-4.3-22.2-1.6 c-1,0.4-2,0.8-2.7,1.6c-2.3,2.4-1.2,6.4,0.3,9.3c11.9,23.5,37.4,36.6,62.1,45.9c14.7,5.5,30.7,10.3,46,6.7 C905.6,627.2,897,622.4,891.6,618.1z" class="st0"/><g><path d="M803.2,570.9c11.8,11.2,25.6,19.7,39.7,27.7c15.6,8.9,31.3,17.6,46.7,26.7c1.2,0.7,2.4-1.2,1.2-1.8 c-15.1-8.3-30-16.9-45-25.4c-14.6-8.3-29.2-16.6-41.7-28C803.6,569.5,802.7,570.4,803.2,570.9L803.2,570.9z" class="st34"/></g><g><path d="M806.5,583.1c5.3,1.8,10.6,3.7,16.1,4.9c1.3,0.3,1.9-1.6,0.6-2c-5.4-1.6-11-2.5-16.5-3.5 C806.3,582.4,806.1,583,806.5,583.1L806.5,583.1z" class="st34"/></g><g><path d="M826.3,598.8c3.6,0.5,7.2,1,10.8,1.5c3.5,0.5,7.2,1.3,10.8,1c0.7-0.1,1-1,0.2-1.3c-3.3-1-6.9-1.1-10.3-1.4 c-3.8-0.4-7.7-0.7-11.5-1.1C825.5,597.4,825.5,598.6,826.3,598.8L826.3,598.8z" class="st34"/></g><g><path d="M852.1,613.7c3.2-0.3,6.2-0.8,9.4-0.6c2.6,0.2,5.2,1.2,7.8,1c0.7-0.1,0.7-1,0.2-1.3 c-2.2-1.7-6.2-1.8-8.9-1.7c-3.1,0.1-6.1,0.5-8.8,1.9C851.4,613.2,851.7,613.8,852.1,613.7L852.1,613.7z" class="st34"/></g><g><path d="M818.8,571.1c1.4,3.2,2.6,6.5,3.4,9.9c0.7,2.6,0.8,5.4,2,7.8c0.2,0.3,0.6,0.2,0.7-0.1c0.3-3-1-6.3-1.9-9.2 c-0.9-3-2-5.9-3.3-8.8C819.5,570,818.5,570.5,818.8,571.1L818.8,571.1z" class="st34"/></g><g><path d="M835.5,583.8c2.5,4.2,4.6,9.2,7.7,13c0.2,0.3,0.6,0,0.5-0.3c-1.9-4.5-5.4-8.7-8-12.8 C835.6,583.6,835.4,583.7,835.5,583.8L835.5,583.8z" class="st34"/></g><g><path d="M853,594.3c1.3,2.5,2.7,5,3.9,7.6c1,2.2,1.7,4.8,3.6,6.5c0.3,0.3,0.8,0,0.8-0.4c-0.3-2.5-2.1-4.5-3.3-6.7 c-1.4-2.5-2.7-5-4-7.5C853.7,593.2,852.7,593.7,853,594.3L853,594.3z" class="st34"/></g><g><path d="M902.8,523.2c-2.3-3-6.7-4.9-10.2-3.1c-3.1,1.6-4.3,5.4-5,8.8c-6.3,31,4.9,66.7,14.8,96.7l3,1.4 c2.9-31,5.7-62.3,1-93.1C905.9,530.2,905.1,526.3,902.8,523.2z" class="st0"/></g><g><path d="M903,615.8c-3.7-27.7-4.8-55.5-5.9-83.4c0-0.9-1.5-1-1.4-0.1c1.8,27.8,2.2,56,6.9,83.5 C902.6,616.2,903,616.1,903,615.8L903,615.8z" class="st34"/></g><g><path d="M889.9,541c1,2,2.1,4.1,3.1,6.1c0.9,1.8,1.6,3.7,3,5.2c0.4,0.4,1,0,0.9-0.5c-0.4-2-1.6-3.7-2.5-5.4 c-1.1-2-2.1-4-3.2-6C890.7,539.5,889.5,540.1,889.9,541L889.9,541z" class="st34"/></g><g><path d="M890.5,556.7c1.7,4.2,3.2,9.3,5.7,13.1c0.2,0.3,0.6,0.2,0.6-0.2c-0.4-4.6-3.3-9.4-5.7-13.2 C890.9,556,890.4,556.3,890.5,556.7L890.5,556.7z" class="st34"/></g><g><path d="M892.4,576.1c0.2,2.5,1.5,5,2.3,7.4c0.7,2.1,1.3,4.4,2.4,6.4c0.2,0.3,0.6,0.1,0.6-0.2 c-0.3-2.5-1.4-5-2.1-7.5c-0.7-2.2-1.1-4.5-2.3-6.4C893,575.3,892.4,575.6,892.4,576.1L892.4,576.1z" class="st34"/></g><g><path d="M904.2,551.3c-2,2.2-3.5,4.7-4.7,7.4c-0.9,2-2.4,5.1-1.9,7.3c0.1,0.4,0.6,0.5,0.9,0.2 c1.3-1.8,1.5-4.7,2.4-6.8c1-2.6,2.4-5.2,3.9-7.6C905,551.5,904.5,551,904.2,551.3L904.2,551.3z" class="st34"/></g><g><path d="M905.8,573.6c-1,2.7-1.7,5.5-2.5,8.3c-0.7,2.5-1.7,5.1-1.8,7.6c0,0.5,0.8,0.8,1,0.3c1.2-2.4,1.5-5.4,2.1-8 c0.6-2.7,1.2-5.4,1.6-8.1C906.4,573.4,905.9,573.4,905.8,573.6L905.8,573.6z" class="st34"/></g></g><g class="st33"><path d="M898.9,462.5c-5.9-13.7-11.8-27.5-20.4-39.7c-2.8-4-7.1-8.3-11.9-7c-4.3,1.2-6.1,6.4-6.6,10.9 c-2.3,21.1,7.6,41.5,19.6,59c13.4,19.5,29.8,37.1,48.4,51.8l3.5,1.3C920.6,513,909.9,488.2,898.9,462.5z" class="st0"/><g><path d="M925.5,532.4c-28-27.7-47.4-65.8-56.3-104c-0.3-1.4-2.4-0.6-2.1,0.7c4.7,19.5,12,38.3,21.8,55.9 C898.9,502.9,911.4,517.8,925.5,532.4C925.5,532.5,925.5,532.5,925.5,532.4L925.5,532.4z" class="st34"/></g><g><path d="M862.1,444.9c3.5,4.5,7.9,8,13.2,10.1c0.8,0.3,1.4-0.9,0.6-1.2c-5-2.2-9.3-5.4-12.7-9.6 C862.7,443.5,861.6,444.2,862.1,444.9L862.1,444.9z" class="st34"/></g><g><path d="M870.1,463.5c3.2,4.8,8.1,10.8,13.5,13.2c0.4,0.2,0.6-0.3,0.3-0.5c-2-2.1-4.6-3.7-6.8-5.6 c-2.5-2.2-4.7-4.7-6.8-7.2C870.2,463.2,870,463.4,870.1,463.5L870.1,463.5z" class="st34"/></g><g><path d="M883.2,486.7c2.7,3.3,6.3,5.8,10.1,7.8c0.5,0.3,0.9-0.6,0.4-0.8c-3.9-1.8-7.1-4.4-10.2-7.2 C883.4,486.3,883.1,486.5,883.2,486.7L883.2,486.7z" class="st34"/></g><g><path d="M879.5,441.5c-0.2,6.6-0.2,12.5-2,19c-0.3,1.2,1.5,1.5,1.8,0.3c1.8-6,2.8-13.4,1.3-19.5 C880.4,440.6,879.5,440.9,879.5,441.5L879.5,441.5z" class="st34"/></g><g><path d="M887.4,458.1c1.7,6.7,2.2,13.5,0.8,20.3c-0.2,0.9,1.3,1.2,1.5,0.3c1.2-7.1,0.8-14.1-1.8-20.8 C887.7,457.6,887.3,457.8,887.4,458.1L887.4,458.1z" class="st34"/></g><g><path d="M898.6,477.7c2.1,8.1,3.8,15.2,2.9,23.7c-0.1,1.4,2,1.8,2.1,0.4c0.8-8.1-0.1-17.4-4.1-24.6 C899.2,476.6,898.4,477.1,898.6,477.7L898.6,477.7z" class="st34"/></g><path d="M918.7,530.2c-16.8-13.4-33.7-26.8-50.5-40.2c-5.9-4.7-12-9.5-18.9-12.6c-7-3.1-15.1-4.3-22.2-1.6 c-1,0.4-2,0.8-2.7,1.6c-2.3,2.4-1.2,6.4,0.3,9.3c11.9,23.5,37.4,36.6,62.1,45.9c14.7,5.5,30.7,10.3,46,6.7 C932.7,539.3,924.1,534.5,918.7,530.2z" class="st0"/><g><path d="M830.4,483c11.8,11.2,25.6,19.7,39.7,27.7c15.6,8.9,31.3,17.6,46.7,26.7c1.2,0.7,2.4-1.2,1.2-1.8 c-15.1-8.3-30-16.9-45-25.4c-14.6-8.3-29.2-16.6-41.7-28C830.7,481.7,829.8,482.5,830.4,483L830.4,483z" class="st34"/></g><g><path d="M833.6,495.2c5.3,1.8,10.6,3.7,16.1,4.9c1.3,0.3,1.9-1.6,0.6-2c-5.4-1.6-11-2.5-16.5-3.5 C833.4,494.5,833.2,495.1,833.6,495.2L833.6,495.2z" class="st34"/></g><g><path d="M853.4,510.9c3.6,0.5,7.2,1,10.8,1.5c3.5,0.5,7.2,1.3,10.8,1c0.7-0.1,1-1,0.2-1.3c-3.3-1-6.9-1.1-10.3-1.4 c-3.8-0.4-7.7-0.7-11.5-1.1C852.6,509.5,852.6,510.8,853.4,510.9L853.4,510.9z" class="st34"/></g><g><path d="M879.2,525.8c3.2-0.3,6.2-0.8,9.4-0.6c2.6,0.2,5.2,1.2,7.8,1c0.7-0.1,0.7-1,0.2-1.3 c-2.2-1.7-6.2-1.8-8.9-1.7c-3.1,0.1-6.1,0.5-8.8,1.9C878.5,525.3,878.8,525.9,879.2,525.8L879.2,525.8z" class="st34"/></g><g><path d="M845.9,483.2c1.4,3.2,2.6,6.5,3.4,9.9c0.7,2.6,0.8,5.4,2,7.8c0.2,0.3,0.6,0.2,0.7-0.1c0.3-3-1-6.3-1.9-9.2 c-0.9-3-2-5.9-3.3-8.8C846.6,482.1,845.6,482.6,845.9,483.2L845.9,483.2z" class="st34"/></g><g><path d="M862.6,495.9c2.5,4.2,4.6,9.2,7.7,13c0.2,0.3,0.6,0,0.5-0.3c-1.9-4.5-5.4-8.7-8-12.8 C862.7,495.7,862.5,495.8,862.6,495.9L862.6,495.9z" class="st34"/></g><g><path d="M880.1,506.4c1.3,2.5,2.7,5,3.9,7.6c1,2.2,1.7,4.8,3.6,6.5c0.3,0.3,0.8,0,0.8-0.4c-0.3-2.5-2.1-4.5-3.3-6.7 c-1.4-2.5-2.7-5-4-7.5C880.8,505.3,879.8,505.8,880.1,506.4L880.1,506.4z" class="st34"/></g><g><path d="M929.9,435.3c-2.3-3-6.7-4.9-10.2-3.1c-3.1,1.6-4.3,5.4-5,8.8c-6.3,31,4.9,66.7,14.8,96.7l3,1.4 c2.9-31,5.7-62.3,1-93.1C933,442.3,932.3,438.4,929.9,435.3z" class="st0"/></g><g><path d="M930.1,527.9c-3.7-27.7-4.8-55.5-5.9-83.4c0-0.9-1.5-1-1.4-0.1c1.8,27.8,2.2,56,6.9,83.5 C929.7,528.3,930.1,528.2,930.1,527.9L930.1,527.9z" class="st34"/></g><g><path d="M917,453.1c1,2,2.1,4.1,3.1,6.1c0.9,1.8,1.6,3.7,3,5.2c0.4,0.4,1,0,0.9-0.5c-0.4-2-1.6-3.7-2.5-5.4 c-1.1-2-2.1-4-3.2-6C917.8,451.6,916.6,452.2,917,453.1L917,453.1z" class="st34"/></g><g><path d="M917.6,468.8c1.7,4.2,3.2,9.3,5.7,13.1c0.2,0.3,0.6,0.2,0.6-0.2c-0.4-4.6-3.3-9.4-5.7-13.2 C918,468.1,917.5,468.4,917.6,468.8L917.6,468.8z" class="st34"/></g><g><path d="M919.5,488.2c0.2,2.5,1.5,5,2.3,7.4c0.7,2.1,1.3,4.4,2.4,6.4c0.2,0.3,0.6,0.1,0.6-0.2 c-0.3-2.5-1.4-5-2.1-7.5c-0.7-2.2-1.1-4.5-2.3-6.4C920.1,487.4,919.5,487.7,919.5,488.2L919.5,488.2z" class="st34"/></g><g><path d="M931.4,463.4c-2,2.2-3.5,4.7-4.7,7.4c-0.9,2-2.4,5.1-1.9,7.3c0.1,0.4,0.6,0.5,0.9,0.2 c1.3-1.8,1.5-4.7,2.4-6.8c1-2.6,2.4-5.2,3.9-7.6C932.1,463.6,931.6,463.1,931.4,463.4L931.4,463.4z" class="st34"/></g><g><path d="M933,485.7c-1,2.7-1.7,5.5-2.5,8.3c-0.7,2.5-1.7,5.1-1.8,7.6c0,0.5,0.8,0.8,1,0.3c1.2-2.4,1.5-5.4,2.1-8 c0.6-2.7,1.2-5.4,1.6-8.1C933.5,485.5,933.1,485.5,933,485.7L933,485.7z" class="st34"/></g></g><g class="st33"><path d="M1049.5,481.3c-3.9-9-7.8-18-13.4-26.1c-1.8-2.6-4.7-5.4-7.8-4.6c-2.8,0.8-4,4.2-4.3,7.1 c-1.5,13.8,5,27.2,12.9,38.7c8.8,12.8,19.5,24.3,31.7,33.9l2.3,0.8C1063.7,514.4,1056.7,498.2,1049.5,481.3z" class="st0"/><g><path d="M1066.9,527.1c-18.3-18.1-31-43.1-36.8-68.1c-0.2-0.9-1.6-0.4-1.3,0.5c3.1,12.8,7.9,25.1,14.3,36.6 C1049.5,507.8,1057.7,517.6,1066.9,527.1C1066.9,527.2,1067,527.2,1066.9,527.1L1066.9,527.1z" class="st34"/></g><g><path d="M1025.4,469.8c2.3,2.9,5.2,5.3,8.6,6.6c0.5,0.2,0.9-0.6,0.4-0.8c-3.3-1.5-6.1-3.5-8.3-6.3 C1025.8,468.9,1025.1,469.3,1025.4,469.8L1025.4,469.8z" class="st34"/></g><g><path d="M1030.7,482c2.1,3.1,5.3,7.1,8.9,8.7c0.2,0.1,0.4-0.2,0.2-0.4c-1.3-1.4-3-2.4-4.5-3.7 C1033.7,485.1,1032.2,483.5,1030.7,482C1030.7,481.8,1030.6,481.9,1030.7,482L1030.7,482z" class="st34"/></g><g><path d="M1039.2,497.2c1.8,2.2,4.2,3.8,6.7,5.1c0.4,0.2,0.6-0.4,0.3-0.6c-2.5-1.2-4.6-2.9-6.7-4.7 C1039.3,496.9,1039.1,497.1,1039.2,497.2L1039.2,497.2z" class="st34"/></g><g><path d="M1036.8,467.5c-0.1,4.4-0.1,8.2-1.3,12.4c-0.2,0.8,1,1,1.2,0.2c1.2-3.9,1.9-8.8,0.8-12.8 C1037.4,467,1036.8,467.2,1036.8,467.5L1036.8,467.5z" class="st34"/></g><g><path d="M1042,478.4c1.1,4.4,1.4,8.8,0.5,13.3c-0.1,0.6,0.9,0.8,1,0.2c0.8-4.6,0.5-9.2-1.2-13.6 C1042.2,478.1,1041.9,478.2,1042,478.4L1042,478.4z" class="st34"/></g><g><path d="M1049.3,491.3c1.4,5.3,2.5,9.9,1.9,15.5c-0.1,0.9,1.3,1.2,1.4,0.3c0.5-5.3,0-11.4-2.7-16.1 C1049.7,490.6,1049.2,490.9,1049.3,491.3L1049.3,491.3z" class="st34"/></g><path d="M1062.5,525.7c-11-8.8-22.1-17.6-33.1-26.4c-3.9-3.1-7.8-6.2-12.4-8.2s-9.9-2.8-14.5-1.1 c-0.7,0.2-1.3,0.5-1.8,1.1c-1.5,1.6-0.8,4.2,0.2,6.1c7.8,15.4,24.5,24,40.7,30.1c9.6,3.6,20.1,6.7,30.1,4.4 C1071.7,531.6,1066,528.5,1062.5,525.7z" class="st0"/><g><path d="M1004.6,494.8c7.8,7.3,16.8,12.9,26,18.1c10.2,5.8,20.5,11.6,30.6,17.5c0.8,0.5,1.6-0.8,0.8-1.2 c-9.9-5.4-19.7-11.1-29.5-16.6c-9.6-5.4-19.1-10.9-27.3-18.4C1004.8,493.9,1004.2,494.4,1004.6,494.8L1004.6,494.8z" class="st34"/></g><g><path d="M1006.7,502.7c3.5,1.2,7,2.4,10.6,3.2c0.8,0.2,1.3-1.1,0.4-1.3c-3.5-1-7.2-1.6-10.8-2.3 C1006.6,502.3,1006.4,502.7,1006.7,502.7L1006.7,502.7z" class="st34"/></g><g><path d="M1019.7,513c2.4,0.3,4.7,0.6,7.1,1c2.3,0.3,4.7,0.9,7.1,0.7c0.5,0,0.6-0.7,0.1-0.8 c-2.2-0.7-4.5-0.7-6.7-0.9c-2.5-0.2-5-0.5-7.5-0.7C1019.2,512.1,1019.2,512.9,1019.7,513L1019.7,513z" class="st34"/></g><g><path d="M1036.6,522.8c2.1-0.2,4.1-0.5,6.2-0.4c1.7,0.1,3.4,0.8,5.1,0.7c0.5,0,0.4-0.6,0.2-0.9 c-1.4-1.1-4.1-1.2-5.8-1.1c-2,0-4,0.4-5.8,1.3C1036.1,522.5,1036.3,522.9,1036.6,522.8L1036.6,522.8z" class="st34"/></g><g><path d="M1014.8,494.9c0.9,2.1,1.7,4.2,2.3,6.5c0.4,1.7,0.5,3.5,1.3,5.1c0.1,0.2,0.4,0.1,0.4-0.1 c0.2-2-0.6-4.1-1.2-6c-0.6-2-1.3-3.9-2.1-5.8C1015.2,494.1,1014.6,494.5,1014.8,494.9L1014.8,494.9z" class="st34"/></g><g><path d="M1025.7,503.2c1.6,2.8,3,6,5.1,8.5c0.1,0.2,0.4,0,0.3-0.2c-1.3-2.9-3.5-5.7-5.2-8.4 C1025.8,503.1,1025.7,503.1,1025.7,503.2L1025.7,503.2z" class="st34"/></g><g><path d="M1037.2,510.1c0.9,1.7,1.8,3.3,2.6,5c0.7,1.5,1.1,3.1,2.4,4.3c0.2,0.2,0.5,0,0.5-0.3 c-0.2-1.6-1.3-3-2.2-4.4c-0.9-1.6-1.7-3.3-2.6-4.9C1037.6,509.4,1037,509.7,1037.2,510.1L1037.2,510.1z" class="st34"/></g><g><path d="M1069.8,463.5c-1.5-2-4.4-3.2-6.7-2c-2,1.1-2.8,3.5-3.3,5.8c-4.1,20.3,3.2,43.7,9.7,63.4l2,0.9 c1.9-20.3,3.7-40.8,0.7-61C1071.9,468.1,1071.4,465.5,1069.8,463.5z" class="st0"/></g><g><path d="M1070,524.2c-2.5-18.1-3.2-36.4-3.9-54.7c0-0.6-1-0.6-0.9,0c1.2,18.2,1.5,36.7,4.5,54.8 C1069.7,524.4,1070,524.4,1070,524.2L1070,524.2z" class="st34"/></g><g><path d="M1061.4,475.1c0.7,1.3,1.4,2.7,2,4c0.6,1.2,1.1,2.5,2,3.4c0.2,0.2,0.6,0,0.6-0.3c-0.2-1.3-1-2.4-1.6-3.6 c-0.7-1.3-1.4-2.6-2.1-3.9C1061.9,474.2,1061.1,474.6,1061.4,475.1L1061.4,475.1z" class="st34"/></g><g><path d="M1061.8,485.4c1.1,2.8,2.1,6.1,3.8,8.6c0.1,0.2,0.4,0.1,0.4-0.1c-0.3-3-2.2-6.2-3.8-8.6 C1062,485,1061.7,485.2,1061.8,485.4L1061.8,485.4z" class="st34"/></g><g><path d="M1063,498.2c0.1,1.6,1,3.3,1.5,4.9c0.5,1.4,0.8,2.9,1.6,4.2c0.1,0.2,0.4,0.1,0.4-0.1 c-0.2-1.7-0.9-3.3-1.4-4.9c-0.4-1.4-0.7-2.9-1.5-4.2C1063.4,497.6,1063,497.8,1063,498.2L1063,498.2z" class="st34"/></g><g><path d="M1070.8,481.9c-1.3,1.5-2.3,3.1-3.1,4.8c-0.6,1.3-1.6,3.3-1.2,4.8c0.1,0.3,0.4,0.3,0.6,0.1 c0.9-1.2,1-3.1,1.6-4.5c0.7-1.7,1.6-3.4,2.5-5C1071.3,482,1071,481.7,1070.8,481.9L1070.8,481.9z" class="st34"/></g><g><path d="M1071.8,496.5c-0.6,1.8-1.1,3.6-1.6,5.4c-0.4,1.6-1.1,3.3-1.2,5c0,0.3,0.5,0.6,0.7,0.2 c0.8-1.6,1-3.5,1.4-5.3c0.4-1.8,0.8-3.5,1.1-5.3C1072.2,496.4,1071.9,496.4,1071.8,496.5L1071.8,496.5z" class="st34"/></g></g><g class="st33"><path d="M1011.8,551.2c5.9-13.7,11.8-27.5,20.4-39.8c2.8-4,7.1-8.3,11.9-7c4.3,1.2,6.1,6.4,6.6,10.9 c2.3,21.1-7.6,41.5-19.6,59c-13.4,19.5-29.8,37.1-48.4,51.8l-3.5,1.3C990.1,601.7,1000.8,576.9,1011.8,551.2z" class="st0"/><g><path d="M985.2,621.1c28-27.7,47.4-65.8,56.3-104c0.3-1.4,2.4-0.6,2.1,0.7c-4.7,19.5-12,38.3-21.8,55.9 C1011.8,591.6,999.3,606.6,985.2,621.1C985.2,621.3,985.2,621.2,985.2,621.1L985.2,621.1z" class="st2"/></g><g><path d="M1048.6,533.6c-3.5,4.5-7.9,8-13.2,10.1c-0.8,0.3-1.4-0.9-0.6-1.2c5-2.2,9.3-5.4,12.7-9.6 C1048,532.2,1049.1,532.9,1048.6,533.6L1048.6,533.6z" class="st2"/></g><g><path d="M1040.6,552.2c-3.2,4.8-8.1,10.8-13.5,13.2c-0.4,0.2-0.6-0.3-0.3-0.5c2-2.1,4.6-3.7,6.8-5.6 c2.5-2.2,4.7-4.7,6.8-7.2C1040.5,551.9,1040.7,552.1,1040.6,552.2L1040.6,552.2z" class="st2"/></g><g><path d="M1027.5,575.4c-2.7,3.3-6.3,5.8-10.1,7.8c-0.5,0.3-0.9-0.6-0.4-0.8c3.9-1.8,7.1-4.4,10.2-7.2 C1027.3,575,1027.6,575.2,1027.5,575.4L1027.5,575.4z" class="st2"/></g><g><path d="M1031.2,530.2c0.2,6.6,0.2,12.5,2,19c0.3,1.2-1.5,1.5-1.8,0.3c-1.8-6-2.8-13.4-1.3-19.5 C1030.3,529.3,1031.2,529.6,1031.2,530.2L1031.2,530.2z" class="st2"/></g><g><path d="M1023.3,546.8c-1.7,6.7-2.2,13.5-0.8,20.3c0.2,0.9-1.3,1.2-1.5,0.3c-1.2-7.1-0.8-14.1,1.8-20.8 C1023,546.3,1023.4,546.5,1023.3,546.8L1023.3,546.8z" class="st2"/></g><g><path d="M1012.1,566.4c-2.1,8.1-3.8,15.2-2.9,23.7c0.1,1.4-2,1.8-2.1,0.4c-0.8-8.1,0.1-17.4,4.1-24.6 C1011.5,565.3,1012.3,565.9,1012.1,566.4L1012.1,566.4z" class="st2"/></g><path d="M992,618.9c16.8-13.4,33.7-26.8,50.5-40.2c5.9-4.7,12-9.5,18.9-12.6c7-3.1,15.1-4.3,22.2-1.6 c1,0.4,2,0.8,2.7,1.6c2.3,2.4,1.2,6.4-0.3,9.3c-11.9,23.5-37.4,36.6-62.1,45.9c-14.7,5.5-30.7,10.3-46,6.7 C978,628,986.6,623.2,992,618.9z" class="st0"/><g><path d="M1080.3,571.8c-11.8,11.2-25.6,19.7-39.7,27.7c-15.6,8.9-31.3,17.6-46.7,26.7c-1.2,0.7-2.4-1.2-1.2-1.8 c15.1-8.3,30-16.9,45-25.4c14.6-8.3,29.2-16.6,41.7-28C1080,570.4,1080.9,571.2,1080.3,571.8L1080.3,571.8z" class="st2"/></g><g><path d="M1077.1,583.9c-5.3,1.8-10.6,3.7-16.1,4.9c-1.3,0.3-1.9-1.6-0.6-2c5.4-1.6,11-2.5,16.5-3.5 C1077.3,583.3,1077.5,583.8,1077.1,583.9L1077.1,583.9z" class="st2"/></g><g><path d="M1057.3,599.6c-3.6,0.5-7.2,1-10.8,1.5c-3.5,0.5-7.2,1.3-10.8,1c-0.7-0.1-1-1-0.2-1.3 c3.3-1,6.9-1.1,10.3-1.4c3.8-0.4,7.7-0.7,11.5-1.1C1058.1,598.2,1058.1,599.5,1057.3,599.6L1057.3,599.6z" class="st2"/></g><g><path d="M1031.5,614.5c-3.2-0.3-6.2-0.8-9.4-0.6c-2.6,0.2-5.2,1.2-7.8,1c-0.7-0.1-0.7-1-0.2-1.3 c2.2-1.7,6.2-1.8,8.9-1.7c3.1,0.1,6.1,0.5,8.8,1.9C1032.2,614,1031.9,614.6,1031.5,614.5L1031.5,614.5z" class="st2"/></g><g><path d="M1064.8,571.9c-1.4,3.2-2.6,6.5-3.4,9.9c-0.7,2.6-0.8,5.4-2,7.8c-0.2,0.3-0.6,0.2-0.7-0.1 c-0.3-3,1-6.3,1.9-9.2c0.9-3,2-5.9,3.3-8.8C1064.1,570.8,1065.1,571.3,1064.8,571.9L1064.8,571.9z" class="st2"/></g><g><path d="M1048.1,584.6c-2.5,4.2-4.6,9.2-7.7,13c-0.2,0.3-0.6,0-0.5-0.3c1.9-4.5,5.4-8.7,8-12.8 C1048,584.4,1048.2,584.5,1048.1,584.6L1048.1,584.6z" class="st2"/></g><g><path d="M1030.6,595.1c-1.3,2.5-2.7,5-3.9,7.6c-1,2.2-1.7,4.8-3.6,6.5c-0.3,0.3-0.8,0-0.8-0.4 c0.3-2.5,2.1-4.5,3.3-6.7c1.4-2.5,2.7-5,4-7.5C1029.9,594,1030.9,594.5,1030.6,595.1L1030.6,595.1z" class="st2"/></g><g><path d="M980.8,524c2.3-3,6.7-4.9,10.2-3.1c3.1,1.6,4.3,5.4,5,8.8c6.3,31-4.9,66.7-14.8,96.7l-3,1.4 c-2.9-31-5.7-62.3-1-93.1C977.7,531,978.4,527.1,980.8,524z" class="st0"/></g><g><path d="M980.6,616.6c3.7-27.7,4.8-55.5,5.9-83.4c0-0.9,1.5-1,1.4-0.1c-1.8,27.8-2.2,56-6.9,83.5 C981,617,980.6,616.9,980.6,616.6L980.6,616.6z" class="st2"/></g><g><path d="M993.7,541.8c-1,2-2.1,4.1-3.1,6.1c-0.9,1.8-1.6,3.7-3,5.2c-0.4,0.4-1,0-0.9-0.5c0.4-2,1.6-3.7,2.5-5.4 c1.1-2,2.1-4,3.2-6C992.9,540.3,994.1,541,993.7,541.8L993.7,541.8z" class="st2"/></g><g><path d="M993,557.5c-1.7,4.2-3.2,9.3-5.7,13.1c-0.2,0.3-0.6,0.2-0.6-0.2c0.4-4.6,3.3-9.4,5.7-13.2 C992.7,556.8,993.2,557.1,993,557.5L993,557.5z" class="st2"/></g><g><path d="M991.2,577c-0.2,2.5-1.5,5-2.3,7.4c-0.7,2.1-1.3,4.4-2.4,6.4c-0.2,0.3-0.6,0.1-0.6-0.2 c0.3-2.5,1.4-5,2.1-7.5c0.7-2.2,1.1-4.5,2.3-6.4C990.6,576.1,991.2,576.4,991.2,577L991.2,577z" class="st2"/></g><g><path d="M979.3,552.2c2,2.2,3.5,4.7,4.7,7.4c0.9,2,2.4,5.1,1.9,7.3c-0.1,0.4-0.6,0.5-0.9,0.2 c-1.3-1.8-1.5-4.7-2.4-6.8c-1-2.6-2.4-5.2-3.9-7.6C978.6,552.3,979.1,551.9,979.3,552.2L979.3,552.2z" class="st2"/></g><g><path d="M977.7,574.4c1,2.7,1.7,5.5,2.5,8.3c0.7,2.5,1.7,5.1,1.8,7.6c0,0.5-0.8,0.8-1,0.3c-1.2-2.4-1.5-5.4-2.1-8 c-0.6-2.7-1.2-5.4-1.6-8.1C977.2,574.2,977.6,574.2,977.7,574.4L977.7,574.4z" class="st2"/></g></g><g id="XMLID_210_"><path id="XMLID_221_" d="M1176.3,629.5h-102.6V526.6c0-2.2,1.7-3.9,3.9-3.9h94.7c2.2,0,3.9,1.7,3.9,3.9v102.9H1176.3 z" class="st31"/><path id="XMLID_220_" d="M1176.3,538.1v-11.9c0-2-1.6-3.6-3.6-3.6h-95.4c-2,0-3.6,1.6-3.6,3.6v11.9H1176.3z" class="st10"/><rect id="XMLID_219_" width="73.6" height="31.2" x="1088.5" y="541" class="st10"/><path id="XMLID_218_" d="M1159,578.3h-67.4c-1.7,0-3.1,1.4-3.1,3.1l0,0c0,1.7,1.4,3.1,3.1,3.1h67.4 c1.7,0,3.1-1.4,3.1-3.1l0,0C1162.1,579.7,1160.7,578.3,1159,578.3z" class="st35"/><path id="XMLID_217_" d="M1159.2,591.4h-67.4c-1.7,0-3.1,1.4-3.1,3.1l0,0c0,1.7,1.4,3.1,3.1,3.1h67.4 c1.7,0,3.1-1.4,3.1-3.1l0,0C1162.3,592.8,1160.9,591.4,1159.2,591.4z" class="st35"/><path id="XMLID_216_" d="M1159.5,604.6h-67.4c-1.7,0-3.1,1.4-3.1,3.1l0,0c0,1.7,1.4,3.1,3.1,3.1h67.4 c1.7,0,3.1-1.4,3.1-3.1l0,0C1162.5,606,1161.2,604.6,1159.5,604.6z" class="st35"/><path id="XMLID_215_" d="M1159.7,617.7h-67.4c-1.7,0-3.1,1.4-3.1,3.1l0,0c0,1.7,1.4,3.1,3.1,3.1h67.4 c1.7,0,3.1-1.4,3.1-3.1l0,0C1162.8,619.1,1161.4,617.7,1159.7,617.7z" class="st35"/><circle id="XMLID_214_" cx="1083.7" cy="530.4" r="2.1" class="st31"/><circle id="XMLID_213_" cx="1090.5" cy="530.4" r="2.1" class="st31"/><circle id="XMLID_212_" cx="1097.4" cy="530.4" r="2.1" class="st31"/><path id="XMLID_211_" d="M1172.7,522.7h-4.5c2,0,3.6,1.6,3.6,3.6v103.2h4.5V526.2 C1176.3,524.3,1174.7,522.7,1172.7,522.7z" class="st36"/></g><path d="M900.7,621.2v-68v-16.8l-17.3-16.8H880v32.9v14.2v17.6v33.4c0,4.6,2.7,8.6,6.5,10.6h6.9 C897.5,628.4,900.7,625.2,900.7,621.2z" class="st9"/><path d="M1110.5,617.7v-69v-17.6v-8.4h-31.8h-1.4c-2,0-3.6,1.6-3.6,3.6v1.4v10.5v91.3h26 C1105.7,628.9,1110.5,623.9,1110.5,617.7z" class="st9"/><g id="XMLID_2_"><path id="XMLID_20_" d="M895.1,480.1h78.7c3.8,0,6.8,3.1,6.8,6.8v61.3c0,0-1.9-2.4-3.2-3.8c-1.4-1.4-3-2.5-4.8-3.2 c-1.8-0.8-3.8-1.2-5.8-1.2c-2.1,0-4,0.4-5.8,1.2c-1.8,0.8-3.4,1.9-4.8,3.2c-1.4,1.4-2.5,3-3.2,4.8c-0.8,1.8-1.2,3.8-1.2,5.8 c0,2.1,0.4,4,1.2,5.8c0.8,1.8,1.9,3.4,3.2,4.8c1.4,1.4,3,2.5,4.8,3.2c1.8,0.8,3.8,1.2,5.8,1.2c2.1,0,4-0.4,5.8-1.2 c1.8-0.8,3.4-1.9,4.8-3.2c1.4-1.4,3.2-3.8,3.2-3.8v60.9c0,3.8-3.1,6.8-6.8,6.8h-78.7c-6.5,0-11.8-5.3-11.8-11.8V492 C883.3,485.4,888.6,480.1,895.1,480.1z" class="st10"/><path id="XMLID_3_" d="M1096.1,629.5h-78.2c-3.8,0-6.8-3.1-6.8-6.8v-60.9v-1c-0.8,1.8-1.9,3.4-3.2,4.8 c-1.4,1.4-3,2.5-4.8,3.2c-1.8,0.8-3.8,1.2-5.8,1.2c-2.1,0-4-0.4-5.8-1.2c-1.8-0.8-3.4-1.9-4.8-3.2c-1.4-1.4-2.5-3-3.2-4.8 c-0.8-1.8-1.2-3.8-1.2-5.8c0-2.1,0.4-4,1.2-5.8c0.8-1.8,1.9-3.4,3.2-4.8c1.4-1.4,3-2.5,4.8-3.2c1.8-0.8,3.8-1.2,5.8-1.2 c2.1,0,4,0.4,5.8,1.2c1.8,0.8,3.4,1.9,4.8,3.2c1.4,1.4,2.5,3,3.2,4.8v-1v-61.3c0-3.8,3.1-6.8,6.8-6.8h78.2 c6.5,0,11.8,5.3,11.8,11.8v125.9C1108,624.2,1102.7,629.5,1096.1,629.5z" class="st4"/><g><path d="M980.6,486.9c0-3.8-3.1-6.8-6.8-6.8H970l-86.7,86.7v17.6l97.4-97.4L980.6,486.9L980.6,486.9z" class="st37"/><polygon points="883.3 518 883.3 552.6 955.7 480.1 921.1 480.1" class="st37"/></g><path d="M1108,548.7l-80.8,80.8h-9.2c-2.3,0-4.3-1.1-5.5-2.9l95.5-95.5V548.7z M1108,516.9v-25.1 c0-2.7-0.9-5.1-2.4-7.1l-94.4,94.4v34.6L1108,516.9z" class="st38"/></g><path d="M1176.3,556.5v-18.3v-10.5v-1.4c0-2-1.6-3.6-3.6-3.6h-1.4h-3.2h-6.9l0.1,0.4l1.5,10.6l2.1-0.6l-0.7,1.4 l-15.9,31.5l-0.7,50.4h0.3l-5,3.1l-7.8,2.9c-1.9,1-3.4,2.6-4.2,4.5l-0.4,1.1h-0.7v1.4h30.3V628h-1.5v-10.4h-0.3v-1.2h1l1-37.9 l0.1-2.3l0.1-2.1l14.6-20.8L1176.3,556.5z M1148.8,619.1h-0.5v-2.6h0.5V619.1z" class="st9"/><g><rect width="9.4" height="10.2" x="1151.9" y="611.7" class="st7"/><rect width="9.4" height="10.2" x="1203.7" y="609.5" class="st7" transform="matrix(0.962 -0.273 0.273 0.962 -121.8913 353.2451)"/><polygon points="1168.7 531.7 1151.4 566 1150.8 616.4 1162.3 616.4 1163.5 574.1 1181.2 548.8" class="st17"/><polygon points="1167.3 534.4 1171.7 542.6 1172.5 561.1 1181.2 548.8 1168.7 531.7" class="st39"/><path d="M1168.7,531.7l-0.5,0.9l5.3,10l13.4,31.6c0.9,2.1,2.1,4,3.7,5.6l0,0l12.9,35.8l10.2-1.1l-6.5-27.8 c-1.1-5.1-3-10.1-5.8-14.5c-0.7-1.1-1.2-2.3-1.2-3.3l-4.7-29.3l0.8-3.2c0.7-2.8,0.5-5.8-0.7-8.5l-1.2-2.9L1168.7,531.7z" class="st17"/><path d="M1149.7,485.6l-11.6,17.2c-0.4,0.6-1,0.9-1.6,1l-20.3,2.7c-1,0.1-1.9-0.4-2.3-1.2l-3.6-7.4v-4.8 c0-1.4-1.1-2.5-2.4-2.5l0,0v14.3l3.4,4.9c0.4,0.5,0.9,0.9,1.6,0.9l25,2c1.2,0.1,2.4-0.4,3.2-1.3l21.4-24.2L1149.7,485.6z" class="st7"/><path d="M1149.7,485.6l-11.6,17.2c-0.4,0.6-1,0.9-1.6,1l-20.3,2.7c-1,0.1-1.9-0.4-2.3-1.2l-3.6-7.4v-4.8 c0-1.4-1.1-2.5-2.4-2.5l0,0v14.3l3.4,4.9c0.4,0.5,0.9,0.9,1.6,0.9l25,2c1.2,0.1,2.4-0.4,3.2-1.3l21.4-24.2L1149.7,485.6z" class="st9"/><rect width="9.2" height="9.6" x="1146.1" y="472" class="st7" transform="matrix(0.848 -0.5301 0.5301 0.848 -77.7479 682.4637)"/><polygon points="1154.3 472 1147.2 479.6 1144.3 475.1 1152.2 470.2" class="st9"/><path d="M1140,457.4v3.6l0.6,0.9c0,0-0.5,2.5-3,3.6c0,0-0.5,2.1,2,1.9v4.7c0,1.6,1.3,3,3,3h7.4c2,0,3.8-1.3,4.5-3.2 l3.4-10.1l-1.4-5.8C1156.4,456.1,1144.6,452.1,1140,457.4z" class="st7"/><path d="M1147.6,491.5l2.8-6.8l-1-1.5l9.8-6.5l8,2.9c1.3,0.5,2.3,1.4,2.9,2.5l11,22c0.1,0.2,0.2,0.4,0.3,0.6 l13.9,20.1l-29.4,8.8l-2.2-15.1c-0.2-0.7-0.5-1.4-1-2l-13.9-16.6L1147.6,491.5z" class="st10"/><path d="M1133.6,628l0.4-1.1c0.8-2,2.3-3.6,4.2-4.5l7.8-2.9l5.3-3.3v2.8l6.1-0.1l2.5-1.4h1.7V628H1133.6z" class="st10"/><rect width="30.3" height="1.7" x="1132.9" y="628" class="st2"/><path d="M1191.2,628.6l0.4-1.5c0.9-1.9,0.9-1.9,2.3-3.2l6.4-4.2l4-4.1l0.6,2.5l5.4-1.4l1.9-1.8l1.6-0.4l2.2,9.3 l-21.9,5.3L1191.2,628.6z" class="st10"/><polygon points="1217.6 625.1 1199 629.5 1196.6 628.5 1217.3 623.6" class="st2"/><polygon points="1190.6 629.6 1199 629.7 1199 628.1 1190.6 628.1" class="st2"/><g><path d="M1152.8,449.6c-1.4-0.3-3-0.2-4.3,0.3c-0.9,0.3-1.5,0.9-2.4,1.1c-1,0.2-2.2,0-3.2,0c-0.7,0-1.4,0-2.1,0.2 c-0.7,0.2-1.3,0.6-1.6,1.2c-0.3,0.6-0.2,1.3-0.2,1.9c0.1,1.1,0,2.3,0.6,3.2s1.4,1,2.3,1.3c0.4,0.1,0.8,0.3,1.2,0.5 c1.2,0.9,1.2,2.8,2.4,3.6c0.8,0.6,2,0.5,2.6,1.3c0.5,0.6,0.4,1.5,0.5,2.3c0.2,1,0.9,1.9,1.9,2.3c0.3,0.1,0.5,0.2,0.7,0.4 c0.2,0.2,0.3,0.4,0.3,0.6c0.3,1.3-0.2,2.9,0.6,4c0.6,0.8,1.6,0.8,2.3,1.3c1,0.7,0.7,1.3,0.8,2.4c0,0.9,0,1.8-0.3,2.6 c-0.4,1-1.3,1.7-2.1,2.4c0.8-0.3,1.6-0.7,2.4-0.9c-0.1,1.9-0.3,3.9-0.7,5.8c1.1-0.6,1.8-1.8,2.4-2.9c0.4-0.7,1.1-1.6,1.9-1.5 c0.3,0.6,0.6,1.2,1.1,1.7c0.4-1.2,1-2.4,1.9-3.3c0.5,0.8,1.1,1.5,1.7,2.2c0.6,0.7,1.1,1.6,0.9,2.6c0.2-0.9,0.5-1.9,1-2.7 c2.1,2,4.4,4.1,7.2,4.7c0.2-1.9-1-3.6-1.8-5.2c-0.5-0.9-1.2-2.1-1.2-3.1c0-0.9,0.5-1.7,0.3-2.6c-0.4-1.8-2.8-2.6-3.2-4.4 c-0.2-0.8,0.1-1.6-0.1-2.4c-0.2-0.8-1-1.4-1.5-2.1c-0.7-1-0.8-2.1-1-3.3c-0.2-1-0.7-1.4-1-2.3c-0.8-1.8,1.4-3.9-0.9-5.3 c-0.4-0.2-0.8-0.3-1.1-0.6c-0.4-0.3-0.6-0.8-0.8-1.3c-0.5-1.2-1.1-2.3-1.9-3.4c-0.3-0.4-0.5-0.7-0.9-1c-0.4-0.2-0.8-0.2-1.2-0.4 c-0.7-0.2-1.3-0.6-1.9-0.9C1154,449.9,1153.4,449.7,1152.8,449.6z" class="st18"/></g><path d="M1162.2,490.5c-1.7,0.8-3.4,2.2-2.9,4c-2,0.5-2.4,2.5-4.5,3.7c-0.4,0.2-0.5,0.7-0.3,1.1 c-0.4,0.2-0.8,0.4-1.2,0.6c-0.3,0.1-0.4,0.5-0.3,0.8c-0.7,0.5-1.4,1.1-1.9,1.7l1,1.2c0.7-0.9,1.3-2.3,2.4-2.9 c0.2-0.1,1.3-1.2,1.3-1.5c0.8-0.3,0.8,1,0.9,0.2c0-0.3,0-0.5-0.1-0.6c1.2-1.2,1.9-2.2,3.2-2.2c0.6,0,0.6-0.4,0.2-0.9 c-1.1-1.6,1.6-4.4,2.4-4.8C1163.3,490.4,1163.1,490,1162.2,490.5z" class="st40"/><path d="M1147.6,491.5l-9.5,13.8c-0.4,0.6-1,0.9-1.6,1l-20.3,2.7c-1,0.1-1.9-0.4-2.3-1.2l-3.6-7.4v-4.8 c0-1.4-1.1-2.5-2.4-2.5l0,0v14.3l3.4,4.9c0.4,0.5,0.9,0.9,1.6,0.9l25,2c1.2,0.1,2.4-0.4,3.2-1.3l16.3-17.5L1147.6,491.5z" class="st7"/><path d="M1158.1,510.9c0.1-0.4,0.2-0.9,0.4-1.3c0.2-0.5,0-0.9-0.4-1.1c0-0.8-1.2-0.3-1.1-1.1c0.1-0.4,1.1-2,0.8-2.2 c0.3-0.7-0.4-1-0.2-1.7c0.2-0.5,0.5-1.8,0.6-2.4c0.1-1-0.5-1.1-0.7-0.1c0,0.3-0.1,0.7-0.2,1c0,0.1-0.1,0.2-0.1,0.3 c-0.6,1.6-1.7,2.8-3,3.8l1,1.2c0.1-0.1,0.2-0.2,0.3-0.3c0,0.2-0.1,0.4-0.1,0.6L1158.1,510.9z" class="st40"/><path d="M1168.3,516.2c0.3-0.6-0.2-0.1-0.9,0.1c-0.3,0.1-0.9,0.2-1.5,0.3c-0.9,0.2-1.9-0.2-2.3-1.1l0,0 c0.5-0.2,2.2-1.5,2.8-1.6c1-0.3,1-0.5,0-0.3c-1.7,0.3-3.4,0.8-5.1,1.2l1.5,1.7c0.4,0.5,0.7,1,0.9,1.6c0.1,0,0.1,0,0.2-0.1 c0,0.1-0.1,0.1-0.1,0.2c0,0.1,0.1,0.2,0.1,0.2l0.6,4.5c0.2-0.1,0.3-0.2,0.4-0.5c0.2-0.8,0.5-1.6,0.7-2.4c0.1-0.5-0.2-0.8-0.5-0.9 C1165.8,518,1167.5,517.6,1168.3,516.2z" class="st40"/><path d="M1193.5,543.4c1.8,0.4,2.6,2,3.1,3.8l-1-6.1c-0.1,0-0.1,0-0.2,0s0.1-0.6,0-1c0,0,0,0,0.1,0l-0.1-0.4l0.5-2 c-1.1,1-2.7,1.6-4.1,2.4c-0.3,0.2-0.4,0.4-0.4,0.6c-0.6,0.2-1.2,0.4-1.8,0.7c-0.8,0.3,1,0.8,2,0.8c1.1-0.1,0.4,0.7,1.4,0.6 C1193,543.1,1193.2,543.4,1193.5,543.4z" class="st39"/><path d="M1202.4,574c-0.2,0-0.3-0.3-0.2-0.4c-0.3-0.5-0.5-0.9-0.8-1.4c0,0,0,0,0-0.1c-0.3-0.2-0.6-0.7-0.5-0.8 c-0.3-0.5-0.5-1-0.6-1.5c-0.1,0-0.2,0-0.3,0l0.1-0.1c0.1,0,0.1-0.1,0.1-0.1c-0.1-0.2-0.1-0.5-0.1-0.7l-0.4-2.3 c-0.3,0.7-0.8,1.4-1.5,2c-0.2,0.1-0.3,0.3-0.4,0.5c-1,0.6-2,1.2-3,1.7c-0.9,0.5,1,0.5,1.9,0.1c0.6-0.3,0.1,0.8,0.6,0.6 c0,0.3,0.2,0.6,0.5,0.7c0.5,0.2,1.1,0.4,1.6,0.7c-0.6,0.2-0.4,1.3-1,1.6c-0.7,0.4-1.1,0.8-0.3,0.7c1.2-0.1,2.9-0.2,4,0.2 c0.4,0.2,0.8,0.3,1.1,0.4C1203.1,575.4,1202.8,574.7,1202.4,574z" class="st39"/><path d="M1161.3,571.6c-0.8,0.3-0.7,1.5,0.2,1.5c-1.3,0.6-2.7,1.3-4,2c-0.8,0.4,0.9,0.3,1.7,0c1.3-0.4,2,0.2,3.1,0.9 c-0.5,0-1.1,0.1-1.6,0.1c-1,0.1-1,1.5,0,1.6c0.5,0.1,1.2,0,1.7,0.2c1.2,0.3,0.3,0.1,0.8,0.5l0,0l0.1-3.7c-0.1-0.2-0.3-0.4-0.6-0.5 c0.2-0.1,0.5-0.2,0.7-0.3l3-4.2c-0.1,0-0.3,0.1-0.4,0.2C1164.9,571.2,1162.9,571.1,1161.3,571.6z" class="st39"/><path d="M1177.2,505.9c2.3-1.7,1.5,0.1,2.3-0.3c-0.1,0.2-1.3,1.5-1.4,1.7c-0.3,0.6,1.3,0.3,1.9,0.1 c0.1,0,0.1,0,0.2,0c-0.1,0.1,0,0.7-0.1,0.8c-0.7,0.6-0.1,0.9,0.6,0.8c1.6-0.2,2.6-0.2,4.1,0.5l-2.7-3.9c-0.2,0-0.5-0.4-0.4-0.6 l-0.1-0.2c-0.1-0.2-0.2-0.4-0.3-0.6l-0.5-0.9c-0.3,0.1-0.4-0.3-0.3-0.6l-2.3-4.6c-0.2,0.2-0.2,0.5-0.1,0.8 c0.8,1.4,1.3,2.4,0.5,3.9c-0.6,1.1-1.6,2.2-2.5,3.1C1175.5,506.5,1176.4,506.5,1177.2,505.9z" class="st40"/><circle cx="1155.6" cy="623.6" r="2" class="st15"/><circle cx="1210.9" cy="621.6" r="2" class="st15"/></g><g><path d="M930.4,449.6c-1.3,0-2.4-1.1-2.4-2.4c0-1.3,1.1-2.4,2.4-2.4c1.3,0,2.4,1.1,2.4,2.4 C932.8,448.5,931.7,449.6,930.4,449.6z M930.4,446c-0.6,0-1.1,0.5-1.1,1.1s0.5,1.1,1.1,1.1c0.6,0,1.1-0.5,1.1-1.1 S931,446,930.4,446z" class="st7"/></g><g><path d="M927.9,387.7c-1.3,0-2.4-1.1-2.4-2.4c0-1.3,1.1-2.4,2.4-2.4c1.3,0,2.4,1.1,2.4,2.4 C930.4,386.6,929.3,387.7,927.9,387.7z M927.9,384.1c-0.6,0-1.1,0.5-1.1,1.1s0.5,1.1,1.1,1.1c0.6,0,1.1-0.5,1.1-1.1 C929.1,384.6,928.6,384.1,927.9,384.1z" class="st17"/></g><g><path d="M1125.8,436.8c-1.3,0-2.3-1-2.3-2.3c0-1.3,1-2.3,2.3-2.3c1.3,0,2.3,1,2.3,2.3 C1128.1,435.8,1127,436.8,1125.8,436.8z M1125.8,433.4c-0.6,0-1.1,0.5-1.1,1.1c0,0.6,0.5,1.1,1.1,1.1c0.6,0,1.1-0.5,1.1-1.1 C1126.8,433.9,1126.4,433.4,1125.8,433.4z" class="st17"/></g><g><path d="M1066.2,454.3c-1,0-1.8-0.8-1.8-1.8s0.8-1.8,1.8-1.8s1.8,0.8,1.8,1.8S1067.2,454.3,1066.2,454.3z M1066.2,451.6c-0.5,0-0.8,0.4-0.8,0.8c0,0.5,0.4,0.8,0.8,0.8c0.5,0,0.8-0.4,0.8-0.8C1067,452,1066.7,451.6,1066.2,451.6z" class="st7"/></g><g><path d="M991.8,432.8c-1,0-1.8-0.8-1.8-1.8s0.8-1.8,1.8-1.8s1.8,0.8,1.8,1.8S992.8,432.8,991.8,432.8z M991.8,430.1 c-0.5,0-0.8,0.4-0.8,0.8c0,0.5,0.4,0.8,0.8,0.8c0.5,0,0.8-0.4,0.8-0.8C992.6,430.5,992.2,430.1,991.8,430.1z" class="st17"/></g><g><path d="M889.9,422c-1,0-1.8-0.8-1.8-1.8s0.8-1.8,1.8-1.8s1.8,0.8,1.8,1.8S890.9,422,889.9,422z M889.9,419.4 c-0.5,0-0.8,0.4-0.8,0.8c0,0.5,0.4,0.8,0.8,0.8c0.5,0,0.8-0.4,0.8-0.8S890.4,419.4,889.9,419.4z" class="st23"/></g><g><path d="M1020.3,386.4c-1,0-1.8-0.8-1.8-1.8s0.8-1.8,1.8-1.8s1.8,0.8,1.8,1.8S1021.3,386.4,1020.3,386.4z M1020.3,383.7c-0.5,0-0.8,0.4-0.8,0.8c0,0.5,0.4,0.8,0.8,0.8c0.5,0,0.8-0.4,0.8-0.8C1021.1,384.1,1020.8,383.7,1020.3,383.7z" class="st17"/></g><path d="M891.7,471.3h-1.1v-1.1c0-0.4-0.3-0.6-0.6-0.6c-0.4,0-0.6,0.3-0.6,0.6v1.1h-1.1c-0.4,0-0.6,0.3-0.6,0.6 c0,0.4,0.3,0.6,0.6,0.6h1.1v1.1c0,0.4,0.3,0.6,0.6,0.6c0.4,0,0.6-0.3,0.6-0.6v-1.1h1.1c0.4,0,0.6-0.3,0.6-0.6 C892.3,471.6,892,471.3,891.7,471.3z" class="st17"/><path d="M1113.2,464.5h-0.8v-0.8c0-0.2-0.2-0.4-0.4-0.4s-0.4,0.2-0.4,0.4v0.8h-0.8c-0.2,0-0.4,0.2-0.4,0.4 c0,0.2,0.2,0.4,0.4,0.4h0.8v0.8c0,0.2,0.2,0.4,0.4,0.4s0.4-0.2,0.4-0.4v-0.8h0.8c0.2,0,0.4-0.2,0.4-0.4 C1113.6,464.7,1113.4,464.5,1113.2,464.5z" class="st17"/><path d="M1038,439.3h-1.7v-1.6c0-0.5-0.4-0.9-0.9-0.9s-0.9,0.4-0.9,0.9v1.6h-1.6c-0.5,0-0.9,0.4-0.9,0.9 s0.4,0.9,0.9,0.9h1.6v1.6c0,0.5,0.4,0.9,0.9,0.9s0.9-0.4,0.9-0.9v-1.6h1.6c0.5,0,0.9-0.4,0.9-0.9S1038.5,439.3,1038,439.3z" class="st23"/><path d="M831.5,450.7h-1.6v-1.6c0-0.5-0.4-0.9-0.9-0.9s-0.9,0.4-0.9,0.9v1.6h-1.6c-0.5,0-0.9,0.4-0.9,0.9 s0.4,0.9,0.9,0.9h1.6v1.6c0,0.5,0.4,0.9,0.9,0.9s0.9-0.4,0.9-0.9v-1.6h1.6c0.5,0,0.9-0.4,0.9-0.9S832,450.7,831.5,450.7z" class="st0"/><path d="M1003.4,479h-1.6v-1.6c0-0.5-0.4-0.9-0.9-0.9s-0.9,0.4-0.9,0.9v1.6h-1.7c-0.5,0-0.9,0.4-0.9,0.9 s0.4,0.9,0.9,0.9h1.6v1.6c0,0.5,0.4,0.9,0.9,0.9s0.9-0.4,0.9-0.9v-1.6h1.6c0.5,0,0.9-0.4,0.9-0.9 C1004.3,479.4,1003.9,479,1003.4,479z" class="st26"/><path d="M963.3,463.3l-0.8,0.8l-0.8-0.8c-0.2-0.2-0.7-0.2-0.9,0c-0.2,0.2-0.2,0.7,0,0.9l0.8,0.8l-0.8,0.8 c-0.2,0.2-0.2,0.7,0,0.9c0.2,0.2,0.7,0.2,0.9,0l0.8-0.8l0.8,0.8c0.2,0.2,0.7,0.2,0.9,0c0.2-0.2,0.2-0.7,0-0.9l-0.8-0.8l0.8-0.8 c0.2-0.2,0.2-0.7,0-0.9C963.9,463,963.5,463,963.3,463.3z" class="st34"/><path d="M984.7,399.2l-1.3,1.3l-1.3-1.3c-0.4-0.4-1-0.4-1.4,0c-0.4,0.4-0.4,1,0,1.4l1.3,1.3l-1.3,1.3 c-0.4,0.4-0.4,1,0,1.4c0.4,0.4,1,0.4,1.4,0l1.3-1.3l1.3,1.3c0.4,0.4,1,0.4,1.4,0s0.4-1,0-1.4l-1.3-1.3l1.3-1.3c0.4-0.4,0.4-1,0-1.4 S985.1,398.8,984.7,399.2z" class="st7"/><path d="M1163.6,434.1l-1.3,1.3l-1.3-1.3c-0.4-0.4-1-0.4-1.4,0s-0.4,1,0,1.4l1.3,1.3l-1.3,1.3c-0.4,0.4-0.4,1,0,1.4 c0.4,0.4,1,0.4,1.4,0l1.3-1.3l1.3,1.3c0.4,0.4,1,0.4,1.4,0c0.4-0.4,0.4-1,0-1.4l-1.3-1.3l1.3-1.3c0.4-0.4,0.4-1,0-1.4 C1164.7,433.7,1164,433.7,1163.6,434.1z" class="st10"/><path d="M1089.3,408.2l-0.8,0.8l-0.8-0.8c-0.2-0.2-0.7-0.2-0.9,0c-0.2,0.2-0.2,0.7,0,0.9l0.8,0.8l-0.8,0.8 c-0.2,0.2-0.2,0.7,0,0.9c0.2,0.2,0.7,0.2,0.9,0l0.8-0.8l0.8,0.8c0.2,0.2,0.7,0.2,0.9,0c0.2-0.2,0.2-0.7,0-0.9l-0.8-0.8l0.8-0.8 c0.2-0.2,0.2-0.7,0-0.9C1089.9,407.9,1089.5,407.9,1089.3,408.2z" class="st34"/><path d="M861.4,429.8l-0.5,0.5l-0.6-0.5c-0.2-0.2-0.4-0.2-0.6,0c-0.2,0.2-0.2,0.4,0,0.6l0.5,0.5l-0.5,0.5 c-0.2,0.2-0.2,0.4,0,0.6c0.2,0.2,0.4,0.2,0.6,0l0.5-0.5l0.5,0.5c0.2,0.2,0.4,0.2,0.6,0c0.2-0.2,0.2-0.4,0-0.6l-0.4-0.4l0.5-0.5 c0.2-0.2,0.2-0.4,0-0.6C861.9,429.6,861.6,429.6,861.4,429.8z" class="st34"/><circle cx="943.5" cy="415.5" r="1.3" class="st10"/><circle cx="1016.1" cy="467.9" r="1" class="st17"/><circle cx="977.8" cy="384.6" r=".7" class="st17"/><circle cx="1054" cy="401.2" r=".7" class="st17"/><circle cx="897.6" cy="392.4" r="1" class="st17"/><line x1="707.7" x2="1256.7" y1="629.7" y2="629.7" class="st41"/></g><image style="overflow:visible" width="1174" height="962" transform="matrix(0.3528 0 0 0.3528 18.0525 0)" xlink:href="Illustration-background.jpg"/></svg>