<?xml version="1.0" encoding="utf-8"?>
<!-- Generator: Adobe Illustrator 21.1.0, SVG Export Plug-In . SVG Version: 6.00 Build 0)  -->
<svg version="1.1" id="Layer_1" xmlns="http://www.w3.org/2000/svg" xmlns:xlink="http://www.w3.org/1999/xlink" x="0px" y="0px"
	 viewBox="0 0 155.6 59.2" style="enable-background:new 0 0 155.6 59.2;" xml:space="preserve">
<style type="text/css">
	.st0{fill:#377DFF;}
</style>
<g>
	<path class="st0" d="M15.1,17.5h8.5l3.3,19.3l4.4-19.3h8.6l4.3,19.1l3.3-19.1H56L49,45.7h-9.6l-3.9-17.3l-4,17.3h-9.6L15.1,17.5z"
		/>
	<path class="st0" d="M67.1,45.7h-7.8V23.3h7.8v4c1.7-2.4,4.2-4.2,7.2-4.2v8.4h-2.2c-3.2,0-5,1-5,4.5V45.7z"/>
	<path class="st0" d="M76.5,17.2c0-2.3,1.8-4.1,4.6-4.1c2.8,0,4.6,1.8,4.6,4.1c0,2.2-1.8,4-4.6,4C78.3,21.2,76.5,19.5,76.5,17.2z
		 M77.2,23.3H85v22.4h-7.8V23.3z"/>
	<path class="st0" d="M90.7,29.8h-2.8v-6.5h2.8v-5.4h7.9v5.4h4.1v6.5h-4.1v7.5c0,1.2,0.5,1.7,1.8,1.7h2.3v6.7h-3.4
		c-5,0-8.6-2.1-8.6-8.5V29.8z"/>
	<path class="st0" d="M116.4,46c-6.6,0-11.4-4.4-11.4-11.5c0-7.1,4.7-11.5,11.4-11.5c6.6,0,11.3,4.3,11.3,11.2c0,0.6,0,1.2-0.1,1.8
		h-14.8c0.2,2.6,1.6,3.6,3.3,3.6c1.5,0,2.4-0.8,2.8-1.8h8.4C126.2,42.6,122,46,116.4,46z M112.8,32.3h6.9c0-2-1.6-3.1-3.4-3.1
		C114.5,29.2,113.2,30.3,112.8,32.3z"/>
	<path class="st0" d="M137.2,46c-2.8,0-4.6-1.8-4.6-4c0-2.3,1.8-4.1,4.6-4.1c2.8,0,4.6,1.8,4.6,4.1C141.7,44.3,139.9,46,137.2,46z
		 M132.9,16.1h8.5l-0.9,19.1h-6.7L132.9,16.1z"/>
</g>
</svg>
