<svg xmlns="http://www.w3.org/2000/svg" xmlns:xlink="http://www.w3.org/1999/xlink" id="Layer_1" x="0" y="0" version="1.1" viewBox="0 0 98.9 103.2" xml:space="preserve" style="enable-background:new 0 0 98.9 103.2"><style type="text/css">.st0{fill:#fff}</style><g><path d="M-0.2,42.1h6.6L9,57.3l3.5-15.1h6.7l3.4,15l2.6-15h6.6l-5.4,22.1h-7.6l-3-13.5l-3.1,13.5H5.2L-0.2,42.1z" class="st0"/><path d="M40.6,64.3h-6.1V46.7h6.1v3.1c1.3-1.9,3.3-3.3,5.7-3.3v6.6h-1.7c-2.5,0-4,0.8-4,3.5V64.3z" class="st0"/><path d="M48,41.9c0-1.8,1.4-3.2,3.6-3.2c2.2,0,3.6,1.4,3.6,3.2c0,1.8-1.4,3.1-3.6,3.1C49.4,45,48,43.7,48,41.9z M48.5,46.7h6.1v17.6h-6.1V46.7z" class="st0"/><path d="M59.1,51.8h-2.2v-5.1h2.2v-4.3h6.2v4.3h3.2v5.1h-3.2v5.9c0,0.9,0.4,1.3,1.4,1.3h1.8v5.2h-2.7 c-3.9,0-6.7-1.6-6.7-6.7V51.8z" class="st0"/><path d="M79.3,64.5c-5.2,0-8.9-3.4-8.9-9c0-5.6,3.7-9,8.9-9c5.2,0,8.9,3.4,8.9,8.8c0,0.5,0,1-0.1,1.4H76.4 c0.1,2,1.2,2.9,2.6,2.9c1.2,0,1.8-0.7,2.2-1.4h6.6C86.9,61.8,83.6,64.5,79.3,64.5z M76.4,53.7h5.4c0-1.6-1.2-2.4-2.6-2.4 C77.7,51.3,76.7,52.1,76.4,53.7z" class="st0"/><path d="M95.5,64.5c-2.2,0-3.6-1.4-3.6-3.2s1.4-3.2,3.6-3.2c2.2,0,3.6,1.4,3.6,3.2S97.7,64.5,95.5,64.5z M92.2,41h6.7 l-0.7,15h-5.2L92.2,41z" class="st0"/></g></svg>